%FSTAX23Y23*%
%MOIN*%
%SFA1B1*%

%IPPOS*%
%ADD44C,0.010000*%
%ADD78C,0.006000*%
G54D44*
X54142Y6122D02*
Y61346D01*
X42922Y6122D02*
Y61346D01*
X48697Y61336D02*
X54142D01*
X42922D02*
X48335D01*
X54082Y61356D02*
X54142Y61336D01*
X54082Y61316D02*
X54142Y61336D01*
X42922D02*
X42982Y61316D01*
X42922Y61336D02*
X42982Y61356D01*
X54348Y57448D02*
Y58964D01*
Y59695D02*
Y61211D01*
X54328Y57508D02*
X54348Y57448D01*
X54368Y57508*
X54328Y61151D02*
X54348Y61211D01*
X54368Y61151*
X54151Y57448D02*
X54545D01*
X54151Y61211D02*
X54545D01*
G54D78*
X48391Y613D02*
X48351D01*
X48391Y6134*
Y6135*
X48381Y6136*
X48361*
X48351Y6135*
X48411D02*
X48421Y6136D01*
X48441*
X48451Y6135*
Y6134*
X48441Y6133*
X48451Y6132*
Y6131*
X48441Y613*
X48421*
X48411Y6131*
Y6132*
X48421Y6133*
X48411Y6134*
Y6135*
X48421Y6133D02*
X48441D01*
X48511Y6136D02*
X48471D01*
Y6133*
X48491Y6134*
X48501*
X48511Y6133*
Y6131*
X48501Y613*
X48481*
X48471Y6131*
X48531Y613D02*
Y6131D01*
X48541*
Y613*
X48531*
X48581Y6135D02*
X48591Y6136D01*
X48611*
X48621Y6135*
Y6131*
X48611Y613*
X48591*
X48581Y6131*
Y6135*
X48641D02*
X48651Y6136D01*
X48671*
X48681Y6135*
Y6131*
X48671Y613*
X48651*
X48641Y6131*
Y6135*
X54334Y58974D02*
X54324Y58984D01*
Y59004*
X54334Y59014*
X54344*
X54354Y59004*
Y58994*
Y59004*
X54364Y59014*
X54374*
X54384Y59004*
Y58984*
X54374Y58974*
X54324Y59034D02*
Y59074D01*
X54334*
X54374Y59034*
X54384*
X54324Y59134D02*
X54334Y59114D01*
X54354Y59094*
X54374*
X54384Y59104*
Y59124*
X54374Y59134*
X54364*
X54354Y59124*
Y59094*
X54334Y59154D02*
X54324Y59164D01*
Y59184*
X54334Y59194*
X54344*
X54354Y59184*
Y59174*
Y59184*
X54364Y59194*
X54374*
X54384Y59184*
Y59164*
X54374Y59154*
X54384Y59214D02*
X54374D01*
Y59224*
X54384*
Y59214*
X54324Y59264D02*
Y59304D01*
X54334*
X54374Y59264*
X54384*
X54334Y59323D02*
X54324Y59333D01*
Y59353*
X54334Y59363*
X54344*
X54354Y59353*
X54364Y59363*
X54374*
X54384Y59353*
Y59333*
X54374Y59323*
X54364*
X54354Y59333*
X54344Y59323*
X54334*
X54354Y59333D02*
Y59353D01*
X54384Y59463D02*
X54364Y59443D01*
X54344*
X54324Y59463*
X54384Y59493D02*
X54344D01*
Y59503*
X54354Y59513*
X54384*
X54354*
X54344Y59523*
X54354Y59533*
X54384*
Y59553D02*
Y59573D01*
Y59563*
X54344*
Y59553*
X54384Y59603D02*
Y59623D01*
Y59613*
X54324*
Y59603*
X54384Y59653D02*
X54364Y59673D01*
X54344*
X54324Y59653*
M02*