%FSTAX23Y23*%
%MOIN*%
%SFA1B1*%

%IPPOS*%
%ADD10R,0.055000X0.043000*%
%ADD11R,0.043000X0.055000*%
%ADD32R,0.045000X0.055000*%
%ADD33O,0.015000X0.059000*%
%ADD34R,0.015000X0.059000*%
%ADD35R,0.059000X0.015000*%
%ADD36R,0.020000X0.063000*%
%ADD37O,0.020000X0.063000*%
%ADD38R,0.079000X0.098000*%
%ADD39R,0.020000X0.091000*%
%ADD40R,0.051000X0.039000*%
%ADD41R,0.051000X0.061000*%
%ADD42R,0.039000X0.051000*%
G54D10*
X46093Y57954D03*
Y57895D03*
X46499Y57675D03*
Y57734D03*
G54D11*
X5339Y5806D03*
X5333D03*
X43063Y60421D03*
X43004D03*
X43221Y60168D03*
X4328D03*
X43173Y59432D03*
X43114D03*
X43112Y58714D03*
X43171D03*
X43172Y58064D03*
X43112D03*
X4434Y60576D03*
X44399D03*
X4422Y60168D03*
X44161D03*
X44348Y59432D03*
X44407D03*
X43936Y58297D03*
X43877D03*
X44039Y58032D03*
X44098D03*
X44903Y6057D03*
X44844D03*
X44914Y60168D03*
X44973D03*
X4516Y59432D03*
X45101D03*
X44714Y58714D03*
X44773D03*
X45626Y57936D03*
X45567D03*
X45315Y60945D03*
X45374D03*
X45728Y60168D03*
X45669D03*
X45855Y59432D03*
X45914D03*
X45523Y58714D03*
X45464D03*
X4607Y60945D03*
X46129D03*
X4648Y60168D03*
X46421D03*
X46608Y59432D03*
X46667D03*
X4628Y58714D03*
X46221D03*
X46822Y60945D03*
X46881D03*
X47236Y60168D03*
X47177D03*
X47362Y59446D03*
X47421D03*
X47032Y58714D03*
X46973D03*
X47589Y58064D03*
X47648D03*
X4764Y60945D03*
X4758D03*
X47931Y60168D03*
X4799D03*
X48217Y59495D03*
X48158D03*
X47727Y58714D03*
X47786D03*
X48391Y60945D03*
X48332D03*
X48687Y60168D03*
X48746D03*
X48931Y59432D03*
X48872D03*
X48481Y58714D03*
X4854D03*
X49146Y60945D03*
X49087D03*
X49444Y60168D03*
X49503D03*
X49692Y59432D03*
X49633D03*
X49235Y58714D03*
X49294D03*
X49895Y60945D03*
X49836D03*
X50191Y60168D03*
X5025D03*
X50439Y59432D03*
X5038D03*
X49986Y58714D03*
X50045D03*
X53561Y60519D03*
X53501D03*
X50591Y60945D03*
X5065D03*
X51006Y60168D03*
X50947D03*
X51133Y59432D03*
X51192D03*
X50802Y58714D03*
X50743D03*
X50526Y5809D03*
X50586D03*
X51404Y60945D03*
X51345D03*
X51701Y60168D03*
X5176D03*
X51949Y59432D03*
X5189D03*
X515Y58714D03*
X51559D03*
X51535Y58062D03*
X51475D03*
X52102Y60945D03*
X52161D03*
X52516Y60168D03*
X52456D03*
X52647Y59432D03*
X52706D03*
X52309Y58684D03*
X5225D03*
X52409Y58062D03*
X52469D03*
X53222Y60524D03*
X53162D03*
X53285Y59858D03*
X53345D03*
X53574Y59435D03*
X53515D03*
X53224Y58299D03*
X53283D03*
X43331Y6042D03*
X43272D03*
X47042Y57607D03*
X47101D03*
X47263Y57741D03*
X47204D03*
X47257Y58011D03*
X47197D03*
G54D32*
X47266Y57834D03*
X47202D03*
X47266Y57922D03*
X47202D03*
G54D33*
X46642Y58084D03*
G54D34*
X46674Y58084D03*
X46705D03*
X46737D03*
X46768D03*
X468D03*
X46831D03*
X46863D03*
X46894D03*
X46926D03*
X46957D03*
Y57666D03*
X46926D03*
X46894D03*
X46863D03*
X46831D03*
X468D03*
X46768D03*
X46737D03*
X46705D03*
X46674D03*
X46642D03*
G54D35*
X47009Y58033D03*
Y58001D03*
Y5797D03*
Y57938D03*
Y57907D03*
Y57875D03*
Y57844D03*
Y57812D03*
Y57781D03*
Y57749D03*
Y57718D03*
X46591D03*
Y57749D03*
Y57781D03*
Y57812D03*
Y57844D03*
Y57875D03*
Y57907D03*
Y57938D03*
Y5797D03*
Y58001D03*
Y58033D03*
G54D36*
X49052Y58042D03*
G54D37*
X49102Y58042D03*
X49152D03*
X49202D03*
X49052Y57825D03*
X49102D03*
X49152D03*
X49202D03*
G54D38*
X43816Y61155D03*
X43462D03*
Y60938D03*
X43816D03*
G54D39*
X43576Y60935D03*
X43608D03*
X43639D03*
X4367D03*
X43702D03*
G54D40*
X53929Y58072D03*
Y58009D03*
X53328Y58821D03*
Y58758D03*
X43793Y59511D03*
Y59574D03*
X52726Y61081D03*
Y61018D03*
X52988Y5807D03*
Y58007D03*
X52952Y58832D03*
Y58769D03*
X53075Y59577D03*
Y59514D03*
X52942Y60324D03*
Y60261D03*
X52593Y61081D03*
Y61018D03*
X52151Y5807D03*
Y58007D03*
X51987Y58825D03*
Y58762D03*
X52378Y59574D03*
Y59511D03*
X52188Y60324D03*
Y60261D03*
X51836Y6108D03*
Y61017D03*
X51216Y58069D03*
Y58006D03*
X51231Y58825D03*
Y58762D03*
X51627Y59575D03*
Y59512D03*
X51436Y60327D03*
Y60264D03*
X51082Y61081D03*
Y61018D03*
X54009Y61071D03*
Y61008D03*
X50477Y58823D03*
Y5876D03*
X50873Y59574D03*
Y59511D03*
X50679Y60327D03*
Y60264D03*
X50328Y6108D03*
Y61017D03*
X49724Y58825D03*
Y58762D03*
X50117Y59574D03*
Y59511D03*
X49927Y60324D03*
Y60261D03*
X49577Y61081D03*
Y61018D03*
X4897Y58823D03*
Y5876D03*
X49363Y59574D03*
Y59511D03*
X49173Y60327D03*
Y60264D03*
X48822Y6108D03*
Y61017D03*
X48217Y58821D03*
Y58758D03*
X48611Y59574D03*
Y59511D03*
X48423Y60329D03*
Y60266D03*
X48071Y61082D03*
Y61019D03*
X48746Y57647D03*
Y57584D03*
X47491Y58851D03*
Y58788D03*
X47818Y59574D03*
Y59511D03*
X47666Y60325D03*
Y60262D03*
X47314Y61081D03*
Y61018D03*
X46708Y58823D03*
Y5876D03*
X471Y59572D03*
Y59509D03*
X46914Y60329D03*
Y60266D03*
X46559Y61081D03*
Y61018D03*
X45957Y58823D03*
Y5876D03*
X46348Y59574D03*
Y59511D03*
X46159Y60327D03*
Y60264D03*
X45807Y6108D03*
Y61017D03*
X44974Y58071D03*
Y58008D03*
X45202Y58824D03*
Y58761D03*
X45592Y59571D03*
Y59508D03*
X45405Y60327D03*
Y60264D03*
X45051Y61082D03*
Y61019D03*
X4484Y5807D03*
Y58007D03*
X44451Y58825D03*
Y58762D03*
X4484Y59575D03*
Y59512D03*
X44652Y60329D03*
Y60266D03*
X44297Y6108D03*
Y61017D03*
X43704Y58009D03*
Y58072D03*
X43569Y58859D03*
Y58922D03*
X43711Y60263D03*
Y60326D03*
X4306Y61017D03*
Y6108D03*
X43717Y6072D03*
Y60657D03*
X43646Y6072D03*
Y60657D03*
X532Y59779D03*
Y59716D03*
G54D41*
X44163Y59214D03*
Y59527D03*
X43986D03*
Y59214D03*
G54D42*
X53849Y60278D03*
X53787D03*
X46127Y5767D03*
X46065D03*
X44483Y59702D03*
X44421D03*
X49357Y58041D03*
X49419D03*
M02*