%FSTAX23Y23*%
%MOIN*%
%SFA1B1*%

%IPPOS*%
%AMD24*
4,1,8,0.099000,0.098500,-0.099000,0.098500,-0.197000,0.000500,-0.197000,-0.000500,-0.099000,-0.098500,0.099000,-0.098500,0.197000,-0.000500,0.197000,0.000500,0.099000,0.098500,0.0*
1,1,0.196000,0.099000,0.000500*
1,1,0.196000,-0.099000,0.000500*
1,1,0.196000,-0.099000,-0.000500*
1,1,0.196000,0.099000,-0.000500*
%
%ADD10R,0.055000X0.043000*%
%ADD11R,0.043000X0.055000*%
%ADD12C,0.001000*%
%ADD13C,0.014000*%
%ADD14C,0.015000*%
%ADD15C,0.012000*%
%ADD16C,0.004000*%
%ADD17C,0.004000*%
%ADD18R,0.080000X0.080000*%
%ADD19C,0.080000*%
%ADD20C,0.059000*%
%ADD21C,0.098000*%
%ADD22C,0.008000*%
%ADD23C,0.039000*%
G04~CAMADD=24~8~0.0~0.0~3940.0~1970.0~980.0~0.0~15~0.0~0.0~0.0~0.0~0~0.0~0.0~0.0~0.0~0~0.0~0.0~0.0~0.0~3940.0~1970.0*
%ADD24D24*%
%ADD25C,0.276000*%
%ADD26C,0.276000*%
%ADD27C,0.005000*%
%ADD28C,0.060000*%
%ADD29C,0.039000*%
%ADD30C,0.024000*%
%ADD31C,0.024000*%
G36*
X5337Y58443D02*
Y5844D01*
X53362Y58437*
X53352Y58428*
X53343Y58417*
X53337Y58405*
X53333Y58392*
X53331Y58379*
X53333Y58365*
X53337Y58352*
X53343Y5834*
X53352Y5833*
X53362Y58321*
X53374Y58315*
X53387Y58311*
X53401Y58309*
X53415Y58311*
X53428Y58315*
X5344Y58321*
X5345Y5833*
X53459Y5834*
X53465Y58352*
X53469Y58365*
X53471Y58379*
X53469Y58392*
X53465Y58405*
X53459Y58417*
X5345Y58428*
X53445Y58432*
X53447Y58437*
X53569*
X53576*
X53582Y5844*
X53587Y58444*
X53592Y58443*
X53593Y5844*
X53602Y5843*
X53612Y58421*
X53623Y58415*
X53618Y58405*
X53614Y58392*
X53612Y58379*
X53614Y58365*
X53616Y58357*
X53615Y58353*
X53614Y58351*
X53595Y58353*
X53576Y58351*
X53557Y58346*
X5354Y58337*
X53525Y58324*
X53513Y58309*
X53504Y58292*
X53498Y58274*
X53496Y58254*
X53498Y58235*
X53504Y58216*
X53513Y58199*
X53525Y58184*
X5354Y58172*
X53547Y58168*
X53545Y58164*
X52705*
X52704Y58168*
X5271Y58172*
X52725Y58184*
X52737Y58199*
X52747Y58216*
X52752Y58235*
X52754Y58254*
X52752Y58274*
X52747Y58292*
X52737Y58309*
X52725Y58324*
X5271Y58337*
X52709Y5834*
X52713Y58347*
X52776*
X52861Y58262*
X52867Y58257*
X52874Y58255*
X52881Y58254*
X53209*
X53216Y58255*
X53223Y58257*
X53229Y58262*
X53299Y58332*
X53304Y58338*
X53306Y58345*
X53307Y58352*
Y58417*
X53315Y58421*
X53325Y58429*
X53334Y5844*
X53338Y58447*
X53367*
X5337Y58443*
G37*
G36*
X46994Y5823D02*
X46993Y58227D01*
X46992Y58219*
X46993Y5821*
X46996Y58202*
X46997*
Y58197*
X46993Y58194*
X46989*
X46981Y58193*
X46973Y5819*
X46966Y58185*
X46961Y58178*
X46958Y5817*
X46957Y58162*
X46958Y58154*
X46961Y58146*
Y58023*
X46956Y58021*
X46954Y58024*
X46947Y58029*
X46939Y58033*
X46931Y58034*
X46923Y58033*
X46919Y58035*
X46824*
Y58024*
X46822*
X46808*
Y58153*
X46822Y58166*
X46823*
X46826Y58167*
X46827*
X46831Y58165*
X46832Y58159*
X46835Y58151*
X4684Y58144*
X46847Y58139*
X46855Y58136*
X46863Y58135*
X46871Y58136*
X46879Y58139*
X46886Y58144*
X46891Y58151*
X46894Y58159*
Y5816*
X46969Y58235*
X46991*
X46994Y5823*
G37*
G36*
X44685Y58203D02*
X44682Y582D01*
X44662*
X44655Y58199*
X44649Y58196*
X44643Y58192*
X44604Y58153*
X44426*
X44419Y58152*
X44413Y58149*
X44411Y58148*
X44408Y58151*
X4446Y58203*
X44461Y58204*
X44469Y58207*
X4447Y58208*
X44682*
X44685Y58203*
G37*
G36*
X50105Y58447D02*
X50093Y58443D01*
X50081Y58437*
X50071Y58428*
X50062Y58417*
X50056Y58405*
X50052Y58392*
X5005Y58379*
X50052Y58365*
X50056Y58352*
X50062Y5834*
X50064Y58339*
X50061Y58334*
X49737*
X49735Y58339*
X49749Y58352*
X49757Y58349*
X49765Y58347*
X49773Y58349*
X49781Y58352*
X49788Y58357*
X49793Y58364*
X49796Y58371*
X49797Y5838*
X49796Y58388*
X49793Y58396*
X4979Y584*
X49792Y58405*
X4986*
X49861Y58404*
X49869Y58401*
X49877Y58399*
X49885Y58401*
X49893Y58404*
X499Y58409*
X49905Y58416*
X49908Y58423*
X49909Y58432*
X49908Y5844*
X49905Y58447*
X49908Y58452*
X50104*
X50105Y58447*
G37*
G36*
X46355D02*
X46343Y58443D01*
X46331Y58437*
X46321Y58428*
X46312Y58417*
X46306Y58405*
X46302Y58392*
X463Y58379*
X46302Y58365*
X46306Y58352*
X46312Y5834*
X46315Y58337*
X46313Y58332*
X46049*
X46021Y5836*
Y58361*
X46018Y58369*
X46013Y58376*
X46006Y58381*
X45998Y58384*
X4599Y58385*
X45982Y58384*
X45974Y58381*
X45967Y58376*
X45962Y58369*
X45959Y58361*
X45958Y58353*
X45959Y58345*
X45962Y58337*
X45967Y5833*
X45974Y58325*
X45982Y58322*
X45983*
X46019Y58285*
X46024Y58281*
X46027Y5828*
X46031Y58278*
X46038*
X46416*
X46535Y58158*
X46533Y58154*
X46527Y58153*
X46519Y5815*
X46512Y58145*
X46507Y58138*
X46504Y5813*
X46503Y58122*
X46504Y58113*
X46507Y58106*
X46512Y58099*
X46519Y58094*
X46527Y58091*
X46528Y5809*
Y57977*
X46523Y57975*
X46519Y57981*
X46512Y57986*
X46504Y57989*
X46503Y5799*
X46492Y58001*
X46486Y58005*
X46479Y58008*
X46472Y58009*
X4606*
X45773Y58296*
X45768Y583*
X45761Y58303*
X45754Y58304*
X4574*
X45738Y58309*
X45844Y58414*
X45856Y58411*
X4587Y58409*
X45884Y58411*
X45897Y58415*
X45909Y58421*
X45919Y5843*
X45928Y5844*
X45934Y58452*
X46354*
X46355Y58447*
G37*
G36*
X47855D02*
X47843Y58443D01*
X47831Y58437*
X47821Y58428*
X47812Y58417*
X47806Y58405*
X47802Y58392*
X478Y58379*
X47802Y58365*
X47806Y58352*
X47812Y5834*
X47821Y5833*
X47824Y58327*
X47823Y58322*
X47167*
X47166Y58327*
X47169Y5833*
X47178Y5834*
X47184Y58352*
X47188Y58365*
X4719Y58379*
X47188Y58392*
X47184Y58405*
X47178Y58417*
X47171Y58426*
X47173Y58431*
X47265*
X47272*
X47279Y58434*
X47285Y58438*
X47298Y58452*
X47306*
X47312Y5844*
X47321Y5843*
X47331Y58421*
X47343Y58415*
X47356Y58411*
X4737Y58409*
X47384Y58411*
X47397Y58415*
X47409Y58421*
X47419Y5843*
X47428Y5844*
X47434Y58452*
X47854*
X47855Y58447*
G37*
G36*
X46923Y5845D02*
X46929Y58445D01*
X46937Y58442*
X46946Y58441*
X46954Y58442*
X46962Y58445*
X46963Y58446*
X47088*
X47089Y58441*
X47081Y58437*
X47071Y58428*
X47062Y58417*
X47056Y58405*
X47052Y58392*
X4705Y58379*
X47052Y58365*
X47056Y58352*
X47062Y5834*
X47071Y5833*
X47074Y58327*
X47073Y58322*
X46941*
X46934Y58321*
X46927Y58318*
X46921Y58314*
X46868Y5826*
X46866*
X46859Y58257*
X46852Y58252*
X46847Y58245*
X46844Y58237*
X46842Y58229*
X46844Y58221*
Y5822*
X46839Y58218*
X46838Y5822*
X46831Y58225*
X46823Y58229*
X46815Y5823*
X46806Y58229*
X46799Y58225*
X46792Y5822*
X46787Y58214*
X46784Y58206*
X46783Y58205*
X46762Y58183*
X46758Y58178*
X46755Y58171*
X46754Y58164*
Y58024*
X46749*
Y58191*
X4677Y58212*
X46775Y58218*
X46777Y58225*
X46778Y58232*
X46777Y58239*
X46775Y58246*
X4677Y58251*
X46765Y58256*
X46758Y58258*
X46751Y58259*
X46744Y58258*
X46737Y58256*
X46731Y58251*
X46702Y58222*
X46697Y58216*
X46695Y58209*
X46694Y58202*
Y58014*
X4669*
Y58005*
X46684*
X46681Y58008*
X46675Y58013*
X46668Y58015*
X46661Y58016*
X46654Y58015*
X46649Y58013*
X46645Y58016*
Y58286*
X46644Y58293*
X46641Y583*
X46637Y58305*
X46588Y58354*
Y58355*
X46585Y58363*
X4658Y5837*
X46573Y58375*
X46565Y58378*
X46557Y58379*
X46548Y58378*
X46541Y58375*
X46534Y5837*
X46529Y58363*
X46526Y58355*
X46525Y58347*
X46526Y58339*
X46529Y58331*
X46534Y58324*
X46541Y58319*
X46548Y58316*
X4655*
X46591Y58275*
Y58186*
X46586Y58184*
X46446Y58324*
X4644Y58328*
X46434Y58331*
X46427Y58332*
X46425Y58336*
X46428Y5834*
X46434Y58352*
X46438Y58365*
X4644Y58379*
X46438Y58392*
X46434Y58405*
X46428Y58417*
X46419Y58428*
X46418Y58429*
X4642Y58434*
X46526*
X46533*
X4654Y58437*
X46546Y58441*
X46553Y58449*
X46558Y58448*
X46562Y5844*
X46571Y5843*
X46581Y58421*
X46593Y58415*
X46606Y58411*
X4662Y58409*
X46634Y58411*
X46647Y58415*
X46659Y58421*
X46669Y5843*
X46678Y5844*
X46684Y58452*
X46922*
X46923Y5845*
G37*
G36*
X47843Y5808D02*
X47834Y58072D01*
X47825Y58061*
X47819Y58049*
X47815Y58036*
X47813Y58023*
X47815Y58009*
X47819Y57996*
X47825Y57984*
X47834Y57974*
X47842Y57967*
X47841Y57962*
X4769*
X47682Y57972*
X47672Y57981*
X47665Y57984*
X47666Y57989*
X47681*
X47688Y5799*
X47694Y57993*
X477Y57997*
X47745Y58042*
X47746*
X47754Y58045*
X47761Y58051*
X47766Y58057*
X47769Y58065*
X4777Y58073*
X47769Y58081*
X47773Y58085*
X47842*
X47843Y5808*
G37*
G36*
X54058Y61187D02*
X54073Y61183D01*
X54086Y61176*
X54098Y61166*
X54107Y61155*
X54114Y61142*
X54118Y61127*
X5412Y61113*
Y61112*
Y6111*
Y59079*
X54051*
X54032Y59078*
X54014Y59073*
X53997Y59066*
X53981Y59057*
X53967Y59044*
X53954Y5903*
X53945Y59014*
X53938Y58997*
X53933Y58979*
X53932Y5896*
X53933Y58942*
X53938Y58924*
X53945Y58906*
X53954Y58891*
X53967Y58876*
X53981Y58864*
X53997Y58855*
X54014Y58847*
X54032Y58843*
X54051Y58842*
X5412*
Y57542*
Y57541*
X54119Y57528*
X54115Y57514*
X54108Y57501*
X54099Y5749*
X54088Y57481*
X54075Y57474*
X54061Y5747*
X54047Y57469*
X54046*
X50852*
X50848Y57471*
X5084Y57473*
X50831Y57471*
X50827Y57469*
X50815*
X50814Y57474*
X50825Y5748*
X50838Y5749*
X50848Y57502*
X50855Y57516*
X5086Y57531*
X50861Y57547*
X5086Y5756*
X50864Y57563*
X50873Y57561*
X50887Y57559*
X50901Y57561*
X50914Y57565*
X50926Y57571*
X50936Y5758*
X50945Y5759*
X50951Y57602*
X50955Y57615*
X50956Y57629*
Y57636*
X5096Y57638*
X511Y57498*
X51106Y57494*
X51112Y57491*
X51119Y5749*
X53006*
X53013Y57491*
X53019Y57494*
X53025Y57498*
X5313Y57603*
X53131Y57604*
X53139Y57607*
X53146Y57612*
X53151Y57619*
X53154Y57626*
X53155Y57635*
X53154Y57643*
X53151Y57651*
X53146Y57658*
X53139Y57663*
X53131Y57666*
X53123Y57667*
X53115Y57666*
X53107Y57663*
X531Y57658*
X53095Y57651*
X53092Y57643*
Y57642*
X52994Y57545*
X51131*
X51019Y57656*
X51022Y5766*
X51033Y57659*
X51046Y57661*
X51059Y57665*
X51071Y57671*
X51082Y5768*
X51087*
X51088*
X51098Y57671*
X5111Y57665*
X51123Y57661*
X51137Y57659*
X51151Y57661*
X51164Y57665*
X51176Y57671*
X51186Y5768*
X51193Y57688*
X51577*
X51579Y57683*
X51573Y57678*
X51564Y57667*
X51558Y57655*
X51554Y57642*
X51553Y57629*
X51554Y57615*
X51558Y57602*
X51564Y5759*
X51573Y5758*
X51584Y57571*
X51596Y57565*
X51609Y57561*
X51622Y57559*
X51636Y57561*
X51649Y57565*
X51661Y57571*
X51669Y57578*
X51677Y57571*
X51689Y57565*
X51702Y57561*
X51716Y57559*
X51729Y57561*
X51742Y57565*
X51754Y57571*
X51762Y57578*
X51771Y57571*
X51783Y57565*
X51796Y57561*
X51809Y57559*
X51823Y57561*
X51836Y57565*
X51848Y57571*
X51858Y5758*
X51867Y5759*
X51873Y57602*
X51877Y57615*
X51879Y57629*
X51877Y57642*
X51873Y57655*
X51883Y5766*
X51886Y57661*
X51899Y57665*
X51911Y57671*
X51919Y57678*
X51927Y57671*
X51939Y57665*
X51952Y57661*
X51966Y57659*
X51979Y57661*
X51992Y57665*
X52004Y57671*
X52012Y57678*
X52021Y57671*
X52033Y57665*
X52046Y57661*
X52059Y57659*
X52073Y57661*
X52086Y57665*
X52098Y57671*
X52108Y5768*
X52115Y57688*
X52511*
X52513Y57683*
X52507Y57678*
X52498Y57667*
X52492Y57655*
X52488Y57642*
X52487Y57629*
X52488Y57615*
X52492Y57602*
X52498Y5759*
X52507Y5758*
X52518Y57571*
X5253Y57565*
X52543Y57561*
X52556Y57559*
X5257Y57561*
X52583Y57565*
X52595Y57571*
X52603Y57578*
X52611Y57571*
X52623Y57565*
X52636Y57561*
X5265Y57559*
X52663Y57561*
X52676Y57565*
X52688Y57571*
X52699Y5758*
X52708Y5759*
X52714Y57602*
X52718Y57615*
X52719Y57629*
X52718Y57642*
X52714Y57655*
X52708Y57667*
X52699Y57678*
X52693Y57683*
X52695Y57688*
X52751*
X52757Y5768*
X52768Y57671*
X5278Y57665*
X52793Y57661*
X52806Y57659*
X5282Y57661*
X52833Y57665*
X52845Y57671*
X52853Y57678*
X52861Y57671*
X52873Y57665*
X52886Y57661*
X529Y57659*
X52913Y57661*
X52926Y57665*
X52938Y57671*
X52949Y5768*
X52955Y57688*
X5343*
X53432Y57683*
X53426Y57678*
X53417Y57667*
X53411Y57655*
X53407Y57642*
X53405Y57629*
X53407Y57615*
X53411Y57602*
X53417Y5759*
X53426Y5758*
X53436Y57571*
X53448Y57565*
X53461Y57561*
X53475Y57559*
X53489Y57561*
X53502Y57565*
X53514Y57571*
X53524Y5758*
X53525*
X5353*
X5354Y57571*
X53552Y57565*
X53565Y57561*
X53579Y57559*
X53593Y57561*
X53606Y57565*
X53618Y57571*
X53628Y5758*
X53637Y5759*
X53643Y57602*
X53647Y57615*
X53649Y57629*
X53647Y57642*
X53643Y57655*
X53637Y57667*
X53628Y57678*
X53622Y57683*
X53624Y57688*
X53669*
X53676Y5768*
X53686Y57671*
X53698Y57665*
X53711Y57661*
X53725Y57659*
X53739Y57661*
X53752Y57665*
X53764Y57671*
X53774Y5768*
X53775*
X5378*
X5379Y57671*
X53802Y57665*
X53815Y57661*
X53829Y57659*
X53843Y57661*
X53856Y57665*
X53868Y57671*
X53878Y5768*
X53887Y5769*
X53893Y57702*
X53897Y57715*
X53899Y57729*
X53897Y57742*
X53893Y57755*
X53887Y57767*
X53884Y57771*
X53886Y57776*
X53893Y57777*
X53906Y57782*
X53917Y57791*
X53926Y57802*
X53931Y57815*
X53933Y57829*
X53931Y57843*
X53926Y57856*
X53917Y57867*
X53906Y57875*
X53893Y57881*
X53879Y57883*
X53865Y57881*
X53852Y57875*
X53841Y57867*
X53832Y57856*
X53829Y57849*
X53824*
X53822Y57856*
X53813Y57867*
X53802Y57875*
X53789Y57881*
X53775Y57883*
X53763Y57881*
X53761Y57884*
X53749Y57899*
X53734Y57911*
X53717Y5792*
X53698Y57926*
X53679Y57928*
X5366Y57926*
X53641Y5792*
X53627Y57912*
X53613Y5792*
X53594Y57926*
X53575Y57928*
X53569Y57927*
X53567Y57931*
X5362Y57985*
Y58029*
X53624*
X53625*
Y58034*
X53629*
X53668*
Y58039*
X53664Y58049*
X53657Y58057*
X5365Y58062*
X53652Y58067*
X5369*
X53693Y58063*
X53686Y58054*
X53681Y58042*
X53679Y58029*
X53681Y58016*
X53686Y58004*
X53694Y57993*
X53704Y57985*
X53716Y57981*
X53729Y57979*
X53742Y57981*
X53754Y57985*
X53764Y57993*
X53772Y58004*
X53777Y58016*
X53779Y58029*
X53777Y58042*
X53772Y58054*
X53765Y58063*
X53768Y58067*
X53795*
X53802Y58068*
X53808Y58071*
X53814Y58075*
X53835Y58096*
X53836*
X53844Y58099*
X5385Y58105*
X53855Y58111*
X53859Y58119*
X5386Y58127*
X53859Y58136*
X53855Y58144*
X5385Y5815*
X53844Y58155*
X53836Y58159*
X53828Y5816*
X53819Y58159*
X53811Y58155*
X53805Y5815*
X538Y58144*
X53796Y58136*
Y58135*
X53783Y58122*
X53754*
X53752Y58126*
X53962Y58336*
X53967Y58342*
X53969Y58348*
X5397Y58355*
Y58421*
X53971*
X53981Y5843*
X5399Y5844*
X53996Y58452*
X54Y58465*
X54002Y58479*
X54Y58492*
X53996Y58505*
X5399Y58517*
X53987Y58521*
X53989Y58526*
X53996Y58527*
X54009Y58532*
X5402Y58541*
X54029Y58552*
X54034Y58565*
X54036Y58579*
X54034Y58593*
X54029Y58606*
X5402Y58617*
X54009Y58625*
X53996Y58631*
X53982Y58633*
X53968Y58631*
X53955Y58625*
X53944Y58617*
X53935Y58606*
X5393Y58593*
X53928Y58579*
X5393Y58565*
X53935Y58552*
X53932Y58548*
X53918Y58547*
X53905Y58543*
X53893Y58537*
X53883Y58528*
X53874Y58517*
X53868Y58505*
X53864Y58492*
X53862Y58479*
X53864Y58465*
X53868Y58452*
X53874Y5844*
X53883Y5843*
X53893Y58421*
X53905Y58415*
X53916Y58411*
Y58367*
X53713Y58164*
X53645*
X53644Y58168*
X5365Y58172*
X53665Y58184*
X53677Y58199*
X53687Y58216*
X53692Y58235*
X53694Y58254*
X53692Y58274*
X53687Y58292*
X53681Y58302*
X53682Y58309*
X53696Y58311*
X53709Y58315*
X53721Y58321*
X53731Y5833*
X5374Y5834*
X53746Y58352*
X5375Y58365*
X53752Y58379*
X5375Y58392*
X53746Y58405*
X5374Y58417*
X53731Y58428*
X53721Y58437*
X5371Y58442*
X53715Y58452*
X53719Y58465*
X53721Y58479*
X53719Y58492*
X53717Y58498*
X53722Y58501*
X53727Y58497*
X53744Y58487*
X53763Y58482*
X53782Y5848*
X53801Y58482*
X5382Y58487*
X53837Y58497*
X53852Y58509*
X53864Y58524*
X53873Y58541*
X53879Y58559*
X53881Y58579*
X53879Y58598*
X53873Y58617*
X53864Y58634*
X53852Y58649*
X53837Y58661*
X5382Y5867*
X53801Y58676*
X53782Y58678*
X53763Y58676*
X53744Y5867*
X53727Y58661*
X53712Y58649*
X537Y58634*
X53699Y58632*
X53687Y58631*
X53674Y58625*
X53663Y58617*
X53654Y58606*
X53649Y58593*
X53647Y58579*
X53649Y58565*
X53654Y58552*
X53651Y58548*
X53637Y58547*
X53629Y58544*
X53626Y58549*
X53629Y58552*
X53634Y58565*
X53636Y58579*
X53634Y58593*
X53629Y58606*
X5362Y58617*
X53609Y58625*
X53596Y58631*
X53584Y58632*
X53583Y58634*
X53571Y58649*
X53556Y58661*
X53539Y5867*
X53537Y58671*
Y58676*
X53657*
X53664Y58677*
X5367Y58679*
X53676Y58684*
X53727Y58735*
Y58774*
X53688*
X53645Y58731*
X53578*
X53576Y58736*
X53586Y58743*
X53594Y58754*
X53599Y58766*
X536Y58774*
X53611Y58775*
X53626Y5878*
X5364Y58787*
X53652Y58797*
X53662Y5881*
X53669Y58823*
X53674Y58839*
X53676Y58854*
X53674Y5887*
X53669Y58885*
X53662Y58899*
X53652Y58911*
X5364Y58921*
X53636Y58923*
X53637Y58928*
X5365*
X53785Y58794*
X53784Y58792*
X53782Y58779*
X53784Y58766*
X53789Y58754*
X53797Y58743*
X53807Y58735*
X53819Y5873*
X53832Y58729*
X53845Y5873*
X53857Y58735*
X53867Y58743*
X53875Y58754*
X5388Y58766*
X53882Y58779*
X5388Y58792*
X53875Y58804*
X53867Y58814*
X53857Y58822*
X53845Y58827*
X53832Y58829*
X53825Y58828*
X53745Y58907*
X53748Y58911*
X53765Y58906*
X53784Y58904*
X53803Y58906*
X53822Y58912*
X53839Y58921*
X53854Y58933*
X53866Y58948*
X53876Y58965*
X53881Y58984*
X53883Y59003*
X53881Y59023*
X53876Y59041*
X53866Y59058*
X53854Y59073*
X53839Y59086*
X53822Y59095*
X53803Y591*
X53784Y59102*
X53765Y591*
X53746Y59095*
X53729Y59086*
X53714Y59073*
X53702Y59058*
X53693Y59041*
X53687Y59023*
X53685Y59003*
X53687Y58984*
X53692Y58967*
X53688Y58965*
X53684Y58969*
X53679Y58975*
X53674Y58979*
X53667Y58982*
X5366Y58983*
X53501*
X53494Y58982*
X53487Y58979*
X53482Y58975*
X53388Y58881*
X53267*
X53266Y58885*
X53398Y59017*
X53399Y59018*
X53407Y59021*
X53413Y59026*
X53418Y59033*
X53422Y5904*
X53423Y59049*
X53422Y59057*
X53418Y59065*
X53413Y59072*
X53407Y59077*
X53399Y5908*
X53391Y59081*
X53382Y5908*
X53374Y59077*
X53368Y59072*
X53363Y59065*
X53359Y59057*
Y59056*
X53222Y58919*
X52903*
X52901Y58923*
X52913Y58933*
X52925Y58948*
X52935Y58965*
X5294Y58984*
X52942Y59003*
X5294Y59023*
X52935Y59041*
X52925Y59058*
X52913Y59073*
X52898Y59086*
X52881Y59095*
X52862Y591*
X52843Y59102*
X52824Y591*
X5281Y59096*
X52807Y591*
X52808Y59102*
X52812Y59115*
X52814Y59129*
X52812Y59142*
X52808Y59155*
X52802Y59167*
X52793Y59178*
X52797Y59183*
X52912*
X52919*
X52926Y59186*
X52931Y5919*
X52932Y59191*
X52936Y5919*
X52945Y5918*
X52955Y59171*
X52967Y59165*
X5298Y59161*
X52994Y59159*
X53008Y59161*
X53021Y59165*
X53033Y59171*
X53043Y5918*
X53052Y5919*
X53056Y59197*
X53184*
X53186Y59192*
X53174Y59186*
X53164Y59178*
X53155Y59167*
X53149Y59155*
X53145Y59142*
X53143Y59128*
X53145Y59115*
X53149Y59102*
X53155Y5909*
X53164Y59079*
X53174Y59071*
X53186Y59064*
X53199Y5906*
X53213Y59059*
X53227Y5906*
X5324Y59064*
X53252Y59071*
X53262Y59079*
X53271Y5909*
X53277Y59102*
X53281Y59115*
X53283Y59128*
X53281Y59142*
X53277Y59155*
X53275Y59159*
X53279Y59162*
X53332Y59109*
X53337Y59105*
X53344Y59102*
X53345*
X53351*
X53524*
X5353Y5909*
X53539Y5908*
X53549Y59071*
X53561Y59065*
X53574Y59061*
X53588Y59059*
X53602Y59061*
X53615Y59065*
X53627Y59071*
X53637Y5908*
X53646Y5909*
X53652Y59102*
X53656Y59115*
X53658Y59129*
X53656Y59142*
X53652Y59155*
X53646Y59167*
X53637Y59178*
X53627Y59187*
X53615Y59193*
X53602Y59197*
X53588Y59198*
X53574Y59197*
X53561Y59193*
X53555Y59189*
X53531Y59213*
Y59215*
X53533Y59228*
X53531Y59242*
X53527Y59255*
X53521Y59267*
X53518Y59271*
X5352Y59275*
X53527Y59276*
X5354Y59282*
X53551Y5929*
X5356Y59301*
X53565Y59314*
X53567Y59328*
X53565Y59342*
X5356Y59355*
X53551Y59367*
X5354Y59375*
X53527Y5938*
X53513Y59382*
X53502Y59381*
X53488Y59383*
X53474Y59381*
X53461Y59375*
X5345Y59367*
X53441Y59356*
X53436Y59343*
X53434Y59329*
X53435Y59324*
X53431Y59321*
X53429Y59322*
X53415Y59323*
X53412Y59327*
Y59328*
X5341Y59348*
X53404Y59366*
X53395Y59383*
X53383Y59398*
X53368Y59411*
X53351Y5942*
X53332Y59425*
X53313Y59427*
X53294Y59425*
X53275Y5942*
X53258Y59411*
X53243Y59398*
X53231Y59383*
X53222Y59366*
X53216Y59348*
X53214Y59328*
X53216Y59309*
X53222Y59291*
X53231Y59273*
X53243Y59259*
X53246Y59256*
X53244Y59252*
X53059*
X53058Y59255*
X53052Y59267*
X53049Y59271*
X53051Y59276*
X53058Y59277*
X53071Y59282*
X53078Y59288*
X53086Y59282*
X53099Y59276*
X53113Y59274*
X53127Y59276*
X5314Y59282*
X53151Y5929*
X5316Y59301*
X53165Y59314*
X53167Y59328*
X53165Y59342*
X5316Y59355*
X53151Y59367*
X5314Y59375*
X53127Y5938*
X53113Y59382*
X53099Y5938*
X53086Y59375*
X53079Y59369*
X53071Y59375*
X53058Y59381*
X53044Y59383*
X5303Y59381*
X53017Y59375*
X53006Y59367*
X52997Y59356*
X52992Y59343*
X5299Y59329*
X52992Y59315*
X52997Y59302*
X52994Y59298*
X5298Y59297*
X52967Y59293*
X52955Y59287*
X52945Y59278*
X52936Y59267*
X5293Y59256*
X52924Y59255*
X52917Y59252*
X52912Y59248*
X52901Y59237*
X52891*
X5289Y59242*
X52899Y59247*
X52914Y59259*
X52926Y59274*
X52935Y59291*
X52941Y59309*
X52943Y59329*
X52941Y59348*
X52935Y59367*
X52926Y59384*
X52914Y59399*
X52899Y59411*
X52882Y5942*
X5288Y59421*
Y59426*
X53188*
X53195Y59427*
X53201Y59429*
X53207Y59434*
X53258Y59485*
Y59528*
X53263*
Y59533*
X53307*
X53309Y59536*
X53314Y59534*
X53313Y59528*
X53315Y59515*
X5332Y59503*
X53328Y59493*
X53338Y59485*
X5335Y5948*
X53363Y59478*
X53374Y5948*
X53441Y59413*
X53446Y59409*
X53453Y59406*
X53454*
X5346*
X53619*
X53621Y59401*
X53618Y59399*
X53606Y59384*
X53597Y59367*
X53591Y59348*
X53589Y59329*
X53591Y59309*
X53597Y59291*
X53606Y59274*
X53618Y59259*
X53633Y59247*
X5365Y59237*
X53669Y59232*
X53688Y5923*
X53707Y59232*
X53726Y59237*
X53743Y59247*
X53758Y59259*
X5377Y59274*
X53779Y59291*
X53785Y59309*
X53787Y59329*
X53785Y59348*
X53779Y59367*
X5377Y59384*
X53758Y59399*
X53755Y59401*
X53757Y59406*
X5376*
X53767*
X53774Y59409*
X53779Y59413*
X53796Y5943*
X538Y59429*
X53803Y59423*
X53808Y59416*
X53815Y59411*
X53823Y59408*
X53831Y59406*
X53839Y59408*
X53847Y59411*
X53854Y59416*
X53859Y59423*
X53862Y5943*
Y59432*
X53921Y59491*
X53952*
X53959*
X53966Y59494*
X53971Y59498*
X54001Y59528*
X54006Y59534*
X54008Y59541*
X54009Y59548*
Y5977*
X54008Y59777*
X54006Y59784*
X54001Y5979*
X53909Y59882*
X53903Y59886*
X53897Y59889*
X5389Y5989*
X53853*
X53847Y59901*
X53838Y59912*
X53828Y59921*
X53816Y59927*
X53803Y59931*
X53801*
X53799Y59936*
X53803Y5994*
X53809Y59952*
X53813Y59965*
X53815Y59979*
X53813Y59992*
X53809Y60005*
X53803Y60017*
X538Y60021*
X53802Y60026*
X53809Y60027*
X53822Y60032*
X53833Y60041*
X53842Y60052*
X53847Y60065*
X53849Y60079*
X53847Y60093*
X53842Y60106*
X53833Y60117*
X53822Y60125*
X53809Y60131*
X53795Y60133*
X53781Y60131*
X53768Y60125*
X53757Y60117*
X53748Y60106*
X53743Y60093*
X53741Y60079*
X53743Y60065*
X53748Y60052*
X53745Y60048*
X53731Y60047*
X53718Y60043*
X53706Y60037*
X53696Y60028*
X53687Y60017*
X53681Y60005*
X53675*
X53668Y60004*
X53665Y60002*
X53662Y60006*
X53665Y60009*
X53677Y60024*
X53686Y60041*
X53692Y60059*
X53694Y60079*
X53692Y60098*
X53686Y60117*
X53677Y60134*
X53665Y60149*
X5365Y60161*
X53633Y6017*
X53614Y60176*
X53595Y60178*
X53576Y60176*
X53557Y6017*
X5354Y60161*
X53525Y60149*
X53513Y60134*
X53504Y60117*
X53498Y60098*
X53496Y60079*
X53498Y60059*
X53504Y60041*
X53513Y60024*
X53525Y60009*
X5354Y59997*
X53553Y5999*
X53551Y59985*
X53314*
X53307Y59984*
X53301Y59981*
X53295Y59977*
X53246Y59928*
X52894*
X52869Y59953*
X52873Y59965*
X52875Y59979*
X52873Y59992*
X52869Y60005*
X52863Y60017*
X5286Y60021*
X52862Y60026*
X52869Y60027*
X52882Y60032*
X52893Y60041*
X52902Y60052*
X52907Y60065*
X52909Y60079*
X52907Y60093*
X52902Y60106*
X52893Y60117*
X52882Y60125*
X52869Y60131*
X52855Y60133*
X52841Y60131*
X52828Y60125*
X52817Y60117*
X52808Y60106*
X52803Y60093*
X52801Y60079*
X52803Y60065*
X52808Y60052*
X52805Y60048*
X52791Y60047*
X52778Y60043*
X52766Y60037*
X52756Y60028*
X52747Y60017*
X52741Y60006*
X52735Y60005*
X52731Y60003*
X52728Y60002*
X52723Y59998*
X52708Y59983*
X52695*
X52694Y59988*
X5271Y59997*
X52725Y60009*
X52737Y60024*
X52746Y60041*
X52752Y60059*
X52754Y60079*
X52752Y60098*
X52746Y60117*
X52737Y60134*
X52725Y60149*
X5271Y60161*
X52693Y6017*
X52678Y60175*
Y6018*
X52967*
X52974Y60181*
X52981Y60183*
X52987Y60188*
X53075Y60276*
X53505*
X53506Y60268*
X5351Y60259*
X53517Y60251*
X53525Y60244*
X53535Y6024*
X5354*
Y60279*
Y60321*
X53538Y60323*
X53532Y60328*
X53525Y6033*
X53518Y60331*
X53405*
X53403Y60336*
X53415Y60349*
X5377*
X53779Y6034*
Y60339*
X53782Y60331*
X53787Y60324*
X53794Y60319*
X53802Y60316*
X5381Y60315*
X53818Y60316*
X53826Y60319*
X53833Y60324*
X53838Y60331*
X53841Y60339*
X53842Y60347*
X53841Y60356*
X53838Y60363*
X53833Y6037*
X53826Y60375*
X53818Y60378*
X53817Y60379*
X53801Y60395*
X53795Y60399*
X53789Y60402*
X53782Y60403*
X53404*
X53398Y60402*
X53397*
X5339Y60399*
X53385Y60395*
X5336Y60371*
X53297*
X53296Y60375*
X53299Y60377*
X53305Y60381*
X53405Y60481*
X53406Y60482*
X53414Y60485*
X53421Y6049*
X53426Y60497*
X53429Y60504*
X5343Y60513*
X53429Y60521*
X53426Y60529*
X53421Y60536*
X53414Y60541*
X53406Y60544*
X53398Y60545*
X5339Y60544*
X53382Y60541*
X53375Y60536*
X5337Y60529*
X53367Y60521*
Y6052*
X53274Y60428*
X53012*
X5301Y60432*
X53013Y60435*
X53025Y6045*
X53035Y60467*
X5304Y60486*
X53042Y60505*
X5304Y60524*
X53035Y60543*
X53025Y6056*
X53013Y60575*
X52998Y60587*
X52991Y60591*
X52997Y60602*
X53001Y60615*
X53003Y60629*
X53001Y60642*
X52997Y60655*
X52991Y60667*
X52987Y60672*
X52989Y60677*
X5299*
X5309*
X53097*
X53104Y6068*
X53109Y60684*
X53119Y60694*
X53124Y60693*
X53125Y6069*
X53134Y6068*
X53144Y60671*
X53156Y60665*
X53169Y60661*
X53183Y60659*
X53197Y60661*
X5321Y60665*
X53222Y60671*
X53232Y6068*
X53241Y6069*
X53247Y60702*
X53292*
X53293Y60697*
X53281Y60693*
X53269Y60687*
X53259Y60678*
X5325Y60667*
X53244Y60655*
X5324Y60642*
X53238Y60629*
X5324Y60615*
X53244Y60602*
X5325Y6059*
X53259Y6058*
X53269Y60571*
X53281Y60565*
X53294Y60561*
X53308Y60559*
X53322Y60561*
X53335Y60565*
X53347Y60571*
X53357Y6058*
X53366Y6059*
X53372Y60602*
X53376Y60615*
X53378Y60629*
X53376Y60642*
X53372Y60655*
X53366Y60667*
X53362Y60672*
X53364Y60677*
X53461*
X53468*
X53475Y6068*
X5348Y60684*
X53492Y60696*
X53497*
X535Y6069*
X53509Y6068*
X53519Y60671*
X53531Y60665*
X53544Y60661*
X53558Y60659*
X53572Y60661*
X53585Y60665*
X53597Y60671*
X53607Y6068*
X53616Y6069*
X53622Y60702*
X53626Y60715*
X53628Y60729*
X53626Y60742*
X53622Y60755*
X53616Y60767*
X53613Y60771*
X53615Y60776*
X53622Y60777*
X53635Y60782*
X53646Y60791*
X53655Y60802*
X5366Y60815*
X53662Y60829*
X5366Y60843*
X53655Y60856*
X53646Y60867*
X53635Y60875*
X53622Y60881*
X53608Y60883*
X53595Y60881*
X53583Y60883*
X53569Y60881*
X53556Y60875*
X53545Y60867*
X53536Y60856*
X53531Y60843*
X53529Y60829*
X53531Y60815*
X53536Y60802*
X53538Y60799*
X53537Y60795*
X53531Y60793*
X53519Y60787*
X53509Y60778*
X535Y60767*
X53494Y60756*
X53486*
X53481Y60755*
X53479Y6076*
X5349Y60774*
X53499Y60791*
X53505Y60809*
X53507Y60829*
X53505Y60848*
X53499Y60867*
X5349Y60884*
X53478Y60899*
X53463Y60911*
X53446Y6092*
X53427Y60926*
X53408Y60928*
X53389Y60926*
X5337Y6092*
X53353Y60911*
X53338Y60899*
X53326Y60884*
X53317Y60867*
X53311Y60848*
X53309Y60829*
X53311Y60809*
X53317Y60791*
X53326Y60774*
X53337Y6076*
X53335Y60756*
X53247*
X53241Y60767*
X53238Y60771*
X5324Y60776*
X53247Y60777*
X5326Y60782*
X53271Y60791*
X5328Y60802*
X53285Y60815*
X53287Y60829*
X53285Y60843*
X5328Y60856*
X53271Y60867*
X5326Y60875*
X53247Y60881*
X53233Y60883*
X53221Y60881*
X53208Y60883*
X53194Y60881*
X53181Y60875*
X5317Y60867*
X53161Y60856*
X53156Y60843*
X53154Y60829*
X53156Y60815*
X53161Y60802*
X53163Y60799*
X53162Y60795*
X53156Y60793*
X53144Y60787*
X53134Y60778*
X53125Y60767*
X53119Y60756*
X53115*
X53108Y60755*
X53104Y60753*
X53102Y60758*
X53103Y60759*
X53115Y60774*
X53124Y60791*
X5313Y60809*
X53132Y60829*
X5313Y60848*
X53124Y60867*
X53115Y60884*
X53103Y60899*
X53088Y60911*
X53071Y6092*
X53052Y60926*
X53033Y60928*
X53014Y60926*
X52995Y6092*
X52978Y60911*
X52963Y60899*
X52951Y60884*
X52942Y60867*
X52936Y60848*
X52934Y60829*
X52936Y60809*
X52942Y60791*
X52951Y60774*
X52962Y60761*
X5296Y60756*
X52497*
X52491Y60767*
X52488Y60771*
X5249Y60776*
X52497Y60777*
X5251Y60782*
X52521Y60791*
X5253Y60802*
X52535Y60815*
X52537Y60829*
X52535Y60843*
X5253Y60856*
X52521Y60867*
X5251Y60875*
X52497Y60881*
X52483Y60883*
X52469Y60881*
X52456Y60875*
X52445Y60867*
X52436Y60856*
X52431Y60843*
X52429Y60829*
X52431Y60815*
X52436Y60802*
X52433Y60798*
X52419Y60797*
X52406Y60793*
X52394Y60787*
X52384Y60778*
X52375Y60767*
X52369Y60755*
X52365Y60742*
X52363Y60729*
X52365Y60715*
X52369Y60703*
X52238Y60572*
X5223*
X52229Y60577*
X52232Y6058*
X52241Y6059*
X52247Y60602*
X52251Y60615*
X52253Y60629*
X52251Y60642*
X52247Y60655*
X52241Y60667*
X52232Y60678*
X52222Y60687*
X5221Y60693*
X52197Y60697*
X52183Y60698*
X52169Y60697*
X52156Y60693*
X52144Y60687*
X52134Y60678*
X52125Y60667*
X52119Y60655*
X52115Y60642*
X52113Y60629*
X52115Y60615*
X52119Y60602*
X52125Y6059*
X52134Y6058*
X52137Y60577*
X52136Y60572*
X51878*
X51747Y60703*
X51751Y60715*
X51753Y60729*
X51751Y60742*
X51747Y60755*
X51741Y60767*
X51738Y60771*
X5174Y60776*
X51747Y60777*
X5176Y60782*
X51771Y60791*
X5178Y60802*
X51785Y60815*
X51787Y60829*
X51785Y60843*
X5178Y60856*
X51771Y60867*
X5176Y60875*
X51747Y60881*
X51733Y60883*
X51719Y60881*
X51706Y60875*
X51695Y60867*
X51686Y60856*
X51681Y60843*
X51679Y60829*
X51681Y60815*
X51686Y60802*
X51683Y60798*
X51669Y60797*
X51656Y60793*
X51644Y60787*
X51634Y60778*
X51625Y60767*
X51619Y60755*
X51615Y60742*
X51613Y60729*
X51615Y60715*
X51619Y60703*
X51485Y60569*
X51477*
X51475Y60574*
X51482Y6058*
X51491Y6059*
X51497Y60602*
X51501Y60615*
X51503Y60629*
X51501Y60642*
X51497Y60655*
X51491Y60667*
X51482Y60678*
X51472Y60687*
X5146Y60693*
X51447Y60697*
X51433Y60698*
X51419Y60697*
X51406Y60693*
X51394Y60687*
X51384Y60678*
X51375Y60667*
X51369Y60655*
X51365Y60642*
X51363Y60629*
X51365Y60615*
X51369Y60602*
X51375Y6059*
X51384Y6058*
X51391Y60574*
X51389Y60569*
X51131*
X50997Y60703*
X51001Y60715*
X51003Y60729*
X51001Y60742*
X50997Y60755*
X50991Y60767*
X50988Y60771*
X5099Y60776*
X50997Y60777*
X5101Y60782*
X51021Y60791*
X5103Y60802*
X51035Y60815*
X51037Y60829*
X51035Y60843*
X5103Y60856*
X51021Y60867*
X5101Y60875*
X50997Y60881*
X50983Y60883*
X50969Y60881*
X50956Y60875*
X50945Y60867*
X50936Y60856*
X50931Y60843*
X50929Y60829*
X50931Y60815*
X50936Y60802*
X50933Y60798*
X50919Y60797*
X50906Y60793*
X50894Y60787*
X50884Y60778*
X50875Y60767*
X50869Y60755*
X50865Y60742*
X50863Y60729*
X50865Y60715*
X50869Y60703*
X50727Y60561*
X50713*
X50712Y60566*
X50722Y60571*
X50732Y6058*
X50741Y6059*
X50747Y60602*
X50751Y60615*
X50753Y60629*
X50751Y60642*
X50747Y60655*
X50741Y60667*
X50732Y60678*
X50722Y60687*
X5071Y60693*
X50697Y60697*
X50683Y60698*
X50669Y60697*
X50656Y60693*
X50644Y60687*
X50634Y60678*
X50625Y60667*
X50619Y60655*
X50615Y60642*
X50613Y60629*
X50615Y60615*
X50619Y60602*
X50625Y6059*
X50634Y6058*
X50644Y60571*
X50654Y60566*
X50653Y60561*
X50389*
X50247Y60703*
X50251Y60715*
X50253Y60729*
X50251Y60742*
X50247Y60755*
X50241Y60767*
X50238Y60771*
X5024Y60776*
X50247Y60777*
X5026Y60782*
X50271Y60791*
X5028Y60802*
X50285Y60815*
X50287Y60829*
X50285Y60843*
X5028Y60856*
X50271Y60867*
X5026Y60875*
X50247Y60881*
X50233Y60883*
X50219Y60881*
X50206Y60875*
X50195Y60867*
X50186Y60856*
X50181Y60843*
X50179Y60829*
X50181Y60815*
X50186Y60802*
X50183Y60798*
X50169Y60797*
X50156Y60793*
X50144Y60787*
X50134Y60778*
X50125Y60767*
X50119Y60755*
X50115Y60742*
X50113Y60729*
X50115Y60715*
X50119Y60703*
X49977Y60561*
X49963*
X49962Y60566*
X49972Y60571*
X49982Y6058*
X49991Y6059*
X49997Y60602*
X50001Y60615*
X50003Y60629*
X50001Y60642*
X49997Y60655*
X49991Y60667*
X49982Y60678*
X49972Y60687*
X4996Y60693*
X49947Y60697*
X49933Y60698*
X49919Y60697*
X49906Y60693*
X49894Y60687*
X49884Y60678*
X49875Y60667*
X49869Y60655*
X49865Y60642*
X49863Y60629*
X49865Y60615*
X49869Y60602*
X49875Y6059*
X49884Y6058*
X49894Y60571*
X49904Y60566*
X49903Y60561*
X49639*
X49497Y60703*
X49501Y60715*
X49503Y60729*
X49501Y60742*
X49497Y60755*
X49491Y60767*
X49488Y60771*
X4949Y60776*
X49497Y60777*
X4951Y60782*
X49521Y60791*
X4953Y60802*
X49535Y60815*
X49537Y60829*
X49535Y60843*
X4953Y60856*
X49521Y60867*
X4951Y60875*
X49497Y60881*
X49483Y60883*
X49469Y60881*
X49456Y60875*
X49445Y60867*
X49436Y60856*
X49431Y60843*
X49429Y60829*
X49431Y60815*
X49436Y60802*
X49433Y60798*
X49419Y60797*
X49406Y60793*
X49394Y60787*
X49384Y60778*
X49375Y60767*
X49369Y60755*
X49365Y60742*
X49363Y60729*
X49365Y60715*
X49369Y60703*
X49226Y6056*
X49211*
X4921Y60565*
X49222Y60571*
X49232Y6058*
X49241Y6059*
X49247Y60602*
X49251Y60615*
X49253Y60629*
X49251Y60642*
X49247Y60655*
X49241Y60667*
X49232Y60678*
X49222Y60687*
X4921Y60693*
X49197Y60697*
X49183Y60698*
X49169Y60697*
X49156Y60693*
X49144Y60687*
X49134Y60678*
X49125Y60667*
X49119Y60655*
X49115Y60642*
X49113Y60629*
X49115Y60615*
X49119Y60602*
X49125Y6059*
X49134Y6058*
X49144Y60571*
X49156Y60565*
X49155Y6056*
X4889*
X48747Y60703*
X48751Y60715*
X48753Y60729*
X48751Y60742*
X48747Y60755*
X48741Y60767*
X48738Y60771*
X4874Y60776*
X48747Y60777*
X4876Y60782*
X48771Y60791*
X4878Y60802*
X48785Y60815*
X48787Y60829*
X48785Y60843*
X4878Y60856*
X48771Y60867*
X4876Y60875*
X48747Y60881*
X48733Y60883*
X48719Y60881*
X48706Y60875*
X48695Y60867*
X48686Y60856*
X48681Y60843*
X48679Y60829*
X48681Y60815*
X48686Y60802*
X48683Y60798*
X48669Y60797*
X48656Y60793*
X48644Y60787*
X48634Y60778*
X48625Y60767*
X48619Y60755*
X48615Y60742*
X48613Y60729*
X48615Y60715*
X48619Y60703*
X48479Y60563*
X48467*
X48466Y60568*
X48472Y60571*
X48482Y6058*
X48491Y6059*
X48497Y60602*
X48501Y60615*
X48503Y60629*
X48501Y60642*
X48497Y60655*
X48491Y60667*
X48482Y60678*
X48472Y60687*
X4846Y60693*
X48447Y60697*
X48433Y60698*
X48419Y60697*
X48406Y60693*
X48394Y60687*
X48384Y60678*
X48375Y60667*
X48369Y60655*
X48365Y60642*
X48363Y60629*
X48365Y60615*
X48369Y60602*
X48375Y6059*
X48384Y6058*
X48394Y60571*
X484Y60568*
X48399Y60563*
X48137*
X47997Y60703*
X48001Y60715*
X48003Y60729*
X48001Y60742*
X47997Y60755*
X47991Y60767*
X47988Y60771*
X4799Y60776*
X47997Y60777*
X4801Y60782*
X48021Y60791*
X4803Y60802*
X48035Y60815*
X48037Y60829*
X48035Y60843*
X4803Y60856*
X48021Y60867*
X4801Y60875*
X47997Y60881*
X47983Y60883*
X47969Y60881*
X47956Y60875*
X47945Y60867*
X47936Y60856*
X47931Y60843*
X47929Y60829*
X47931Y60815*
X47936Y60802*
X47933Y60798*
X47919Y60797*
X47906Y60793*
X47894Y60787*
X47884Y60778*
X47875Y60767*
X47869Y60755*
X47865Y60742*
X47863Y60729*
X47865Y60715*
X47869Y60703*
X47729Y60563*
X47717*
X47716Y60568*
X47722Y60571*
X47732Y6058*
X47741Y6059*
X47747Y60602*
X47751Y60615*
X47753Y60629*
X47751Y60642*
X47747Y60655*
X47741Y60667*
X47732Y60678*
X47722Y60687*
X4771Y60693*
X47697Y60697*
X47683Y60698*
X47669Y60697*
X47656Y60693*
X47644Y60687*
X47634Y60678*
X47625Y60667*
X47619Y60655*
X47615Y60642*
X47613Y60629*
X47615Y60615*
X47619Y60602*
X47625Y6059*
X47634Y6058*
X47644Y60571*
X4765Y60568*
X47649Y60563*
X47387*
X47247Y60703*
X47251Y60715*
X47253Y60729*
X47251Y60742*
X47247Y60755*
X47241Y60767*
X47238Y60771*
X4724Y60776*
X47247Y60777*
X4726Y60782*
X47271Y60791*
X4728Y60802*
X47285Y60815*
X47287Y60829*
X47285Y60843*
X4728Y60856*
X47271Y60867*
X4726Y60875*
X47247Y60881*
X47233Y60883*
X47219Y60881*
X47206Y60875*
X47195Y60867*
X47186Y60856*
X47181Y60843*
X47179Y60829*
X47181Y60815*
X47186Y60802*
X47183Y60798*
X47169Y60797*
X47156Y60793*
X47144Y60787*
X47134Y60778*
X47125Y60767*
X47119Y60755*
X47115Y60742*
X47113Y60729*
X47115Y60715*
X47119Y60703*
X46971Y60555*
X46941*
Y6056*
X46947Y60561*
X4696Y60565*
X46972Y60571*
X46982Y6058*
X46991Y6059*
X46997Y60602*
X47001Y60615*
X47003Y60629*
X47001Y60642*
X46997Y60655*
X46991Y60667*
X46982Y60678*
X46972Y60687*
X4696Y60693*
X46947Y60697*
X46933Y60698*
X46919Y60697*
X46906Y60693*
X46894Y60687*
X46884Y60678*
X46875Y60667*
X46869Y60655*
X46865Y60642*
X46863Y60629*
X46865Y60615*
X46869Y60602*
X46875Y6059*
X46884Y6058*
X46894Y60571*
X46906Y60565*
X46919Y60561*
X46925Y6056*
Y60555*
X46645*
X46497Y60703*
X46501Y60715*
X46503Y60729*
X46501Y60742*
X46497Y60755*
X46491Y60767*
X46488Y60771*
X4649Y60776*
X46497Y60777*
X4651Y60782*
X46521Y60791*
X4653Y60802*
X46535Y60815*
X46537Y60829*
X46535Y60843*
X4653Y60856*
X46521Y60867*
X4651Y60875*
X46497Y60881*
X46483Y60883*
X46469Y60881*
X46456Y60875*
X46445Y60867*
X46436Y60856*
X46431Y60843*
X46429Y60829*
X46431Y60815*
X46436Y60802*
X46433Y60798*
X46419Y60797*
X46406Y60793*
X46394Y60787*
X46384Y60778*
X46375Y60767*
X46369Y60755*
X46365Y60742*
X46363Y60729*
X46365Y60715*
X46369Y60703*
X46221Y60555*
X46191*
Y6056*
X46197Y60561*
X4621Y60565*
X46222Y60571*
X46232Y6058*
X46241Y6059*
X46247Y60602*
X46251Y60615*
X46253Y60629*
X46251Y60642*
X46247Y60655*
X46241Y60667*
X46232Y60678*
X46222Y60687*
X4621Y60693*
X46197Y60697*
X46183Y60698*
X46169Y60697*
X46156Y60693*
X46144Y60687*
X46134Y60678*
X46125Y60667*
X46119Y60655*
X46115Y60642*
X46113Y60629*
X46115Y60615*
X46119Y60602*
X46125Y6059*
X46134Y6058*
X46144Y60571*
X46156Y60565*
X46169Y60561*
X46175Y6056*
Y60555*
X45895*
X45747Y60703*
X45751Y60715*
X45753Y60729*
X45751Y60742*
X45747Y60755*
X45741Y60767*
X45738Y60771*
X4574Y60776*
X45747Y60777*
X4576Y60782*
X45771Y60791*
X4578Y60802*
X45785Y60815*
X45787Y60829*
X45785Y60843*
X4578Y60856*
X45771Y60867*
X4576Y60875*
X45747Y60881*
X45733Y60883*
X45719Y60881*
X45706Y60875*
X45695Y60867*
X45686Y60856*
X45681Y60843*
X45679Y60829*
X45681Y60815*
X45686Y60802*
X45683Y60798*
X45669Y60797*
X45656Y60793*
X45644Y60787*
X45634Y60778*
X45625Y60767*
X45619Y60755*
X45615Y60742*
X45613Y60729*
X45615Y60715*
X45619Y60703*
X45472Y60556*
X45449*
X45448Y60561*
X4546Y60565*
X45472Y60571*
X45482Y6058*
X45491Y6059*
X45497Y60602*
X45501Y60615*
X45503Y60629*
X45501Y60642*
X45497Y60655*
X45491Y60667*
X45482Y60678*
X45472Y60687*
X4546Y60693*
X45447Y60697*
X45433Y60698*
X45419Y60697*
X45406Y60693*
X45394Y60687*
X45384Y60678*
X45375Y60667*
X45369Y60655*
X45365Y60642*
X45363Y60629*
X45365Y60615*
X45369Y60602*
X45375Y6059*
X45384Y6058*
X45394Y60571*
X45406Y60565*
X45418Y60561*
X45417Y60556*
X45144*
X44997Y60703*
X45001Y60715*
X45003Y60729*
X45001Y60742*
X44997Y60755*
X44991Y60767*
X44988Y60771*
X4499Y60776*
X44997Y60777*
X4501Y60782*
X45021Y60791*
X4503Y60802*
X45035Y60815*
X45037Y60829*
X45035Y60843*
X4503Y60856*
X45021Y60867*
X4501Y60875*
X44997Y60881*
X44983Y60883*
X44969Y60881*
X44956Y60875*
X44945Y60867*
X44936Y60856*
X44931Y60843*
X44929Y60829*
X44931Y60815*
X44936Y60802*
X44933Y60798*
X44919Y60797*
X44906Y60793*
X44894Y60787*
X44884Y60778*
X44875Y60767*
X44869Y60755*
X44865Y60742*
X44863Y60729*
X44865Y60715*
X44869Y60703*
X44726Y6056*
X44711*
X4471Y60565*
X44722Y60571*
X44732Y6058*
X44741Y6059*
X44747Y60602*
X44751Y60615*
X44753Y60629*
X44751Y60642*
X44747Y60655*
X44741Y60667*
X44732Y60678*
X44722Y60687*
X4471Y60693*
X44697Y60697*
X44683Y60698*
X44669Y60697*
X44656Y60693*
X44644Y60687*
X44634Y60678*
X44625Y60667*
X44619Y60655*
X44615Y60642*
X44613Y60629*
X44615Y60615*
X44619Y60602*
X44625Y6059*
X44634Y6058*
X44644Y60571*
X44656Y60565*
X44655Y6056*
X4439*
X44247Y60703*
X44251Y60715*
X44253Y60729*
X44251Y60742*
X44247Y60755*
X44241Y60767*
X44238Y60771*
X4424Y60776*
X44247Y60777*
X4426Y60782*
X44271Y60791*
X4428Y60802*
X44285Y60815*
X44287Y60829*
X44285Y60843*
X4428Y60856*
X44271Y60867*
X4426Y60875*
X44247Y60881*
X44233Y60883*
X44219Y60881*
X44206Y60875*
X44195Y60867*
X44186Y60856*
X44181Y60843*
X44179Y60829*
X44181Y60815*
X44186Y60802*
X44183Y60798*
X44169Y60797*
X44156Y60793*
X44144Y60787*
X44134Y60778*
X44125Y60767*
X44119Y60755*
X44115Y60742*
X44113Y60729*
X44115Y60715*
X44119Y60703*
X43971Y60555*
X43941*
Y6056*
X43947Y60561*
X4396Y60565*
X43972Y60571*
X43982Y6058*
X43991Y6059*
X43997Y60602*
X44001Y60615*
X44003Y60629*
X44001Y60642*
X43997Y60655*
X43991Y60667*
X43982Y60678*
X43972Y60687*
X4396Y60693*
X43947Y60697*
X43933Y60698*
X43919Y60697*
X43906Y60693*
X43894Y60687*
X43884Y60678*
X43875Y60667*
X43869Y60655*
X43865Y60642*
X43863Y60629*
X43865Y60615*
X43869Y60602*
X43875Y6059*
X43884Y6058*
X43894Y60571*
X43906Y60565*
X43919Y60561*
X43925Y6056*
Y60555*
X43645*
X43497Y60703*
X43501Y60715*
X43503Y60729*
X43501Y60742*
X43497Y60755*
X43491Y60767*
X43488Y60771*
X4349Y60776*
X43497Y60777*
X4351Y60782*
X43521Y60791*
X4353Y60802*
X43535Y60815*
X43537Y60829*
X43535Y60843*
X4353Y60856*
X43521Y60867*
X4351Y60875*
X43497Y60881*
X43483Y60883*
X43469Y60881*
X43456Y60875*
X43445Y60867*
X43436Y60856*
X43431Y60843*
X43429Y60829*
X43431Y60815*
X43436Y60802*
X43433Y60798*
X43419Y60797*
X43406Y60793*
X43394Y60787*
X43384Y60778*
X43375Y60767*
X43369Y60755*
X43365Y60742*
X43363Y60729*
X43365Y60715*
X43369Y60702*
X43375Y6069*
X43384Y6068*
X43394Y60671*
X43406Y60665*
X43419Y60661*
X43433Y60659*
X43447Y60661*
X43459Y60664*
X43615Y60508*
X4362Y60504*
X43627Y60501*
X43634*
X43982*
X43989*
X43996Y60504*
X44001Y60508*
X44157Y60664*
X44169Y60661*
X44183Y60659*
X44197Y60661*
X44209Y60664*
X44265Y60608*
X44262Y60604*
X44254Y60607*
X44246Y60609*
X44237Y60607*
X4423Y60604*
X44223Y60599*
X44218Y60592*
X44215Y60585*
X44214Y60576*
X44215Y60568*
X44218Y6056*
X44219Y60559*
Y60441*
X44186Y60409*
X44146*
X44145*
X44137Y60413*
X44129Y60414*
X4412Y60413*
X44113Y60409*
X44106Y60404*
X44101Y60398*
X44098Y6039*
X44096Y60381*
X44098Y60373*
X44101Y60365*
X44102Y60364*
X441Y60359*
X44026*
X44021Y60364*
Y60365*
X44018Y60373*
X44013Y6038*
X44006Y60385*
X43998Y60388*
X4399Y60389*
X43982Y60388*
X43974Y60385*
X43967Y6038*
X43962Y60373*
X4396Y60368*
X43955Y60367*
X43919Y60403*
X43913Y60407*
X43907Y6041*
X43899Y60411*
X43524*
X43516Y6041*
X4351Y60407*
X43504Y60403*
X43426Y60325*
X4342Y60326*
X43413Y60325*
X43406Y60322*
X43401Y60318*
X43396Y60312*
X4339Y60307*
X43383Y60299*
X43379Y60289*
Y60284*
X43418*
Y60279*
X43423*
Y6024*
X43428*
X43438Y60244*
X43446Y60251*
X43453Y60259*
X43457Y60268*
X43458Y60279*
X43464Y60285*
X43469Y60283*
X43468Y60279*
X4347Y60266*
X43475Y60254*
X43483Y60243*
X43493Y60235*
X43505Y60231*
X43518Y60229*
X43531Y60231*
X43543Y60235*
X43553Y60243*
X43561Y60254*
X43566Y60266*
X43568Y60279*
X43566Y60292*
X43561Y60304*
X43553Y60314*
X43543Y60322*
X43531Y60327*
X43518Y60329*
X43514Y60328*
X43512Y60333*
X43535Y60356*
X43888*
X43983Y60261*
X43989Y60256*
X43996Y60253*
X44003Y60252*
X44325*
X44327Y60251*
X44335Y60244*
X44345Y6024*
X4435*
Y60279*
Y60318*
X44345Y60317*
X44335Y60313*
X44328Y60308*
X44258*
X44256Y60312*
X44257Y60313*
X44299Y60355*
X4453*
X44531Y60354*
X44539Y60351*
X44547Y6035*
X44555Y60351*
X44563Y60354*
X44564Y60355*
X453*
X45301Y60354*
X45308Y60351*
X45317Y6035*
X45325Y60351*
X45333Y60354*
X45334Y60355*
X46071*
Y60354*
X46079Y60351*
X46088Y6035*
X46096Y60351*
X46104Y60354*
X46105Y60355*
X46806*
X46807Y60354*
X46815Y60351*
X46824Y6035*
X46832Y60351*
X4684Y60354*
X46841Y60355*
X47571*
X47572Y60354*
X4758Y60351*
X47588Y6035*
X47597Y60351*
X47604Y60354*
X47606Y60355*
X48354*
X48355Y60354*
X48363Y60351*
X48371Y6035*
X4838Y60351*
X48387Y60354*
X48388Y60355*
X49062*
X49063Y60354*
X49071Y60351*
X49079Y6035*
X49088Y60351*
X49096Y60354*
X49097Y60355*
X49838*
X49839Y60354*
X49847Y60351*
X49848*
X49867Y60331*
X49873Y60327*
X4988Y60324*
X49887*
X50354*
Y60319*
X50345Y60317*
X50335Y60313*
X50327Y60307*
X5032Y60299*
X50316Y60289*
Y60284*
X50355*
Y60274*
X50313*
X50277Y60238*
X49741*
X49739Y60243*
X4974*
X49748Y60254*
X49753Y60266*
X49755Y60279*
X49753Y60292*
X49748Y60304*
X4974Y60314*
X4973Y60322*
X49718Y60327*
X49705Y60329*
X49692Y60327*
X4968Y60322*
X4967Y60314*
X49662Y60304*
X49657Y60292*
X49655Y60279*
X49656Y60273*
X49651Y6027*
X49648Y60274*
X49562*
X49521Y60233*
X48984*
X48983Y60238*
X4899Y60243*
X48998Y60254*
X49003Y60266*
X49005Y60279*
X49003Y60292*
X48998Y60304*
X4899Y60314*
X4898Y60322*
X48968Y60327*
X48955Y60329*
X48942Y60327*
X4893Y60322*
X4892Y60314*
X48912Y60304*
X48907Y60292*
X48905Y60281*
X48901Y60279*
X48894Y60286*
Y60289*
X4889Y60299*
X48883Y60307*
X48875Y60313*
X48865Y60317*
X4886Y60318*
Y60279*
X48855*
Y60274*
X48812*
X48779Y60241*
X48244*
X48242Y60245*
X48248Y60254*
X48253Y60266*
X48255Y60279*
X48253Y60292*
X48248Y60304*
X4824Y60314*
X4823Y60322*
X48218Y60327*
X48205Y60329*
X48192Y60327*
X4818Y60322*
X4817Y60314*
X48162Y60304*
X48157Y60292*
X48155Y60281*
X48151Y60279*
X48144Y60286*
Y60289*
X4814Y60299*
X48133Y60307*
X48125Y60313*
X48115Y60317*
X4811Y60318*
Y60279*
X48105*
Y60274*
X48066*
Y60272*
X48035Y60241*
X47494*
X47492Y60245*
X47498Y60254*
X47503Y60266*
X47505Y60279*
X47503Y60292*
X47498Y60304*
X4749Y60314*
X4748Y60322*
X47468Y60327*
X47455Y60329*
X47442Y60327*
X4743Y60322*
X4742Y60314*
X47412Y60304*
X47407Y60292*
X47405Y60279*
X474Y60277*
X47394Y60284*
Y60289*
X4739Y60299*
X47383Y60307*
X47375Y60313*
X47365Y60317*
X4736Y60318*
Y60279*
X47355*
Y60274*
X47312*
X47278Y6024*
X46743*
X46741Y60244*
X46748Y60254*
X46753Y60266*
X46755Y60279*
X46753Y60292*
X46748Y60304*
X4674Y60314*
X4673Y60322*
X46718Y60327*
X46705Y60329*
X46692Y60327*
X4668Y60322*
X4667Y60314*
X46662Y60304*
X46657Y60292*
X46655Y60279*
Y60278*
X46651Y60276*
X46644Y60282*
Y60289*
X4664Y60299*
X46633Y60307*
X46625Y60313*
X46615Y60317*
X4661Y60318*
Y60279*
X46605*
Y60274*
X46562*
X46526Y60238*
X45991*
X45989Y60243*
X4599*
X45998Y60254*
X46003Y60266*
X46005Y60279*
X46003Y60292*
X45998Y60304*
X4599Y60314*
X4598Y60322*
X45968Y60327*
X45955Y60329*
X45942Y60327*
X4593Y60322*
X4592Y60314*
X45912Y60304*
X45907Y60292*
X45905Y60279*
Y60277*
X45901Y60275*
X45895Y60281*
X45894Y60289*
X4589Y60299*
X45883Y60307*
X45875Y60313*
X45865Y60317*
X4586Y60318*
Y60279*
X45855*
Y60274*
X45812*
X45778Y6024*
X45243*
X45241Y60244*
X45248Y60254*
X45253Y60266*
X45255Y60279*
X45253Y60292*
X45248Y60304*
X4524Y60314*
X4523Y60322*
X45218Y60327*
X45205Y60329*
X45192Y60327*
X4518Y60322*
X4517Y60314*
X45162Y60304*
X45157Y60292*
X45155Y60279*
X45156Y60273*
X45151Y6027*
X45148Y60274*
X45105*
Y60279*
X451*
Y60318*
X45095Y60317*
X45085Y60313*
X45077Y60307*
X4507Y60299*
X45066Y60289*
Y60282*
X45023Y6024*
X44493*
X44491Y60244*
X44498Y60254*
X44503Y60266*
X44505Y60279*
X44503Y60292*
X44498Y60304*
X4449Y60314*
X4448Y60322*
X44468Y60327*
X44455Y60329*
X44442Y60327*
X4443Y60322*
X4442Y60314*
X44412Y60304*
X44407Y60292*
X44405Y60279*
Y60276*
X44401Y60274*
X44395Y6028*
X44394Y60289*
X4439Y60299*
X44383Y60307*
X44375Y60313*
X44365Y60317*
X4436Y60318*
Y60279*
Y60236*
X44404Y60193*
X4441Y60188*
X44416Y60185*
X44423*
X45034*
X45042*
X45048Y60188*
X45054Y60193*
X45101Y60239*
X45105*
X45151Y60193*
X45157Y60188*
X45163Y60185*
X45171*
X45789*
X45797*
X45803Y60188*
X45809Y60193*
X45855Y60239*
X45858*
X45907Y60191*
X45913Y60186*
X45919Y60183*
X45927*
X46537*
X46545*
X46551Y60186*
X46557Y60191*
X46605Y60239*
X46609*
X46656Y60193*
X46662Y60188*
X46665Y60187*
X46668Y60185*
X46676*
X47289*
X47297*
X47303Y60188*
X47309Y60193*
X47355Y60239*
X4736Y6024*
X47406Y60194*
X47412Y60189*
X47418Y60186*
X47426Y60185*
X48046*
X48054Y60186*
X4806Y60189*
X48066Y60194*
X48112Y6024*
X48158Y60194*
X48164Y60189*
X4817Y60186*
X48178Y60185*
X4879*
X48798Y60186*
X48804Y60189*
X4881Y60194*
X48855Y60239*
X48862Y6024*
X48916Y60186*
X48922Y60181*
X48923*
X48922Y60176*
X48905Y60178*
X48886Y60176*
X48867Y6017*
X4885Y60161*
X48835Y60149*
X48823Y60134*
X48814Y60117*
X48808Y60098*
X48806Y60079*
X48808Y60059*
X48814Y60041*
X48823Y60024*
X48835Y60009*
X4885Y59997*
X48867Y59987*
X48886Y59982*
X48905Y5998*
X48924Y59982*
X48943Y59987*
X4896Y59997*
X48975Y60009*
X48987Y60024*
X48996Y60041*
X49002Y60059*
X49004Y60079*
X49002Y60098*
X48996Y60117*
X48987Y60134*
X48975Y60149*
X4896Y60161*
X48943Y6017*
X48934Y60173*
X48935Y60178*
X48936*
X49532*
X4954Y60179*
X49546Y60181*
X49552Y60186*
X49605Y60239*
X49653Y60191*
X49659Y60186*
X49662Y60185*
X49665Y60183*
X49673*
X50288*
X50296*
X50302Y60186*
X50308Y60191*
X50355Y60238*
X50402Y60191*
X50408Y60186*
X50414Y60183*
X50422*
X51037*
X51045*
X51051Y60186*
X51057Y60191*
X51103Y60236*
X51108*
X51157Y60187*
X51163Y60182*
X51164*
X51163Y60177*
X51155Y60178*
X51136Y60176*
X51117Y6017*
X511Y60161*
X51085Y60149*
X51073Y60134*
X51064Y60117*
X51058Y60098*
X51056Y60079*
X51058Y60059*
X51064Y60041*
X51073Y60024*
X51085Y60009*
X511Y59997*
X51117Y59987*
X51136Y59982*
X51155Y5998*
X51174Y59982*
X51193Y59987*
X5121Y59997*
X51225Y60009*
X51237Y60024*
X51246Y60041*
X51252Y60059*
X51254Y60079*
X51252Y60098*
X51246Y60117*
X51237Y60134*
X51225Y60149*
X5121Y60161*
X51193Y6017*
X51181Y60174*
X51182Y60179*
X51781*
X51789Y6018*
X51795Y60182*
X51801Y60187*
X51853Y60239*
X51855*
X51907Y60187*
X51913Y60182*
X51914*
X51913Y60177*
X51905Y60178*
X51886Y60176*
X51867Y6017*
X5185Y60161*
X51835Y60149*
X51823Y60134*
X51814Y60117*
X51808Y60098*
X51806Y60079*
X51808Y60059*
X51814Y60041*
X51823Y60024*
X51835Y60009*
X5185Y59997*
X51867Y59987*
X51886Y59982*
X51905Y5998*
X51924Y59982*
X51943Y59987*
X5196Y59997*
X51975Y60009*
X51987Y60024*
X51996Y60041*
X52002Y60059*
X52004Y60079*
X52002Y60098*
X51996Y60117*
X51987Y60134*
X51975Y60149*
X5196Y60161*
X51943Y6017*
X51931Y60174*
X51932Y60179*
X52533*
X52541Y6018*
X52547Y60182*
X52553Y60187*
X52603Y60236*
X52607*
X52656Y60188*
X52662Y60183*
X52666Y60181*
X52665Y60177*
X52655Y60178*
X52636Y60176*
X52617Y6017*
X526Y60161*
X52585Y60149*
X52573Y60134*
X52564Y60117*
X52558Y60098*
X52556Y60079*
X52558Y60059*
X52564Y60041*
X52573Y60024*
X52585Y60009*
X526Y59997*
X52616Y59988*
X52615Y59983*
X52595*
X52585Y59993*
X5258Y59997*
X52573Y6*
X52566Y60001*
X52121*
X52119Y60005*
X52113Y60017*
X5211Y60021*
X52112Y60026*
X52119Y60027*
X52132Y60032*
X52143Y60041*
X52152Y60052*
X52157Y60065*
X52159Y60079*
X52157Y60093*
X52152Y60106*
X52143Y60117*
X52132Y60125*
X52119Y60131*
X52105Y60133*
X52091Y60131*
X52078Y60125*
X52067Y60117*
X52058Y60106*
X52053Y60093*
X52051Y60079*
X52053Y60065*
X52058Y60052*
X52055Y60048*
X52041Y60047*
X52028Y60043*
X52016Y60037*
X52006Y60028*
X51997Y60017*
X51991Y60005*
X51987Y59992*
X51985Y59979*
X51987Y59965*
X51991Y59953*
X51855Y59817*
X51846*
X51845Y59822*
X51854Y5983*
X51863Y5984*
X51869Y59852*
X51873Y59865*
X51875Y59879*
X51873Y59892*
X51869Y59905*
X51863Y59917*
X51854Y59928*
X51844Y59937*
X51832Y59943*
X51819Y59947*
X51805Y59948*
X51791Y59947*
X51778Y59943*
X51766Y59937*
X51756Y59928*
X51747Y59917*
X51741Y59905*
X51737Y59892*
X51735Y59879*
X51737Y59865*
X51741Y59852*
X51747Y5984*
X51756Y5983*
X51765Y59822*
X51764Y59817*
X51505*
X51369Y59953*
X51373Y59965*
X51375Y59979*
X51373Y59992*
X51369Y60005*
X51363Y60017*
X5136Y60021*
X51362Y60026*
X51369Y60027*
X51382Y60032*
X51393Y60041*
X51402Y60052*
X51407Y60065*
X51409Y60079*
X51407Y60093*
X51402Y60106*
X51393Y60117*
X51382Y60125*
X51369Y60131*
X51355Y60133*
X51341Y60131*
X51328Y60125*
X51317Y60117*
X51308Y60106*
X51303Y60093*
X51301Y60079*
X51303Y60065*
X51308Y60052*
X51305Y60048*
X51291Y60047*
X51278Y60043*
X51266Y60037*
X51256Y60028*
X51247Y60017*
X51241Y60005*
X51237Y59992*
X51235Y59979*
X51237Y59965*
X51241Y59953*
X51102Y59814*
X51091*
X5109Y59819*
X51094Y59821*
X51104Y5983*
X51113Y5984*
X51119Y59852*
X51123Y59865*
X51125Y59879*
X51123Y59892*
X51119Y59905*
X51113Y59917*
X51104Y59928*
X51094Y59937*
X51082Y59943*
X51069Y59947*
X51055Y59948*
X51041Y59947*
X51028Y59943*
X51016Y59937*
X51006Y59928*
X50997Y59917*
X50991Y59905*
X50987Y59892*
X50985Y59879*
X50987Y59865*
X50991Y59852*
X50997Y5984*
X51006Y5983*
X51016Y59821*
X5102Y59819*
X51019Y59814*
X50758*
X50619Y59953*
X50623Y59965*
X50625Y59979*
X50623Y59992*
X50619Y60005*
X50613Y60017*
X5061Y60021*
X50612Y60026*
X50619Y60027*
X50632Y60032*
X50643Y60041*
X50652Y60052*
X50657Y60065*
X50659Y60079*
X50657Y60093*
X50652Y60106*
X50643Y60117*
X50632Y60125*
X50619Y60131*
X50605Y60133*
X50591Y60131*
X50578Y60125*
X50567Y60117*
X50558Y60106*
X50553Y60093*
X50551Y60079*
X50553Y60065*
X50558Y60052*
X50555Y60048*
X50541Y60047*
X50528Y60043*
X50516Y60037*
X50506Y60028*
X50497Y60017*
X50491Y60005*
X50487Y59992*
X50485Y59979*
X50487Y59965*
X50491Y59953*
X50356Y59818*
X50347*
X50346Y59823*
X50354Y5983*
X50363Y5984*
X50369Y59852*
X50373Y59865*
X50375Y59879*
X50373Y59892*
X50369Y59905*
X50363Y59917*
X50354Y59928*
X50344Y59937*
X50332Y59943*
X50319Y59947*
X50305Y59948*
X50291Y59947*
X50278Y59943*
X50266Y59937*
X50256Y59928*
X50247Y59917*
X50241Y59905*
X50237Y59892*
X50235Y59879*
X50237Y59865*
X50241Y59852*
X50247Y5984*
X50256Y5983*
X50264Y59823*
X50263Y59818*
X50004*
X49869Y59953*
X49873Y59965*
X49875Y59979*
X49873Y59992*
X49869Y60005*
X49863Y60017*
X4986Y60021*
X49862Y60026*
X49869Y60027*
X49882Y60032*
X49893Y60041*
X49902Y60052*
X49907Y60065*
X49909Y60079*
X49907Y60093*
X49902Y60106*
X49893Y60117*
X49882Y60125*
X49869Y60131*
X49855Y60133*
X49841Y60131*
X49828Y60125*
X49817Y60117*
X49808Y60106*
X49803Y60093*
X49801Y60079*
X49803Y60065*
X49808Y60052*
X49805Y60048*
X49791Y60047*
X49778Y60043*
X49766Y60037*
X49756Y60028*
X49747Y60017*
X49741Y60005*
X49737Y59992*
X49735Y59979*
X49737Y59965*
X49741Y59953*
X49603Y59815*
X49593*
X49592Y5982*
X49594Y59821*
X49604Y5983*
X49613Y5984*
X49619Y59852*
X49623Y59865*
X49625Y59879*
X49623Y59892*
X49619Y59905*
X49613Y59917*
X49604Y59928*
X49594Y59937*
X49582Y59943*
X49569Y59947*
X49555Y59948*
X49541Y59947*
X49528Y59943*
X49516Y59937*
X49506Y59928*
X49497Y59917*
X49491Y59905*
X49487Y59892*
X49485Y59879*
X49487Y59865*
X49491Y59852*
X49497Y5984*
X49506Y5983*
X49516Y59821*
X49518Y5982*
X49517Y59815*
X49257*
X49119Y59953*
X49123Y59965*
X49125Y59979*
X49123Y59992*
X49119Y60005*
X49113Y60017*
X4911Y60021*
X49112Y60026*
X49119Y60027*
X49132Y60032*
X49143Y60041*
X49152Y60052*
X49157Y60065*
X49159Y60079*
X49157Y60093*
X49152Y60106*
X49143Y60117*
X49132Y60125*
X49119Y60131*
X49105Y60133*
X49091Y60131*
X49078Y60125*
X49067Y60117*
X49058Y60106*
X49053Y60093*
X49051Y60079*
X49053Y60065*
X49058Y60052*
X49055Y60048*
X49041Y60047*
X49028Y60043*
X49016Y60037*
X49006Y60028*
X48997Y60017*
X48991Y60005*
X48987Y59992*
X48985Y59979*
X48987Y59965*
X48991Y59953*
X48853Y59815*
X48843*
X48842Y5982*
X48844Y59821*
X48854Y5983*
X48863Y5984*
X48869Y59852*
X48873Y59865*
X48875Y59879*
X48873Y59892*
X48869Y59905*
X48863Y59917*
X48854Y59928*
X48844Y59937*
X48832Y59943*
X48819Y59947*
X48805Y59948*
X48791Y59947*
X48778Y59943*
X48766Y59937*
X48756Y59928*
X48747Y59917*
X48741Y59905*
X48737Y59892*
X48735Y59879*
X48737Y59865*
X48741Y59852*
X48747Y5984*
X48756Y5983*
X48766Y59821*
X48768Y5982*
X48767Y59815*
X48507*
X48369Y59953*
X48373Y59965*
X48375Y59979*
X48373Y59992*
X48369Y60005*
X48363Y60017*
X4836Y60021*
X48362Y60026*
X48369Y60027*
X48382Y60032*
X48393Y60041*
X48402Y60052*
X48407Y60065*
X48409Y60079*
X48407Y60093*
X48402Y60106*
X48393Y60117*
X48382Y60125*
X48369Y60131*
X48355Y60133*
X48341Y60131*
X48328Y60125*
X48317Y60117*
X48308Y60106*
X48303Y60093*
X48301Y60079*
X48303Y60065*
X48308Y60052*
X48305Y60048*
X48291Y60047*
X48278Y60043*
X48266Y60037*
X48256Y60028*
X48247Y60017*
X48241Y60005*
X48237Y59992*
X48235Y59979*
X48237Y59965*
X48241Y59953*
X48102Y59814*
X48091*
X4809Y59819*
X48094Y59821*
X48104Y5983*
X48113Y5984*
X48119Y59852*
X48123Y59865*
X48125Y59879*
X48123Y59892*
X48119Y59905*
X48113Y59917*
X48104Y59928*
X48094Y59937*
X48082Y59943*
X48069Y59947*
X48055Y59948*
X48041Y59947*
X48028Y59943*
X48016Y59937*
X48006Y59928*
X47997Y59917*
X47991Y59905*
X47987Y59892*
X47985Y59879*
X47987Y59865*
X47991Y59852*
X47997Y5984*
X48006Y5983*
X48016Y59821*
X4802Y59819*
X48019Y59814*
X47758*
X47619Y59953*
X47623Y59965*
X47625Y59979*
X47623Y59992*
X47619Y60005*
X47613Y60017*
X4761Y60021*
X47612Y60026*
X47619Y60027*
X47632Y60032*
X47643Y60041*
X47652Y60052*
X47657Y60065*
X47659Y60079*
X47657Y60093*
X47652Y60106*
X47643Y60117*
X47632Y60125*
X47619Y60131*
X47605Y60133*
X47591Y60131*
X47578Y60125*
X47567Y60117*
X47558Y60106*
X47553Y60093*
X47551Y60079*
X47553Y60065*
X47558Y60052*
X47555Y60048*
X47541Y60047*
X47528Y60043*
X47516Y60037*
X47506Y60028*
X47497Y60017*
X47491Y60005*
X47487Y59992*
X47485Y59979*
X47487Y59965*
X47491Y59952*
X47497Y5994*
X47506Y5993*
X47516Y59921*
X47518Y5992*
X47519Y59915*
X47417Y59813*
X47339*
X47338Y59818*
X47344Y59821*
X47354Y5983*
X47363Y5984*
X47369Y59852*
X47373Y59865*
X47375Y59879*
X47373Y59892*
X47369Y59905*
X47363Y59917*
X47354Y59928*
X47344Y59937*
X47332Y59943*
X47319Y59947*
X47305Y59948*
X47291Y59947*
X47278Y59943*
X47266Y59937*
X47256Y59928*
X47247Y59917*
X47241Y59905*
X47237Y59892*
X47235Y59879*
X47237Y59865*
X47241Y59852*
X47247Y5984*
X47256Y5983*
X47266Y59821*
X47272Y59818*
X47271Y59813*
X47204*
X47109Y59909*
Y5996*
Y59961*
X47113Y59969*
X47114Y59977*
X47113Y59986*
X47109Y59993*
X47104Y6*
X47098Y60005*
X4709Y60008*
X47081Y6001*
X47073Y60008*
X47067Y60006*
X46869*
X46863Y60017*
X4686Y60021*
X46862Y60026*
X46869Y60027*
X46882Y60032*
X46893Y60041*
X46902Y60052*
X46907Y60065*
X46909Y60079*
X46907Y60093*
X46902Y60106*
X46893Y60117*
X46882Y60125*
X46869Y60131*
X46855Y60133*
X46841Y60131*
X46828Y60125*
X46817Y60117*
X46808Y60106*
X46803Y60093*
X46801Y60079*
X46803Y60065*
X46808Y60052*
X46805Y60048*
X46791Y60047*
X46778Y60043*
X46766Y60037*
X46756Y60028*
X46747Y60017*
X46741Y60005*
X46737Y59992*
X46735Y59979*
X46737Y59965*
X46741Y59953*
X46599Y59811*
X46585*
X46584Y59816*
X46594Y59821*
X46604Y5983*
X46613Y5984*
X46619Y59852*
X46623Y59865*
X46625Y59879*
X46623Y59892*
X46619Y59905*
X46613Y59917*
X46604Y59928*
X46594Y59937*
X46582Y59943*
X46569Y59947*
X46555Y59948*
X46541Y59947*
X46528Y59943*
X46516Y59937*
X46506Y59928*
X46497Y59917*
X46491Y59905*
X46487Y59892*
X46485Y59879*
X46487Y59865*
X46491Y59852*
X46497Y5984*
X46506Y5983*
X46516Y59821*
X46526Y59816*
X46525Y59811*
X46261*
X46119Y59953*
X46123Y59965*
X46125Y59979*
X46123Y59992*
X46119Y60005*
X46113Y60017*
X4611Y60021*
X46112Y60026*
X46119Y60027*
X46132Y60032*
X46143Y60041*
X46152Y60052*
X46157Y60065*
X46159Y60079*
X46157Y60093*
X46152Y60106*
X46143Y60117*
X46132Y60125*
X46119Y60131*
X46105Y60133*
X46091Y60131*
X46078Y60125*
X46067Y60117*
X46058Y60106*
X46053Y60093*
X46051Y60079*
X46053Y60065*
X46058Y60052*
X46055Y60048*
X46041Y60047*
X46028Y60043*
X46016Y60037*
X46006Y60028*
X45997Y60017*
X45991Y60005*
X45987Y59992*
X45985Y59979*
X45987Y59965*
X45991Y59953*
X45849Y59811*
X45835*
X45834Y59816*
X45844Y59821*
X45854Y5983*
X45863Y5984*
X45869Y59852*
X45873Y59865*
X45875Y59879*
X45873Y59892*
X45869Y59905*
X45863Y59917*
X45854Y59928*
X45844Y59937*
X45832Y59943*
X45819Y59947*
X45805Y59948*
X45791Y59947*
X45778Y59943*
X45766Y59937*
X45756Y59928*
X45747Y59917*
X45741Y59905*
X45737Y59892*
X45735Y59879*
X45737Y59865*
X45741Y59852*
X45747Y5984*
X45756Y5983*
X45766Y59821*
X45776Y59816*
X45775Y59811*
X45511*
X45369Y59953*
X45373Y59965*
X45375Y59979*
X45373Y59992*
X45369Y60005*
X45363Y60017*
X4536Y60021*
X45362Y60026*
X45369Y60027*
X45382Y60032*
X45393Y60041*
X45402Y60052*
X45407Y60065*
X45409Y60079*
X45407Y60093*
X45402Y60106*
X45393Y60117*
X45382Y60125*
X45369Y60131*
X45355Y60133*
X45341Y60131*
X45328Y60125*
X45317Y60117*
X45308Y60106*
X45303Y60093*
X45301Y60079*
X45303Y60065*
X45308Y60052*
X45305Y60048*
X45291Y60047*
X45278Y60043*
X45266Y60037*
X45256Y60028*
X45247Y60017*
X45241Y60005*
X45237Y59992*
X45235Y59979*
X45237Y59965*
X45241Y59953*
X45103Y59815*
X45093*
X45092Y5982*
X45094Y59821*
X45104Y5983*
X45113Y5984*
X45119Y59852*
X45123Y59865*
X45125Y59879*
X45123Y59892*
X45119Y59905*
X45113Y59917*
X45104Y59928*
X45094Y59937*
X45082Y59943*
X45069Y59947*
X45055Y59948*
X45041Y59947*
X45028Y59943*
X45016Y59937*
X45006Y59928*
X44997Y59917*
X44991Y59905*
X44987Y59892*
X44985Y59879*
X44987Y59865*
X44991Y59852*
X44997Y5984*
X45006Y5983*
X45016Y59821*
X45018Y5982*
X45017Y59815*
X44757*
X44619Y59953*
X44623Y59965*
X44625Y59979*
X44623Y59992*
X44619Y60005*
X44613Y60017*
X4461Y60021*
X44612Y60026*
X44619Y60027*
X44632Y60032*
X44643Y60041*
X44652Y60052*
X44657Y60065*
X44659Y60079*
X44657Y60093*
X44652Y60106*
X44643Y60117*
X44632Y60125*
X44619Y60131*
X44605Y60133*
X44591Y60131*
X44578Y60125*
X44567Y60117*
X44558Y60106*
X44553Y60093*
X44551Y60079*
X44553Y60065*
X44558Y60052*
X44555Y60048*
X44541Y60047*
X44528Y60043*
X44516Y60037*
X44506Y60028*
X44497Y60017*
X44491Y60005*
X44487Y59992*
X44485Y59979*
X44487Y59965*
X44491Y59953*
X44356Y59818*
X44347*
X44346Y59823*
X44354Y5983*
X44363Y5984*
X44369Y59852*
X44373Y59865*
X44375Y59879*
X44373Y59892*
X44369Y59905*
X44363Y59917*
X44354Y59928*
X44344Y59937*
X44332Y59943*
X44319Y59947*
X44305Y59948*
X44291Y59947*
X44278Y59943*
X44266Y59937*
X44256Y59928*
X44247Y59917*
X44241Y59905*
X44237Y59892*
X44235Y59879*
X44237Y59865*
X44241Y59852*
X44247Y5984*
X44256Y5983*
X44264Y59823*
X44263Y59818*
X44192*
X44087Y59923*
X44081Y59928*
X44075Y5993*
X44068Y59931*
X43705*
X43683Y59954*
X43686Y59965*
X43688Y59979*
X43686Y59992*
X43682Y60005*
X43676Y60017*
X43673Y60021*
X43675Y60026*
X43682Y60027*
X43695Y60032*
X43706Y60041*
X43715Y60052*
X4372Y60065*
X43722Y60079*
X4372Y60093*
X43715Y60106*
X43706Y60117*
X43695Y60125*
X43682Y60131*
X43668Y60133*
X43654Y60131*
X43641Y60125*
X4363Y60117*
X43621Y60106*
X43616Y60093*
X43614Y60079*
X43616Y60065*
X43621Y60052*
X43618Y60048*
X43604Y60047*
X43591Y60043*
X43579Y60037*
X43569Y60028*
X4356Y60017*
X43554Y60005*
X4355Y59992*
X43548Y59979*
X4355Y59965*
X43554Y59952*
X4356Y5994*
X43569Y5993*
X43579Y59921*
X43591Y59915*
X43604Y59911*
X43618Y59909*
X43632Y59911*
X43645Y59915*
X43675Y59885*
X4368Y5988*
X43687Y59878*
X43694Y59877*
X44056*
X44162Y59771*
X44167Y59767*
X44174Y59764*
X44175*
X44181*
X44367*
X44374*
X44381Y59767*
X44386Y59771*
X44529Y59914*
X44541Y59911*
X44555Y59909*
X44569Y59911*
X44581Y59914*
X44727Y59768*
X44732Y59764*
X44739Y59761*
X4474*
X44746*
X45114*
X45121*
X45128Y59764*
X45133Y59768*
X45279Y59914*
X45291Y59911*
X45305Y59909*
X45319Y59911*
X45331Y59914*
X45481Y59764*
X45486Y5976*
X45493Y59757*
X45494*
X455*
X4586*
X45867*
X45874Y5976*
X45879Y59764*
X46029Y59914*
X46041Y59911*
X46055Y59909*
X46069Y59911*
X46081Y59914*
X46231Y59764*
X46236Y5976*
X46243Y59757*
X4625*
X4661*
X46617*
X46624Y5976*
X46629Y59764*
X46779Y59914*
X46791Y59911*
X46805Y59909*
X46819Y59911*
X46832Y59915*
X46844Y59921*
X46854Y5993*
X46863Y5994*
X46869Y59952*
X47054*
Y59897*
X47055Y5989*
X47058Y59884*
X47062Y59878*
X47174Y59766*
X47179Y59762*
X47186Y59759*
X47187*
X47193*
X47428*
X47435*
X47442Y59762*
X47447Y59766*
X47574Y59893*
X47579Y59899*
X47581Y59906*
Y59907*
X47582*
X47586Y59909*
X47728Y59767*
X47733Y59763*
X4774Y5976*
X47741*
X47747*
X48113*
X4812*
X48127Y59763*
X48132Y59767*
X48279Y59914*
X48291Y59911*
X48305Y59909*
X48319Y59911*
X48331Y59914*
X48477Y59768*
X48482Y59764*
X48489Y59761*
X48496*
X48864*
X48871*
X48878Y59764*
X48883Y59768*
X49029Y59914*
X49041Y59911*
X49055Y59909*
X49069Y59911*
X49081Y59914*
X49227Y59768*
X49232Y59764*
X49239Y59761*
X49246*
X49614*
X49621*
X49628Y59764*
X49633Y59768*
X49779Y59914*
X49791Y59911*
X49805Y59909*
X49819Y59911*
X49831Y59914*
X49974Y59771*
X49979Y59767*
X49986Y59764*
X49993*
X50367*
X50374*
X50381Y59767*
X50386Y59771*
X50529Y59914*
X50541Y59911*
X50555Y59909*
X50569Y59911*
X50581Y59914*
X50728Y59767*
X50733Y59763*
X5074Y5976*
X50747*
X51113*
X5112*
X51127Y59763*
X51132Y59767*
X51279Y59914*
X51291Y59911*
X51305Y59909*
X51319Y59911*
X51331Y59914*
X51475Y59771*
Y5977*
X5148Y59766*
X51487Y59763*
X51494*
X51866*
X51873*
X5188Y59766*
X51885Y5977*
X52029Y59914*
X52041Y59911*
X52055Y59909*
X52069Y59911*
X52082Y59915*
X52094Y59921*
X52104Y5993*
X52113Y5994*
X52116Y59947*
X52525*
X52526Y59942*
X52516Y59937*
X52506Y59928*
X52497Y59917*
X52491Y59905*
X52487Y59892*
X52485Y59879*
X52487Y59865*
X52491Y59852*
X52497Y5984*
X52506Y5983*
X52516Y59821*
X52528Y59815*
X52541Y59811*
X52547Y5981*
Y59805*
X52479*
X52472Y59804*
X52465Y59801*
X5246Y59797*
X52393Y59731*
X52392*
X52384Y59727*
X52378Y59722*
X52372Y59715*
X52369Y59708*
X52368Y59699*
X52369Y59691*
X52372Y59683*
X52378Y59677*
X52384Y59671*
X52392Y59668*
X524Y59667*
X52409Y59668*
X52416Y59671*
X52423Y59677*
X52428Y59683*
X52432Y59691*
Y59692*
X5249Y59751*
X53045*
Y5975*
Y59749*
X53049Y59741*
X53054Y59735*
X5306Y59729*
X53068Y59726*
X53077Y59725*
X53085Y59726*
X53093Y59729*
X53099Y59735*
X53104Y59741*
X53108Y59749*
X53109Y59757*
X53108Y59766*
X53104Y59774*
X53099Y5978*
X53093Y59785*
X53085Y59789*
X53084*
X53075Y59797*
X5307Y59801*
X53063Y59804*
X53056Y59805*
X52563*
Y5981*
X52569Y59811*
X52582Y59815*
X52594Y59821*
X52604Y5983*
X52613Y5984*
X52619Y59852*
X52623Y59865*
X52625Y59879*
X52623Y59892*
X52619Y59905*
X52613Y59917*
X52607Y59924*
X5261Y59929*
X52719*
X52726*
X52733Y59932*
X52738Y59936*
X52743Y59941*
X52747Y5994*
X52756Y5993*
X52766Y59921*
X52778Y59915*
X52791Y59911*
X52805Y59909*
X52819Y59911*
X52831Y59914*
X52864Y59882*
X52869Y59877*
X52876Y59875*
X52883Y59874*
X53258*
X53265Y59875*
X53271Y59877*
X53277Y59882*
X53326Y59931*
X53442*
X53444Y59926*
X53437Y59917*
X53431Y59905*
X53427Y59892*
X53425Y59879*
X53427Y59865*
X53431Y59852*
X53437Y5984*
X53446Y5983*
X53456Y59821*
X53468Y59815*
X53471Y59814*
Y59809*
X53464Y59806*
X53454Y59798*
X53446Y59788*
X53441Y59776*
X53439Y59763*
X53441Y5975*
X53446Y59738*
X53454Y59727*
X53464Y59719*
X53476Y59715*
X53489Y59713*
X53502Y59715*
X53514Y59719*
X53524Y59727*
X53532Y59738*
X53537Y5975*
X53539Y59763*
X53537Y59776*
X53532Y59788*
X53524Y59798*
X53514Y59806*
X53512Y59807*
Y59812*
X53522Y59815*
X53534Y59821*
X53544Y5983*
X53553Y5984*
X53559Y59852*
X53563Y59865*
X53565Y59879*
X53563Y59892*
X53559Y59905*
X53553Y59917*
X53546Y59926*
X53548Y59931*
X53634*
X53637Y59927*
X53635Y59913*
X53637Y59899*
X53642Y59886*
X53651Y59875*
X53662Y59866*
X53675Y59861*
X53689Y59859*
X53703Y59861*
X53715Y59866*
X53719Y59863*
X53721Y59849*
X53725Y59836*
X53731Y59824*
X5374Y59814*
X5375Y59805*
X53762Y59799*
X53775Y59795*
X53789Y59793*
X53803Y59795*
X53816Y59799*
X53828Y59805*
X53838Y59814*
X53847Y59824*
X53853Y59836*
X53878*
X53955Y59759*
Y59647*
X5395Y59646*
X53947Y59651*
X53938Y59662*
X53928Y59671*
X53916Y59677*
X53903Y59681*
X53889Y59682*
X53875Y59681*
X53862Y59677*
X5385Y59671*
X5384Y59662*
X53839Y59661*
X53829Y5967*
X53815Y59678*
X538Y59682*
X53787Y59683*
X53784Y59688*
X53786Y59693*
X53788Y59713*
X53786Y59732*
X5378Y59751*
X53771Y59768*
X53759Y59783*
X53744Y59795*
X53727Y59804*
X53708Y5981*
X53689Y59812*
X5367Y5981*
X53651Y59804*
X53634Y59795*
X53619Y59783*
X53607Y59768*
X53598Y59751*
X53592Y59732*
X5359Y59713*
X53592Y59693*
X53598Y59675*
X53607Y59658*
X53619Y59643*
X53634Y59631*
X53651Y59621*
X5367Y59616*
X53689Y59614*
X53701Y59615*
X53705Y59612*
X53704Y59603*
X53705Y59588*
X5371Y59572*
X53711Y5957*
X53703Y59565*
X53689Y59567*
X53675Y59565*
X53663Y5956*
X53658Y59563*
X53648Y59567*
X53638Y59569*
X53637*
X53524Y59682*
Y59683*
X53517Y59691*
X53509Y59697*
X53499Y59701*
X53494Y59702*
Y59663*
Y59624*
X53499*
X53502Y59625*
X53598Y59529*
X53599Y59518*
X53603Y59509*
X5361Y59501*
X53618Y59494*
X53628Y5949*
X53638Y59489*
X53641*
X53642Y59486*
X53651Y59475*
X53662Y59466*
X53665Y59465*
X53664Y5946*
X53471*
X53412Y59519*
X53413Y59528*
X53411Y59541*
X53406Y59553*
X53398Y59564*
X53393Y59568*
X53395Y59572*
X53426*
X53433Y59573*
X5344Y59576*
X53446Y5958*
X53484Y59619*
Y59658*
X53445*
X53415Y59628*
X53334*
X53327Y59627*
X5332Y59624*
X53315Y59619*
X53263Y59568*
X53253Y59567*
X53243Y59563*
X53235Y59557*
X53228Y59548*
X53224Y59539*
X53223Y59528*
X53176Y59481*
X52921*
X52919Y59486*
X52929Y59493*
X52937Y59504*
X52942Y59516*
X52944Y59529*
X52942Y59542*
X52937Y59554*
X52929Y59564*
X52919Y59572*
X52917Y59573*
X52922Y59588*
X52924Y59603*
X52922Y59619*
X52917Y59634*
X5291Y59648*
X529Y5966*
X52888Y5967*
X52874Y59678*
X52859Y59682*
X52843Y59684*
X52827Y59682*
X52812Y59678*
X52799Y5967*
X52786Y5966*
X52776Y59648*
X52769Y59634*
X52764Y59619*
X52763Y59605*
X52758Y59604*
X52742Y59619*
X52737Y59624*
X5273Y59627*
X52723Y59628*
X52115*
X52108Y59627*
X52101Y59624*
X52096Y59619*
X52049Y59573*
Y59534*
X52088*
X5209Y59536*
X52095Y59534*
X52094Y59529*
X52096Y59516*
X52101Y59504*
X52109Y59493*
X52119Y59485*
X52131Y5948*
X52144Y59479*
X52157Y5948*
X52169Y59485*
X52179Y59493*
X52187Y59504*
X52192Y59516*
X52194Y59529*
X52192Y59542*
X52187Y59554*
X52179Y59564*
X52175Y59568*
X52176Y59572*
X52711*
X5275Y59534*
X52794*
Y59529*
X52799*
Y59485*
X5285Y59434*
X52853Y59432*
X52851Y59427*
X52844Y59428*
X52825Y59426*
X52806Y5942*
X52789Y59411*
X52774Y59399*
X52762Y59384*
X52753Y59367*
X52747Y59348*
X52745Y59329*
X52747Y59309*
X52753Y59291*
X52762Y59274*
X52772Y59262*
X52771Y59257*
Y59256*
X52308*
X52302Y59267*
X52299Y59271*
X52301Y59276*
X52308Y59277*
X52321Y59282*
X52332Y59291*
X52341Y59302*
X52346Y59315*
X52348Y59329*
X52346Y59343*
X52341Y59356*
X52332Y59367*
X52321Y59375*
X52308Y59381*
X52294Y59383*
X5228Y59381*
X52267Y59375*
X52256Y59367*
X52247Y59356*
X52242Y59343*
X5224Y59329*
X52242Y59315*
X52247Y59302*
X52244Y59298*
X5223Y59297*
X52217Y59293*
X52205Y59287*
X52195Y59278*
X52186Y59267*
X5218Y59256*
X52169*
X52167*
X52165Y5926*
X52176Y59274*
X52185Y59291*
X52191Y59309*
X52193Y59329*
X52191Y59348*
X52185Y59367*
X52176Y59384*
X52164Y59399*
X52149Y59411*
X52132Y5942*
X52113Y59426*
X52094Y59428*
X52075Y59426*
X52056Y5942*
X52039Y59411*
X52024Y59399*
X52012Y59384*
X52003Y59367*
X51997Y59348*
X51995Y59329*
X51997Y59309*
X52003Y59291*
X52012Y59274*
X52023Y59261*
X52021Y59256*
X51558*
X51552Y59267*
X51549Y59271*
X51551Y59276*
X51558Y59277*
X51571Y59282*
X51582Y59291*
X51591Y59302*
X51596Y59315*
X51598Y59329*
X51596Y59343*
X51591Y59356*
X51582Y59367*
X51571Y59375*
X51558Y59381*
X51544Y59383*
X5153Y59381*
X51517Y59375*
X51506Y59367*
X51497Y59356*
X51492Y59343*
X5149Y59329*
X51492Y59315*
X51497Y59302*
X51494Y59298*
X5148Y59297*
X51467Y59293*
X51455Y59287*
X51445Y59278*
X51436Y59267*
X5143Y59256*
X51417*
X51415Y59261*
X51426Y59274*
X51435Y59291*
X51441Y59309*
X51443Y59329*
X51441Y59348*
X51435Y59367*
X51426Y59384*
X51414Y59399*
X51399Y59411*
X51382Y5942*
X51363Y59426*
X51344Y59428*
X51325Y59426*
X51306Y5942*
X51289Y59411*
X51274Y59399*
X51262Y59384*
X51253Y59367*
X51247Y59348*
X51245Y59329*
X51247Y59309*
X51253Y59291*
X51262Y59274*
X51273Y59261*
X51271Y59256*
X50808*
X50802Y59267*
X50799Y59271*
X50801Y59276*
X50808Y59277*
X50821Y59282*
X50832Y59291*
X50841Y59302*
X50846Y59315*
X50848Y59329*
X50846Y59343*
X50841Y59356*
X50832Y59367*
X50821Y59375*
X50808Y59381*
X50794Y59383*
X5078Y59381*
X50767Y59375*
X50756Y59367*
X50747Y59356*
X50742Y59343*
X5074Y59329*
X50742Y59315*
X50747Y59302*
X50744Y59298*
X5073Y59297*
X50717Y59293*
X50705Y59287*
X50695Y59278*
X50686Y59267*
X5068Y59256*
X50667*
X50665Y59261*
X50676Y59274*
X50685Y59291*
X50691Y59309*
X50693Y59329*
X50691Y59348*
X50685Y59367*
X50676Y59384*
X50664Y59399*
X50649Y59411*
X50632Y5942*
X50613Y59426*
X50594Y59428*
X50575Y59426*
X50556Y5942*
X50539Y59411*
X50524Y59399*
X50512Y59384*
X50503Y59367*
X50497Y59348*
X50495Y59329*
X50497Y59309*
X50503Y59291*
X50512Y59274*
X50523Y5926*
X50521Y59255*
X50516Y59256*
X50058*
X50052Y59267*
X50049Y59271*
X50051Y59276*
X50058Y59277*
X50071Y59282*
X50082Y59291*
X50091Y59302*
X50096Y59315*
X50098Y59329*
X50096Y59343*
X50091Y59356*
X50082Y59367*
X50071Y59375*
X50058Y59381*
X50044Y59383*
X5003Y59381*
X50017Y59375*
X50006Y59367*
X49997Y59356*
X49992Y59343*
X4999Y59329*
X49992Y59315*
X49997Y59302*
X49994Y59298*
X4998Y59297*
X49967Y59293*
X49955Y59287*
X49945Y59278*
X49936Y59267*
X4993Y59256*
X49917*
X49916Y59259*
Y59261*
X49926Y59274*
X49935Y59291*
X49941Y59309*
X49943Y59329*
X49941Y59348*
X49935Y59367*
X49926Y59384*
X49914Y59399*
X49899Y59411*
X49882Y5942*
X49863Y59426*
X49844Y59428*
X49825Y59426*
X49806Y5942*
X49789Y59411*
X49774Y59399*
X49762Y59384*
X49753Y59367*
X49747Y59348*
X49745Y59329*
X49747Y59309*
X49753Y59291*
X49762Y59274*
X49773Y5926*
X49771Y59255*
X49766Y59256*
X49308*
X49302Y59267*
X49299Y59271*
X49301Y59276*
X49308Y59277*
X49321Y59282*
X49332Y59291*
X49341Y59302*
X49346Y59315*
X49348Y59329*
X49346Y59343*
X49341Y59356*
X49332Y59367*
X49321Y59375*
X49308Y59381*
X49294Y59383*
X4928Y59381*
X49267Y59375*
X49256Y59367*
X49247Y59356*
X49242Y59343*
X4924Y59329*
X49242Y59315*
X49247Y59302*
X49244Y59298*
X4923Y59297*
X49217Y59293*
X49205Y59287*
X49195Y59278*
X49186Y59267*
X4918Y59256*
X49174Y59255*
X49173*
X49167Y59252*
X49161Y59248*
X49137Y59224*
X49069*
X49063Y5923*
X49066Y59235*
X49075Y59232*
X49094Y5923*
X49113Y59232*
X49132Y59237*
X49149Y59247*
X49164Y59259*
X49176Y59274*
X49185Y59291*
X49191Y59309*
X49193Y59329*
X49191Y59348*
X49185Y59367*
X49176Y59384*
X49164Y59399*
X49149Y59411*
X49132Y5942*
X49113Y59426*
X49094Y59428*
X49075Y59426*
X49056Y5942*
X49039Y59411*
X49024Y59399*
X49012Y59384*
X49003Y59367*
X48997Y59348*
X48995Y59329*
X48997Y59309*
X49003Y59291*
X49012Y59274*
X49023Y5926*
X49021Y59256*
X48558*
X48552Y59267*
X48549Y59271*
X48551Y59276*
X48558Y59277*
X48571Y59282*
X48582Y59291*
X48591Y59302*
X48596Y59315*
X48598Y59329*
X48596Y59343*
X48591Y59356*
X48582Y59367*
X48571Y59375*
X48558Y59381*
X48544Y59383*
X4853Y59381*
X48517Y59375*
X48506Y59367*
X48497Y59356*
X48492Y59343*
X4849Y59329*
X48492Y59315*
X48497Y59302*
X48494Y59298*
X4848Y59297*
X48467Y59293*
X48455Y59287*
X48445Y59278*
X48436Y59267*
X4843Y59256*
X48417*
X48415Y5926*
X48426Y59274*
X48435Y59291*
X48441Y59309*
X48443Y59329*
X48441Y59348*
X48435Y59367*
X48426Y59384*
X48414Y59399*
X48399Y59411*
X48382Y5942*
X48363Y59426*
X48344Y59428*
X48325Y59426*
X48306Y5942*
X48289Y59411*
X48274Y59399*
X48262Y59384*
X48253Y59367*
X48247Y59348*
X48245Y59329*
X48247Y59309*
X48253Y59291*
X48262Y59274*
X48274Y59259*
X4828Y59254*
X48277Y5925*
X48275Y59251*
X48268Y59252*
X48122*
X48116Y59251*
X48115*
X48109Y59248*
X48103Y59244*
X4805Y59191*
X48033*
X48032Y59196*
X48041Y592*
X48062Y59213*
X48081Y59229*
X48097Y59248*
X4811Y59269*
X48114Y59279*
X48119Y59281*
X4813Y59277*
X48144Y59275*
X48158Y59277*
X48171Y59282*
X48182Y59291*
X48191Y59302*
X48196Y59315*
X48198Y59329*
X48196Y59343*
X48191Y59356*
X48182Y59367*
X48171Y59375*
X48158Y59381*
X48144Y59383*
X4813Y59381*
X48126Y59379*
X48122Y59381*
X4812Y5939*
X4811Y59413*
X48097Y59434*
X48081Y59453*
X48062Y59469*
X48041Y59482*
X48018Y59491*
X47994Y59497*
X47969Y59499*
X47944Y59497*
X4792Y59491*
X47897Y59482*
X47876Y59469*
X47857Y59453*
X47841Y59434*
X47828Y59413*
X47818Y5939*
X47816Y59381*
X47812Y59379*
X47808Y59381*
X47794Y59383*
X4778Y59381*
X47767Y59375*
X47756Y59367*
X47747Y59356*
X47742Y59343*
X4774Y59329*
X47742Y59315*
X47747Y59302*
X47744Y59298*
X4773Y59297*
X47717Y59293*
X47705Y59287*
X47695Y59278*
X47686Y59267*
X4768Y59255*
X47678*
X47671Y59252*
X47666Y59248*
X47647Y59229*
X47621*
X4762Y59234*
X47632Y59237*
X47649Y59247*
X47664Y59259*
X47676Y59274*
X47685Y59291*
X47691Y59309*
X47693Y59329*
X47691Y59348*
X47685Y59367*
X47676Y59384*
X47664Y59399*
X47649Y59411*
X47632Y5942*
X47613Y59426*
X47594Y59428*
X47575Y59426*
X47556Y5942*
X47539Y59411*
X47524Y59399*
X47512Y59384*
X47503Y59367*
X47497Y59348*
X47495Y59329*
X47497Y59309*
X47503Y59291*
X47512Y59274*
X47524Y59259*
X47532Y59253*
X4753Y59248*
X47304*
X47303Y59249*
X47295Y59252*
X47287Y59253*
X47279Y59252*
X47271Y59249*
X4727Y59248*
X4706*
X47058Y59255*
X47052Y59267*
X47049Y59271*
X47051Y59276*
X47058Y59277*
X47071Y59282*
X47082Y59291*
X47091Y59302*
X47096Y59315*
X47098Y59329*
X47096Y59343*
X47091Y59356*
X47082Y59367*
X47071Y59375*
X47058Y59381*
X47044Y59383*
X4703Y59381*
X47017Y59375*
X47006Y59367*
X46997Y59356*
X46992Y59343*
X4699Y59329*
X46992Y59315*
X46997Y59302*
X46994Y59298*
X4698Y59297*
X46967Y59293*
X46955Y59287*
X46945Y59278*
X46936Y59267*
X4693Y59255*
X46926Y59242*
X46924Y59229*
X46926Y59215*
X4693Y59203*
X46795Y59068*
X46786*
X46785Y59073*
X46793Y5908*
X46802Y5909*
X46808Y59102*
X46812Y59115*
X46814Y59129*
X46812Y59142*
X46808Y59155*
X46802Y59167*
X46793Y59178*
X46783Y59187*
X46771Y59193*
X46758Y59197*
X46744Y59198*
X4673Y59197*
X46717Y59193*
X46705Y59187*
X46695Y59178*
X46686Y59167*
X4668Y59155*
X46676Y59142*
X46674Y59129*
X46676Y59115*
X4668Y59102*
X46686Y5909*
X46695Y5908*
X46703Y59073*
X46702Y59068*
X46443*
X46308Y59203*
X46312Y59215*
X46314Y59229*
X46312Y59242*
X46308Y59255*
X46302Y59267*
X46299Y59271*
X46301Y59276*
X46308Y59277*
X46321Y59282*
X46332Y59291*
X46341Y59302*
X46346Y59315*
X46348Y59329*
X46346Y59343*
X46341Y59356*
X46332Y59367*
X46321Y59375*
X46308Y59381*
X46294Y59383*
X4628Y59381*
X46267Y59375*
X46256Y59367*
X46247Y59356*
X46242Y59343*
X4624Y59329*
X46242Y59315*
X46247Y59302*
X46244Y59298*
X4623Y59297*
X46217Y59293*
X46205Y59287*
X46195Y59278*
X46186Y59267*
X4618Y59255*
X46176Y59242*
X46174Y59229*
X46176Y59215*
X4618Y59203*
X46046Y59069*
X46038*
X46036Y59074*
X46043Y5908*
X46052Y5909*
X46058Y59102*
X46062Y59115*
X46064Y59129*
X46062Y59142*
X46058Y59155*
X46052Y59167*
X46043Y59178*
X46033Y59187*
X46021Y59193*
X46008Y59197*
X45994Y59198*
X4598Y59197*
X45967Y59193*
X45955Y59187*
X45945Y59178*
X45936Y59167*
X4593Y59155*
X45926Y59142*
X45924Y59129*
X45926Y59115*
X4593Y59102*
X45936Y5909*
X45945Y5908*
X45952Y59074*
X4595Y59069*
X45692*
X45558Y59203*
X45562Y59215*
X45564Y59229*
X45562Y59242*
X45558Y59255*
X45552Y59267*
X45549Y59271*
X45551Y59276*
X45558Y59277*
X45571Y59282*
X45582Y59291*
X45591Y59302*
X45596Y59315*
X45598Y59329*
X45596Y59343*
X45591Y59356*
X45582Y59367*
X45571Y59375*
X45558Y59381*
X45544Y59383*
X4553Y59381*
X45517Y59375*
X45506Y59367*
X45497Y59356*
X45492Y59343*
X4549Y59329*
X45492Y59315*
X45497Y59302*
X45494Y59298*
X4548Y59297*
X45467Y59293*
X45455Y59287*
X45445Y59278*
X45436Y59267*
X4543Y59256*
X45422*
X45417Y59255*
X45415Y5926*
X45426Y59274*
X45435Y59291*
X45441Y59309*
X45443Y59329*
X45441Y59348*
X45435Y59367*
X45426Y59384*
X45414Y59399*
X45399Y59411*
X45382Y5942*
X4537Y59424*
X45371Y59429*
X4566*
X45667Y5943*
X45674Y59432*
X4568Y59437*
X45749Y59506*
X45815Y59572*
X45961*
X46Y59534*
X46039*
Y59573*
X45992Y59619*
X45987Y59624*
X4598Y59627*
X45973Y59628*
X45804*
X45797Y59627*
X4579Y59624*
X45784Y59619*
X4571Y59545*
X45649Y59484*
X45425*
X45423Y59489*
X45429Y59493*
X45437Y59504*
X45442Y59516*
X45444Y59529*
X45442Y59542*
X45437Y59554*
X45429Y59564*
X45419Y59572*
X45407Y59577*
X45394Y59579*
X45381Y59577*
X45369Y59572*
X45359Y59564*
X45351Y59554*
X45346Y59542*
X45344Y59529*
Y59526*
X4534Y59524*
X45334Y5953*
X45333Y59539*
X45329Y59549*
X45322Y59557*
X45314Y59563*
X45304Y59567*
X45299Y59568*
Y59529*
Y59486*
X45349Y59437*
X45354Y59432*
X45357Y5943*
X45355Y59426*
X45344Y59428*
X45325Y59426*
X45306Y5942*
X45289Y59411*
X45274Y59399*
X45262Y59384*
X45253Y59367*
X45247Y59348*
X45245Y59329*
X45247Y59309*
X45253Y59291*
X45262Y59274*
X45274Y59259*
X45289Y59247*
X45296Y59243*
X45295Y59238*
X45268*
X45258Y59248*
X45253Y59252*
X45246Y59255*
X45239Y59256*
X44808*
X44802Y59267*
X44799Y59271*
X44801Y59276*
X44808Y59277*
X44821Y59282*
X44832Y59291*
X44841Y59302*
X44846Y59315*
X44848Y59329*
X44846Y59343*
X44841Y59356*
X44832Y59367*
X44821Y59375*
X44808Y59381*
X44794Y59383*
X4478Y59381*
X44767Y59375*
X44756Y59367*
X44747Y59356*
X44742Y59343*
X4474Y59329*
X44742Y59315*
X44747Y59302*
X44744Y59298*
X4473Y59297*
X44717Y59293*
X44705Y59287*
X44695Y59278*
X44686Y59267*
X4468Y59256*
X44667*
X44665Y5926*
X44676Y59274*
X44685Y59291*
X44691Y59309*
X44693Y59329*
X44691Y59348*
X44685Y59367*
X44676Y59384*
X44664Y59399*
X44649Y59411*
X44632Y5942*
X44617Y59425*
Y5943*
X45222*
X4523Y59431*
X45236Y59433*
X45242Y59438*
X45289Y59485*
Y59524*
X4525*
X45211Y59485*
X44676*
X44674Y5949*
X44679Y59493*
X44687Y59504*
X44692Y59516*
X44694Y59529*
X44692Y59542*
X44687Y59554*
X44679Y59564*
X44669Y59572*
X44657Y59577*
X44644Y59579*
X44631Y59577*
X44619Y59572*
X44609Y59564*
X44601Y59554*
X44596Y59542*
X44594Y59529*
X44595Y59519*
X44591Y59517*
X44584Y59524*
X44505*
Y59522*
X4447Y59487*
X44033*
X44026Y59486*
X44019Y59483*
X44014Y59479*
X43965Y5943*
X43961Y59425*
X43958Y59418*
X43957Y59411*
X43958Y59404*
X43961Y59397*
X43965Y59391*
X43971Y59387*
X43978Y59384*
X43985Y59383*
X43992Y59384*
X43999Y59387*
X44005Y59391*
X44045Y59432*
X44481*
X44488Y59433*
X44495Y59435*
X44501Y5944*
X44545Y59484*
X44592Y59438*
X44598Y59433*
X44601Y59432*
X446Y59427*
X44594Y59428*
X44575Y59426*
X44556Y5942*
X44539Y59411*
X44524Y59399*
X44512Y59384*
X44503Y59367*
X44497Y59348*
X44495Y59329*
X44497Y59309*
X44503Y59291*
X44512Y59274*
X44524Y59259*
X44539Y59247*
X44556Y59237*
X44564Y59235*
Y5923*
X44539*
X44525Y59244*
X4452Y59248*
X44513Y59251*
X44506Y59252*
X43859*
X43852Y59251*
X43845Y59248*
X43839Y59244*
X4375Y59155*
X43718*
Y5916*
X43727Y59161*
X4374Y59165*
X43752Y59171*
X43762Y5918*
X43771Y5919*
X43777Y59202*
X43781Y59215*
X43783Y59229*
X43781Y59242*
X43777Y59255*
X43771Y59267*
X43768Y59271*
X4377Y59276*
X43777Y59277*
X4379Y59282*
X43801Y59291*
X4381Y59302*
X43815Y59315*
X43817Y59329*
X43815Y59343*
X4381Y59356*
X43801Y59367*
X4379Y59375*
X43777Y59381*
X43763Y59383*
X43749Y59381*
X43736Y59375*
X43725Y59367*
X43716Y59356*
X43711Y59343*
X43709Y59329*
X43711Y59315*
X43716Y59302*
X43713Y59298*
X43699Y59297*
X43686Y59293*
X43674Y59287*
X43664Y59278*
X43655Y59267*
X43649Y59255*
X43645Y59242*
X43643Y59229*
X43645Y59215*
X43649Y59202*
X43655Y5919*
X43664Y5918*
X43674Y59171*
X43686Y59165*
X43699Y59161*
X43708Y5916*
Y59155*
X43622*
X43576Y592*
X43577Y59202*
X43581Y59215*
X43583Y59229*
X43582Y59232*
X43601Y59237*
X43618Y59247*
X43633Y59259*
X43645Y59274*
X43654Y59291*
X4366Y59309*
X43662Y59329*
X4366Y59348*
X43654Y59367*
X43645Y59384*
X43633Y59399*
X43618Y59411*
X43601Y5942*
X43582Y59426*
X43563Y59428*
X43544Y59426*
X43525Y5942*
X43508Y59411*
X43493Y59399*
X43481Y59384*
X43472Y59367*
X43466Y59348*
X43465Y59342*
X4346*
Y59348*
X43454Y59367*
X43445Y59384*
X43433Y59399*
X43418Y59411*
X43401Y5942*
X43382Y59426*
X43363Y59428*
X43344Y59426*
X43325Y5942*
X43308Y59411*
X43293Y59399*
X43281Y59384*
X43272Y59367*
X43266Y59348*
X43264Y59329*
X43266Y59309*
X43272Y59291*
X43281Y59274*
X43293Y59259*
X43308Y59247*
X43325Y59237*
X43344Y59232*
X43363Y5923*
X43382Y59232*
X43401Y59237*
X43418Y59247*
X43433Y59259*
X43445Y59274*
X43454Y59291*
X4346Y59309*
Y59315*
X43465*
X43466Y59309*
X43472Y59291*
X43474Y59286*
X43464Y59278*
X43455Y59267*
X43449Y59255*
X43445Y59242*
X43443Y59229*
X43445Y59215*
X43449Y59202*
Y59201*
X43447Y59196*
X43436Y59193*
X43424Y59187*
X43414Y59178*
X43405Y59167*
X43399Y59155*
X43395Y59142*
X43393Y59129*
X43395Y59115*
X43399Y59102*
X43405Y5909*
X43414Y5908*
X43424Y59071*
X43436Y59065*
X43449Y59061*
X43463Y59059*
X43477Y59061*
X4349Y59065*
X43502Y59071*
X43512Y5908*
X43521Y5909*
X43527Y59102*
X43531Y59115*
X43533Y59129*
X43531Y59142*
X43527Y59155*
Y59157*
X43529Y59161*
X43536Y59163*
X43592Y59108*
X43597Y59104*
X43604Y59101*
X43611Y591*
X43762*
X43769Y59101*
X43775Y59104*
X43781Y59108*
X4387Y59197*
X44465*
X44466Y59192*
X44455Y59187*
X44445Y59178*
X44436Y59167*
X4443Y59155*
X44426Y59142*
X44424Y59129*
X44426Y59115*
X4443Y59102*
X44436Y5909*
X44445Y5908*
X44455Y59071*
X44467Y59065*
X4448Y59061*
X44494Y59059*
X44508Y59061*
X44521Y59065*
X44533Y59071*
X44543Y5908*
X44552Y5909*
X44558Y59102*
X44562Y59115*
X44564Y59129*
X44562Y59142*
X44558Y59155*
X44552Y59167*
X44549Y59171*
X44551Y59176*
X44639*
X44646*
X44653Y59179*
X44658Y59183*
X44676Y59201*
X44681Y592*
X44686Y5919*
X44695Y5918*
X44705Y59171*
X44717Y59165*
X4473Y59161*
X44744Y59159*
X44758Y59161*
X44771Y59165*
X44783Y59171*
X44793Y5918*
X44802Y5919*
X44808Y59202*
X45225*
X45228Y59198*
X45227Y59196*
X45217Y59193*
X45205Y59187*
X45195Y59178*
X45186Y59167*
X4518Y59155*
X45176Y59142*
X45174Y59129*
X45176Y59115*
X4518Y59102*
X45186Y5909*
X45195Y5908*
X45205Y59071*
X45217Y59065*
X4523Y59061*
X45244Y59059*
X45258Y59061*
X45271Y59065*
X45283Y59071*
X45293Y5908*
X45302Y5909*
X45308Y59102*
X45312Y59115*
X45314Y59129*
X45312Y59142*
X45308Y59155*
X45302Y59167*
X45293Y59178*
X45292Y59179*
X45294Y59184*
X45404*
X45411*
X45418Y59187*
X45423Y59191*
X45428Y59196*
X45433*
X45436Y5919*
X45445Y5918*
X45455Y59171*
X45467Y59165*
X4548Y59161*
X45494Y59159*
X45508Y59161*
X4552Y59164*
X45662Y59022*
X45667Y59018*
X45674Y59015*
X45675*
X45681*
X46057*
X46064*
X46071Y59018*
X46076Y59022*
X46218Y59164*
X4623Y59161*
X46244Y59159*
X46258Y59161*
X4627Y59164*
X46413Y59021*
X46418Y59017*
X46425Y59014*
X46432*
X46806*
X46813*
X4682Y59017*
X46825Y59021*
X46968Y59164*
X4698Y59161*
X46994Y59159*
X47008Y59161*
X47021Y59165*
X47033Y59171*
X47043Y5918*
X47052Y5919*
X47054Y59194*
X4727*
X47271Y59193*
X47279Y5919*
X47287Y59188*
X47295Y5919*
X47303Y59193*
X47304Y59194*
X47458*
X47459Y59189*
X47455Y59187*
X47445Y59178*
X47436Y59167*
X4743Y59155*
X47426Y59142*
X47424Y59129*
X47426Y59115*
X4743Y59102*
X47436Y5909*
X47445Y5908*
X47455Y59071*
X47467Y59065*
X4748Y59061*
X47494Y59059*
X47508Y59061*
X47521Y59065*
X47533Y59071*
X47543Y5908*
X47552Y5909*
X47558Y59102*
X47562Y59115*
X47564Y59129*
X47562Y59142*
X47558Y59155*
X47552Y59167*
X47549Y59171*
X47552Y59175*
X47555*
X47658*
X47665*
X47672Y59178*
X47677Y59182*
X47683Y59188*
X47688*
X47695Y5918*
X47705Y59171*
X47717Y59165*
X4773Y59161*
X47744Y59159*
X47758Y59161*
X47771Y59165*
X47783Y59171*
X47793Y5918*
X47802Y5919*
X47803Y59192*
X47808Y59193*
X47856Y59145*
X47861Y5914*
X47868Y59138*
X47875Y59137*
X48062*
X48069Y59138*
X48075Y5914*
X48081Y59145*
X48133Y59197*
X48215*
X48216Y59192*
X48205Y59187*
X48195Y59178*
X48186Y59167*
X4818Y59155*
X48176Y59142*
X48174Y59129*
X48176Y59115*
X4818Y59102*
X48186Y5909*
X48195Y5908*
X48205Y59071*
X48217Y59065*
X4823Y59061*
X48244Y59059*
X48258Y59061*
X48271Y59065*
X48283Y59071*
X48293Y5908*
X48302Y5909*
X48308Y59102*
X48312Y59115*
X48314Y59129*
X48312Y59142*
X48308Y59155*
X48302Y59167*
X48296Y59174*
X48299Y59179*
X48391*
X48398*
X48405Y59182*
X4841Y59186*
X48425Y59202*
X4843*
X48436Y5919*
X48445Y5918*
X48455Y59171*
X48467Y59165*
X4848Y59161*
X48494Y59159*
X48508Y59161*
X48521Y59165*
X48533Y59171*
X48543Y5918*
X48552Y5919*
X48558Y59202*
X48978*
X48979Y59197*
X48967Y59193*
X48955Y59187*
X48945Y59178*
X48936Y59167*
X4893Y59155*
X48926Y59142*
X48924Y59129*
X48926Y59115*
X4893Y59102*
X48936Y5909*
X48945Y5908*
X48955Y59071*
X48967Y59065*
X4898Y59061*
X48994Y59059*
X49008Y59061*
X49021Y59065*
X49033Y59071*
X49043Y5908*
X49052Y5909*
X49058Y59102*
X49062Y59115*
X49064Y59129*
X49062Y59142*
X49058Y59155*
X49053Y59166*
X49056Y5917*
X49058*
X49148*
X49155*
X49162Y59173*
X49168Y59177*
X49181Y59191*
X49186Y5919*
X49195Y5918*
X49205Y59171*
X49217Y59165*
X4923Y59161*
X49244Y59159*
X49258Y59161*
X49271Y59165*
X49283Y59171*
X49293Y5918*
X49302Y5919*
X49308Y59202*
X49728*
X49729Y59197*
X49717Y59193*
X49705Y59187*
X49695Y59178*
X49686Y59167*
X4968Y59155*
X49676Y59142*
X49674Y59129*
X49676Y59115*
X4968Y59102*
X49686Y5909*
X49695Y5908*
X49705Y59071*
X49717Y59065*
X4973Y59061*
X49744Y59059*
X49758Y59061*
X49771Y59065*
X49783Y59071*
X49793Y5908*
X49802Y5909*
X49808Y59102*
X49812Y59115*
X49814Y59129*
X49812Y59142*
X49808Y59155*
X49802Y59166*
X49805Y59171*
X49885*
X49892*
X49899Y59174*
X49905Y59178*
X49926Y592*
X49931Y59199*
X49936Y5919*
X49945Y5918*
X49955Y59171*
X49967Y59165*
X4998Y59161*
X49994Y59159*
X50008Y59161*
X50021Y59165*
X50033Y59171*
X50043Y5918*
X50052Y5919*
X50058Y59202*
X50478*
X50479Y59197*
X50467Y59193*
X50455Y59187*
X50445Y59178*
X50436Y59167*
X5043Y59155*
X50426Y59142*
X50424Y59129*
X50426Y59115*
X5043Y59102*
X50436Y5909*
X50445Y5908*
X50455Y59071*
X50467Y59065*
X5048Y59061*
X50494Y59059*
X50508Y59061*
X50521Y59065*
X50533Y59071*
X50543Y5908*
X50552Y5909*
X50558Y59102*
X50562Y59115*
X50564Y59129*
X50562Y59142*
X50558Y59155*
X50552Y59167*
X5055Y5917*
X50552Y59175*
X50638*
X50645*
X50652Y59178*
X50658Y59182*
X50676Y59201*
X50681Y592*
X50686Y5919*
X50695Y5918*
X50705Y59171*
X50717Y59165*
X5073Y59161*
X50744Y59159*
X50758Y59161*
X50771Y59165*
X50783Y59171*
X50793Y5918*
X50802Y5919*
X50808Y59202*
X51228*
X51229Y59197*
X51217Y59193*
X51205Y59187*
X51195Y59178*
X51186Y59167*
X5118Y59155*
X51176Y59142*
X51174Y59129*
X51176Y59115*
X5118Y59102*
X51186Y5909*
X51195Y5908*
X51205Y59071*
X51217Y59065*
X5123Y59061*
X51244Y59059*
X51258Y59061*
X51271Y59065*
X51283Y59071*
X51293Y5908*
X51302Y5909*
X51308Y59102*
X51312Y59115*
X51314Y59129*
X51312Y59142*
X51308Y59155*
X51302Y59167*
Y59168*
X51306Y59171*
X51311*
X51383*
X5139*
X51397Y59174*
X51403Y59178*
X51426Y59201*
X51431*
X51436Y5919*
X51445Y5918*
X51455Y59171*
X51467Y59165*
X5148Y59161*
X51494Y59159*
X51508Y59161*
X51521Y59165*
X51533Y59171*
X51543Y5918*
X51552Y5919*
X51558Y59202*
X51978*
X51979Y59197*
X51967Y59193*
X51955Y59187*
X51945Y59178*
X51936Y59167*
X5193Y59155*
X51926Y59142*
X51924Y59129*
X51926Y59115*
X5193Y59102*
X51936Y5909*
X51945Y5908*
X51955Y59071*
X51967Y59065*
X5198Y59061*
X51994Y59059*
X52008Y59061*
X52021Y59065*
X52033Y59071*
X52043Y5908*
X52052Y5909*
X52058Y59102*
X52062Y59115*
X52064Y59129*
X52062Y59142*
X52058Y59155*
X52052Y59167*
X52044Y59177*
X52047Y59181*
X5205*
X52148*
X52155*
X52162Y59184*
X52168Y59188*
X52177Y59198*
X52182Y59197*
X52186Y5919*
X52195Y5918*
X52205Y59171*
X52217Y59165*
X5223Y59161*
X52244Y59159*
X52258Y59161*
X52271Y59165*
X52283Y59171*
X52293Y5918*
X52302Y5919*
X52308Y59202*
X52728*
X52729Y59197*
X52717Y59193*
X52705Y59187*
X52695Y59178*
X52686Y59167*
X5268Y59155*
X52676Y59142*
X52674Y59129*
X52676Y59115*
X5268Y59102*
X52686Y5909*
X52695Y5908*
X52705Y59071*
X52717Y59065*
X5273Y59061*
X52744Y59059*
X52757Y59061*
X52758Y59059*
X52759Y59055*
X52752Y59041*
X52746Y59023*
X52744Y59003*
X52746Y58984*
X52752Y58965*
X52755Y58958*
X52751Y58955*
X52664Y59043*
X52658Y59047*
X52652Y5905*
X52645Y59051*
X48836*
X48834Y59056*
X48838Y59058*
X48843Y59065*
X48846Y59073*
X48847Y59081*
X48846Y5909*
X48843Y59097*
X48838Y59104*
X48831Y59109*
X48823Y59112*
X48822Y59113*
X48807Y59128*
X48801Y59132*
X48794Y59135*
X48787Y59136*
X48682*
X48673Y59145*
Y59147*
X48669Y59154*
X48664Y59161*
X48658Y59166*
X4865Y59169*
X48641Y59171*
X48633Y59169*
X48625Y59166*
X48619Y59161*
X48614Y59154*
X4861Y59147*
X48609Y59138*
X4861Y5913*
X48614Y59122*
X48619Y59115*
X48625Y5911*
X48633Y59107*
X48634*
X48652Y5909*
X48657Y59085*
X48664Y59082*
X48665*
X48671*
X48776*
X48784Y59074*
Y59073*
X48787Y59065*
X48792Y59058*
X48796Y59056*
X48794Y59051*
X47012*
X47005Y5905*
X46999Y59047*
X46993Y59043*
X46985Y59035*
X46977Y59032*
X4697Y59027*
X46965Y5902*
X46962Y59012*
X46961Y59004*
X46962Y58995*
X46965Y58988*
X4697Y58981*
X46968Y58977*
X469*
X46893Y5898*
X46885Y58981*
X46876Y5898*
X46869Y58977*
X46745*
X46744*
X44422*
X44359Y5904*
X44353Y59045*
X44346Y59047*
X44339Y59048*
X43944*
X43916Y59077*
Y59078*
X43913Y59086*
X43907Y59092*
X43901Y59097*
X43893Y59101*
X43885Y59102*
X43876Y59101*
X43868Y59097*
X43862Y59092*
X43857Y59086*
X43853Y59078*
X43852Y59069*
X43853Y59061*
X43857Y59053*
X43862Y59047*
X43868Y59041*
X43876Y59038*
X43877*
X43914Y59002*
X43919Y58998*
X43926Y58995*
X43927*
X43933Y58994*
X44328*
X44392Y5893*
X44398Y58926*
X44404Y58923*
X44411Y58922*
X44577*
X44579Y58917*
X4453Y58868*
X44529*
X44521Y58865*
X44514Y5886*
X44509Y58853*
X44506Y58845*
X44505Y58837*
X44506Y58829*
X44509Y58821*
X44514Y58814*
X44521Y58809*
X44529Y58806*
X44537Y58805*
X44546Y58806*
X44553Y58809*
X4456Y58814*
X44565Y58821*
X44568Y58829*
Y5883*
X4462Y58882*
X45062*
X45101Y58843*
Y58842*
X45105Y58834*
X4511Y58827*
X45116Y58822*
X45124Y58819*
X45133Y58818*
X45141Y58819*
X45149Y58822*
X45155Y58827*
X45161Y58834*
X45164Y58842*
X45165Y5885*
X45164Y58858*
X45161Y58866*
X45155Y58873*
X45149Y58878*
X45141Y58881*
X4514*
X45104Y58917*
X45105Y58922*
X46744*
X46745*
X46866*
X46868Y5892*
X46876Y58917*
X46885Y58916*
X46893Y58917*
X46901Y5892*
X46903Y58922*
X47359*
X47361Y58917*
X47355Y58912*
X47354Y58911*
X47346Y58908*
X47339Y58903*
X47334Y58896*
X47331Y58889*
X4733Y5888*
X47331Y58872*
X47334Y58864*
X47339Y58857*
X47346Y58852*
X47354Y58849*
X47362Y58848*
X4737Y58849*
X47378Y58852*
X47385Y58857*
X4739Y58864*
X47393Y58872*
Y58873*
X47408Y58888*
X48068*
X48084Y58872*
Y58871*
X48087Y58863*
X48092Y58857*
X48099Y58851*
X48107Y58848*
X48115Y58847*
X48123Y58848*
X48131Y58851*
X48138Y58857*
X48143Y58863*
X48146Y58871*
X48147Y58879*
X48146Y58888*
X48143Y58895*
X48138Y58902*
X48131Y58907*
X48123Y58911*
X48122*
X48115Y58917*
X48117Y58922*
X48242*
X48329Y58836*
Y58834*
X48332Y58827*
X48337Y5882*
X48344Y58815*
X48352Y58812*
X4836Y5881*
X48368Y58812*
X48376Y58815*
X48383Y5882*
X48388Y58827*
X48391Y58834*
X48392Y58843*
X48391Y58851*
X48388Y58859*
X48383Y58866*
X48376Y58871*
X48368Y58874*
X48367*
X48273Y58969*
X48267Y58973*
X4826Y58976*
X48253Y58977*
X47018*
X47016Y58981*
X47021Y58988*
X47024Y58995*
Y58997*
X52633*
X52714Y58916*
X5271Y58912*
X527Y58921*
X52686Y58929*
X52671Y58933*
X52655Y58935*
X52639Y58933*
X52624Y58929*
X52611Y58921*
X52598Y58911*
X52588Y58899*
X52581Y58885*
X52576Y5887*
X52575Y58854*
X52576Y58839*
X52581Y58823*
X52588Y5881*
X52598Y58797*
X52611Y58787*
X52624Y5878*
X52639Y58775*
X52651Y58774*
X52653Y5877*
X52622Y58739*
X52557*
X52555Y58743*
X52563Y58754*
X52568Y58766*
X5257Y58779*
X52568Y58792*
X52563Y58804*
X52555Y58814*
X52545Y58822*
X52533Y58827*
X5252Y58829*
X52507Y58827*
X52495Y58822*
X52485Y58814*
X52477Y58804*
X52472Y58792*
X5247Y58779*
X52471Y58774*
X52466Y58772*
X52464Y58774*
X52425*
Y58735*
X52468Y58692*
X52474Y58687*
X5248Y58684*
X52488*
X52633*
X52641*
X52647Y58687*
X52653Y58692*
X52696Y58735*
Y58779*
X52701*
Y58784*
X5274*
Y58789*
X52736Y58799*
X52729Y58807*
X52723Y58812*
X52729Y58823*
X52734Y58839*
X52736Y58854*
X52734Y5887*
X52729Y58885*
X52722Y58899*
X52713Y58909*
X52717Y58913*
X52758Y58872*
X52763Y58868*
X5277Y58865*
X52777Y58864*
X53118*
X53122Y5886*
X53121Y58854*
X53122Y58846*
X53125Y58838*
X5313Y58832*
X53137Y58826*
X53145Y58823*
X53147Y58818*
X53141Y58814*
X53133Y58803*
X53128Y58791*
X53126Y58778*
X53127Y58773*
X53122Y5877*
X53119Y58773*
X53076*
Y58778*
X53071*
Y58818*
X53066Y58817*
X53056Y58813*
X53048Y58807*
X53041Y58798*
X53037Y58789*
X53036Y58779*
X52993Y58735*
X52834*
X52832Y5874*
X52836Y58743*
X52844Y58754*
X52849Y58766*
X52851Y58779*
X52849Y58792*
X52844Y58804*
X52836Y58814*
X52826Y58822*
X52814Y58827*
X52801Y58829*
X52788Y58827*
X52776Y58822*
X52766Y58814*
X52758Y58804*
X52753Y58792*
X52751Y58779*
X52752Y58774*
X52747Y58772*
X52745Y58774*
X52706*
Y58735*
X52752Y58688*
X52758Y58684*
X52765Y58681*
X52763Y58676*
X52751Y58678*
X52732Y58676*
X52713Y5867*
X52696Y58661*
X52681Y58649*
X52669Y58634*
X52668Y58632*
X52656Y58631*
X52643Y58625*
X52632Y58617*
X52623Y58606*
X52618Y58593*
X52616Y58579*
X52618Y58565*
X52623Y58552*
X5262Y58548*
X52606Y58547*
X52598Y58544*
X52595Y58549*
X52598Y58552*
X52603Y58565*
X52605Y58579*
X52603Y58593*
X52598Y58606*
X52589Y58617*
X52578Y58625*
X52565Y58631*
X52553Y58632*
X52552Y58634*
X5254Y58649*
X52525Y58661*
X52508Y5867*
X52489Y58676*
X5247Y58678*
X52451Y58676*
X52432Y5867*
X52415Y58661*
X524Y58649*
X52388Y58634*
X52379Y58617*
X52373Y58598*
X52371Y58579*
X52373Y58559*
X52379Y58541*
X52388Y58524*
X52399Y58511*
X52397Y58506*
X51934*
X51928Y58517*
X51925Y58521*
X51927Y58526*
X51934Y58527*
X51947Y58532*
X51958Y58541*
X51967Y58552*
X51972Y58565*
X51974Y58579*
X51972Y58593*
X51967Y58606*
X51958Y58617*
X51947Y58625*
X51934Y58631*
X5192Y58633*
X51906Y58631*
X51893Y58625*
X51882Y58617*
X51873Y58606*
X51868Y58593*
X51866Y58579*
X51868Y58565*
X51873Y58552*
X5187Y58548*
X51856Y58547*
X51843Y58543*
X51831Y58537*
X51821Y58528*
X51812Y58517*
X51806Y58506*
X51793*
X51792Y58509*
Y58511*
X51802Y58524*
X51811Y58541*
X51817Y58559*
X51819Y58579*
X51817Y58598*
X51811Y58617*
X51802Y58634*
X5179Y58649*
X51775Y58661*
X51758Y5867*
X51739Y58676*
X5172Y58678*
X51701Y58676*
X51682Y5867*
X51665Y58661*
X5165Y58649*
X51638Y58634*
X51629Y58617*
X51623Y58598*
X51621Y58579*
X51623Y58559*
X51629Y58541*
X51638Y58524*
X51649Y5851*
X51647Y58506*
X51646*
X51184*
X51178Y58517*
X51175Y58521*
X51177Y58526*
X51184Y58527*
X51197Y58532*
X51208Y58541*
X51217Y58552*
X51222Y58565*
X51224Y58579*
X51222Y58593*
X51217Y58606*
X51208Y58617*
X51197Y58625*
X51184Y58631*
X5117Y58633*
X51156Y58631*
X51143Y58625*
X51132Y58617*
X51123Y58606*
X51118Y58593*
X51116Y58579*
X51118Y58565*
X51123Y58552*
X5112Y58548*
X51106Y58547*
X51093Y58543*
X51081Y58537*
X51071Y58528*
X51062Y58517*
X51056Y58506*
X51051*
X51044Y58505*
X51042Y58504*
X51039Y58508*
X5104Y58509*
X51052Y58524*
X51061Y58541*
X51067Y58559*
X51069Y58579*
X51067Y58598*
X51061Y58617*
X51052Y58634*
X5104Y58649*
X51025Y58661*
X51008Y5867*
X50989Y58676*
X5097Y58678*
X50951Y58676*
X50932Y5867*
X50915Y58661*
X509Y58649*
X50888Y58634*
X50879Y58617*
X50873Y58598*
X50871Y58579*
X50873Y58559*
X50879Y58541*
X50888Y58524*
X509Y58509*
X50898Y58504*
X50896Y58505*
X50889Y58506*
X50434*
X50428Y58517*
X50425Y58521*
X50427Y58526*
X50434Y58527*
X50447Y58532*
X50458Y58541*
X50467Y58552*
X50472Y58565*
X50474Y58579*
X50472Y58593*
X50467Y58606*
X50458Y58617*
X50447Y58625*
X50434Y58631*
X5042Y58633*
X50406Y58631*
X50393Y58625*
X50382Y58617*
X50373Y58606*
X50368Y58593*
X50366Y58579*
X50368Y58565*
X50373Y58552*
X5037Y58548*
X50356Y58547*
X50343Y58543*
X50331Y58537*
X50321Y58528*
X50312Y58517*
X50306Y58506*
X50301*
X50294Y58505*
X50292Y58504*
X50289Y58508*
X5029Y58509*
X50302Y58524*
X50311Y58541*
X50317Y58559*
X50319Y58579*
X50317Y58598*
X50311Y58617*
X50302Y58634*
X5029Y58649*
X50279Y58658*
X5028Y58663*
X5064*
X50654Y58649*
Y58648*
X50657Y5864*
X50662Y58633*
X50669Y58628*
X50677Y58625*
X50685Y58624*
X50693Y58625*
X50701Y58628*
X50708Y58633*
X50713Y5864*
X50716Y58648*
X50717Y58656*
X50716Y58665*
X50713Y58672*
X50708Y58679*
X50701Y58684*
X50693Y58687*
X50692*
X50671Y58709*
X50665Y58713*
X50658Y58716*
X50651Y58717*
X49853*
X49845Y58718*
X49837Y58717*
X49829Y58714*
X49822Y58709*
X49817Y58702*
X49814Y58694*
X49813Y58686*
X49814Y58677*
X49817Y5867*
X49822Y58663*
X49829Y58658*
X49837Y58655*
X49845Y58653*
X49853Y58655*
X49861Y58658*
X49867Y58663*
X5016*
X50161Y58658*
X5015Y58649*
X50138Y58634*
X50129Y58617*
X50123Y58598*
X50121Y58579*
X50123Y58559*
X50129Y58541*
X50138Y58524*
X50149Y5851*
X50147Y58506*
X50145*
X49684*
X49678Y58517*
X49675Y58521*
X49677Y58526*
X49684Y58527*
X49697Y58532*
X49708Y58541*
X49717Y58552*
X49722Y58565*
X49724Y58579*
X49722Y58593*
X49717Y58606*
X49708Y58617*
X49697Y58625*
X49684Y58631*
X4967Y58633*
X49656Y58631*
X49643Y58625*
X49632Y58617*
X49623Y58606*
X49618Y58593*
X49616Y58579*
X49618Y58565*
X49623Y58552*
X4962Y58548*
X49606Y58547*
X49593Y58543*
X49581Y58537*
X49571Y58528*
X49562Y58517*
X49556Y58506*
X49543*
Y58512*
X49552Y58524*
X49561Y58541*
X49567Y58559*
X49569Y58579*
X49567Y58598*
X49561Y58617*
X49552Y58634*
X4954Y58649*
X49525Y58661*
X49508Y5867*
X49489Y58676*
X4947Y58678*
X49451Y58676*
X49432Y5867*
X49415Y58661*
X494Y58649*
X49388Y58634*
X49379Y58617*
X49373Y58598*
X49371Y58579*
X49373Y58559*
X49379Y58541*
X49388Y58524*
X494Y58509*
X49402Y58508*
X49399Y58503*
X49395Y58505*
X49388Y58506*
X48934*
X48928Y58517*
X48925Y58521*
X48927Y58526*
X48934Y58527*
X48947Y58532*
X48958Y58541*
X48967Y58552*
X48972Y58565*
X48974Y58579*
X48972Y58593*
X48967Y58606*
X48958Y58617*
X48947Y58625*
X48934Y58631*
X4892Y58633*
X48906Y58631*
X48893Y58625*
X48882Y58617*
X48873Y58606*
X48868Y58593*
X48866Y58579*
X48868Y58565*
X48873Y58552*
X4887Y58548*
X48856Y58547*
X48843Y58543*
X48831Y58537*
X48821Y58528*
X48812Y58517*
X48806Y58506*
X48796*
X48793*
X48791Y5851*
X48802Y58524*
X48811Y58541*
X48817Y58559*
X48819Y58579*
X48817Y58598*
X48811Y58617*
X48802Y58634*
X4879Y58649*
X48775Y58661*
X48758Y5867*
X48739Y58676*
X4872Y58678*
X48701Y58676*
X48682Y5867*
X48665Y58661*
X4865Y58649*
X48638Y58634*
X48629Y58617*
X48623Y58598*
X48621Y58579*
X48623Y58559*
X48629Y58541*
X48638Y58524*
X48649Y5851*
X48647Y58505*
X4864Y58506*
X48184*
X48178Y58517*
X48175Y58521*
X48177Y58526*
X48184Y58527*
X48197Y58532*
X48208Y58541*
X48217Y58552*
X48222Y58565*
X48224Y58579*
X48222Y58593*
X48217Y58606*
X48208Y58617*
X48197Y58625*
X48184Y58631*
X4817Y58633*
X48156Y58631*
X48143Y58625*
X48132Y58617*
X48123Y58606*
X48118Y58593*
X48116Y58579*
X48118Y58565*
X48123Y58552*
X4812Y58548*
X48106Y58547*
X48093Y58543*
X48081Y58537*
X48071Y58528*
X48062Y58517*
X48056Y58506*
X48044*
X48043*
X48041Y5851*
X48052Y58524*
X48061Y58541*
X48067Y58559*
X48069Y58579*
X48067Y58598*
X48061Y58617*
X48052Y58634*
X4804Y58649*
X48025Y58661*
X48008Y5867*
X47989Y58676*
X4797Y58678*
X47951Y58676*
X47932Y5867*
X47915Y58661*
X479Y58649*
X47888Y58634*
X47879Y58617*
X47873Y58598*
X47871Y58579*
X47873Y58559*
X47879Y58541*
X47888Y58524*
X47899Y58511*
Y5851*
X47897Y58506*
X47434*
X47428Y58517*
X47425Y58521*
X47427Y58526*
X47434Y58527*
X47447Y58532*
X47458Y58541*
X47467Y58552*
X47472Y58565*
X47474Y58579*
X47472Y58593*
X47467Y58606*
X47458Y58617*
X47447Y58625*
X47434Y58631*
X4742Y58633*
X47406Y58631*
X47393Y58625*
X47382Y58617*
X47373Y58606*
X47368Y58593*
X47366Y58579*
X47368Y58565*
X47373Y58552*
X4737Y58548*
X47356Y58547*
X47343Y58543*
X47331Y58537*
X47321Y58528*
X47312Y58517*
X47306Y58506*
X47293*
X47291Y5851*
X47302Y58524*
X47311Y58541*
X47317Y58559*
X47319Y58579*
X47317Y58598*
X47311Y58617*
X47302Y58634*
X4729Y58649*
X47275Y58661*
X47258Y5867*
X47239Y58676*
X4722Y58678*
X47201Y58676*
X47182Y5867*
X47165Y58661*
X4715Y58649*
X47138Y58634*
X47129Y58617*
X47123Y58598*
X47121Y58579*
X47123Y58559*
X47129Y58541*
X47138Y58524*
X4715Y58509*
X47155Y58505*
X47153Y585*
X46963*
X46962Y58501*
X46954Y58504*
X46946Y58505*
X4694Y58506*
X46684*
X46678Y58517*
X46675Y58521*
X46677Y58526*
X46684Y58527*
X46697Y58532*
X46708Y58541*
X46717Y58552*
X46722Y58565*
X46724Y58579*
X46722Y58593*
X46717Y58606*
X46708Y58617*
X46697Y58625*
X46684Y58631*
X4667Y58633*
X46656Y58631*
X46643Y58625*
X46632Y58617*
X46623Y58606*
X46618Y58593*
X46616Y58579*
X46618Y58565*
X46623Y58552*
X4662Y58548*
X46606Y58547*
X46593Y58543*
X46581Y58537*
X46571Y58528*
X46562Y58517*
X46556Y58506*
X46544*
X46543*
X46541Y5851*
X46552Y58524*
X46561Y58541*
X46567Y58559*
X46569Y58579*
X46567Y58598*
X46561Y58617*
X46552Y58634*
X4654Y58649*
X46525Y58661*
X46508Y5867*
X46489Y58676*
X4647Y58678*
X46451Y58676*
X46432Y5867*
X46415Y58661*
X464Y58649*
X46388Y58634*
X46379Y58617*
X46373Y58598*
X46371Y58579*
X46373Y58559*
X46379Y58541*
X46388Y58524*
X46398Y58512*
X46397Y58507*
Y58506*
X45934*
X45928Y58517*
X45925Y58521*
X45927Y58526*
X45934Y58527*
X45947Y58532*
X45958Y58541*
X45967Y58552*
X45972Y58565*
X45974Y58579*
X45972Y58593*
X45967Y58606*
X45958Y58617*
X45947Y58625*
X45934Y58631*
X4592Y58633*
X45906Y58631*
X45893Y58625*
X45882Y58617*
X45873Y58606*
X45868Y58593*
X45866Y58579*
X45868Y58565*
X45873Y58552*
X4587Y58548*
X45856Y58547*
X45843Y58543*
X45831Y58537*
X45821Y58528*
X45812Y58517*
X45806Y58505*
X45802Y58492*
X458Y58479*
X45802Y58465*
X45806Y58453*
X45682Y58329*
X45675*
X45672Y58334*
X45678Y5834*
X45684Y58352*
X45688Y58365*
X4569Y58379*
X45688Y58392*
X45684Y58405*
X45678Y58417*
X45669Y58428*
X45659Y58437*
X45647Y58443*
X45634Y58447*
X4562Y58448*
X45606Y58447*
X45593Y58443*
X45581Y58437*
X45571Y58428*
X45562Y58417*
X45556Y58405*
X45552Y58392*
X4555Y58379*
X45552Y58365*
X45556Y58352*
X45562Y5834*
X45568Y58334*
X45565Y58329*
X45308*
X45184Y58453*
X45188Y58465*
X4519Y58479*
X45188Y58492*
X45184Y58505*
X45178Y58517*
X45175Y58521*
X45177Y58526*
X45184Y58527*
X45197Y58532*
X45208Y58541*
X45217Y58552*
X45222Y58565*
X45224Y58579*
X45222Y58593*
X45217Y58606*
X45208Y58617*
X45197Y58625*
X45184Y58631*
X4517Y58633*
X45156Y58631*
X45143Y58625*
X45132Y58617*
X45123Y58606*
X45118Y58593*
X45116Y58579*
X45118Y58565*
X45123Y58552*
X4512Y58548*
X45106Y58547*
X45093Y58543*
X45081Y58537*
X45071Y58528*
X45062Y58517*
X45056Y58505*
X45052Y58492*
X4505Y58479*
X45052Y58465*
X45056Y58453*
X44925Y58322*
X44917*
X44916Y58327*
X44919Y5833*
X44928Y5834*
X44934Y58352*
X44938Y58365*
X4494Y58379*
X44938Y58392*
X44934Y58405*
X44928Y58417*
X44919Y58428*
X44909Y58437*
X44897Y58443*
X44884Y58447*
X4487Y58448*
X44856Y58447*
X44843Y58443*
X44831Y58437*
X44821Y58428*
X44812Y58417*
X44806Y58405*
X44802Y58392*
X448Y58379*
X44802Y58365*
X44806Y58352*
X44812Y5834*
X44821Y5833*
X44824Y58327*
X44823Y58322*
X44758*
X44582Y58498*
X44577Y58502*
X4457Y58505*
X44563Y58506*
X44434*
X44428Y58517*
X44425Y58521*
X44427Y58526*
X44434Y58527*
X44447Y58532*
X44458Y58541*
X44467Y58552*
X44472Y58565*
X44474Y58579*
X44472Y58593*
X44467Y58606*
X44458Y58617*
X44447Y58625*
X44434Y58631*
X4442Y58633*
X44406Y58631*
X44393Y58625*
X44382Y58617*
X44373Y58606*
X44368Y58593*
X44366Y58579*
X44368Y58565*
X44373Y58552*
X4437Y58548*
X44356Y58547*
X44343Y58543*
X44331Y58537*
X44321Y58528*
X44312Y58517*
X44306Y58506*
X44293*
X44291Y58511*
X44302Y58524*
X44311Y58541*
X44317Y58559*
X44319Y58579*
X44317Y58598*
X44311Y58617*
X44302Y58634*
X4429Y58649*
X44275Y58661*
X44258Y5867*
X44243Y58675*
Y5868*
X44843*
X4485Y58681*
X44857Y58683*
X44863Y58688*
X4491Y58735*
X44955Y58691*
X44961Y58686*
X44964Y58685*
X44967Y58683*
X44975*
X4518*
X45216Y58646*
X45222Y58642*
X45229Y58639*
X45236Y58638*
X45243Y58639*
X4525Y58642*
X45256Y58646*
X4526Y58652*
X45263Y58659*
X45264Y58666*
X45263Y58673*
X4526Y58678*
X45263Y58683*
X456*
X45607*
X45614Y58686*
X4562Y58691*
X45665Y58736*
Y58779*
X4567*
Y58784*
X45713*
X45716Y58787*
X45721Y58785*
X4572Y58779*
X45722Y58766*
X45727Y58754*
X45735Y58743*
X45745Y58735*
X45757Y5873*
X4577Y58729*
X45783Y5873*
X45795Y58735*
X45805Y58743*
X45813Y58754*
X45818Y58766*
X4582Y58779*
X45818Y58792*
X45813Y58804*
X45805Y58814*
X45801Y58818*
X45802Y58822*
X4633*
X46381Y58771*
Y58768*
X46385Y58759*
X46392Y58751*
X464Y58744*
X4641Y5874*
X46415*
Y58779*
Y58818*
X46413*
X46361Y58869*
X46355Y58874*
X46349Y58877*
X46342Y58878*
X4574*
X45733Y58877*
X45726Y58874*
X4572Y58869*
X45669Y58819*
X4566Y58817*
X4565Y58813*
X45642Y58807*
X45635Y58799*
X45631Y58789*
X4563Y58779*
X45589Y58738*
X45056*
X45054Y58743*
X45055*
X45063Y58754*
X45068Y58766*
X4507Y58779*
X45068Y58792*
X45063Y58804*
X45055Y58814*
X45045Y58822*
X45033Y58827*
X4502Y58829*
X45007Y58827*
X44995Y58822*
X44985Y58814*
X44977Y58804*
X44972Y58792*
X4497Y58779*
X44972Y58766*
X44977Y58754*
X44972Y58751*
X44958Y58766*
X44959Y58768*
Y58774*
X4492*
Y58779*
X44915*
Y58818*
X4491Y58817*
X449Y58813*
X44892Y58807*
X44885Y58799*
X44881Y58789*
Y58784*
X44832Y58735*
X44302*
X443Y5874*
X44305Y58743*
X44313Y58754*
X44318Y58766*
X4432Y58779*
X44318Y58792*
X44313Y58804*
X44305Y58814*
X44295Y58822*
Y58823*
Y58824*
X443Y5884*
X44302Y58855*
X443Y58871*
X44295Y58886*
X44288Y589*
X44278Y58912*
X44266Y58922*
X44252Y5893*
X44237Y58934*
X44221Y58936*
X44205Y58934*
X4419Y5893*
X44177Y58922*
X44164Y58912*
X44154Y589*
X44147Y58886*
X44142Y58871*
X44141Y58855*
X44142Y5884*
X44147Y58824*
X44151Y58816*
X4415Y58813*
X44142Y58807*
X44135Y58799*
X44131Y58789*
Y58784*
X4417*
Y58779*
X44175*
Y58735*
X44222Y58688*
X44228Y58683*
X44233Y58681*
X44231Y58676*
X4422Y58678*
X44201Y58676*
X44182Y5867*
X44165Y58661*
X4415Y58649*
X44138Y58634*
X44129Y58617*
X44123Y58598*
X44121Y58579*
X44123Y58559*
X44129Y58541*
X44138Y58524*
X44149Y58511*
X44147Y58506*
X43965*
X43959Y58517*
X43956Y58521*
X43958Y58526*
X43965Y58527*
X43978Y58532*
X43986Y58538*
X43993Y58532*
X44006Y58527*
X4402Y58525*
X44034Y58527*
X44047Y58532*
X44058Y58541*
X44067Y58552*
X44072Y58565*
X44074Y58579*
X44072Y58593*
X44067Y58606*
X44058Y58617*
X44047Y58625*
X44034Y58631*
X4402Y58633*
X44006Y58631*
X43993Y58625*
X43985Y5862*
X43978Y58625*
X43965Y58631*
X43951Y58633*
X43937Y58631*
X43924Y58625*
X43913Y58617*
X43904Y58606*
X43899Y58593*
X43897Y58579*
X43899Y58565*
X43904Y58552*
X43901Y58548*
X43887Y58547*
X43874Y58543*
X43862Y58537*
X43852Y58528*
X43843Y58517*
X43837Y58505*
X43835Y58501*
X43818*
X43817Y58505*
X43821Y58509*
X43833Y58524*
X43842Y58541*
X43848Y58559*
X4385Y58579*
X43848Y58598*
X43842Y58617*
X43833Y58634*
X43821Y58649*
X43806Y58661*
X43789Y5867*
X4377Y58676*
X43751Y58678*
X43732Y58676*
X43713Y5867*
X43696Y58661*
X43681Y58649*
X43669Y58634*
X4366Y58617*
X43654Y58598*
X43652Y58579*
X43654Y58559*
X4366Y58541*
X43669Y58524*
X43681Y58509*
X43685Y58505*
X43684Y58501*
X43592*
X4359Y58505*
X43584Y58517*
X43581Y58521*
X43583Y58526*
X4359Y58527*
X43603Y58532*
X43614Y58541*
X43623Y58552*
X43628Y58565*
X4363Y58579*
X43628Y58593*
X43623Y58606*
X43614Y58617*
X43603Y58625*
X4359Y58631*
X43576Y58633*
X43563Y58631*
X43551Y58633*
X43537Y58631*
X43524Y58625*
X43513Y58617*
X43504Y58606*
X43499Y58593*
X43497Y58579*
X43499Y58565*
X43504Y58552*
X43506Y58549*
X43505Y58545*
X43499Y58543*
X43487Y58537*
X43477Y58528*
X43468Y58517*
X43462Y58505*
X43458Y58492*
X43456Y58479*
X43458Y58465*
X43462Y58452*
X43468Y5844*
X43477Y5843*
X43487Y58421*
X43499Y58415*
X43512Y58411*
X43526Y58409*
X4354Y58411*
X43553Y58415*
X43565Y58421*
X43575Y5843*
X43584Y5844*
X43587Y58446*
X4362*
X43621Y58441*
X43612Y58437*
X43602Y58428*
X43593Y58417*
X43587Y58405*
X43586Y58402*
X43341*
X4334Y58405*
X43334Y58417*
X43325Y58428*
X43315Y58437*
X43303Y58443*
X4329Y58447*
X43276Y58448*
X43262Y58447*
X43249Y58443*
X43237Y58437*
X43227Y58428*
X43218Y58417*
X43212Y58405*
X43208Y58392*
X43206Y58379*
X43208Y58365*
X43212Y58352*
X43218Y5834*
X43221Y58337*
X4322Y58332*
X43211Y58324*
X43199Y58309*
X43198Y58307*
X43193Y58308*
Y58438*
X43257Y58503*
X43262Y58508*
X43265Y58515*
X43266Y58522*
Y58679*
X43321Y58735*
Y58779*
X43331*
Y58738*
X43376Y58693*
X43382Y58688*
X43388Y58685*
X43396*
X43634*
X43642*
X43648Y58688*
X43654Y58693*
X43696Y58735*
Y58774*
X43657*
X43623Y5874*
X43464*
X43462Y58744*
X43469Y58754*
X43474Y58766*
X43476Y58779*
X43474Y58792*
X43469Y58804*
X43461Y58814*
X43451Y58822*
X43439Y58827*
X43426Y58829*
X43413Y58827*
X43401Y58822*
X43391Y58814*
X43383Y58804*
X43378Y58792*
X43376Y58779*
Y58777*
X43372Y58775*
X43366Y58781*
X43365Y58789*
X43361Y58799*
X43354Y58807*
X43349Y58811*
X43355Y58823*
X4336Y58839*
X43362Y58854*
X4336Y5887*
X43355Y58885*
X43348Y58899*
X43338Y58911*
X43326Y58921*
X43312Y58929*
X43297Y58933*
X43281Y58935*
X43265Y58933*
X4325Y58929*
X43237Y58921*
X43224Y58911*
X43214Y58899*
X43207Y58885*
X43202Y5887*
X43201Y58854*
X43202Y58839*
X43207Y58823*
X43214Y5881*
X43224Y58797*
X43237Y58787*
X4325Y5878*
X43265Y58775*
X43276Y58774*
X43278Y5877*
X43218Y5871*
X43214Y58705*
X43211Y58698*
X4321Y58691*
Y58625*
X43206Y58623*
X43203Y58625*
X4319Y58631*
X43176Y58633*
X43162Y58631*
X43149Y58625*
X43138Y58617*
X43129Y58606*
X43124Y58593*
X43122Y58579*
X43124Y58565*
X43129Y58552*
X43138Y58541*
X43149Y58532*
X43162Y58527*
X43176Y58525*
X4319Y58527*
X43201Y58531*
X43204Y58527*
X43146Y58469*
X43141Y58463*
X43138Y58457*
X43137Y58449*
Y58125*
X43138Y58117*
X43141Y58111*
X43146Y58105*
X43248Y58003*
X43253Y57998*
X4326Y57996*
X43267Y57995*
X43292*
X43293Y57994*
X43303Y5799*
X43308*
Y58029*
Y58068*
X43303Y58067*
X43293Y58063*
X43285Y58057*
X43281Y58053*
X43276Y58052*
X43193Y58136*
Y582*
X43198Y58202*
X43199Y58199*
X43211Y58184*
X43226Y58172*
X43243Y58163*
X43262Y58157*
X43281Y58155*
X433Y58157*
X43319Y58163*
X43336Y58172*
X43351Y58184*
X43363Y58199*
X43373Y58216*
X43378Y58235*
X4338Y58254*
X43378Y58274*
X43373Y58292*
X43363Y58309*
X43351Y58324*
X43336Y58337*
X43335Y58341*
X43338Y58347*
X43589*
X43593Y5834*
X43602Y5833*
X43612Y58321*
X43624Y58315*
X43637Y58311*
X43651Y58309*
X43665Y58311*
X43678Y58315*
X4369Y58321*
X437Y5833*
X43709Y5834*
X43715Y58352*
X43719Y58365*
X43721Y58379*
X43719Y58392*
X43715Y58405*
X43709Y58417*
X437Y58428*
X4369Y58437*
X43681Y58441*
X43682Y58446*
X4384*
X43843Y5844*
X43852Y5843*
X43862Y58421*
X43874Y58415*
X43887Y58411*
X43901Y58409*
X43915Y58411*
X43928Y58415*
X4394Y58421*
X4395Y5843*
X43959Y5844*
X43965Y58452*
X44104*
X44105Y58447*
X44093Y58443*
X44081Y58437*
X44071Y58428*
X44062Y58417*
X44056Y58405*
X44052Y58392*
X4405Y58379*
X44052Y58365*
X44056Y58352*
X44062Y5834*
X44071Y5833*
X44081Y58321*
X44093Y58315*
X44106Y58311*
X4412Y58309*
X44134Y58311*
X44137Y58307*
X4413Y58293*
X44124Y58275*
X44122Y58255*
X44124Y58236*
X4413Y58217*
X44139Y582*
X44151Y58185*
X44166Y58173*
X44173Y58169*
X44171Y58165*
X44104*
X4409Y58179*
X44085Y58183*
X44078Y58186*
X44071Y58187*
X43596*
X4359Y58186*
X43589*
X43582Y58183*
X43576Y58179*
X43557Y58159*
X43555*
X43548Y58155*
X43541Y5815*
X43536Y58144*
X43533Y58136*
X43531Y58127*
X43533Y58119*
X43536Y58111*
X43541Y58105*
X43548Y58099*
X43555Y58096*
X43564Y58095*
X43572Y58096*
X4358Y58099*
X43587Y58105*
X43592Y58111*
X43595Y58119*
Y5812*
X43607Y58132*
X43823*
X43825Y58128*
X43778Y58081*
X43777*
X43769Y58077*
X43762Y58072*
X43757Y58066*
X43754Y58058*
X43753Y58049*
X43754Y58041*
X43757Y58033*
X43762Y58027*
X43769Y58021*
X43777Y58018*
X43785Y58017*
X43789Y58018*
X43792Y58014*
Y58013*
X43791Y58004*
X43792Y57996*
X43795Y57988*
X438Y57982*
X43807Y57976*
X43815Y57973*
X43823Y57972*
X43831Y57973*
X43839Y57976*
X43846Y57982*
X43851Y57988*
X43854Y57996*
Y57997*
X43906Y58049*
X43924*
X43925Y58048*
X43933Y58045*
X43941Y58044*
X43949Y58045*
X43957Y58048*
X43964Y58054*
X43969Y5806*
X43972Y58068*
X43973Y58076*
X43972Y58085*
X43969Y58093*
X43968Y58094*
X4397Y58098*
X44038*
X44052Y58084*
X44058Y5808*
X44064Y58077*
X44071Y58076*
X44228*
X44229Y58071*
X4422Y58064*
X44212Y58054*
X44207Y58042*
X44205Y58029*
X44207Y58016*
X44212Y58004*
X4422Y57993*
X4423Y57985*
X44242Y57981*
X44244Y5798*
X44245Y57976*
X44212Y57942*
X43631*
X4355Y58022*
X43551Y58024*
X43511*
Y58029*
X43506*
Y58068*
X43505*
X43455Y58117*
X4345Y58122*
X43443Y58125*
X43436Y58126*
X43389*
X43381Y58125*
X43375Y58122*
X43369Y58117*
X43319Y58068*
X43318*
Y58029*
Y5799*
X43323*
X43333Y57994*
X43341Y58001*
X43348Y58009*
X43352Y58018*
Y58022*
X43357Y58027*
X43362Y58026*
X43363Y58016*
X43368Y58004*
X43376Y57993*
X43386Y57985*
X43398Y5798*
X43411Y57979*
X43412*
X43413*
X43426Y57981*
X43438Y57985*
X43448Y57993*
X43456Y58004*
X43461Y58016*
X43463Y58026*
X43467Y58027*
X43472Y58022*
X43473Y58018*
X43477Y58009*
X43483Y58001*
X43491Y57994*
X43501Y5799*
X43505*
X436Y57895*
X43606Y5789*
X43612Y57888*
X43619Y57887*
X43654*
X43655Y57882*
X43647Y57881*
X43634Y57875*
X43623Y57867*
X43615Y57856*
X4361*
X43601Y57867*
X4359Y57875*
X43577Y57881*
X43563Y57883*
X43549Y57881*
X43546Y57879*
X43544Y57884*
X43531Y57899*
X43516Y57911*
X43499Y5792*
X43481Y57926*
X43461Y57928*
X43442Y57926*
X43424Y5792*
X43412Y57914*
X43401Y5792*
X43382Y57926*
X43363Y57928*
X43344Y57926*
X43325Y5792*
X43308Y57911*
X43293Y57899*
X43281Y57884*
X43279Y57879*
X43275Y57881*
X43261Y57883*
X43247Y57881*
X43234Y57875*
X43223Y57867*
X43215Y57856*
X4321*
X43201Y57867*
X4319Y57875*
X43177Y57881*
X43163Y57883*
X43149Y57881*
X43136Y57875*
X43125Y57867*
X43116Y57856*
X43111Y57843*
X43109Y57829*
X43111Y57815*
X43116Y57802*
X43125Y57791*
X43136Y57782*
X43149Y57777*
X43163Y57775*
X43177Y57777*
X4319Y57782*
X43201Y57791*
X4321Y57802*
X43215*
X43223Y57791*
X43234Y57782*
X43247Y57777*
X43261Y57775*
X43275Y57777*
X43279Y57778*
X43281Y57774*
X43293Y57759*
X43308Y57747*
X43325Y57737*
X43344Y57732*
X43363Y5773*
X43382Y57732*
X43401Y57737*
X43412Y57744*
X43424Y57737*
X43442Y57732*
X43444Y5773*
X43443Y57729*
X43445Y57715*
X43449Y57702*
X43455Y5769*
X43464Y5768*
X43474Y57671*
X43486Y57665*
X43499Y57661*
X43513Y57659*
X43527Y57661*
X4354Y57665*
X43552Y57671*
X43558Y57676*
X43562Y5768*
X43573Y57671*
X43585Y57665*
X43598Y57661*
X43611Y57659*
X43625Y57661*
X43638Y57665*
X4365Y57671*
X43661Y5768*
X43669Y5769*
X43672Y57695*
X44172*
X44173Y5769*
X44166Y57687*
X44156Y57678*
X44147Y57667*
X44141Y57655*
X44137Y57642*
X44135Y57629*
X44137Y57615*
X44141Y57602*
X44147Y5759*
X44156Y5758*
X44166Y57571*
X44164Y57567*
X44009*
X43946Y5763*
Y57631*
X43943Y57639*
X43938Y57645*
X43931Y5765*
X43923Y57654*
X43915Y57655*
X43907Y57654*
X43899Y5765*
X43892Y57645*
X43887Y57639*
X43884Y57631*
X43883Y57622*
X43884Y57614*
X43887Y57606*
X43892Y576*
X43899Y57594*
X43907Y57591*
X43908*
X43979Y5752*
X43984Y57516*
X43991Y57513*
X43992*
X43998Y57512*
X45334*
X45341Y57513*
X45348Y57516*
X45353Y5752*
X45446Y57613*
X45486*
X45487Y57608*
X45482Y57603*
X45472Y57591*
X45465Y57577*
X4546Y57562*
X45458Y57547*
X4546Y57531*
X45465Y57516*
X45472Y57502*
X45482Y5749*
X45494Y5748*
X45497Y57477*
X45494Y57473*
X45493*
X45485Y57471*
X45481Y57469*
X4302*
X43019*
X43005Y5747*
X42991Y57474*
X42978Y57481*
X42966Y57491*
X42957Y57502*
X42949Y57516*
X42945Y5753*
X42944Y57542*
Y57545*
Y58839*
X43021*
X4304Y5884*
X43058Y58844*
X43075Y58852*
X43091Y58861*
X43105Y58873*
X43118Y58888*
X43127Y58903*
X43134Y58921*
X43139Y58939*
X4314Y58957*
X43139Y58976*
X43134Y58994*
X43127Y59011*
X43118Y59027*
X43105Y59041*
X43091Y59054*
X43075Y59063*
X43058Y5907*
X4304Y59075*
X43021Y59076*
X42944*
Y61109*
X42945Y61112*
X42946Y61127*
X4295Y61141*
X42958Y61154*
X42967Y61166*
X42979Y61175*
X42992Y61182*
X43006Y61187*
X4302Y61188*
X43021*
X52923*
X52924Y61183*
X52912Y61179*
X52899Y61172*
X52886Y61162*
X52876Y6115*
X52869Y61136*
X52864Y61121*
X52863Y61105*
X52864Y61089*
X52869Y61074*
X52876Y6106*
X52886Y61048*
X52899Y61038*
X52912Y61031*
X52927Y61026*
X52929*
Y61021*
X52821*
X52686Y61156*
X5268Y6116*
X52674Y61163*
X52667Y61164*
X52338*
X52331Y61163*
X52327Y61161*
X52325Y6116*
X52319Y61156*
X52233Y6107*
X52147Y61156*
X52141Y6116*
X52135Y61163*
X52128Y61164*
X51588*
X51581Y61163*
X51577Y61161*
X51575Y6116*
X51569Y61156*
X51483Y6107*
X51397Y61156*
X51391Y6116*
X51385Y61163*
X51378Y61164*
X50838*
X50831Y61163*
X50825Y6116*
X50819Y61156*
X50733Y6107*
X50647Y61156*
X50641Y6116*
X50635Y61163*
X50628Y61164*
X50088*
X50081Y61163*
X50075Y6116*
X50069Y61156*
X49983Y6107*
X49897Y61156*
X49891Y6116*
X49885Y61163*
X49878Y61164*
X49338*
X49331Y61163*
X49325Y6116*
X49319Y61156*
X49233Y6107*
X49147Y61156*
X49141Y6116*
X49135Y61163*
X49128Y61164*
X48588*
X48581Y61163*
X48575Y6116*
X48569Y61156*
X48483Y6107*
X48397Y61156*
X48391Y6116*
X48385Y61163*
X48378Y61164*
X47838*
X47831Y61163*
X47825Y6116*
X47819Y61156*
X47733Y6107*
X47647Y61156*
X47641Y6116*
X47635Y61163*
X47628Y61164*
X47088*
X47081Y61163*
X47077Y61161*
X47075Y6116*
X47069Y61156*
X46983Y6107*
X46897Y61156*
X46891Y6116*
X46885Y61163*
X46878Y61164*
X46338*
X46331Y61163*
X46325Y6116*
X46319Y61156*
X46233Y6107*
X46147Y61156*
X46141Y6116*
X46135Y61163*
X46128Y61164*
X45588*
X45581Y61163*
X45575Y6116*
X45569Y61156*
X45483Y6107*
X45397Y61156*
X45391Y6116*
X45385Y61163*
X45378Y61164*
X44838*
X44831Y61163*
X44825Y6116*
X44819Y61156*
X44732Y61068*
X44723Y61067*
X44713Y61063*
X44705Y61057*
X44698Y61049*
X44694Y61039*
Y61034*
X44775*
X4478Y61038*
X44784Y61036*
X44783Y61029*
X44785Y61016*
X4479Y61004*
X44798Y60993*
X44808Y60985*
X4482Y6098*
X44833Y60979*
X44846Y6098*
X44858Y60985*
X44868Y60993*
X44876Y61004*
X44881Y61016*
X44883Y61029*
X44881Y61042*
X44876Y61054*
X44868Y61064*
X44858Y61072*
X44846Y61077*
X44833Y61079*
X44826Y61078*
X44824Y61082*
X4485Y61109*
X45366*
X45441Y61034*
X45525*
X4553Y61038*
X45534Y61036*
X45533Y61029*
X45535Y61016*
X4554Y61004*
X45548Y60993*
X45558Y60985*
X4557Y6098*
X45583Y60979*
X45596Y6098*
X45608Y60985*
X45618Y60993*
X45626Y61004*
X45631Y61016*
X45633Y61029*
X45631Y61042*
X45626Y61054*
X45618Y61064*
X45608Y61072*
X45596Y61077*
X45583Y61079*
X45576Y61078*
X45574Y61082*
X456Y61109*
X46116*
X46191Y61034*
X46275*
X4628Y61038*
X46284Y61036*
X46283Y61029*
X46285Y61016*
X4629Y61004*
X46298Y60993*
X46308Y60985*
X4632Y6098*
X46333Y60979*
X46346Y6098*
X46358Y60985*
X46368Y60993*
X46376Y61004*
X46381Y61016*
X46383Y61029*
X46381Y61042*
X46376Y61054*
X46368Y61064*
X46358Y61072*
X46346Y61077*
X46333Y61079*
X46326Y61078*
X46324Y61082*
X4635Y61109*
X46866*
X46941Y61034*
X47025*
X4703Y61038*
X47034Y61036*
X47033Y61029*
X47035Y61016*
X4704Y61004*
X47048Y60993*
X47058Y60985*
X4707Y6098*
X47083Y60979*
X47096Y6098*
X47108Y60985*
X47118Y60993*
X47126Y61004*
X47131Y61016*
X47133Y61029*
X47131Y61042*
X47126Y61054*
X47118Y61064*
X47108Y61072*
X47096Y61077*
X47083Y61079*
X47076Y61078*
X47074Y61082*
X471Y61109*
X47616*
X47691Y61034*
X47775*
X4778Y61038*
X47784Y61036*
X47783Y61029*
X47785Y61016*
X4779Y61004*
X47798Y60993*
X47808Y60985*
X4782Y6098*
X47833Y60979*
X47846Y6098*
X47858Y60985*
X47868Y60993*
X47876Y61004*
X47881Y61016*
X47883Y61029*
X47881Y61042*
X47876Y61054*
X47868Y61064*
X47858Y61072*
X47846Y61077*
X47833Y61079*
X47826Y61078*
X47824Y61082*
X4785Y61109*
X48366*
X48441Y61034*
X48525*
X4853Y61038*
X48534Y61036*
X48533Y61029*
X48535Y61016*
X4854Y61004*
X48548Y60993*
X48558Y60985*
X4857Y6098*
X48583Y60979*
X48596Y6098*
X48608Y60985*
X48618Y60993*
X48626Y61004*
X48631Y61016*
X48633Y61029*
X48631Y61042*
X48626Y61054*
X48618Y61064*
X48608Y61072*
X48596Y61077*
X48583Y61079*
X48576Y61078*
X48574Y61082*
X486Y61109*
X49116*
X49191Y61034*
X49275*
X4928Y61038*
X49284Y61036*
X49283Y61029*
X49285Y61016*
X4929Y61004*
X49298Y60993*
X49308Y60985*
X4932Y6098*
X49333Y60979*
X49346Y6098*
X49358Y60985*
X49368Y60993*
X49376Y61004*
X49381Y61016*
X49383Y61029*
X49381Y61042*
X49376Y61054*
X49368Y61064*
X49358Y61072*
X49346Y61077*
X49333Y61079*
X49326Y61078*
X49324Y61082*
X4935Y61109*
X49866*
X49941Y61034*
X50025*
X5003Y61038*
X50034Y61036*
X50033Y61029*
X50035Y61016*
X5004Y61004*
X50048Y60993*
X50058Y60985*
X5007Y6098*
X50083Y60979*
X50096Y6098*
X50108Y60985*
X50118Y60993*
X50126Y61004*
X50131Y61016*
X50133Y61029*
X50131Y61042*
X50126Y61054*
X50118Y61064*
X50108Y61072*
X50096Y61077*
X50083Y61079*
X50076Y61078*
X50074Y61082*
X501Y61109*
X50616*
X50691Y61034*
X50775*
X5078Y61038*
X50784Y61036*
X50783Y61029*
X50785Y61016*
X5079Y61004*
X50798Y60993*
X50808Y60985*
X5082Y6098*
X50833Y60979*
X50846Y6098*
X50858Y60985*
X50868Y60993*
X50876Y61004*
X50881Y61016*
X50883Y61029*
X50881Y61042*
X50876Y61054*
X50868Y61064*
X50858Y61072*
X50846Y61077*
X50833Y61079*
X50826Y61078*
X50824Y61082*
X5085Y61109*
X51366*
X51441Y61034*
X51525*
X5153Y61038*
X51534Y61036*
X51533Y61029*
X51535Y61016*
X5154Y61004*
X51548Y60993*
X51558Y60985*
X5157Y6098*
X51583Y60979*
X51596Y6098*
X51608Y60985*
X51618Y60993*
X51626Y61004*
X51631Y61016*
X51633Y61029*
X51631Y61042*
X51626Y61054*
X51618Y61064*
X51608Y61072*
X51596Y61077*
X51583Y61079*
X51576Y61078*
X51574Y61082*
X516Y61109*
X52116*
X52191Y61034*
X52275*
X5228Y61038*
X52284Y61036*
X52283Y61029*
X52285Y61016*
X5229Y61004*
X52298Y60993*
X52308Y60985*
X5232Y6098*
X52333Y60979*
X52346Y6098*
X52358Y60985*
X52368Y60993*
X52376Y61004*
X52381Y61016*
X52383Y61029*
X52381Y61042*
X52376Y61054*
X52368Y61064*
X52358Y61072*
X52346Y61077*
X52333Y61079*
X52326Y61078*
X52324Y61082*
X5235Y61109*
X52655*
X5279Y60974*
X52796Y60969*
X52802Y60967*
X52809Y60966*
X52952*
X52959Y60967*
X52966Y60969*
X52971Y60974*
X52987Y60989*
X52993Y6099*
X53003Y60994*
X53011Y61001*
X53018Y61009*
X53021Y61016*
X53029Y61025*
X53034Y61023*
X53035Y61016*
X5304Y61004*
X53048Y60993*
X53058Y60985*
X5307Y6098*
X53083Y60979*
X53096Y6098*
X53108Y60985*
X53118Y60993*
X53126Y61004*
X53131Y61016*
X53133Y61029*
X53131Y61042*
X53126Y61054*
X53118Y61064*
X53108Y61072*
X53107*
X53108Y61077*
X53274*
X53317Y61034*
X53399*
X53405Y61039*
X53409Y61037*
X53408Y61029*
X5341Y61016*
X53415Y61004*
X53423Y60993*
X53433Y60985*
X53445Y6098*
X53458Y60979*
X53471Y6098*
X53483Y60985*
X53493Y60993*
X53501Y61004*
X53506Y61016*
X53508Y61029*
X53506Y61042*
X53501Y61054*
X53493Y61064*
X53484Y61071*
X53485Y61076*
X5365*
X53692Y61034*
X53772*
Y61039*
X53768Y61049*
X53761Y61057*
X53753Y61063*
X53743Y61067*
X53736Y61068*
X53681Y61123*
X53675Y61128*
X53668Y6113*
X53661Y61131*
X5343*
X53423Y6113*
X53416Y61128*
X5341Y61123*
X53358Y61071*
X53305Y61124*
X53299Y61129*
X53292Y61131*
X53285Y61132*
X5307*
X53063Y61131*
X53059Y6113*
X53056Y61129*
X5305Y61124*
X53028Y61102*
X53023Y61104*
X53024Y61105*
X53022Y61121*
X53017Y61136*
X5301Y6115*
X53Y61162*
X52988Y61172*
X52974Y61179*
X52962Y61183*
X52963Y61188*
X53858*
X53859Y61183*
X53847Y61179*
X53834Y61172*
X53821Y61162*
X53811Y6115*
X53804Y61136*
X53799Y61121*
X53798Y61105*
X53799Y61089*
X53804Y61074*
X53806Y6107*
X53798Y61064*
X5379Y61054*
X53785Y61042*
X53783Y61029*
X53785Y61016*
X5379Y61004*
X53798Y60993*
X53808Y60985*
X5382Y6098*
X53833Y60979*
X53846Y6098*
X53858Y60985*
X53868Y60993*
X53876Y61004*
X53881Y61016*
X53882Y61025*
X53894Y61026*
X53909Y61031*
X53923Y61038*
X53935Y61048*
X53945Y6106*
X53952Y61074*
X53957Y61089*
X53959Y61105*
X53957Y61121*
X53952Y61136*
X53945Y6115*
X53935Y61162*
X53923Y61172*
X53909Y61179*
X53897Y61183*
X53898Y61188*
X54044*
X54047*
X54058Y61187*
G37*
G36*
X47601Y57984D02*
X47594Y57981D01*
X47584Y57972*
X47576Y57962*
X47567*
X4756Y57961*
X47553Y57958*
X47548Y57954*
X47474Y57881*
X4747Y57883*
Y57884*
X47469Y57893*
X47466Y57901*
X47465*
Y57983*
X47469Y57985*
X4747*
X47478Y57984*
X47487Y57985*
X47494Y57988*
X47495Y57989*
X476*
X47601Y57984*
G37*
G36*
X47705Y58083D02*
X47706Y5808D01*
X4767Y58043*
X475*
X47498Y58048*
X47535Y58085*
X47703*
X47705Y58083*
G37*
G36*
X5072Y58224D02*
X50711Y58217D01*
X50699Y58202*
X50689Y58184*
X50684Y58166*
X50682Y58147*
X50684Y58127*
X50689Y58109*
X50699Y58092*
X50711Y58077*
X50726Y58064*
X50743Y58055*
X50762Y5805*
X50781Y58048*
X50782*
X50785Y58044*
X50784Y58042*
X50783Y58029*
X50784Y58016*
X50789Y58004*
X50797Y57993*
X50808Y57985*
X5082Y5798*
X50833Y57979*
X50846Y5798*
X50852Y57983*
X50854Y57979*
X50844Y57968*
X50643*
X50502Y58109*
X50496Y58114*
X5049Y58116*
X50482Y58117*
X50318*
X50311Y58116*
X50305Y58114*
X50299Y58109*
X50196Y58006*
X50191Y58001*
X50189Y57994*
X50188Y57987*
Y57942*
X50026Y5778*
X48776*
X48774Y57785*
X48782Y57795*
X48787Y57808*
X48789Y57822*
X48787Y57836*
X48782Y57849*
X48773Y5786*
X48762Y57869*
X48749Y57874*
X48735Y57876*
X48721Y57874*
X48708Y57869*
X48697Y5786*
X48688Y57849*
X48683Y57836*
X48681Y57822*
X48683Y57808*
X48688Y57795*
X48697Y57784*
X48701Y57781*
Y57776*
X48696Y57772*
X4859Y57666*
Y57627*
X48629*
X48727Y57725*
X49155*
X49157Y57721*
X49146Y57709*
X49141Y57703*
X49139Y57697*
X49132Y57693*
X4913Y57691*
X49125Y57693*
Y57703*
X49005*
Y57583*
X49125*
Y57592*
X4913Y57594*
X49132Y57593*
X49142Y57587*
X49153Y57584*
X49165Y57582*
X49177Y57584*
X49188Y57587*
X49198Y57593*
X49208Y576*
X49213Y57606*
X49217*
X49222Y576*
X49232Y57593*
X49242Y57587*
X49253Y57584*
X49265Y57582*
X49277Y57584*
X49288Y57587*
X49298Y57593*
X49308Y576*
X49312Y57606*
X49318*
X49322Y576*
X49332Y57593*
X49342Y57587*
X49353Y57584*
X49365Y57582*
X49377Y57584*
X49388Y57587*
X49398Y57593*
X49408Y576*
X49412Y57606*
X49417*
X49422Y576*
X49432Y57593*
X49437Y5759*
X49438Y57585*
X49406Y57553*
X47456*
X47381Y57628*
Y57629*
X47378Y57637*
X47373Y57643*
X47366Y57649*
X47364Y5765*
X47363Y57655*
X47497Y57789*
X47502Y57795*
X47505Y57802*
Y57809*
Y57835*
X47565Y57894*
X4757*
X47575Y57884*
X47578Y5788*
X47576Y57876*
X47569Y57875*
X47556Y57869*
X47545Y57861*
X47536Y5785*
X47531Y57837*
X47529Y57823*
X47531Y57809*
X47536Y57796*
X47545Y57785*
X47556Y57776*
X47569Y57771*
X47583Y57769*
X47597Y57771*
X4761Y57776*
X47621Y57785*
X4763Y57796*
X47635Y57809*
X47637Y57823*
X47635Y57837*
X4763Y57849*
X47633Y57853*
X47647Y57855*
X4766Y57859*
X47672Y57865*
X47682Y57874*
X47691Y57884*
X47697Y57896*
X47701Y57908*
X47724*
X47726Y57903*
X47713Y57893*
X47701Y57878*
X47692Y57861*
X47686Y57842*
X47684Y57823*
X47686Y57803*
X47692Y57785*
X47701Y57768*
X47713Y57753*
X47728Y57741*
X47745Y57731*
X47764Y57726*
X47783Y57724*
X47802Y57726*
X47821Y57731*
X47838Y57741*
X47853Y57753*
X47865Y57768*
X47866Y57769*
X4787*
X47884Y57771*
X47897Y57776*
X47908Y57785*
X47917Y57796*
X47922Y57809*
X47924Y57823*
X47922Y57837*
X47917Y57849*
X4792Y57853*
X47934Y57855*
X47937Y57851*
X47936Y5785*
X47931Y57837*
X47929Y57823*
X47931Y57809*
X47936Y57796*
X47945Y57785*
X47956Y57776*
X47969Y57771*
X47983Y57769*
X47987*
X47988Y57768*
X48Y57753*
X48015Y57741*
X48032Y57731*
X48051Y57726*
X4807Y57724*
X48089Y57726*
X48108Y57731*
X48125Y57741*
X4814Y57753*
X48152Y57768*
X48161Y57785*
X48167Y57803*
X48169Y57823*
X48167Y57842*
X48161Y57861*
X48152Y57878*
X4814Y57893*
X48127Y57903*
X48129Y57908*
X48317*
X48321Y57896*
X48327Y57884*
X4833Y5788*
X48329Y57875*
X48321Y57874*
X48308Y57869*
X48303Y57865*
X48297Y57869*
X48284Y57875*
X4827Y57877*
X48256Y57875*
X48243Y57869*
X48232Y57861*
X48223Y5785*
X48218Y57837*
X48216Y57823*
X48218Y57809*
X48223Y57796*
X48232Y57785*
X48243Y57776*
X48256Y57771*
X4827Y57769*
X48284Y57771*
X48297Y57776*
X48302Y5778*
X48308Y57776*
X48321Y5777*
X48335Y57768*
X48349Y5777*
X48362Y57776*
X48373Y57784*
X48382Y57795*
X48387Y57808*
X48389Y57822*
X48387Y57836*
X48382Y57849*
X48385Y57853*
X48399Y57854*
X48412Y57858*
X48424Y57865*
X48434Y57873*
X48443Y57884*
X48449Y57896*
X48453Y57908*
X48476*
X48478Y57903*
X48465Y57892*
X48453Y57877*
X48444Y5786*
X48438Y57842*
X48436Y57822*
X48438Y57803*
X48444Y57785*
X48453Y57767*
X48465Y57752*
X4848Y5774*
X48497Y57731*
X48516Y57725*
X48535Y57724*
X48554Y57725*
X48573Y57731*
X4859Y5774*
X48605Y57752*
X48617Y57767*
X48626Y57785*
X48632Y57803*
X48634Y57822*
X48632Y57842*
X48626Y5786*
X48617Y57877*
X48605Y57892*
X48592Y57903*
X48594Y57908*
X48816*
X48823*
X48829Y57911*
X48835Y57915*
X49006Y58087*
X49642*
X49649*
X49656Y5809*
X49661Y58094*
X49795Y58229*
X49975*
X49977Y58224*
X49968Y58217*
X49956Y58202*
X49946Y58184*
X49941Y58166*
X49939Y58147*
X49941Y58127*
X49946Y58109*
X49956Y58092*
X49968Y58077*
X49983Y58064*
X5Y58055*
X50019Y5805*
X50038Y58048*
X50057Y5805*
X50076Y58055*
X50093Y58064*
X50108Y58077*
X5012Y58092*
X50129Y58109*
X50135Y58127*
X50137Y58147*
X50135Y58166*
X50129Y58184*
X5012Y58202*
X50108Y58217*
X50099Y58224*
X50101Y58229*
X50718*
X5072Y58224*
G37*
G36*
X46046Y5789D02*
X46051Y57886D01*
X46058Y57883*
X46065*
X46419*
X46426*
X46432Y57886*
X46438Y5789*
X46455Y57907*
X46456*
X46464Y57911*
X4647Y57916*
X46476Y57922*
X46478Y57928*
X4648Y5793*
X46487Y57927*
X46496Y57926*
X46501Y57927*
X46503Y57922*
X46448Y57867*
X45674*
X45598Y57943*
Y57944*
X45595Y57952*
X4559Y57958*
X45583Y57964*
X45575Y57967*
X45567Y57968*
X45558Y57967*
X45551Y57964*
X45544Y57958*
X45539Y57952*
X45536Y57944*
X45534Y57936*
X45536Y57927*
X45539Y57919*
X45544Y57913*
X45551Y57908*
X45558Y57904*
X4556*
X45643Y5782*
X45649Y57816*
X45652Y57815*
X45655Y57813*
X45661*
X45662Y57809*
Y57808*
X45596Y57741*
X45567*
X45566Y57742*
X45562Y57755*
X45556Y57767*
X45553Y57771*
X45555Y57776*
X45562Y57777*
X45575Y57782*
X45586Y57791*
X45595Y57802*
X456Y57815*
X45602Y57829*
X456Y57843*
X45595Y57856*
X45586Y57867*
X45575Y57875*
X45562Y57881*
X45548Y57883*
X45534Y57881*
X45521Y57875*
X4551Y57867*
X45505Y5786*
X455*
X45494Y57867*
X45483Y57875*
X4547Y57881*
X45456Y57883*
X45442Y57881*
X45434Y57877*
X4543Y57884*
X45418Y57899*
X45408Y57907*
X4541Y57912*
X45452*
X45456Y57909*
X45464Y57906*
X45472Y57904*
X4548Y57906*
X45488Y57909*
X45495Y57914*
X455Y57921*
X45503Y57928*
X45504Y57937*
X45503Y57945*
X455Y57953*
X45495Y5796*
X45488Y57965*
X4548Y57968*
X45472Y57969*
X45464Y57968*
X45459Y57966*
X45176*
X45115Y58027*
Y58028*
X45112Y58036*
X45107Y58043*
X451Y58048*
X45092Y58051*
X45084Y58052*
X45076Y58051*
X45068Y58048*
X45061Y58043*
X45056Y58036*
X45053Y58028*
X45052Y5802*
X45053Y58011*
X45056Y58004*
X45061Y57997*
X45068Y57992*
X45076Y57989*
X45077Y57988*
X45146Y57919*
X45151Y57915*
X45158Y57912*
X45165*
X45194*
X45196Y57907*
X45186Y57899*
X45174Y57884*
X4517Y57877*
X45162Y57881*
X45148Y57883*
X45134Y57881*
X45121Y57875*
X4511Y57867*
X45105Y5786*
X451*
X45094Y57867*
X45083Y57875*
X4507Y57881*
X45056Y57883*
X45042Y57881*
X45029Y57875*
X45018Y57867*
X45009Y57856*
X45004Y57843*
X45002Y57829*
X45004Y57815*
X45009Y57802*
X45018Y57791*
X45029Y57782*
X45042Y57777*
X45056Y57775*
X4507Y57777*
X45083Y57782*
X45094Y57791*
X451Y57798*
X45105*
X4511Y57791*
X45121Y57782*
X45134Y57777*
X45148Y57775*
X45162Y57777*
X4517Y5778*
X45174Y57774*
X45186Y57759*
X45201Y57747*
X45218Y57737*
X45237Y57732*
X45256Y5773*
X45275Y57732*
X45294Y57737*
X45302Y57742*
X4531Y57737*
X45329Y57732*
X45334Y57731*
X45336Y57729*
X45338Y57715*
X45342Y57702*
X45348Y5769*
X45357Y5768*
X45367Y57671*
X45379Y57665*
X45392Y57661*
X45406Y57659*
X45409Y5766*
X45411Y57655*
X45323Y57567*
X45289*
X45287Y57571*
X45297Y5758*
X45306Y5759*
X45312Y57602*
X45316Y57615*
X45318Y57629*
X45316Y57642*
X45312Y57655*
X45306Y57667*
X45297Y57678*
X45287Y57687*
X45275Y57693*
X45262Y57697*
X45248Y57698*
X45235Y57697*
X45222Y57693*
X4521Y57687*
X45202Y5768*
X45195Y57687*
X45183Y57693*
X4517Y57697*
X45156Y57698*
X45142Y57697*
X45129Y57693*
X45117Y57687*
X45107Y57678*
X45098Y57667*
X45092Y57655*
X45088Y57642*
X45086Y57629*
X45088Y57615*
X45092Y57602*
X45098Y5759*
X45107Y5758*
X45117Y57571*
X45115Y57567*
X44543*
X44541Y57571*
X44551Y5758*
X4456Y5759*
X44566Y57602*
X4457Y57615*
X44572Y57629*
X4457Y57642*
X44566Y57655*
X44575Y5766*
X4458Y57661*
X44593Y57665*
X44605Y57671*
X44615Y5768*
X44619Y57685*
X44699*
X44703Y5768*
X44713Y57671*
X44725Y57665*
X44738Y57661*
X44752Y57659*
X44766Y57661*
X44779Y57665*
X44791Y57671*
X44801Y5768*
X4481Y5769*
X44816Y57702*
X4482Y57715*
X44822Y57729*
X4482Y57742*
X44816Y57755*
X4481Y57767*
X44807Y57771*
X44809Y57776*
X44816Y57777*
X44829Y57782*
X4484Y57791*
X44849Y57802*
X44854Y57815*
X44856Y57829*
X44854Y57843*
X44849Y57856*
X4484Y57867*
X44829Y57875*
X44816Y57881*
X44802Y57883*
X44788Y57881*
X44775Y57875*
X44764Y57867*
X44755Y57856*
X4475Y57843*
X44748Y57829*
X4475Y57815*
X44755Y57802*
X44752Y57798*
X44738Y57797*
X44725Y57793*
X44713Y57787*
X44703Y57778*
X44694Y57767*
X44688Y57755*
X44684Y57742*
X44683Y57739*
X44653*
X44652Y57744*
X44657Y57747*
X44672Y57759*
X44684Y57774*
X44693Y57791*
X44699Y57809*
X44701Y57829*
X44699Y57848*
X44693Y57867*
X44684Y57884*
X44672Y57899*
X44657Y57911*
X4464Y5792*
X44621Y57926*
X44602Y57928*
X44583Y57926*
X44564Y5792*
X44547Y57911*
X44532Y57899*
X4452Y57884*
X44518Y57881*
X44505Y57883*
X44499Y57882*
X44498Y57884*
X44486Y57899*
X44471Y57911*
X44454Y5792*
X44435Y57926*
X44416Y57928*
X44397Y57926*
X44378Y5792*
X44361Y57911*
Y5791*
X4436Y57911*
X44343Y5792*
X44324Y57926*
X44305Y57928*
X44286Y57926*
X44278Y57923*
X44276Y57928*
X4434Y57992*
X44345Y5799*
X4435*
Y58029*
Y58068*
X44345Y58067*
X44335Y58063*
X44327Y58057*
X4432Y58049*
Y58047*
X44318*
X44317Y58046*
X44312Y58042*
X44308Y58038*
X44303Y5804*
Y58042*
X44298Y58054*
X4429Y58064*
X44281Y58071*
X44282Y58076*
X44404*
X44411Y58077*
X44418Y5808*
X44424Y58084*
X44438Y58098*
X44615*
X44622Y58099*
X44628Y58102*
X44634Y58106*
X44654Y58126*
X44658Y58124*
X44659Y58122*
X44662Y58114*
X44667Y58108*
X44674Y58102*
X44681Y58099*
X4469Y58098*
X44698Y58099*
X44706Y58102*
X44713Y58108*
X44718Y58114*
X44719Y58117*
X44721Y5812*
X45261*
X45263Y58115*
X45259Y58112*
X45215Y58067*
X45211Y58068*
Y58029*
Y5799*
X45216*
X45226Y57994*
X45234Y58001*
X45241Y58009*
X45245Y58018*
Y58019*
X45248*
X4525Y58018*
Y58016*
X45255Y58004*
X45263Y57993*
X45273Y57985*
X45285Y5798*
X45298Y57979*
X45302*
X45306*
X45319Y57981*
X45331Y57985*
X45341Y57993*
X45349Y58004*
X45354Y58016*
X45355Y58019*
X4536*
Y58018*
X45364Y58009*
X4537Y58001*
X45378Y57994*
X45388Y5799*
X45393*
Y58029*
Y58068*
X45392*
X45348Y58112*
X45344Y58115*
X45345Y5812*
X45372*
X45379Y58121*
X45386Y58123*
X45391Y58128*
X4544Y58176*
X45444Y58173*
X45442Y58166*
X4544Y58147*
X45442Y58127*
X45447Y58109*
X45457Y58092*
X45469Y58077*
X45484Y58064*
X45501Y58055*
X4552Y5805*
X45539Y58048*
X45558Y5805*
X45577Y58055*
X45594Y58064*
X45609Y58077*
X45621Y58092*
X4563Y58109*
X45636Y58127*
X45638Y58147*
X45636Y58166*
X4563Y58184*
X45621Y58202*
X45609Y58216*
X45611Y58221*
X45716*
X46046Y5789*
G37*
G36*
X53489Y58063D02*
X53482Y58054D01*
X53477Y58042*
X53475Y58029*
X53477Y58016*
X53482Y58004*
X5349Y57993*
X535Y57985*
X53512Y5798*
X53523Y57979*
Y57974*
X52802*
X52801Y57979*
X52813Y5798*
X52825Y57985*
X52835Y57993*
X52843Y58004*
X52848Y58016*
X5285Y58029*
X52848Y58042*
X52843Y58054*
X52837Y58062*
X52839Y58066*
X52863*
X52865Y58061*
X5287Y58055*
X52877Y58049*
X52885Y58046*
X52893Y58045*
X52901Y58046*
X52909Y58049*
X52916Y58055*
X52921Y58061*
X52923Y58067*
X53486*
X53489Y58063*
G37*
G36*
X44728Y58275D02*
X44733Y58271D01*
X4474Y58268*
X44741*
X44747*
X44936*
X44943*
X4495Y58271*
X44955Y58275*
X45094Y58414*
X45106Y58411*
X4512Y58409*
X45134Y58411*
X45146Y58414*
X45278Y58282*
X45283Y58278*
X4529Y58275*
X45297*
X45397*
X45399Y5827*
X45329Y582*
X45221*
X45219Y58205*
X45221Y58206*
X45225Y58212*
X45228Y58219*
X45229Y58226*
X45228Y58233*
X45225Y5824*
X45221Y58245*
X45194Y58273*
Y58299*
X45193Y58306*
X4519Y58313*
X45186Y58318*
X4518Y58323*
X45173Y58325*
X45166Y58326*
X45159Y58325*
X45152Y58323*
X45147Y58318*
X45142Y58313*
X45139Y58306*
X45138Y58299*
Y58261*
X45139Y58254*
X45142Y58248*
X45147Y58242*
X45182Y58206*
X45184Y58205*
X45183Y582*
X44748*
X44745Y58204*
X44746Y58207*
X44748Y58215*
X44746Y58223*
X44743Y58231*
X44738Y58238*
X44731Y58243*
X44724Y58246*
X44722*
X44715Y58254*
X44709Y58258*
X44703Y58261*
X44696Y58262*
X4447*
X44469Y58263*
X44461Y58266*
X44453Y58267*
X44444Y58266*
X44436Y58263*
X4443Y58258*
X44425Y58251*
X44421Y58243*
Y58242*
X44344Y58165*
X44271*
X4427Y58169*
X44276Y58173*
X44291Y58185*
X44303Y582*
X44313Y58217*
X44318Y58236*
X4432Y58255*
X44318Y58275*
X44313Y58293*
X44303Y5831*
X44291Y58325*
X44276Y58338*
X44259Y58347*
X4424Y58352*
X44221Y58354*
X44202Y58352*
X44187Y58348*
X44184Y58352*
X44188Y58365*
X4419Y58379*
X44188Y58392*
X44184Y58405*
X44178Y58417*
X44169Y58428*
X44166Y5843*
X44169Y58435*
X44174Y58432*
X44181*
X44263*
X4427*
X44277Y58435*
X44282Y58439*
X44294Y58452*
X44306*
X44312Y5844*
X44321Y5843*
X44331Y58421*
X44343Y58415*
X44356Y58411*
X4437Y58409*
X44384Y58411*
X44397Y58415*
X44409Y58421*
X44419Y5843*
X44428Y5844*
X44434Y58452*
X44552*
X44728Y58275*
G37*
G36*
X48605Y58447D02*
X48593Y58443D01*
X48581Y58437*
X48571Y58428*
X48562Y58417*
X48556Y58405*
X48552Y58392*
X4855Y58379*
X48552Y58365*
X48556Y58352*
X48562Y5834*
X48571Y5833*
X48581Y58321*
X48593Y58315*
X48606Y58311*
X4862Y58309*
X48634Y58311*
X48647Y58315*
X48659Y58321*
X48669Y5833*
X48678Y5834*
X48684Y58352*
X48688Y58365*
X4869Y58379*
X48688Y58392*
X48684Y58405*
X48678Y58417*
X48669Y58428*
X48667Y5843*
X48669Y58435*
X48779*
X48786*
X48793Y58438*
X48799Y58442*
X48804Y58448*
X48809Y58447*
X48812Y5844*
X48821Y5843*
X48831Y58421*
X48843Y58415*
X48856Y58411*
X4887Y58409*
X48884Y58411*
X48897Y58415*
X48909Y58421*
X48919Y5843*
X48928Y5844*
X48934Y58452*
X49354*
X49355Y58447*
X49343Y58443*
X49331Y58437*
X49321Y58428*
X49312Y58417*
X49306Y58405*
X49302Y58392*
X493Y58379*
X49302Y58365*
X49306Y58352*
X49312Y5834*
X49321Y5833*
X49331Y58321*
X49343Y58315*
X49356Y58311*
X4937Y58309*
X49384Y58311*
X49397Y58315*
X49409Y58321*
X49419Y5833*
X49428Y5834*
X49434Y58352*
X49438Y58365*
X4944Y58379*
X49438Y58392*
X49434Y58405*
X49428Y58417*
X49419Y58428*
X49418Y58429*
X4942Y58434*
X49525*
X49532*
X49539Y58437*
X49545Y58441*
X49553Y58449*
X49558*
X49562Y5844*
X49571Y5843*
X49581Y58421*
X49593Y58415*
X49606Y58411*
X4962Y58409*
X49634Y58411*
X49647Y58415*
X49659Y58421*
X49669Y5843*
X49678Y5844*
X49684Y58452*
X4971*
X49712Y58447*
X49526Y58261*
X49186*
X49184Y58266*
X49218Y58299*
X49222Y58302*
X49228Y58309*
X49231Y58317*
X49232Y58325*
X49231Y58334*
X49228Y58341*
X49222Y58348*
X49216Y58353*
X49208Y58356*
X492Y58358*
X49191Y58356*
X49183Y58353*
X49177Y58348*
X49172Y58341*
X49168Y58334*
X49167Y58326*
X49131Y58289*
X48419*
X48417Y58294*
X48429Y58305*
X48432Y58306*
X4844Y58309*
X48447Y58314*
X48452Y58321*
X48455Y58329*
X48456Y58337*
X48455Y58345*
X48452Y58353*
X48447Y5836*
X4844Y58365*
X48432Y58368*
X48424Y58369*
X48416Y58368*
X48408Y58365*
X48401Y5836*
X48396Y58353*
X48394Y58347*
X48368Y58322*
X47917*
X47916Y58327*
X47919Y5833*
X47928Y5834*
X47934Y58352*
X47938Y58365*
X4794Y58379*
X47938Y58392*
X47934Y58405*
X47928Y58417*
X47919Y58428*
X47917Y5843*
X47919Y58435*
X48027*
X48034*
X48041Y58438*
X48047Y58442*
X48053Y58449*
X48058Y58448*
X48062Y5844*
X48071Y5843*
X48081Y58421*
X48093Y58415*
X48106Y58411*
X4812Y58409*
X48134Y58411*
X48147Y58415*
X48159Y58421*
X48169Y5843*
X48178Y5844*
X48184Y58452*
X48604*
X48605Y58447*
G37*
G36*
X51934Y60324D02*
X5193Y60322D01*
X5192Y60314*
X51912Y60304*
X51907Y60292*
X51905Y60279*
X51906Y60273*
X51901Y6027*
X51898Y60274*
X51855*
Y60279*
X5185*
Y60318*
X51845Y60317*
X51835Y60313*
X51827Y60307*
X5182Y60299*
X51816Y60289*
X51815Y60279*
X5177Y60234*
X51236*
X51234Y60239*
X5124Y60243*
X51248Y60254*
X51253Y60266*
X51255Y60279*
X51253Y60292*
X51248Y60304*
X5124Y60314*
X51232Y60321*
X51233Y60326*
X51306*
X51312Y6032*
Y60319*
X51315Y60311*
X5132Y60304*
X51327Y60299*
X51335Y60296*
X51343Y60295*
X51351Y60296*
X51359Y60299*
X5136Y603*
X51383*
X5139Y60301*
X51396Y60304*
X51402Y60308*
X51422Y60329*
X51933*
X51934Y60324*
G37*
G36*
X51178Y60321D02*
X5117Y60314D01*
X51162Y60304*
X51157Y60292*
X51155Y60279*
X51156Y60273*
X51151Y6027*
X51148Y60274*
X51062*
X51026Y60238*
X50491*
X50489Y60243*
X5049*
X50498Y60254*
X50503Y60266*
X50505Y60279*
X50503Y60292*
X50498Y60304*
X5049Y60314*
X50484Y60319*
X50486Y60324*
X50527*
X50531Y6032*
Y60319*
X50534Y60311*
X50539Y60304*
X50546Y60299*
X50554Y60296*
X50562Y60295*
X5057Y60296*
X50578Y60299*
X50579Y603*
X51017*
X51024Y60301*
X5103Y60304*
X51036Y60308*
X51053Y60326*
X51177*
X51178Y60321*
G37*
G36*
X52561Y58443D02*
X52562Y5844D01*
X52571Y5843*
X52581Y58421*
X52589Y58417*
X5259Y58412*
X52587Y58405*
X52583Y58392*
X52581Y58379*
X52583Y58365*
X52587Y58352*
X52593Y5834*
X52596Y58337*
X52595Y58332*
X52585Y58324*
X52573Y58309*
X52564Y58292*
X52558Y58274*
X52556Y58254*
X52558Y58235*
X52564Y58216*
X52573Y58199*
X52585Y58184*
X526Y58172*
X52607Y58168*
X52605Y58164*
X52551*
X52402Y58313*
X52403Y58318*
X52409Y58321*
X52419Y5833*
X52428Y5834*
X52434Y58352*
X52438Y58365*
X5244Y58379*
X52438Y58392*
X52434Y58405*
X52428Y58417*
X52422Y58425*
X52424Y5843*
X5253*
X52537*
X52544Y58433*
X5255Y58437*
X52556Y58444*
X52561Y58443*
G37*
G36*
X53862Y59549D02*
X53875Y59545D01*
X53889Y59543*
X53891*
X53893Y59539*
X53891Y59537*
X53824Y5947*
X53823*
X53819Y59469*
X53815Y59471*
Y59482*
X53814Y59488*
Y59489*
X53812Y59495*
X53807Y59501*
X53789Y59519*
X53791Y59524*
X538*
X53815Y59529*
X53829Y59536*
X53841Y59546*
X53848Y59555*
X5385*
X53862Y59549*
G37*
G36*
X53555Y58923D02*
X53551Y58921D01*
X53538Y58911*
X53528Y58899*
X53521Y58885*
X53516Y5887*
X53515Y58854*
X53516Y58839*
X53521Y58823*
X53523Y5882*
X53516Y58814*
X53508Y58804*
X53503Y58792*
X53501Y58779*
X53502Y58774*
X53497Y58772*
X53495Y58774*
X53456*
Y58735*
X53507Y58684*
X5351Y58682*
X53508Y58677*
X53501Y58678*
X53482Y58676*
X53463Y5867*
X53446Y58661*
X53431Y58649*
X53419Y58634*
X5341Y58617*
X53404Y58598*
X53402Y58579*
X53404Y58559*
X5341Y58541*
X53419Y58524*
X53431Y58509*
X53446Y58497*
X53447Y58496*
X53446Y58491*
X53402*
X53399Y58494*
X53393Y58498*
X53387Y58501*
X5338Y58502*
X53341*
X5334Y58505*
X53334Y58517*
X53331Y58521*
X53333Y58525*
X5334Y58526*
X53353Y58532*
X53364Y5854*
X53373Y58551*
X53378Y58564*
X5338Y58578*
X53378Y58592*
X53373Y58605*
X53364Y58617*
X53353Y58625*
X5334Y5863*
X53326Y58632*
X53315Y58631*
X53301Y58633*
X53287Y58631*
X53274Y58625*
X53263Y58617*
X53254Y58606*
X53249Y58593*
X53247Y58579*
X53249Y58565*
X53254Y58552*
X53256Y58549*
X53255Y58544*
X53249Y58543*
X53237Y58536*
X53227Y58528*
X53218Y58517*
X53212Y58505*
X53208Y58492*
X53206Y58478*
X53208Y58465*
X53212Y58452*
X53218Y5844*
X53227Y58429*
X53237Y58421*
X53249Y58414*
X53253Y58413*
Y58363*
X53198Y58308*
X5305*
Y58313*
X53053Y58314*
X53065Y58321*
X53075Y58329*
X53084Y5834*
X5309Y58352*
X53094Y58365*
X53096Y58378*
X53094Y58392*
X5309Y58405*
X53084Y58417*
X53075Y58428*
X53065Y58436*
X53053Y58443*
X5304Y58447*
X53026Y58448*
X53012Y58447*
X52999Y58443*
X52987Y58436*
X52977Y58428*
X52968Y58417*
X52962Y58405*
X52958Y58392*
X52956Y58378*
X52958Y58365*
X52962Y58352*
X52968Y5834*
X52977Y58329*
X52987Y58321*
X52999Y58314*
X53002Y58313*
Y58308*
X52892*
X52807Y58394*
X52801Y58398*
X52794Y58401*
X52787Y58402*
X52716*
X52715Y58405*
X52709Y58417*
X527Y58428*
X5269Y58437*
X52679Y58442*
X52684Y58452*
X52688Y58465*
X5269Y58479*
X52688Y58492*
X52686Y58498*
X52691Y58501*
X52696Y58497*
X52713Y58487*
X52732Y58482*
X52751Y5848*
X5277Y58482*
X52789Y58487*
X52806Y58497*
X52821Y58509*
X52833Y58524*
X52842Y58541*
X52848Y58559*
X5285Y58579*
X52848Y58598*
X52842Y58617*
X52833Y58634*
X52821Y58649*
X52806Y58661*
X52789Y5867*
X52772Y58675*
X52773Y5868*
X53004*
X53011Y58681*
X53018Y58684*
X53024Y58688*
X53074Y58739*
X53076*
X53126Y58689*
X53132Y58684*
X53138Y58682*
X53146Y58681*
X5338*
X53388Y58682*
X53394Y58684*
X534Y58689*
X53446Y58735*
Y58774*
X53407*
X53369Y58736*
X5321*
X53208Y58741*
X53211Y58743*
X53219Y58753*
X53224Y58765*
X53226Y58778*
X53224Y58791*
X53219Y58803*
X53211Y58814*
X53201Y58821*
X53203Y58826*
X53399*
X53406Y58827*
X53413Y5883*
X53418Y58834*
X53512Y58928*
X53553*
X53555Y58923*
G37*
G36*
X52044Y60322D02*
Y6032D01*
X52047Y60313*
X52052Y60306*
X52059Y60301*
X52067Y60298*
X52075Y60296*
X52083Y60298*
X52411*
X52418*
X52425Y60301*
X5243Y60305*
X52441Y60316*
X52581*
X52583Y60311*
X52577Y60307*
X5257Y60299*
X52566Y60289*
Y60284*
X52605*
Y60274*
X52562*
X52522Y60234*
X51986*
X51984Y60239*
X5199Y60243*
X51998Y60254*
X52003Y60266*
X52005Y60279*
X52003Y60292*
X51998Y60304*
X5199Y60314*
X5198Y60322*
X51976Y60324*
X51977Y60329*
X52037*
X52044Y60322*
G37*
G36*
X52355Y58447D02*
X52343Y58443D01*
X52331Y58437*
X52321Y58428*
X52312Y58417*
X52306Y58405*
X52302Y58392*
X523Y58379*
X52302Y58365*
X52306Y58352*
X52312Y5834*
X52321Y5833*
X52331Y58321*
X52343Y58315*
Y58306*
X52344Y58299*
X52346Y58293*
X52351Y58287*
X52513Y58125*
X52511Y58121*
X52093*
X52079Y58135*
Y58136*
X52076Y58144*
X52071Y5815*
X52064Y58155*
X52056Y58159*
X52048Y5816*
X5204Y58159*
X52032Y58155*
X52025Y5815*
X5202Y58144*
X52017Y58136*
X52016Y58127*
X52017Y58119*
X5202Y58111*
X52025Y58105*
X52032Y58099*
X5204Y58096*
X52041*
X52063Y58074*
X52068Y5807*
X52075Y58067*
X52082Y58066*
X52567*
X52569Y58062*
X52563Y58054*
X52558Y58042*
X52556Y58029*
X52558Y58016*
X52563Y58004*
X52571Y57993*
X52581Y57985*
X5259Y57982*
X52589Y57977*
X51976*
X51975Y57982*
X51984Y57985*
X51995Y57993*
X52002Y58004*
X52007Y58016*
X52009Y58029*
X52007Y58042*
X52002Y58054*
X51995Y58064*
X51984Y58072*
X51972Y58077*
X51959Y58079*
X51946Y58077*
X51934Y58072*
X51924Y58064*
X51916Y58054*
X51911Y58042*
X5191Y58034*
X51905*
X51904Y58039*
X519Y58049*
X51894Y58057*
X51886Y58063*
X51876Y58067*
X51871Y58068*
Y58029*
X51854*
Y58068*
X51849Y58067*
X51839Y58063*
X51831Y58057*
X51825Y58049*
X51824Y58046*
X51819*
X51815Y58054*
X51808Y58064*
X51797Y58072*
X51785Y58077*
X51772Y58079*
X51769Y58078*
X51766Y58079*
X51753Y58077*
X51741Y58072*
X5173Y58064*
X51722Y58054*
X51717Y58042*
X51716Y58034*
X51711*
Y58039*
X51707Y58049*
X517Y58057*
X51692Y58063*
X51683Y58067*
X51677Y58068*
Y58029*
X51672*
Y58024*
X51633*
X51634Y58018*
X51638Y58009*
X51644Y58001*
X51652Y57994*
X51662Y5799*
X51666*
X51723Y57933*
X51722Y5793*
Y57928*
X51703Y57926*
X51684Y5792*
X51667Y57911*
X51652Y57899*
X5164Y57884*
X51637Y57878*
X5163Y57881*
X51616Y57883*
X51602Y57881*
X51589Y57875*
X51578Y57867*
X51571Y57859*
X51566*
X5156Y57867*
X51549Y57875*
X51536Y57881*
X51522Y57883*
X51508Y57881*
X51495Y57875*
X51484Y57867*
X51476Y57856*
X5147Y57843*
X51468Y57829*
X5147Y57815*
X51476Y57802*
X51484Y57791*
X51495Y57782*
X51508Y57777*
X51522Y57775*
X51536Y57777*
X51549Y57782*
X5156Y57791*
X51566Y57799*
X51571*
X51578Y57791*
X51589Y57782*
X51602Y57777*
X51616Y57775*
X5163Y57777*
X51637Y5778*
X5164Y57774*
X51652Y57759*
X51667Y57747*
X51665Y57742*
X51287*
X51285Y57747*
X51288Y5775*
X51293Y57755*
X51294Y57758*
X51295Y57762*
X51296Y57769*
Y57989*
X51295Y57995*
Y57996*
X51293Y58002*
X51288Y58008*
X51046Y5825*
X51048Y58255*
X52157*
X52164*
X52171Y58258*
X52176Y58262*
X52185Y58271*
X52186*
X52194Y58275*
X52201Y5828*
X52206Y58286*
X52209Y58294*
X5221Y58303*
X52209Y58311*
X52206Y58319*
X52201Y58325*
X52194Y5833*
X52186Y58334*
X52178Y58335*
X52169Y58334*
X52162Y5833*
X52155Y58325*
X5215Y58319*
X52147Y58311*
X52146Y5831*
Y58309*
X51645*
Y58314*
X51647Y58315*
X51659Y58321*
X51669Y5833*
X51678Y5834*
X51684Y58352*
X51688Y58365*
X5169Y58379*
X51688Y58392*
X51684Y58405*
X51678Y58417*
X51671Y58426*
X51673Y58431*
X51771*
X51778*
X51785Y58434*
X51791Y58438*
X51802Y5845*
X51807Y58449*
X51812Y5844*
X51821Y5843*
X51831Y58421*
X51843Y58415*
X51856Y58411*
X5187Y58409*
X51884Y58411*
X51897Y58415*
X51909Y58421*
X51919Y5843*
X51928Y5844*
X51934Y58452*
X52354*
X52355Y58447*
G37*
G36*
X52918Y60697D02*
X52906Y60693D01*
X52894Y60687*
X52884Y60678*
X52875Y60667*
X52869Y60655*
X52865Y60642*
X52863Y60629*
X52865Y60615*
X52869Y60602*
X52875Y6059*
X5288Y60585*
X52879Y6058*
X52873Y60575*
X52861Y6056*
X52852Y60543*
X52846Y60524*
X52844Y60505*
X52846Y60486*
X52852Y60467*
X52861Y6045*
X52873Y60435*
X52876Y60432*
X52875Y60428*
X52647*
X52644Y60432*
X52646Y60437*
X52647Y60445*
X52646Y60454*
X52643Y60462*
X52638Y60468*
X52631Y60473*
X52623Y60477*
X52615Y60478*
X52607Y60477*
X52599Y60473*
X52598*
X51646*
X51645*
X51637Y60477*
X51629Y60478*
X51621Y60477*
X51613Y60473*
X51606Y60468*
X51601Y60462*
X51598Y60454*
X51597Y60445*
X51598Y60437*
X516Y60432*
X51597Y60428*
X50305*
X503Y60433*
Y60434*
X50296Y60442*
X50291Y60449*
X50285Y60454*
X50277Y60457*
X50268Y60458*
X5026Y60457*
X50252Y60454*
X50246Y60449*
X50241Y60442*
X50237Y60434*
X50236Y60426*
X50237Y60417*
X50241Y6041*
X50246Y60403*
X50252Y60398*
X5026Y60395*
X50261Y60394*
X50273Y60383*
X50271Y60378*
X49898*
X49886Y60389*
Y60391*
X49883Y60398*
X49878Y60405*
X49871Y6041*
X49863Y60413*
X49855Y60415*
X49847Y60413*
X49839Y6041*
X49838*
X49097*
X49096*
X49088Y60414*
X49079Y60415*
X49071Y60414*
X49063Y6041*
X49062*
X48388*
X48387*
X4838Y60414*
X48371Y60415*
X48363Y60414*
X48355Y6041*
X48354*
X47605*
X47604*
X47597Y60413*
X47588Y60415*
X4758Y60413*
X47572Y6041*
X47571*
X46841*
X4684*
X46832Y60413*
X46824Y60415*
X46815Y60413*
X46807Y6041*
X46806*
X46105*
X46104*
X46096Y60413*
X46088Y60415*
X46079Y60413*
X46071Y6041*
X45334*
X45333*
X45325Y60413*
X45317Y60415*
X45308Y60413*
X45301Y6041*
X453*
X44564*
X44563*
X44555Y60413*
X44547Y60415*
X44539Y60413*
X44531Y6041*
X4453*
X44288*
X44282Y60409*
X44281*
X44274Y60406*
X44269Y60402*
X44227Y60359*
X44221*
X44219Y60364*
X44265Y6041*
X44269Y60416*
X44272Y60423*
X44273Y6043*
Y60559*
X44274Y6056*
X44277Y60568*
X44278Y60576*
X44277Y60585*
X44274Y60592*
X44278Y60595*
X4436Y60514*
Y60513*
X44365Y60509*
X44372Y60506*
X44379*
X44737*
X44744*
X44751Y60509*
X44756Y60513*
X44907Y60664*
X44919Y60661*
X44933Y60659*
X44947Y60661*
X44959Y60664*
X45114Y60509*
X45119Y60505*
X45126Y60502*
X45133*
X45483*
X4549*
X45497Y60505*
X45502Y60509*
X45657Y60664*
X45669Y60661*
X45683Y60659*
X45697Y60661*
X45709Y60664*
X45865Y60508*
X4587Y60504*
X45877Y60501*
X45884*
X46232*
X46239*
X46246Y60504*
X46251Y60508*
X46407Y60664*
X46419Y60661*
X46433Y60659*
X46447Y60661*
X46459Y60664*
X46615Y60508*
X4662Y60504*
X46627Y60501*
X46634*
X46982*
X46989*
X46996Y60504*
X47001Y60508*
X47157Y60664*
X47169Y60661*
X47183Y60659*
X47197Y60661*
X47209Y60664*
X47357Y60516*
X47362Y60512*
X47369Y60509*
X47376*
X4774*
X47747*
X47754Y60512*
X47759Y60516*
X47907Y60664*
X47919Y60661*
X47933Y60659*
X47947Y60661*
X47959Y60664*
X48107Y60516*
X48112Y60512*
X48119Y60509*
X4812*
X48126*
X4849*
X48497*
X48504Y60512*
X48509Y60516*
X48657Y60664*
X48669Y60661*
X48683Y60659*
X48697Y60661*
X48709Y60664*
X4886Y60513*
X48865Y60509*
X48872Y60506*
X48873*
X48879*
X49237*
X49244*
X49251Y60509*
X49256Y60513*
X49407Y60664*
X49419Y60661*
X49433Y60659*
X49447Y60661*
X49459Y60664*
X49609Y60514*
X49614Y6051*
X49621Y60507*
X49628*
X49988*
X49995*
X50002Y6051*
X50007Y60514*
X50157Y60664*
X50169Y60661*
X50183Y60659*
X50197Y60661*
X50209Y60664*
X50359Y60514*
X50364Y6051*
X50371Y60507*
X50378*
X50738*
X50745*
X50752Y6051*
X50757Y60514*
X50907Y60664*
X50919Y60661*
X50933Y60659*
X50947Y60661*
X50959Y60664*
X51101Y60522*
X51106Y60518*
X51113Y60515*
X5112*
X51496*
X51503*
X5151Y60518*
X51515Y60522*
X51657Y60664*
X51669Y60661*
X51683Y60659*
X51697Y60661*
X51709Y60664*
X51848Y60525*
X51853Y60521*
X5186Y60518*
X51861*
X51867*
X52249*
X52256*
X52263Y60521*
X52268Y60525*
X52407Y60664*
X52419Y60661*
X52433Y60659*
X52447Y60661*
X5246Y60665*
X52472Y60671*
X52482Y6068*
X52491Y6069*
X52497Y60702*
X52917*
X52918Y60697*
G37*
G36*
X50855Y58447D02*
X50843Y58443D01*
X50831Y58437*
X50821Y58428*
X50812Y58417*
X50806Y58405*
X50802Y58392*
X508Y58379*
X50802Y58365*
X50806Y58352*
X50812Y5834*
X50814Y58339*
X50811Y58334*
X50179*
X50176Y58339*
X50178Y5834*
X50184Y58352*
X50188Y58365*
X5019Y58379*
X50188Y58392*
X50184Y58405*
X50178Y58417*
X50176Y5842*
X50178Y58425*
X50274*
X50281*
X50288Y58428*
X50294Y58432*
X50305Y58444*
X5031*
X50312Y5844*
X50321Y5843*
X50331Y58421*
X50343Y58415*
X50356Y58411*
X5037Y58409*
X50384Y58411*
X50397Y58415*
X50409Y58421*
X50419Y5843*
X50428Y5844*
X50434Y58452*
X50854*
X50855Y58447*
G37*
G36*
X51605D02*
X51593Y58443D01*
X51581Y58437*
X51571Y58428*
X51562Y58417*
X51556Y58405*
X51552Y58392*
X5155Y58379*
X51552Y58365*
X51556Y58352*
X51562Y5834*
X51571Y5833*
X51581Y58321*
X51593Y58315*
X51595Y58314*
Y58309*
X51467*
X51465Y58313*
X51467Y58316*
X5147Y58324*
X51471Y58332*
X5147Y58341*
X51467Y58348*
X51462Y58355*
X51455Y5836*
X51447Y58363*
X51439Y58364*
X5143Y58363*
X51423Y5836*
X51416Y58355*
X51411Y58348*
X51408Y58341*
Y58339*
X51402Y58334*
X50929*
X50926Y58339*
X50928Y5834*
X50934Y58352*
X50938Y58365*
X5094Y58379*
X50938Y58392*
X50934Y58405*
X50928Y58417*
X50921Y58426*
X50923Y58431*
X5103*
X51037*
X51044Y58434*
X5105Y58438*
X51055Y58444*
X5106*
X51062Y5844*
X51071Y5843*
X51081Y58421*
X51093Y58415*
X51106Y58411*
X5112Y58409*
X51134Y58411*
X51147Y58415*
X51159Y58421*
X51169Y5843*
X51178Y5844*
X51184Y58452*
X51604*
X51605Y58447*
G37*
G36*
X53032Y60311D02*
X52956Y60235D01*
X52737*
X52735Y6024*
X5274Y60243*
X52748Y60254*
X52753Y60266*
X52755Y60279*
X52753Y60292*
X52748Y60304*
X52742Y60312*
X52744Y60316*
X52839*
X52847Y60313*
X52855Y60311*
X52863Y60313*
X52871Y60316*
X53031*
X53032Y60311*
G37*
G36*
X52419Y60368D02*
X52416Y60367D01*
X5241Y60363*
X524Y60352*
X52097*
X52091Y60357*
X52083Y6036*
X52082*
X52074Y60369*
X52076Y60373*
X52418*
X52419Y60368*
G37*
G36*
X51019Y60369D02*
X51005Y60355D01*
X50579*
X50578*
X5057Y60358*
X50569Y60359*
X50559Y60369*
X50561Y60373*
X51017*
X51019Y60369*
G37*
G36*
X48958Y58115D02*
X48805Y57962D01*
X48678*
X48676Y57967*
X48684Y57973*
X48693Y57984*
X48699Y57996*
X48703Y58009*
X48705Y58022*
X48703Y58036*
X48699Y58049*
X48693Y58061*
X48684Y58072*
X48674Y5808*
X48676Y58085*
X489*
X48907*
X48914Y58088*
X48919Y58092*
X48946Y5812*
X48956*
X48958Y58115*
G37*
G36*
X53526Y57914D02*
X5352Y57911D01*
X53505Y57899*
X53493Y57884*
X53491Y57881*
X53479Y57883*
X53465Y57881*
X53452Y57875*
X53441Y57867*
X53432Y57856*
X5343Y57849*
X53424*
X53422Y57856*
X53413Y57867*
X53402Y57875*
X53389Y57881*
X53375Y57883*
X53361Y57881*
X53348Y57875*
X53337Y57867*
X53328Y57856*
X53323Y57843*
X53321Y57829*
X53323Y57815*
X53328Y57802*
X53337Y57791*
X53348Y57782*
X53361Y57777*
X53375Y57775*
X53389Y57777*
X53402Y57782*
X53413Y57791*
X53422Y57802*
X53425Y57809*
X5343*
X53432Y57802*
X53441Y57791*
X53452Y57782*
X53465Y57777*
X53479Y57775*
X53491Y57776*
X53493Y57774*
X53505Y57759*
X5352Y57747*
X53518Y57742*
X52968*
X52964Y57755*
X52958Y57767*
X52955Y57771*
X52956Y57776*
X52964Y57777*
X52977Y57782*
X52988Y57791*
X52996Y57802*
X53002Y57815*
X53004Y57829*
X53002Y57843*
X52996Y57856*
X52988Y57867*
X52977Y57875*
X52964Y57881*
X5295Y57883*
X52936Y57881*
X52923Y57875*
X52912Y57867*
X52906Y57859*
X52901*
X52894Y57867*
X52883Y57875*
X5287Y57881*
X52856Y57883*
X52842Y57881*
X52835Y57878*
X52832Y57884*
X5282Y57899*
X52805Y57911*
X52799Y57914*
X528Y57919*
X53524*
X53526Y57914*
G37*
G36*
X47068Y57855D02*
Y57809D01*
X47064Y57807*
X47058Y57802*
X47053Y57795*
X47049Y57787*
X47048Y57779*
X47049Y57771*
X47052Y57763*
X4705Y57759*
X46972*
X4697Y57764*
X47063Y57857*
X47068Y57855*
G37*
G36*
X49967Y57721D02*
X49801Y57555D01*
X49622*
X49593Y57585*
Y57601*
X49601Y57607*
X49607Y57615*
X49612*
X49615Y57609*
X49622Y576*
X49632Y57593*
X49642Y57587*
X49653Y57584*
X49665Y57582*
X49677Y57584*
X49688Y57587*
X49698Y57593*
X49708Y576*
X49715Y57609*
X49721Y5762*
X49724Y57631*
X49725Y57643*
X49724Y57655*
X49722Y57661*
X49727Y57663*
X49768Y57622*
Y57621*
X49771Y57613*
X49776Y57607*
X49783Y57602*
X49791Y57598*
X49799Y57597*
X49807Y57598*
X49815Y57602*
X49822Y57607*
X49827Y57613*
X4983Y57621*
X49831Y57629*
X4983Y57638*
X49827Y57646*
X49822Y57652*
X49815Y57657*
X49807Y57661*
X49806*
X49746Y57721*
X49748Y57725*
X49965*
X49967Y57721*
G37*
G36*
X46574Y57911D02*
X46643Y57843D01*
Y57842*
X46646Y57834*
X46651Y57827*
X46658Y57822*
X46666Y57819*
X46674Y57818*
X46682Y57819*
X4669Y57822*
X46697Y57827*
X46703Y57822*
X46711Y57819*
X46719Y57818*
X46724*
X46727Y57814*
X46723Y57806*
X46722Y57798*
X46723Y57789*
X46727Y57782*
X46732Y57775*
X46739Y5777*
X46746Y57767*
X46755Y57765*
X46763Y57767*
X46769Y57769*
X46772Y57765*
X46768Y5776*
X46765Y57752*
X46764Y57744*
X46765Y57735*
X46768Y57727*
X46773Y57721*
X4678Y57716*
X46788Y57712*
X46796Y57711*
X46804Y57712*
X46812Y57716*
X46813*
X46837*
X46867Y57687*
X46807Y57627*
X46805Y57629*
X46797Y57632*
X46789Y57633*
X46781Y57632*
X46773Y57629*
X46766Y57624*
X46761Y57617*
X46758Y57609*
X46757Y57601*
X46758Y57593*
X46761Y57585*
X46763Y57582*
X46761Y57578*
X46728*
X46524Y57782*
Y57801*
X46523Y57808*
X46521Y57814*
X46516Y5782*
X46511Y57824*
X46504Y57827*
X46502*
Y57801*
X46492*
Y57827*
X4649Y57832*
X46569Y57911*
X46574*
G37*
G36*
X44406Y5768D02*
X44416Y57671D01*
X44428Y57665*
X44437Y57662*
X44439Y57657*
X44438Y57655*
X44434Y57642*
X44432Y57629*
X44434Y57615*
X44438Y57602*
X44444Y5759*
X44453Y5758*
X44463Y57571*
X44461Y57567*
X44357*
X44355Y57571*
X44365Y5758*
X44374Y5759*
X4438Y57602*
X44384Y57615*
X44386Y57629*
X44384Y57642*
X4438Y57655*
X44374Y57667*
X44365Y57678*
X44364Y57679*
X44366Y57684*
X44403*
X44406Y5768*
G37*
G36*
X46418Y5795D02*
X46416Y57947D01*
Y57946*
X46408Y57937*
X46076*
X46063Y5795*
X46065Y57955*
X46415*
X46418Y5795*
G37*
G36*
X52758Y57931D02*
X52756Y57927D01*
X5275Y57928*
X5273Y57926*
X52712Y5792*
X52703Y57915*
X52694Y5792*
X52676Y57926*
X52657Y57928*
X52656Y5793*
Y57933*
X52706Y57983*
X52758Y57931*
G37*
G36*
X50612Y57921D02*
X50618Y57917D01*
X50624Y57914*
X50632Y57913*
X50823*
X50824Y57908*
X50813Y57899*
X508Y57884*
X50799Y57881*
X50787Y57883*
X50773Y57881*
X5076Y57875*
X50749Y57867*
X5074Y57856*
X50737Y57849*
X50732*
X50729Y57856*
X50721Y57867*
X5071Y57875*
X50697Y57881*
X50683Y57883*
X50669Y57881*
X50656Y57875*
X50645Y57867*
X50636Y57856*
X50631Y57843*
X50629Y57829*
X50631Y57815*
X50636Y57802*
X50645Y57791*
X50656Y57782*
X50669Y57777*
X50683Y57775*
X50697Y57777*
X5071Y57782*
X50721Y57791*
X50729Y57802*
X50732Y57809*
X50737*
X5074Y57802*
X50749Y57791*
X5076Y57782*
X50773Y57777*
X50787Y57775*
X50799Y57776*
X508Y57774*
X50813Y57759*
X50828Y57747*
X5084Y5774*
X50839Y57735*
X50691*
X50685Y57734*
X50684*
X50677Y57731*
X50672Y57727*
X50575Y5763*
X50516*
X50515Y57631*
X50507Y57634*
X50499Y57635*
X50491Y57634*
X50483Y57631*
X50476Y57626*
X50471Y57619*
X50468Y57611*
X50467Y57603*
X50468Y57595*
X50471Y57587*
X50476Y5758*
X50483Y57575*
X50491Y57572*
X50499Y57571*
X50507Y57572*
X50515Y57575*
X50516Y57576*
X50586*
X50593Y57577*
X506Y57579*
X50605Y57584*
X50702Y57681*
X5073*
X50732Y57676*
X50725Y57667*
X50718Y57655*
X50714Y57642*
X50713Y57629*
X50714Y57615*
X50718Y57602*
X5072Y57599*
X50714Y57591*
X50707Y57577*
X50702Y57562*
X507Y57547*
X50702Y57531*
X50707Y57516*
X50714Y57502*
X50724Y5749*
X50736Y5748*
X5074Y57478*
X50739Y57473*
X50732Y57471*
X50728Y57469*
X50072*
X50071Y57474*
X50082Y5748*
X50095Y5749*
X50105Y57502*
X50112Y57516*
X50117Y57531*
X50118Y57547*
X50117Y57562*
X50112Y57577*
X50105Y57591*
X50095Y57603*
X50082Y57613*
X50069Y57621*
X50054Y57625*
X50038Y57627*
X50022Y57625*
X50007Y57621*
X49993Y57613*
X49981Y57603*
X49971Y57591*
X49964Y57577*
X49959Y57562*
X49957Y57547*
X49959Y57531*
X49964Y57516*
X49971Y57502*
X49981Y5749*
X49993Y5748*
X50005Y57474*
X50003Y57469*
X47243*
X47241Y57473*
X47348Y5758*
X47353*
X47426Y57506*
X47431Y57502*
X47434Y57501*
X47438Y57499*
X47445*
X49417*
X49424*
X49431Y57502*
X49436Y57506*
X49484Y57555*
X49489Y5756*
X49491Y57567*
X49492Y57574*
Y57589*
X49498Y57593*
X49508Y576*
X49515Y57609*
X49518Y57615*
X49523*
X49529Y57607*
X49537Y57601*
Y57574*
X49538Y57567*
X49541Y5756*
X49545Y57554*
X49591Y57508*
X49597Y57504*
X49604Y57501*
X49611Y575*
X49813*
X4982Y57501*
X49827Y57504*
X49832Y57508*
X50057Y57733*
X50235Y57911*
X50239Y57916*
X50242Y57923*
X50243Y5793*
Y57975*
X5033Y58062*
X50471*
X50612Y57921*
G37*
G36*
X44098Y57882D02*
X44091Y57881D01*
X44078Y57875*
X44067Y57867*
X44058Y57856*
X44053Y57843*
X44051Y57829*
X44053Y57815*
X44058Y57802*
X44067Y57791*
X44078Y57782*
X44091Y57777*
X44105Y57775*
X44119Y57777*
X44132Y57782*
X44143Y57791*
X44152Y57802*
X44157Y57815*
X44158Y57822*
X44163*
X44164Y57815*
X44169Y57802*
X44178Y57791*
X44189Y57782*
X44202Y57777*
X44216Y57775*
X44222Y57776*
X44223Y57774*
X44235Y57759*
X44241Y57754*
X44239Y5775*
X43677*
X43676Y57755*
X43669Y57767*
X43666Y57771*
X43668Y57776*
X43675Y57777*
X43688Y57782*
X43699Y57791*
X43708Y57802*
X43713Y57815*
X43715Y57829*
X43713Y57843*
X43708Y57856*
X43699Y57867*
X43688Y57875*
X43675Y57881*
X43668Y57882*
Y57887*
X44098*
Y57882*
G37*
G36*
X46707Y57908D02*
X46714Y57905D01*
X46721Y57904*
X46834*
Y57903*
X46844*
Y57885*
X46845Y57878*
X46848Y57872*
X46852Y57866*
X46858Y57861*
X46865Y57859*
X46872Y57858*
X46879Y57859*
X46886Y57861*
X46891Y57866*
X46893Y57867*
X46898*
X46899Y57863*
X46904Y57857*
X46902Y57854*
X46895Y57849*
X4689Y57842*
X46887Y57835*
X46886Y57826*
X46887Y57818*
X4689Y5781*
X46895Y57803*
X46902Y57798*
X46905Y57797*
X46902Y5779*
X46901Y57788*
X46897Y57786*
X46865Y57817*
X4686Y57821*
X46853Y57824*
X46846Y57825*
X46772*
X46771Y57826*
X46763Y57829*
X46755Y5783*
X4675Y57829*
X46747Y57834*
X4675Y57842*
X46752Y5785*
X4675Y57858*
X46747Y57866*
X46742Y57873*
X46735Y57878*
X46728Y57881*
X46726*
X46703Y57905*
X46706Y57909*
X46707Y57908*
G37*
G36*
X48596Y5808D02*
X48586Y58072D01*
X48577Y58061*
X48571Y58049*
X48567Y58036*
X48566Y58022*
X48567Y58009*
X48571Y57996*
X48577Y57984*
X48586Y57973*
X48594Y57967*
X48592Y57962*
X48442*
X48434Y57972*
X48424Y5798*
X48412Y57987*
X48399Y57991*
X48385Y57992*
X48372Y57991*
X48359Y57987*
X48347Y5798*
X48336Y57972*
X48328Y57962*
X48212*
X48211Y57967*
X48219Y57974*
X48228Y57984*
X48234Y57996*
X48238Y58009*
X4824Y58023*
X48238Y58036*
X48234Y58049*
X48228Y58061*
X48219Y58072*
X4821Y5808*
X48211Y58085*
X48594*
X48596Y5808*
G37*
G36*
X4813D02*
X48121Y58072D01*
X48112Y58061*
X48106Y58049*
X48102Y58036*
X481Y58023*
X48102Y58009*
X48106Y57996*
X48112Y57984*
X48121Y57974*
X48129Y57967*
X48128Y57962*
X47977*
X47969Y57972*
X47959Y57981*
X47947Y57987*
X47945Y57991*
X47947Y57996*
X47951Y58009*
X47953Y58023*
X47951Y58036*
X47947Y58049*
X47941Y58061*
X47932Y58072*
X47923Y5808*
X47924Y58085*
X48129*
X4813Y5808*
G37*
G36*
X47003Y57645D02*
X46989Y57631D01*
X46988*
X46981Y57628*
X46974Y57623*
X46969Y57616*
X46966Y57608*
X46965Y576*
X46966Y57592*
X46969Y57584*
X4697Y57582*
X46968Y57578*
X46842*
X4684Y57583*
X46907Y57649*
X47001*
X47003Y57645*
G37*
G36*
X47142Y57613D02*
X47138Y5761D01*
X47106Y57578*
X47026*
X47024Y57582*
X47025Y57584*
X47028Y57592*
X47054Y57618*
X47141*
X47142Y57613*
G37*
G36*
X51242Y57977D02*
Y57849D01*
X51237Y57848*
X51234Y57856*
X51225Y57867*
X51214Y57875*
X51201Y57881*
X51187Y57883*
X51173Y57881*
X5116Y57875*
X51149Y57867*
X5114Y57856*
X51137Y57849*
X51132*
X51129Y57856*
X51121Y57867*
X5111Y57875*
X51097Y57881*
X51083Y57883*
X51071Y57881*
X51069Y57884*
X51057Y57899*
X51042Y57911*
X51025Y5792*
X51006Y57926*
X50987Y57928*
X50968Y57926*
X50949Y5792*
X50935Y57912*
X5092Y5792*
X50902Y57926*
X50887Y57927*
X50885Y57932*
X50943Y5799*
X50947*
X50957Y57994*
X50965Y58001*
X50971Y58009*
X50975Y58018*
X50976Y58024*
X50893*
X50894Y58019*
X50883Y58007*
X50878Y5801*
X50881Y58016*
X50883Y58029*
X50881Y58042*
X50876Y58054*
X50868Y58064*
X50858Y58072*
X50854Y58074*
X50852Y58079*
X50863Y58092*
X50872Y58109*
X50878Y58127*
X5088Y58147*
X50878Y58166*
X50872Y58184*
X50863Y58202*
X50851Y58217*
X50842Y58224*
X50844Y58229*
X50991*
X51242Y57977*
G37*
G36*
X4741Y5823D02*
X47285Y58104D01*
X4728Y58099*
X47278Y58092*
X47277Y58085*
Y57957*
X47273Y57953*
X47266Y57954*
X47258Y57953*
X4725Y5795*
X47249Y57949*
X47157*
X47149Y57948*
X47143Y57946*
X47137Y57941*
X47134Y57938*
X47133*
X47127Y57935*
X47122Y57938*
Y58156*
X47145Y58178*
X47149Y58184*
X4715Y58186*
X47152Y5819*
X47153Y58197*
Y58201*
X47154Y58202*
X47157Y5821*
X47158Y58218*
X47157Y58226*
X47155Y5823*
X47158Y58235*
X47408*
X4741Y5823*
G37*
G36*
X46635Y57473D02*
X46633Y57469D01*
X46353*
X46349Y57471*
X46341Y57473*
X46332Y57471*
X46328Y57469*
X46317*
X46316Y57474*
X46327Y5748*
X4634Y5749*
X4635Y57502*
X46357Y57516*
X46362Y57531*
X46363Y57547*
X46362Y57562*
X46357Y57577*
X4635Y57591*
X4634Y57603*
X46327Y57613*
X46314Y57621*
X46299Y57625*
X46283Y57627*
X46267Y57625*
X46252Y57621*
X46238Y57613*
X46226Y57603*
X46216Y57591*
X46209Y57577*
X46204Y57562*
X46202Y57547*
X46204Y57531*
X46209Y57516*
X46216Y57502*
X46226Y5749*
X46238Y5748*
X46241Y57478*
Y57473*
X46233Y57471*
X46229Y57469*
X46166*
X46162Y57471*
X46154Y57473*
X46145Y57471*
X46141Y57469*
X46129*
X46128Y57474*
X46139Y5748*
X46152Y5749*
X46162Y57502*
X46169Y57516*
X46174Y57531*
X46175Y57547*
X46174Y57562*
X46169Y57577*
X46162Y57591*
X46152Y57603*
X46139Y57613*
X46126Y57621*
X46111Y57625*
X46095Y57627*
X46079Y57625*
X46064Y57621*
X4605Y57613*
X46038Y57603*
X46028Y57591*
X46021Y57577*
X46016Y57562*
X46014Y57547*
X46016Y57531*
X46021Y57516*
X46028Y57502*
X46038Y5749*
X4605Y5748*
X46054Y57478*
X46053Y57473*
X46046Y57471*
X46042Y57469*
X45605*
X45601Y57471*
X45593Y57473*
X45584Y57471*
X4558Y57469*
X45573*
X45572Y57474*
X45583Y5748*
X45596Y5749*
X45606Y57502*
X45613Y57516*
X45618Y57531*
X45619Y57547*
X45618Y57562*
X45613Y57577*
X45606Y57591*
X45596Y57603*
X4559Y57608*
X45592Y57613*
X45597*
X45604*
X4561Y57616*
X45616Y5762*
X45709Y57714*
X46395*
X46635Y57473*
G37*
G36*
X4725Y57894D02*
X47258Y57891D01*
X47266Y5789*
X47273Y57891*
X47277Y57887*
Y57823*
X47213Y57759*
X47111*
X47109Y57763*
X47112Y57771*
Y57772*
X47114Y57775*
X47119Y5778*
X47122Y57787*
Y57788*
Y57794*
Y57875*
X47127Y57878*
X47133Y57875*
X47141Y57874*
X47149Y57875*
X47157Y57879*
X47164Y57884*
X47169Y5789*
X47171Y57895*
X47249*
X4725Y57894*
G37*
G36*
X52612Y57917D02*
X52601Y57911D01*
X52586Y57899*
X52574Y57884*
X52571Y57878*
X52564Y57881*
X5255Y57883*
X52536Y57881*
X52523Y57875*
X52512Y57867*
X52506Y57859*
X52501*
X52494Y57867*
X52483Y57875*
X5247Y57881*
X52456Y57883*
X52442Y57881*
X52429Y57875*
X52418Y57867*
X5241Y57856*
X52404Y57843*
X52402Y57829*
X52404Y57815*
X5241Y57802*
X52418Y57791*
X52429Y57782*
X52442Y57777*
X52456Y57775*
X5247Y57777*
X52483Y57782*
X52494Y57791*
X52501Y57799*
X52506*
X52512Y57791*
X52523Y57782*
X52536Y57777*
X5255Y57775*
X52564Y57777*
X52571Y5778*
X52574Y57774*
X52586Y57759*
X52601Y57747*
X526Y57742*
X52127*
X52123Y57755*
X52117Y57767*
X52114Y57771*
X52116Y57776*
X52123Y57777*
X52136Y57782*
X52147Y57791*
X52156Y57802*
X52161Y57815*
X52163Y57829*
X52161Y57843*
X52156Y57856*
X52147Y57867*
X52136Y57875*
X52123Y57881*
X52109Y57883*
X52095Y57881*
X52082Y57875*
X52071Y57867*
X52065Y57859*
X5206*
X52054Y57867*
X52043Y57875*
X5203Y57881*
X52016Y57883*
X52002Y57881*
X51994Y57878*
X51991Y57884*
X51979Y57899*
X51964Y57911*
X51953Y57917*
X51954Y57922*
X52611*
X52612Y57917*
G37*
M02*