%FSTAX23Y23*%
%MOIN*%
%SFA1B1*%

%IPPOS*%
%ADD16C,0.004000*%
G54D16*
X53305Y58028D02*
Y58091D01*
X53415*
X53305Y58028D02*
X53415D01*
Y58091*
X53899Y58096D02*
X53958D01*
X53899Y57986D02*
X53958D01*
X53899D02*
Y58096D01*
X53958Y57986D02*
Y58096D01*
X53929Y58021D02*
Y58061D01*
X53909Y58041D02*
X53949D01*
X46852Y57964D02*
X46891D01*
X46872Y57944D02*
Y57984D01*
X46903Y57909D02*
Y58019D01*
X4684Y57909D02*
Y58019D01*
X46903*
X4684Y57909D02*
X46903D01*
X42978Y60389D02*
Y60452D01*
X43088*
X42978Y60389D02*
X43088D01*
Y60452*
X43306Y60136D02*
Y60199D01*
X43196Y60136D02*
X43306D01*
X43196Y60199D02*
X43306D01*
X43196Y60136D02*
Y60199D01*
X43088Y594D02*
Y59463D01*
X43199*
X43088Y594D02*
X43199D01*
Y59463*
X43197Y58683D02*
Y58746D01*
X43086Y58683D02*
X43197D01*
X43086Y58746D02*
X43197D01*
X43086Y58683D02*
Y58746D01*
X43087Y58032D02*
Y58095D01*
X43197*
X43087Y58032D02*
X43197D01*
Y58095*
X44425Y60545D02*
Y60608D01*
X44315Y60545D02*
X44425D01*
X44315Y60608D02*
X44425D01*
X44315Y60545D02*
Y60608D01*
X44136Y60136D02*
Y60199D01*
X44246*
X44136Y60136D02*
X44246D01*
Y60199*
X44433Y594D02*
Y59463D01*
X44323Y594D02*
X44433D01*
X44323Y59463D02*
X44433D01*
X44323Y594D02*
Y59463D01*
X43851Y58265D02*
Y58328D01*
X43961*
X43851Y58265D02*
X43961D01*
Y58328*
X44124Y58001D02*
Y58064D01*
X44014Y58001D02*
X44124D01*
X44014Y58064D02*
X44124D01*
X44014Y58001D02*
Y58064D01*
X44819Y60539D02*
Y60602D01*
X44929*
X44819Y60539D02*
X44929D01*
Y60602*
X44999Y60136D02*
Y60199D01*
X44889Y60136D02*
X44999D01*
X44889Y60199D02*
X44999D01*
X44889Y60136D02*
Y60199D01*
X45076Y594D02*
Y59463D01*
X45186*
X45076Y594D02*
X45186D01*
Y59463*
X44799Y58683D02*
Y58746D01*
X44689Y58683D02*
X44799D01*
X44689Y58746D02*
X44799D01*
X44689Y58683D02*
Y58746D01*
X45541Y57904D02*
Y57967D01*
X45651*
X45541Y57904D02*
X45651D01*
Y57967*
X45399Y60914D02*
Y60977D01*
X45289Y60914D02*
X45399D01*
X45289Y60977D02*
X45399D01*
X45289Y60914D02*
Y60977D01*
X45643Y60136D02*
Y60199D01*
X45754*
X45643Y60136D02*
X45754D01*
Y60199*
X4594Y594D02*
Y59463D01*
X45829Y594D02*
X4594D01*
X45829Y59463D02*
X4594D01*
X45829Y594D02*
Y59463D01*
X45439Y58683D02*
Y58746D01*
X45549*
X45439Y58683D02*
X45549D01*
Y58746*
X46154Y60914D02*
Y60977D01*
X46044Y60914D02*
X46154D01*
X46044Y60977D02*
X46154D01*
X46044Y60914D02*
Y60977D01*
X46395Y60136D02*
Y60199D01*
X46506*
X46395Y60136D02*
X46506D01*
Y60199*
X46693Y594D02*
Y59463D01*
X46582Y594D02*
X46693D01*
X46582Y59463D02*
X46693D01*
X46582Y594D02*
Y59463D01*
X46196Y58683D02*
Y58746D01*
X46306*
X46196Y58683D02*
X46306D01*
Y58746*
X46906Y60914D02*
Y60977D01*
X46796Y60914D02*
X46906D01*
X46796Y60977D02*
X46906D01*
X46796Y60914D02*
Y60977D01*
X47151Y60136D02*
Y60199D01*
X47262*
X47151Y60136D02*
X47262D01*
Y60199*
X47447Y59415D02*
Y59478D01*
X47336Y59415D02*
X47447D01*
X47336Y59478D02*
X47447D01*
X47336Y59415D02*
Y59478D01*
X46948Y58683D02*
Y58746D01*
X47058*
X46948Y58683D02*
X47058D01*
Y58746*
X47674Y58032D02*
Y58095D01*
X47564Y58032D02*
X47674D01*
X47564Y58095D02*
X47674D01*
X47564Y58032D02*
Y58095D01*
X47555Y60914D02*
Y60977D01*
X47665*
X47555Y60914D02*
X47665D01*
Y60977*
X48016Y60136D02*
Y60199D01*
X47905Y60136D02*
X48016D01*
X47905Y60199D02*
X48016D01*
X47905Y60136D02*
Y60199D01*
X48133Y59463D02*
Y59526D01*
X48243*
X48133Y59463D02*
X48243D01*
Y59526*
X47812Y58683D02*
Y58746D01*
X47702Y58683D02*
X47812D01*
X47702Y58746D02*
X47812D01*
X47702Y58683D02*
Y58746D01*
X48307Y60914D02*
Y60977D01*
X48417*
X48307Y60914D02*
X48417D01*
Y60977*
X48771Y60136D02*
Y60199D01*
X48661Y60136D02*
X48771D01*
X48661Y60199D02*
X48771D01*
X48661Y60136D02*
Y60199D01*
X48846Y594D02*
Y59463D01*
X48956*
X48846Y594D02*
X48956D01*
Y59463*
X48566Y58683D02*
Y58746D01*
X48455Y58683D02*
X48566D01*
X48455Y58746D02*
X48566D01*
X48455Y58683D02*
Y58746D01*
X49062Y60914D02*
Y60977D01*
X49172*
X49062Y60914D02*
X49172D01*
Y60977*
X49528Y60136D02*
Y60199D01*
X49418Y60136D02*
X49528D01*
X49418Y60199D02*
X49528D01*
X49418Y60136D02*
Y60199D01*
X49607Y594D02*
Y59463D01*
X49717*
X49607Y594D02*
X49717D01*
Y59463*
X4932Y58683D02*
Y58746D01*
X49209Y58683D02*
X4932D01*
X49209Y58746D02*
X4932D01*
X49209Y58683D02*
Y58746D01*
X49811Y60914D02*
Y60977D01*
X49921*
X49811Y60914D02*
X49921D01*
Y60977*
X50275Y60136D02*
Y60199D01*
X50165Y60136D02*
X50275D01*
X50165Y60199D02*
X50275D01*
X50165Y60136D02*
Y60199D01*
X50354Y594D02*
Y59463D01*
X50464*
X50354Y594D02*
X50464D01*
Y59463*
X50071Y58683D02*
Y58746D01*
X4996Y58683D02*
X50071D01*
X4996Y58746D02*
X50071D01*
X4996Y58683D02*
Y58746D01*
X53476Y60487D02*
Y6055D01*
X53586*
X53476Y60487D02*
X53586D01*
Y6055*
X50676Y60914D02*
Y60977D01*
X50566Y60914D02*
X50676D01*
X50566Y60977D02*
X50676D01*
X50566Y60914D02*
Y60977D01*
X50921Y60136D02*
Y60199D01*
X51031*
X50921Y60136D02*
X51031D01*
Y60199*
X51217Y594D02*
Y59463D01*
X51107Y594D02*
X51217D01*
X51107Y59463D02*
X51217D01*
X51107Y594D02*
Y59463D01*
X50717Y58683D02*
Y58746D01*
X50828*
X50717Y58683D02*
X50828D01*
Y58746*
X50611Y58058D02*
Y58121D01*
X50501Y58058D02*
X50611D01*
X50501Y58121D02*
X50611D01*
X50501Y58058D02*
Y58121D01*
X5132Y60914D02*
Y60977D01*
X5143*
X5132Y60914D02*
X5143D01*
Y60977*
X51785Y60136D02*
Y60199D01*
X51675Y60136D02*
X51785D01*
X51675Y60199D02*
X51785D01*
X51675Y60136D02*
Y60199D01*
X51864Y594D02*
Y59463D01*
X51974*
X51864Y594D02*
X51974D01*
Y59463*
X51584Y58683D02*
Y58746D01*
X51474Y58683D02*
X51584D01*
X51474Y58746D02*
X51584D01*
X51474Y58683D02*
Y58746D01*
X5145Y5803D02*
Y58093D01*
X5156*
X5145Y5803D02*
X5156D01*
Y58093*
X52187Y60914D02*
Y60977D01*
X52077Y60914D02*
X52187D01*
X52077Y60977D02*
X52187D01*
X52077Y60914D02*
Y60977D01*
X52431Y60136D02*
Y60199D01*
X52541*
X52431Y60136D02*
X52541D01*
Y60199*
X52732Y594D02*
Y59463D01*
X52622Y594D02*
X52732D01*
X52622Y59463D02*
X52732D01*
X52622Y594D02*
Y59463D01*
X52224Y58652D02*
Y58715D01*
X52334*
X52224Y58652D02*
X52334D01*
Y58715*
X52494Y5803D02*
Y58093D01*
X52384Y5803D02*
X52494D01*
X52384Y58093D02*
X52494D01*
X52384Y5803D02*
Y58093D01*
X53137Y60492D02*
Y60555D01*
X53247*
X53137Y60492D02*
X53247D01*
Y60555*
X5337Y59826D02*
Y59889D01*
X5326Y59826D02*
X5337D01*
X5326Y59889D02*
X5337D01*
X5326Y59826D02*
Y59889D01*
X53489Y59403D02*
Y59466D01*
X53599*
X53489Y59403D02*
X53599D01*
Y59466*
X53309Y58267D02*
Y5833D01*
X53199Y58267D02*
X53309D01*
X53199Y5833D02*
X53309D01*
X53199Y58267D02*
Y5833D01*
X53299Y58845D02*
X53358D01*
X53299Y58735D02*
X53358D01*
X53299D02*
Y58845D01*
X53358Y58735D02*
Y58845D01*
X53328Y5877D02*
Y5881D01*
X53309Y5879D02*
X53348D01*
X43764Y59488D02*
X43823D01*
X43764Y59598D02*
X43823D01*
Y59488D02*
Y59598D01*
X43764Y59488D02*
Y59598D01*
X43793Y59523D02*
Y59563D01*
X43773Y59543D02*
X43813D01*
X53873Y60248D02*
Y60307D01*
X53763Y60248D02*
Y60307D01*
X53873*
X53763Y60248D02*
X53873D01*
X53798Y60278D02*
X53838D01*
X53818Y60258D02*
Y60297D01*
X52696Y61105D02*
X52756D01*
X52696Y60995D02*
X52756D01*
X52696D02*
Y61105D01*
X52756Y60995D02*
Y61105D01*
X52726Y6103D02*
Y61069D01*
X52706Y6105D02*
X52746D01*
X52958Y58094D02*
X53017D01*
X52958Y57984D02*
X53017D01*
X52958D02*
Y58094D01*
X53017Y57984D02*
Y58094D01*
X52988Y58019D02*
Y58059D01*
X52968Y58039D02*
X53008D01*
X52922Y58856D02*
X52982D01*
X52922Y58746D02*
X52982D01*
X52922D02*
Y58856D01*
X52982Y58746D02*
Y58856D01*
X52952Y58781D02*
Y5882D01*
X52932Y58801D02*
X52972D01*
X53045Y59601D02*
X53105D01*
X53045Y59491D02*
X53105D01*
X53045D02*
Y59601D01*
X53105Y59491D02*
Y59601D01*
X53075Y59526D02*
Y59565D01*
X53055Y59546D02*
X53095D01*
X52912Y60348D02*
X52971D01*
X52912Y60238D02*
X52971D01*
X52912D02*
Y60348D01*
X52971Y60238D02*
Y60348D01*
X52942Y60273D02*
Y60313D01*
X52922Y60293D02*
X52961D01*
X52564Y61105D02*
X52623D01*
X52564Y60995D02*
X52623D01*
X52564D02*
Y61105D01*
X52623Y60995D02*
Y61105D01*
X52593Y6103D02*
Y61069D01*
X52574Y6105D02*
X52613D01*
X52122Y58094D02*
X52181D01*
X52122Y57984D02*
X52181D01*
X52122D02*
Y58094D01*
X52181Y57984D02*
Y58094D01*
X52151Y58019D02*
Y58059D01*
X52132Y58039D02*
X52171D01*
X51957Y58849D02*
X52016D01*
X51957Y58739D02*
X52016D01*
X51957D02*
Y58849D01*
X52016Y58739D02*
Y58849D01*
X51987Y58774D02*
Y58814D01*
X51967Y58794D02*
X52007D01*
X52348Y59598D02*
X52407D01*
X52348Y59488D02*
X52407D01*
X52348D02*
Y59598D01*
X52407Y59488D02*
Y59598D01*
X52378Y59523D02*
Y59563D01*
X52358Y59543D02*
X52397D01*
X52158Y60348D02*
X52217D01*
X52158Y60238D02*
X52217D01*
X52158D02*
Y60348D01*
X52217Y60238D02*
Y60348D01*
X52188Y60273D02*
Y60313D01*
X52168Y60293D02*
X52207D01*
X51807Y61104D02*
X51866D01*
X51807Y60994D02*
X51866D01*
X51807D02*
Y61104D01*
X51866Y60994D02*
Y61104D01*
X51836Y61029D02*
Y61068D01*
X51817Y61049D02*
X51856D01*
X51187Y58093D02*
X51246D01*
X51187Y57983D02*
X51246D01*
X51187D02*
Y58093D01*
X51246Y57983D02*
Y58093D01*
X51216Y58018D02*
Y58058D01*
X51197Y58038D02*
X51236D01*
X51202Y58849D02*
X51261D01*
X51202Y58739D02*
X51261D01*
X51202D02*
Y58849D01*
X51261Y58739D02*
Y58849D01*
X51231Y58774D02*
Y58814D01*
X51211Y58794D02*
X51251D01*
X51597Y59599D02*
X51656D01*
X51597Y59489D02*
X51656D01*
X51597D02*
Y59599D01*
X51656Y59489D02*
Y59599D01*
X51627Y59524D02*
Y59564D01*
X51607Y59544D02*
X51646D01*
X51406Y60351D02*
X51465D01*
X51406Y60241D02*
X51465D01*
X51406D02*
Y60351D01*
X51465Y60241D02*
Y60351D01*
X51436Y60276D02*
Y60315D01*
X51416Y60296D02*
X51455D01*
X51053Y61105D02*
X51112D01*
X51053Y60995D02*
X51112D01*
X51053D02*
Y61105D01*
X51112Y60995D02*
Y61105D01*
X51082Y6103D02*
Y61069D01*
X51063Y6105D02*
X51102D01*
X53979Y61095D02*
X54039D01*
X53979Y60985D02*
X54039D01*
X53979D02*
Y61095D01*
X54039Y60985D02*
Y61095D01*
X54009Y6102D02*
Y61059D01*
X53989Y6104D02*
X54029D01*
X50448Y58847D02*
X50507D01*
X50448Y58737D02*
X50507D01*
X50448D02*
Y58847D01*
X50507Y58737D02*
Y58847D01*
X50477Y58772D02*
Y58812D01*
X50457Y58792D02*
X50497D01*
X50843Y59598D02*
X50902D01*
X50843Y59488D02*
X50902D01*
X50843D02*
Y59598D01*
X50902Y59488D02*
Y59598D01*
X50873Y59523D02*
Y59563D01*
X50853Y59543D02*
X50892D01*
X50649Y60351D02*
X50708D01*
X50649Y60241D02*
X50708D01*
X50649D02*
Y60351D01*
X50708Y60241D02*
Y60351D01*
X50679Y60276D02*
Y60315D01*
X50659Y60296D02*
X50699D01*
X50299Y61104D02*
X50358D01*
X50299Y60994D02*
X50358D01*
X50299D02*
Y61104D01*
X50358Y60994D02*
Y61104D01*
X50328Y61029D02*
Y61068D01*
X50309Y61049D02*
X50348D01*
X49695Y58849D02*
X49754D01*
X49695Y58739D02*
X49754D01*
X49695D02*
Y58849D01*
X49754Y58739D02*
Y58849D01*
X49724Y58774D02*
Y58814D01*
X49704Y58794D02*
X49744D01*
X50087Y59598D02*
X50146D01*
X50087Y59488D02*
X50146D01*
X50087D02*
Y59598D01*
X50146Y59488D02*
Y59598D01*
X50117Y59523D02*
Y59563D01*
X50097Y59543D02*
X50137D01*
X49897Y60348D02*
X49956D01*
X49897Y60238D02*
X49956D01*
X49897D02*
Y60348D01*
X49956Y60238D02*
Y60348D01*
X49927Y60273D02*
Y60313D01*
X49907Y60293D02*
X49947D01*
X49547Y61105D02*
X49606D01*
X49547Y60995D02*
X49606D01*
X49547D02*
Y61105D01*
X49606Y60995D02*
Y61105D01*
X49577Y6103D02*
Y61069D01*
X49557Y6105D02*
X49596D01*
X48941Y58847D02*
X49D01*
X48941Y58737D02*
X49D01*
X48941D02*
Y58847D01*
X49Y58737D02*
Y58847D01*
X4897Y58772D02*
Y58812D01*
X48951Y58792D02*
X4899D01*
X49333Y59598D02*
X49392D01*
X49333Y59488D02*
X49392D01*
X49333D02*
Y59598D01*
X49392Y59488D02*
Y59598D01*
X49363Y59523D02*
Y59563D01*
X49343Y59543D02*
X49383D01*
X49143Y60351D02*
X49203D01*
X49143Y60241D02*
X49203D01*
X49143D02*
Y60351D01*
X49203Y60241D02*
Y60351D01*
X49173Y60276D02*
Y60315D01*
X49153Y60296D02*
X49193D01*
X48792Y61104D02*
X48851D01*
X48792Y60994D02*
X48851D01*
X48792D02*
Y61104D01*
X48851Y60994D02*
Y61104D01*
X48822Y61029D02*
Y61068D01*
X48802Y61049D02*
X48841D01*
X48188Y58845D02*
X48247D01*
X48188Y58735D02*
X48247D01*
X48188D02*
Y58845D01*
X48247Y58735D02*
Y58845D01*
X48217Y5877D02*
Y5881D01*
X48198Y5879D02*
X48237D01*
X48581Y59598D02*
X48641D01*
X48581Y59488D02*
X48641D01*
X48581D02*
Y59598D01*
X48641Y59488D02*
Y59598D01*
X48611Y59523D02*
Y59563D01*
X48591Y59543D02*
X48631D01*
X48393Y60353D02*
X48453D01*
X48393Y60243D02*
X48453D01*
X48393D02*
Y60353D01*
X48453Y60243D02*
Y60353D01*
X48423Y60278D02*
Y60317D01*
X48403Y60298D02*
X48443D01*
X48041Y61106D02*
X481D01*
X48041Y60996D02*
X481D01*
X48041D02*
Y61106D01*
X481Y60996D02*
Y61106D01*
X48071Y61031D02*
Y6107D01*
X48051Y61051D02*
X4809D01*
X48716Y57671D02*
X48775D01*
X48716Y57561D02*
X48775D01*
X48716D02*
Y57671D01*
X48775Y57561D02*
Y57671D01*
X48746Y57596D02*
Y57635D01*
X48726Y57616D02*
X48766D01*
X47461Y58875D02*
X4752D01*
X47461Y58764D02*
X4752D01*
X47461D02*
Y58875D01*
X4752Y58764D02*
Y58875D01*
X47491Y588D02*
Y58839D01*
X47471Y58819D02*
X47511D01*
X47788Y59598D02*
X47847D01*
X47788Y59488D02*
X47847D01*
X47788D02*
Y59598D01*
X47847Y59488D02*
Y59598D01*
X47818Y59523D02*
Y59563D01*
X47798Y59543D02*
X47837D01*
X47637Y60349D02*
X47696D01*
X47637Y60239D02*
X47696D01*
X47637D02*
Y60349D01*
X47696Y60239D02*
Y60349D01*
X47666Y60274D02*
Y60314D01*
X47646Y60294D02*
X47686D01*
X47284Y61105D02*
X47343D01*
X47284Y60995D02*
X47343D01*
X47284D02*
Y61105D01*
X47343Y60995D02*
Y61105D01*
X47314Y6103D02*
Y61069D01*
X47294Y6105D02*
X47333D01*
X46679Y58847D02*
X46738D01*
X46679Y58737D02*
X46738D01*
X46679D02*
Y58847D01*
X46738Y58737D02*
Y58847D01*
X46708Y58772D02*
Y58812D01*
X46689Y58792D02*
X46728D01*
X47071Y59596D02*
X4713D01*
X47071Y59486D02*
X4713D01*
X47071D02*
Y59596D01*
X4713Y59486D02*
Y59596D01*
X471Y59521D02*
Y59561D01*
X4708Y59541D02*
X4712D01*
X46885Y60353D02*
X46944D01*
X46885Y60243D02*
X46944D01*
X46885D02*
Y60353D01*
X46944Y60243D02*
Y60353D01*
X46914Y60278D02*
Y60317D01*
X46894Y60298D02*
X46934D01*
X46529Y61105D02*
X46588D01*
X46529Y60995D02*
X46588D01*
X46529D02*
Y61105D01*
X46588Y60995D02*
Y61105D01*
X46559Y6103D02*
Y61069D01*
X46539Y6105D02*
X46578D01*
X45928Y58847D02*
X45987D01*
X45928Y58737D02*
X45987D01*
X45928D02*
Y58847D01*
X45987Y58737D02*
Y58847D01*
X45957Y58772D02*
Y58812D01*
X45938Y58792D02*
X45977D01*
X46319Y59598D02*
X46378D01*
X46319Y59488D02*
X46378D01*
X46319D02*
Y59598D01*
X46378Y59488D02*
Y59598D01*
X46348Y59523D02*
Y59563D01*
X46328Y59543D02*
X46368D01*
X4613Y60351D02*
X46189D01*
X4613Y60241D02*
X46189D01*
X4613D02*
Y60351D01*
X46189Y60241D02*
Y60351D01*
X46159Y60276D02*
Y60315D01*
X4614Y60296D02*
X46179D01*
X45777Y61104D02*
X45836D01*
X45777Y60994D02*
X45836D01*
X45777D02*
Y61104D01*
X45836Y60994D02*
Y61104D01*
X45807Y61029D02*
Y61068D01*
X45787Y61049D02*
X45827D01*
X44944Y58095D02*
X45004D01*
X44944Y57985D02*
X45004D01*
X44944D02*
Y58095D01*
X45004Y57985D02*
Y58095D01*
X44974Y5802D02*
Y58059D01*
X44954Y5804D02*
X44994D01*
X45172Y58848D02*
X45231D01*
X45172Y58738D02*
X45231D01*
X45172D02*
Y58848D01*
X45231Y58738D02*
Y58848D01*
X45202Y58773D02*
Y58813D01*
X45182Y58793D02*
X45221D01*
X45563Y59595D02*
X45622D01*
X45563Y59485D02*
X45622D01*
X45563D02*
Y59595D01*
X45622Y59485D02*
Y59595D01*
X45592Y5952D02*
Y5956D01*
X45573Y5954D02*
X45612D01*
X45376Y60351D02*
X45435D01*
X45376Y60241D02*
X45435D01*
X45376D02*
Y60351D01*
X45435Y60241D02*
Y60351D01*
X45405Y60276D02*
Y60315D01*
X45386Y60296D02*
X45425D01*
X45021Y61106D02*
X4508D01*
X45021Y60996D02*
X4508D01*
X45021D02*
Y61106D01*
X4508Y60996D02*
Y61106D01*
X45051Y61031D02*
Y6107D01*
X45031Y61051D02*
X45071D01*
X44811Y58094D02*
X4487D01*
X44811Y57984D02*
X4487D01*
X44811D02*
Y58094D01*
X4487Y57984D02*
Y58094D01*
X4484Y58019D02*
Y58059D01*
X44821Y58039D02*
X4486D01*
X44421Y58849D02*
X4448D01*
X44421Y58739D02*
X4448D01*
X44421D02*
Y58849D01*
X4448Y58739D02*
Y58849D01*
X44451Y58774D02*
Y58814D01*
X44431Y58794D02*
X4447D01*
X44811Y59599D02*
X4487D01*
X44811Y59489D02*
X4487D01*
X44811D02*
Y59599D01*
X4487Y59489D02*
Y59599D01*
X4484Y59524D02*
Y59564D01*
X44821Y59544D02*
X4486D01*
X44623Y60353D02*
X44682D01*
X44623Y60243D02*
X44682D01*
X44623D02*
Y60353D01*
X44682Y60243D02*
Y60353D01*
X44652Y60278D02*
Y60317D01*
X44633Y60298D02*
X44672D01*
X44267Y61104D02*
X44327D01*
X44267Y60994D02*
X44327D01*
X44267D02*
Y61104D01*
X44327Y60994D02*
Y61104D01*
X44297Y61029D02*
Y61068D01*
X44277Y61049D02*
X44317D01*
X43675Y57986D02*
X43734D01*
X43675Y58096D02*
X43734D01*
Y57986D02*
Y58096D01*
X43675Y57986D02*
Y58096D01*
X43704Y58021D02*
Y58061D01*
X43685Y58041D02*
X43724D01*
X43539Y58835D02*
X43598D01*
X43539Y58945D02*
X43598D01*
Y58835D02*
Y58945D01*
X43539Y58835D02*
Y58945D01*
X43569Y58871D02*
Y5891D01*
X43549Y5889D02*
X43588D01*
X43682Y6024D02*
X43741D01*
X43682Y6035D02*
X43741D01*
Y6024D02*
Y6035D01*
X43682Y6024D02*
Y6035D01*
X43711Y60275D02*
Y60314D01*
X43692Y60295D02*
X43731D01*
X4303Y60994D02*
X43089D01*
X4303Y61104D02*
X43089D01*
Y60994D02*
Y61104D01*
X4303Y60994D02*
Y61104D01*
X4306Y61029D02*
Y61068D01*
X4304Y61049D02*
X43079D01*
X46151Y5764D02*
Y57699D01*
X46041Y5764D02*
Y57699D01*
X46151*
X46041Y5764D02*
X46151D01*
X46076Y5767D02*
X46116D01*
X46096Y5765D02*
Y57689D01*
X44507Y59673D02*
Y59732D01*
X44397Y59673D02*
Y59732D01*
X44507*
X44397Y59673D02*
X44507D01*
X44432Y59702D02*
X44472D01*
X44452Y59683D02*
Y59722D01*
X43688Y60744D02*
X43747D01*
X43688Y60633D02*
X43747D01*
X43688D02*
Y60744D01*
X43747Y60633D02*
Y60744D01*
X43717Y60669D02*
Y60708D01*
X43698Y60689D02*
X43737D01*
X43617Y60744D02*
X43676D01*
X43617Y60633D02*
X43676D01*
X43617D02*
Y60744D01*
X43676Y60633D02*
Y60744D01*
X43646Y60669D02*
Y60708D01*
X43627Y60689D02*
X43666D01*
X43302Y604D02*
Y60439D01*
X43282Y6042D02*
X43322D01*
X43247Y60451D02*
X43357D01*
X43247Y60388D02*
X43357D01*
Y60451*
X43247Y60388D02*
Y60451D01*
X47072Y57587D02*
Y57627D01*
X47052Y57607D02*
X47091D01*
X47016Y57575D02*
X47127D01*
X47016Y57638D02*
X47127D01*
X47016Y57575D02*
Y57638D01*
X47127Y57575D02*
Y57638D01*
X46073Y57925D02*
X46113D01*
X46093Y57905D02*
Y57944D01*
X46062Y5787D02*
Y5798D01*
X46124Y5787D02*
Y5798D01*
X46062D02*
X46124D01*
X46062Y5787D02*
X46124D01*
X46479Y57704D02*
X46518D01*
X46499Y57685D02*
Y57724D01*
X4653Y57649D02*
Y57759D01*
X46467Y57649D02*
Y57759D01*
Y57649D02*
X4653D01*
X46467Y57759D02*
X4653D01*
X46751Y57957D02*
Y57997D01*
X46731Y57977D02*
X4677D01*
X46696Y57945D02*
X46806D01*
X46696Y58008D02*
X46806D01*
Y57945D02*
Y58008D01*
X46696Y57945D02*
Y58008D01*
X47233Y57721D02*
Y5776D01*
X47213Y57741D02*
X47253D01*
X47178Y57772D02*
X47288D01*
X47178Y57709D02*
X47288D01*
Y57772*
X47178Y57709D02*
Y57772D01*
X47227Y57991D02*
Y5803D01*
X47207Y58011D02*
X47247D01*
X47172Y58042D02*
X47282D01*
X47172Y57979D02*
X47282D01*
Y58042*
X47172Y57979D02*
Y58042D01*
X5318Y59748D02*
X5322D01*
X532Y59728D02*
Y59767D01*
X5317Y59693D02*
Y59803D01*
X5323Y59693D02*
Y59803D01*
X5317D02*
X5323D01*
X5317Y59693D02*
X5323D01*
X49333Y58012D02*
Y58071D01*
X49443Y58012D02*
Y58071D01*
X49333Y58012D02*
X49443D01*
X49333Y58071D02*
X49443D01*
X49368Y58041D02*
X49408D01*
X49388Y58022D02*
Y58061D01*
M02*