%FSTAX23Y23*%
%MOIN*%
%SFA1B1*%

%IPPOS*%
%ADD76C,0.000000*%
G54D76*
X46559Y60553D02*
Y61104D01*
X46007D02*
X46559D01*
X46007Y60553D02*
Y61104D01*
Y60553D02*
X46559D01*
X53851Y57553D02*
Y58104D01*
X53299D02*
X53851D01*
X53299Y57553D02*
Y58104D01*
Y57553D02*
X53851D01*
X53027Y58303D02*
Y58854D01*
X52475D02*
X53027D01*
X52475Y58303D02*
Y58854D01*
Y58303D02*
X53027D01*
X53777D02*
Y58854D01*
X53225D02*
X53777D01*
X53225Y58303D02*
Y58854D01*
Y58303D02*
X53777D01*
X53964Y59053D02*
Y59604D01*
X53412D02*
X53964D01*
X53412Y59053D02*
Y59604D01*
Y59053D02*
X53964D01*
X53413Y59988D02*
X53965D01*
X53413Y59437D02*
Y59988D01*
Y59437D02*
X53965D01*
Y59988*
X53309Y60553D02*
Y61104D01*
X52757D02*
X53309D01*
X52757Y60553D02*
Y61104D01*
Y60553D02*
X53309D01*
X52932Y57553D02*
Y58104D01*
X52381D02*
X52932D01*
X52381Y57553D02*
Y58104D01*
Y57553D02*
X52932D01*
X54058Y58303D02*
Y58854D01*
X53506D02*
X54058D01*
X53506Y58303D02*
Y58854D01*
Y58303D02*
X54058D01*
X52185Y57553D02*
Y58104D01*
X51634D02*
X52185D01*
X51634Y57553D02*
Y58104D01*
Y57553D02*
X52185D01*
X51998D02*
Y58104D01*
X51447D02*
X51998D01*
X51447Y57553D02*
Y58104D01*
Y57553D02*
X51998D01*
X51263D02*
Y58104D01*
X50711D02*
X51263D01*
X50711Y57553D02*
Y58104D01*
Y57553D02*
X51263D01*
X47507Y57547D02*
Y58098D01*
Y57547D02*
X48059D01*
Y58098*
X47507D02*
X48059D01*
X4826Y57547D02*
Y58098D01*
Y57547D02*
X48811D01*
Y58098*
X4826D02*
X48811D01*
X45624Y57553D02*
Y58104D01*
X45073D02*
X45624D01*
X45073Y57553D02*
Y58104D01*
Y57553D02*
X45624D01*
X44878D02*
Y58104D01*
X44326D02*
X44878D01*
X44326Y57553D02*
Y58104D01*
Y57553D02*
X44878D01*
X44692D02*
Y58104D01*
X44141D02*
X44692D01*
X44141Y57553D02*
Y58104D01*
Y57553D02*
X44692D01*
X53955D02*
Y58104D01*
X53403D02*
X53955D01*
X53403Y57553D02*
Y58104D01*
Y57553D02*
X53955D01*
X5285Y58303D02*
X53402D01*
X5285D02*
Y58854D01*
X53402*
Y58303D02*
Y58854D01*
X53037Y59053D02*
X53589D01*
X53037D02*
Y59604D01*
X53589*
Y59053D02*
Y59604D01*
X53871Y59803D02*
Y60354D01*
X53319D02*
X53871D01*
X53319Y59803D02*
Y60354D01*
Y59803D02*
X53871D01*
X53684Y60553D02*
Y61104D01*
X53132D02*
X53684D01*
X53132Y60553D02*
Y61104D01*
Y60553D02*
X53684D01*
X53025Y57553D02*
Y58104D01*
X52474D02*
X53025D01*
X52474Y57553D02*
Y58104D01*
Y57553D02*
X53025D01*
X52746Y58303D02*
Y58854D01*
X52194D02*
X52746D01*
X52194Y58303D02*
Y58854D01*
Y58303D02*
X52746D01*
X5312Y59053D02*
Y59604D01*
X52568D02*
X5312D01*
X52568Y59053D02*
Y59604D01*
Y59053D02*
X5312D01*
X52931Y59803D02*
Y60354D01*
X52379D02*
X52931D01*
X52379Y59803D02*
Y60354D01*
Y59803D02*
X52931D01*
X52559Y60553D02*
Y61104D01*
X52007D02*
X52559D01*
X52007Y60553D02*
Y61104D01*
Y60553D02*
X52559D01*
X52091Y57553D02*
Y58104D01*
X5154D02*
X52091D01*
X5154Y57553D02*
Y58104D01*
Y57553D02*
X52091D01*
X51996Y58303D02*
Y58854D01*
X51444D02*
X51996D01*
X51444Y58303D02*
Y58854D01*
Y58303D02*
X51996D01*
X5237Y59053D02*
Y59604D01*
X51818D02*
X5237D01*
X51818Y59053D02*
Y59604D01*
Y59053D02*
X5237D01*
X52181Y59803D02*
Y60354D01*
X51629D02*
X52181D01*
X51629Y59803D02*
Y60354D01*
Y59803D02*
X52181D01*
X51809Y60553D02*
Y61104D01*
X51257D02*
X51809D01*
X51257Y60553D02*
Y61104D01*
Y60553D02*
X51809D01*
X51158Y57553D02*
Y58104D01*
X50607D02*
X51158D01*
X50607Y57553D02*
Y58104D01*
Y57553D02*
X51158D01*
X51246Y58303D02*
Y58854D01*
X50694D02*
X51246D01*
X50694Y58303D02*
Y58854D01*
Y58303D02*
X51246D01*
X5162Y59053D02*
Y59604D01*
X51068D02*
X5162D01*
X51068Y59053D02*
Y59604D01*
Y59053D02*
X5162D01*
X51431Y59803D02*
Y60354D01*
X50879D02*
X51431D01*
X50879Y59803D02*
Y60354D01*
Y59803D02*
X51431D01*
X51059Y60553D02*
Y61104D01*
X50507D02*
X51059D01*
X50507Y60553D02*
Y61104D01*
Y60553D02*
X51059D01*
X43737Y57553D02*
Y58104D01*
X43186D02*
X43737D01*
X43186Y57553D02*
Y58104D01*
Y57553D02*
X43737D01*
X54059Y60553D02*
Y61104D01*
X53507D02*
X54059D01*
X53507Y60553D02*
Y61104D01*
Y60553D02*
X54059D01*
X50496Y58303D02*
Y58854D01*
X49944D02*
X50496D01*
X49944Y58303D02*
Y58854D01*
Y58303D02*
X50496D01*
X5087Y59053D02*
Y59604D01*
X50318D02*
X5087D01*
X50318Y59053D02*
Y59604D01*
Y59053D02*
X5087D01*
X50681Y59803D02*
Y60354D01*
X50129D02*
X50681D01*
X50129Y59803D02*
Y60354D01*
Y59803D02*
X50681D01*
X50309Y60553D02*
Y61104D01*
X49757D02*
X50309D01*
X49757Y60553D02*
Y61104D01*
Y60553D02*
X50309D01*
X49746Y58303D02*
Y58854D01*
X49194D02*
X49746D01*
X49194Y58303D02*
Y58854D01*
Y58303D02*
X49746D01*
X5012Y59053D02*
Y59604D01*
X49568D02*
X5012D01*
X49568Y59053D02*
Y59604D01*
Y59053D02*
X5012D01*
X49931Y59803D02*
Y60354D01*
X49379D02*
X49931D01*
X49379Y59803D02*
Y60354D01*
Y59803D02*
X49931D01*
X49559Y60553D02*
Y61104D01*
X49007D02*
X49559D01*
X49007Y60553D02*
Y61104D01*
Y60553D02*
X49559D01*
X43652Y58303D02*
Y58854D01*
X431D02*
X43652D01*
X431Y58303D02*
Y58854D01*
Y58303D02*
X43652D01*
X48996D02*
Y58854D01*
X48444D02*
X48996D01*
X48444Y58303D02*
Y58854D01*
Y58303D02*
X48996D01*
X4937Y59053D02*
Y59604D01*
X48818D02*
X4937D01*
X48818Y59053D02*
Y59604D01*
Y59053D02*
X4937D01*
X49181Y59803D02*
Y60354D01*
X48629D02*
X49181D01*
X48629Y59803D02*
Y60354D01*
Y59803D02*
X49181D01*
X48809Y60553D02*
Y61104D01*
X48257D02*
X48809D01*
X48257Y60553D02*
Y61104D01*
Y60553D02*
X48809D01*
X48246Y58303D02*
Y58854D01*
X47694D02*
X48246D01*
X47694Y58303D02*
Y58854D01*
Y58303D02*
X48246D01*
X4862Y59053D02*
Y59604D01*
X48068D02*
X4862D01*
X48068Y59053D02*
Y59604D01*
Y59053D02*
X4862D01*
X48431Y59803D02*
Y60354D01*
X47879D02*
X48431D01*
X47879Y59803D02*
Y60354D01*
Y59803D02*
X48431D01*
X48059Y60553D02*
Y61104D01*
X47507D02*
X48059D01*
X47507Y60553D02*
Y61104D01*
Y60553D02*
X48059D01*
X43639Y59053D02*
Y59604D01*
X43087D02*
X43639D01*
X43087Y59053D02*
Y59604D01*
Y59053D02*
X43639D01*
X47794Y57547D02*
Y58098D01*
Y57547D02*
X48346D01*
Y58098*
X47794D02*
X48346D01*
X47496Y58303D02*
Y58854D01*
X46944D02*
X47496D01*
X46944Y58303D02*
Y58854D01*
Y58303D02*
X47496D01*
X4787Y59053D02*
Y59604D01*
X47318D02*
X4787D01*
X47318Y59053D02*
Y59604D01*
Y59053D02*
X4787D01*
X47681Y59803D02*
Y60354D01*
X47129D02*
X47681D01*
X47129Y59803D02*
Y60354D01*
Y59803D02*
X47681D01*
X47309Y60553D02*
Y61104D01*
X46757D02*
X47309D01*
X46757Y60553D02*
Y61104D01*
Y60553D02*
X47309D01*
X46746Y58303D02*
Y58854D01*
X46194D02*
X46746D01*
X46194Y58303D02*
Y58854D01*
Y58303D02*
X46746D01*
X4712Y59053D02*
Y59604D01*
X46568D02*
X4712D01*
X46568Y59053D02*
Y59604D01*
Y59053D02*
X4712D01*
X46931Y59803D02*
Y60354D01*
X46379D02*
X46931D01*
X46379Y59803D02*
Y60354D01*
Y59803D02*
X46931D01*
X45996Y58303D02*
Y58854D01*
X45444D02*
X45996D01*
X45444Y58303D02*
Y58854D01*
Y58303D02*
X45996D01*
X4637Y59053D02*
Y59604D01*
X45818D02*
X4637D01*
X45818Y59053D02*
Y59604D01*
Y59053D02*
X4637D01*
X46181Y59803D02*
Y60354D01*
X45629D02*
X46181D01*
X45629Y59803D02*
Y60354D01*
Y59803D02*
X46181D01*
X45809Y60553D02*
Y61104D01*
X45257D02*
X45809D01*
X45257Y60553D02*
Y61104D01*
Y60553D02*
X45809D01*
X45532Y57553D02*
Y58104D01*
X4498D02*
X45532D01*
X4498Y57553D02*
Y58104D01*
Y57553D02*
X45532D01*
X45246Y58303D02*
Y58854D01*
X44694D02*
X45246D01*
X44694Y58303D02*
Y58854D01*
Y58303D02*
X45246D01*
X4562Y59053D02*
Y59604D01*
X45068D02*
X4562D01*
X45068Y59053D02*
Y59604D01*
Y59053D02*
X4562D01*
X45431Y59803D02*
Y60354D01*
X44879D02*
X45431D01*
X44879Y59803D02*
Y60354D01*
Y59803D02*
X45431D01*
X45059Y60553D02*
Y61104D01*
X44507D02*
X45059D01*
X44507Y60553D02*
Y61104D01*
Y60553D02*
X45059D01*
X44581Y57553D02*
Y58104D01*
X44029D02*
X44581D01*
X44029Y57553D02*
Y58104D01*
Y57553D02*
X44581D01*
X44496Y58303D02*
Y58854D01*
X43944D02*
X44496D01*
X43944Y58303D02*
Y58854D01*
Y58303D02*
X44496D01*
X4487Y59053D02*
Y59604D01*
X44318D02*
X4487D01*
X44318Y59053D02*
Y59604D01*
Y59053D02*
X4487D01*
X44681Y59803D02*
Y60354D01*
X44129D02*
X44681D01*
X44129Y59803D02*
Y60354D01*
Y59803D02*
X44681D01*
X44309Y60553D02*
Y61104D01*
X43757D02*
X44309D01*
X43757Y60553D02*
Y61104D01*
Y60553D02*
X44309D01*
X43639Y57553D02*
Y58104D01*
X43087D02*
X43639D01*
X43087Y57553D02*
Y58104D01*
Y57553D02*
X43639D01*
X43475Y58303D02*
X44027D01*
X43475D02*
Y58854D01*
X44027*
Y58303D02*
Y58854D01*
X43839Y59053D02*
Y59604D01*
X43287D02*
X43839D01*
X43287Y59053D02*
Y59604D01*
Y59053D02*
X43839D01*
X43744Y59803D02*
Y60354D01*
X43192D02*
X43744D01*
X43192Y59803D02*
Y60354D01*
Y59803D02*
X43744D01*
X43559Y60553D02*
Y61104D01*
X43007D02*
X43559D01*
X43007Y60553D02*
Y61104D01*
Y60553D02*
X43559D01*
M02*