%FSTAX23Y23*%
%MOIN*%
%SFA1B1*%

%IPPOS*%
%AMD24*
4,1,8,0.099000,0.098500,-0.099000,0.098500,-0.197000,0.000500,-0.197000,-0.000500,-0.099000,-0.098500,0.099000,-0.098500,0.197000,-0.000500,0.197000,0.000500,0.099000,0.098500,0.0*
1,1,0.196000,0.099000,0.000500*
1,1,0.196000,-0.099000,0.000500*
1,1,0.196000,-0.099000,-0.000500*
1,1,0.196000,0.099000,-0.000500*
%
%ADD10R,0.055000X0.043000*%
%ADD11R,0.043000X0.055000*%
%ADD13C,0.014000*%
%ADD14C,0.015000*%
%ADD15C,0.012000*%
%ADD16C,0.004000*%
%ADD17C,0.004000*%
%ADD18R,0.080000X0.080000*%
%ADD19C,0.080000*%
%ADD20C,0.059000*%
%ADD21C,0.098000*%
%ADD22C,0.008000*%
%ADD23C,0.039000*%
G04~CAMADD=24~8~0.0~0.0~3940.0~1970.0~980.0~0.0~15~0.0~0.0~0.0~0.0~0~0.0~0.0~0.0~0.0~0~0.0~0.0~0.0~0.0~3940.0~1970.0*
%ADD24D24*%
%ADD25C,0.276000*%
%ADD26C,0.276000*%
%ADD27C,0.005000*%
%ADD28C,0.060000*%
%ADD29C,0.039000*%
%ADD30C,0.024000*%
%ADD31C,0.024000*%
%ADD32R,0.045000X0.055000*%
%ADD33O,0.015000X0.059000*%
%ADD34R,0.015000X0.059000*%
%ADD35R,0.059000X0.015000*%
%ADD36R,0.020000X0.063000*%
%ADD37O,0.020000X0.063000*%
%ADD38R,0.079000X0.098000*%
%ADD39R,0.020000X0.091000*%
%ADD40R,0.051000X0.039000*%
%ADD41R,0.051000X0.061000*%
%ADD42R,0.039000X0.051000*%
%ADD43C,0.012000*%
G36*
X52223Y58944D02*
Y58731D01*
X52208*
Y5868*
X52174Y58646*
X52169Y5864*
X52166Y58634*
Y58627*
Y58332*
X52162Y5833*
X52155Y58325*
X52151Y5832*
X52146Y58322*
Y58784*
X52145Y5879*
Y58791*
X52142Y58798*
X52138Y58803*
X52097Y58845*
X52091Y58849*
X52085Y58852*
X52078Y58853*
X52033*
Y58865*
X52021*
X52019Y5887*
X52051Y58902*
X52163*
X5217Y58903*
X52177Y58906*
X52182Y5891*
X52218Y58946*
X52223Y58944*
G37*
G36*
X46192D02*
Y58762D01*
X4618*
Y58667*
X46253*
Y58656*
X46254Y58649*
X46257Y58643*
X46261Y58637*
X46262Y58636*
X4626Y58631*
X46256*
X46243Y58625*
X46232Y58617*
X46223Y58606*
X46218Y58593*
X46216Y58579*
X46218Y58565*
X46223Y58552*
X46232Y58541*
X46243Y58532*
X46256Y58527*
X4627Y58525*
X46284Y58527*
X46297Y58532*
X46301Y58535*
X46306Y58533*
Y5847*
X46307Y58463*
X46309Y58456*
X46314Y5845*
X46327Y58438*
X46326Y58433*
X46321Y58428*
X46312Y58417*
X46306Y58405*
X46302Y58392*
X463Y58379*
X46302Y58365*
X46306Y58352*
X46312Y5834*
X4631Y58335*
X46022*
X46019Y5834*
X46021Y58345*
X46022Y58353*
X46021Y58361*
X46018Y58369*
X46017Y5837*
Y58612*
X46016Y58619*
X46015Y58623*
X46013Y58625*
X46009Y58631*
X45928Y58712*
X45923Y58716*
X45925Y58721*
X46003*
Y58784*
Y58796*
X46026*
X46033Y58797*
X4604Y588*
X46046Y58804*
X46187Y58945*
X46192Y58944*
G37*
G36*
X51787Y59198D02*
Y59158D01*
X5148Y58851*
X51476Y58846*
X51473Y58839*
Y58832*
Y58762*
X51458*
Y58711*
X5142Y58672*
X51415Y58667*
X51413Y5866*
X51412Y58653*
Y58349*
X51411Y58348*
X51408Y58341*
X51407Y58337*
X51402*
Y5882*
X51782Y592*
X51787Y59198*
G37*
G36*
X47048Y58192D02*
X47051Y58186D01*
X47056Y58179*
X47062Y58174*
X4707Y58171*
X47075Y5817*
X47076Y58166*
X47075Y58165*
X4707Y58161*
X4699Y58081*
X46985Y58082*
Y58126*
X46989Y5813*
X46997Y58131*
X47005Y58134*
X47012Y58139*
X47017Y58146*
X4702Y58154*
X47021Y58162*
X4702Y5817*
X47017Y58178*
X47016Y58179*
Y58184*
X4702Y58187*
X47024Y58186*
X47032Y58187*
X4704Y58191*
X47043Y58193*
X47048Y58192*
G37*
G36*
X46747Y58385D02*
Y58379D01*
X46748Y58372*
X46751Y58366*
X46755Y5836*
X46856Y58259*
Y58254*
X46852Y58252*
X46847Y58245*
X46844Y58237*
X46842Y58229*
X46844Y58221*
Y5822*
X46839Y58218*
X46838Y5822*
X46831Y58225*
X46823Y58229*
X46815Y5823*
X46806Y58229*
X46799Y58225*
X46798*
X46793Y58226*
X46792Y58228*
X46788Y58234*
X4677Y58251*
X46694Y58327*
X46691Y5833*
Y58335*
X46743Y58387*
X46747Y58385*
G37*
G36*
X44093Y58315D02*
X44106Y58311D01*
X4412Y58309*
X44134Y58311*
X44137Y58307*
X4413Y58293*
X44124Y58275*
X44122Y58255*
X44124Y58236*
X4413Y58217*
X44139Y582*
X44151Y58185*
X44166Y58173*
X44173Y58169*
X44171Y58165*
X44002*
X43996Y58164*
X43995*
X43988Y58161*
X43983Y58157*
X43934Y58108*
X43933*
X43925Y58104*
X43918Y58099*
X43913Y58093*
X4391Y58085*
X43909Y58078*
X43904*
Y58249*
X43977*
Y5827*
X44029*
X44036*
X44042Y58273*
X44048Y58278*
X44088Y58317*
X44093Y58315*
G37*
G36*
X43145Y59379D02*
X43136Y59375D01*
X43125Y59367*
X43116Y59356*
X43111Y59343*
X43109Y59329*
X43111Y59315*
X43116Y59302*
X43125Y59291*
X43136Y59282*
X43149Y59277*
X43163Y59275*
X43177Y59277*
X4319Y59282*
X43201Y59291*
X4321Y59302*
X43215Y59301*
Y59239*
X43216Y59232*
X43218Y59225*
X43223Y59219*
X43236Y59206*
Y59193*
X43224Y59187*
X43214Y59178*
X43205Y59167*
X43199Y59155*
X43195Y59142*
X43193Y59129*
X43195Y59115*
X43199Y59102*
X43201Y59099*
X43197Y59096*
X43085Y59207*
Y59364*
X43105Y59384*
X43144*
X43145Y59379*
G37*
G36*
X48179Y59152D02*
X48176Y59142D01*
X48174Y59129*
X48176Y59115*
X4818Y59102*
X48186Y5909*
X48195Y5908*
X48205Y59071*
X48217Y59065*
X4823Y59061*
X48244Y59059*
X48258Y59061*
X48271Y59065*
X48283Y59071*
X48293Y5908*
X48302Y5909*
X48306Y59097*
X48553*
X48555*
X48558Y59093*
X48448Y58983*
X48352*
X48345*
X48339Y5898*
X48333Y58975*
X48218Y58861*
X48172*
X48146Y58887*
Y58888*
X48143Y58895*
X48138Y58902*
X48131Y58907*
X48123Y58911*
X48115Y58912*
X48107Y58911*
X48099Y58907*
X48092Y58902*
X48087Y58895*
X48084Y58888*
X48083Y58879*
X48084Y58871*
X48087Y58863*
X48092Y58857*
X48099Y58851*
X48107Y58848*
X48108*
X48154Y58802*
X48159Y58798*
X48166Y58795*
X48172Y58794*
Y58786*
X4813*
X48122Y58794*
X48117Y58798*
X4811Y58801*
X48103Y58802*
X48064*
X48063Y58804*
X48055Y58814*
X48045Y58822*
X48033Y58827*
X4802Y58829*
X48007Y58827*
X47995Y58822*
X47985Y58814*
X47977Y58804*
X47972Y58792*
X4797Y58779*
X47972Y58766*
X47977Y58754*
X47985Y58743*
X47995Y58735*
X48007Y5873*
X4802Y58729*
X48033Y5873*
X48045Y58735*
X48055Y58743*
X48058Y58747*
X48092*
X481Y58739*
X48105Y58735*
X48112Y58732*
X48113*
X48119Y58731*
X48172*
Y58719*
X48263*
Y58782*
Y58789*
X48267Y58791*
X48271Y58787*
Y58285*
X48272Y58278*
X48274Y58271*
X48279Y58265*
X48397Y58148*
X48402Y58143*
X48409Y58141*
X48416Y5814*
X48594*
X48637Y58097*
X48635Y58092*
X48622Y58091*
X48609Y58087*
X48597Y5808*
X48586Y58072*
X48577Y58061*
X48571Y5805*
X48234*
X48228Y58061*
X48219Y58072*
X48209Y58081*
X48197Y58087*
X48184Y58091*
X4817Y58092*
X48156Y58091*
X48143Y58087*
X48131Y58081*
X48121Y58072*
X48112Y58061*
X48106Y5805*
X47947*
X47941Y58061*
X47932Y58072*
X47922Y58081*
X4791Y58087*
X47897Y58091*
X47883Y58092*
X47869Y58091*
X47856Y58087*
X47844Y58081*
X47834Y58072*
X47825Y58061*
X47819Y5805*
X47766*
X47763Y58054*
X47766Y58057*
X47769Y58065*
X4777Y58073*
X47769Y58082*
X47766Y58089*
X47765Y5809*
Y58116*
X47764Y58123*
X47762Y58129*
X47757Y58135*
X47745Y58147*
X47743Y58148*
X47697Y58194*
Y58646*
X47718Y58667*
X47795*
X47822Y5864*
Y58606*
X47817Y58605*
Y58606*
X47808Y58617*
X47797Y58625*
X47784Y58631*
X4777Y58633*
X47756Y58631*
X47743Y58625*
X47732Y58617*
X47723Y58606*
X47718Y58593*
X47716Y58579*
X47718Y58565*
X47723Y58552*
X47732Y58541*
X47743Y58532*
X47756Y58527*
X4777Y58525*
X47784Y58527*
X47797Y58532*
X47808Y58541*
X47817Y58552*
X47822Y58551*
Y5849*
X47823Y58483*
X47825Y58476*
X4783Y58471*
X47848Y58452*
Y58444*
X47843Y58443*
X47831Y58437*
X47821Y58428*
X47812Y58417*
X47806Y58405*
X47802Y58392*
X478Y58379*
X47802Y58365*
X47806Y58352*
X47812Y5834*
X47821Y5833*
X47831Y58321*
X47843Y58315*
X47856Y58311*
X4787Y58309*
X47884Y58311*
X47897Y58315*
X47909Y58321*
X47919Y5833*
X47928Y5834*
X47934Y58352*
X47938Y58365*
X4794Y58379*
X47938Y58392*
X47934Y58405*
X47928Y58417*
X47919Y58428*
X47909Y58437*
X47902Y5844*
Y58464*
X47901Y58471*
X47899Y58477*
X47894Y58483*
X47876Y58501*
Y58535*
X47881Y58536*
X47888Y58524*
X479Y58509*
X47915Y58497*
X47932Y58487*
X47951Y58482*
X4797Y5848*
X47989Y58482*
X48008Y58487*
X48025Y58497*
X4804Y58509*
X48052Y58524*
X48061Y58541*
X48067Y58559*
X48069Y58579*
X48067Y58598*
X48061Y58617*
X48052Y58634*
X4804Y58649*
X48025Y58661*
X48008Y5867*
X47989Y58676*
X4797Y58678*
X47951Y58676*
X47932Y5867*
X47915Y58661*
X479Y58649*
X47888Y58634*
X47881Y58621*
X47876Y58622*
Y58651*
X47875Y58658*
X47873Y58665*
X47868Y58671*
X47828Y58711*
Y58762*
X47754*
Y58899*
X47932Y59077*
X48085*
X48092Y59078*
X48099Y5908*
X48105Y59085*
X48174Y59154*
X48179Y59152*
G37*
G36*
X51295Y60791D02*
X51306Y60782D01*
X51319Y60777*
X51333Y60775*
X51347Y60777*
X5136Y60782*
X51371Y60791*
X51372Y60792*
X51377Y60791*
Y60755*
X51378Y60748*
X51381Y60742*
X51385Y60736*
X51406Y60715*
Y60693*
X51394Y60687*
X51384Y60678*
X51375Y60667*
X51369Y60655*
X51365Y60642*
X51363Y60629*
X51365Y60615*
X51369Y60602*
X51375Y6059*
X51384Y6058*
X51393Y60572*
X51391Y60568*
X51344*
X51285Y60627*
Y60796*
X51289Y60798*
X51295Y60791*
G37*
G36*
X48454Y58762D02*
X48439D01*
Y58711*
X48405Y58676*
X48401Y58671*
X48398Y58664*
X48397Y58657*
Y58354*
X48396Y58353*
X48393Y58345*
X48392Y5834*
X48387Y58341*
Y58826*
X48388Y58827*
X48391Y58834*
X48392Y58843*
X48391Y58851*
X48388Y58859*
X48383Y58866*
X48376Y58871*
X48368Y58874*
X4836Y58875*
X48352Y58874*
X48344Y58871*
X48337Y58866*
X48332Y58859*
X48329Y58851*
X48328Y58843*
X48329Y58834*
X48332Y58827*
X48333Y58826*
Y58307*
X48334Y583*
X48336Y58293*
X4834Y58288*
X48337Y58285*
X48325Y58296*
Y58799*
X48324Y58805*
Y58806*
X48322Y58812*
X48317Y58818*
X48295Y58841*
X48289Y58845*
X48286Y58846*
X48285Y58851*
X48363Y58929*
X48454*
Y58762*
G37*
G36*
X47335Y59586D02*
Y59494D01*
X4732*
Y59399*
X47322*
X47324Y59394*
X47306Y59376*
X47301Y5937*
X47299Y59364*
X47298Y59357*
Y59292*
X47299Y59285*
X47301Y59278*
X47306Y59272*
X47335Y59244*
Y59138*
X47319Y59122*
X47314Y59124*
Y59204*
X47315Y59205*
X47318Y59212*
X47319Y59221*
X47318Y59229*
X47315Y59237*
X4731Y59244*
X47303Y59249*
X47295Y59252*
X47287Y59253*
X47279Y59252*
X47271Y59249*
X47266Y59251*
Y59648*
X47271Y5965*
X47335Y59586*
G37*
G36*
X45126Y59379D02*
X45117Y59375D01*
X45106Y59367*
X45097Y59356*
X45092Y59343*
X4509Y59329*
X45092Y59315*
X45097Y59302*
X45106Y59291*
X45117Y59282*
X4513Y59277*
X45144Y59275*
X45158Y59277*
X45171Y59282*
X45182Y59291*
X45191Y59302*
X45195Y59312*
X452Y59311*
Y59241*
X45201Y59234*
X45203Y59227*
X45208Y59222*
X45223Y59206*
Y59195*
X45217Y59193*
X45205Y59187*
X45195Y59178*
X45186Y59167*
X4518Y59155*
X45176Y59142*
X45174Y59129*
X45176Y59115*
X4518Y59102*
X45186Y5909*
X45195Y5908*
X45198Y59077*
X45196Y59072*
X45055*
X45023Y59105*
X45024Y5911*
X45026Y59111*
X45029Y59108*
X45037Y59105*
X45045Y59104*
X45054Y59105*
X45061Y59108*
X45068Y59114*
X45073Y5912*
X45076Y59128*
X45077Y59136*
X45076Y59145*
X45073Y59152*
X45072Y59153*
Y59364*
X45092Y59384*
X45125*
X45126Y59379*
G37*
G36*
X44622Y58234D02*
Y58169D01*
X44623Y58162*
X44625Y58155*
X4463Y5815*
X44644Y58135*
X44642Y58131*
X44518*
X44516Y58135*
X44617Y58236*
X44622Y58234*
G37*
G36*
X46191Y58109D02*
X46201Y58092D01*
X46213Y58077*
X46228Y58064*
X46245Y58055*
X46258Y58051*
X46257Y58046*
X46121*
X4612Y58051*
X46133Y58055*
X4615Y58064*
X46165Y58077*
X46177Y58092*
X46186Y58109*
X46191*
G37*
G36*
X53859Y61183D02*
X53847Y61179D01*
X53834Y61172*
X53821Y61162*
X53811Y6115*
X53804Y61136*
X53799Y61121*
X53798Y61105*
X53799Y61089*
X53804Y61074*
X53806Y6107*
X53798Y61064*
X5379Y61054*
X53785Y61042*
X53783Y61029*
X53785Y61016*
X5379Y61004*
X53798Y60993*
X53808Y60985*
X5382Y6098*
X53833Y60979*
X53843Y6098*
X53858Y60966*
X53855Y60961*
X53852Y60962*
X53433*
X53431Y60966*
X53445Y6098*
X53458Y60979*
X53471Y6098*
X53483Y60985*
X53493Y60993*
X53501Y61004*
X53506Y61016*
X53508Y61029*
X53506Y61042*
X53501Y61054*
X53493Y61064*
X53483Y61072*
X53471Y61077*
X53458Y61079*
X53445Y61077*
X53433Y61072*
X53423Y61064*
X53415Y61054*
X5341Y61042*
X53408Y61029*
X53409Y61021*
X53399Y61011*
X53395Y61014*
X53397Y61018*
Y61024*
X53319*
Y61018*
X53323Y61009*
X53327Y61004*
X53325Y60999*
X53154*
X53132Y61021*
X53133Y61029*
X53131Y61042*
X53126Y61054*
X53118Y61064*
X53108Y61072*
X53096Y61077*
X53083Y61079*
X5307Y61077*
X53058Y61072*
X53048Y61064*
X5304Y61054*
X53035Y61042*
X53033Y61029*
X53034Y61021*
X53024Y61011*
X5302Y61014*
X53022Y61018*
Y61024*
X52983*
Y61034*
X53022*
Y61039*
X53018Y61049*
X53011Y61057*
X5301Y61058*
Y6106*
X53017Y61074*
X53022Y61089*
X53024Y61105*
X53022Y61121*
X53017Y61136*
X5301Y6115*
X53Y61162*
X52988Y61172*
X52974Y61179*
X52962Y61183*
X52963Y61188*
X53858*
X53859Y61183*
G37*
G36*
X46617Y58173D02*
X46615Y58168D01*
X46554*
X46547Y58167*
X4654Y58164*
X46535Y5816*
X46528Y58153*
X46527*
X46519Y5815*
X46512Y58145*
X46507Y58138*
X46504Y5813*
X46503Y58122*
X46504Y58113*
X46507Y58106*
X46512Y58099*
X46519Y58094*
X46527Y58091*
X46535Y58089*
X46543Y58091*
X46551Y58094*
X46558Y58099*
X46563Y58106*
X46566Y58113*
Y58114*
X46614*
X46615Y58112*
Y58109*
Y58106*
Y58062*
X46613Y5806*
X46427*
X46425Y58065*
X4654Y5818*
X4661*
X46617Y58173*
G37*
G36*
X48627Y59357D02*
Y59237D01*
X48541Y59152*
X48309*
X48308Y59155*
X48302Y59167*
X48293Y59178*
X48283Y59187*
X48271Y59193*
X48258Y59197*
X48244Y59198*
X4823Y59197*
X48221Y59194*
X48218Y59198*
X48244Y59224*
X48249Y5923*
X48251Y59236*
X48252Y59243*
Y59282*
X48257Y59283*
X48262Y59274*
X48274Y59259*
X48289Y59247*
X48306Y59237*
X48325Y59232*
X48344Y5923*
X48363Y59232*
X48382Y59237*
X48399Y59247*
X48414Y59259*
X48426Y59274*
X48435Y59291*
X48441Y59309*
X48443Y59329*
X48441Y59348*
X48435Y59367*
X48426Y59384*
X48414Y59399*
X48408Y59404*
X48409Y59409*
X48576*
X48627Y59357*
G37*
G36*
X53606Y59274D02*
X53618Y59259D01*
X53633Y59247*
X5365Y59237*
X53669Y59232*
X53688Y5923*
X53689Y59225*
X53642Y59178*
X53637*
X53627Y59187*
X53615Y59193*
X53602Y59197*
X53588Y59198*
X53586Y59203*
X53593Y5921*
X53597Y59216*
X536Y59222*
Y59223*
X53601Y59229*
Y59273*
X53606Y59274*
G37*
G36*
X46026Y58218D02*
X46025Y58217D01*
X46013Y58202*
X46003Y58184*
X45998Y58166*
X45996Y58147*
X45998Y58127*
X46003Y58109*
X46013Y58092*
X46025Y58077*
X4604Y58064*
X46057Y58055*
X4607Y58051*
X46069Y58046*
X45565*
X45564Y58051*
X45577Y58055*
X45594Y58064*
X45609Y58077*
X45621Y58092*
X4563Y58109*
X45636Y58127*
X45638Y58147*
X45636Y58166*
X4563Y58184*
X45621Y58202*
X45609Y58217*
X45607Y58218*
X45609Y58223*
X46025*
X46026Y58218*
G37*
G36*
X43737Y58117D02*
X43735Y58112D01*
X43659*
Y581*
X4363*
X43595Y58135*
Y58136*
X43592Y58144*
X4359Y58146*
X43592Y5815*
X43704*
X43737Y58117*
G37*
G36*
X47324Y58109D02*
X47322Y58104D01*
X47321Y58105*
X47231*
X47225Y58104*
X47224*
X47217Y58101*
X47212Y58097*
X47168Y58052*
X47163Y58047*
X47161Y5804*
X4716Y58033*
Y57998*
X47142*
X47135Y57997*
X47128Y57995*
X47122Y5799*
X47098Y57966*
X47059*
Y57974*
X4706*
X47067Y57975*
X47074Y57978*
X4708Y57982*
X47111Y58013*
X47116Y58019*
X47118Y58026*
X47119Y58033*
X47203Y58118*
X47315*
X47324Y58109*
G37*
G36*
X53795Y58128D02*
Y58127D01*
X53796Y58119*
X538Y58111*
X53805Y58105*
X53811Y58099*
X53819Y58096*
X5382*
X53863Y58053*
X53869Y58049*
X53875Y58046*
X53883Y58045*
Y58033*
Y58002*
X5386Y57979*
X53802*
X53774Y58007*
X53777Y58016*
X53779Y58029*
X53777Y58042*
X53772Y58054*
X53764Y58064*
X53754Y58072*
X53742Y58077*
X53729Y58079*
X53716Y58077*
X53711Y58075*
X53688Y58099*
X53691Y58103*
X53753*
X5376Y58104*
X53766Y58107*
X53772Y58111*
X53791Y5813*
X53795Y58128*
G37*
G36*
X465Y58218D02*
X46362Y58079D01*
X46358Y58083*
X46365Y58092*
X46374Y58109*
X4638Y58127*
X46382Y58147*
X4638Y58166*
X46374Y58184*
X46365Y58202*
X46353Y58217*
X46351Y58218*
X46353Y58223*
X46498*
X465Y58218*
G37*
G36*
X44878Y58157D02*
D01*
X44884Y58153*
X4489Y5815*
X44897*
X44983*
X45016Y58116*
X45015Y58111*
X44928*
Y58098*
X44886*
Y5811*
X44859*
X44747Y58222*
X44746Y58223*
X44743Y58231*
X44738Y58238*
X44731Y58243*
X44724Y58246*
X44715Y58247*
X44707Y58246*
X44699Y58243*
X44692Y58238*
X44687Y58231*
X44684Y58223*
X44683Y58215*
X44684Y58207*
X44687Y58199*
X44692Y58192*
X44699Y58187*
X44707Y58184*
X44708*
X44795Y58097*
Y58035*
X44768*
X44755Y58048*
X44749Y58052*
X44742Y58055*
X44735Y58056*
X44694*
X44687Y58064*
X44677Y58072*
X44673Y58074*
Y58079*
X44676Y5808*
X44682Y58084*
X44697Y58099*
X44698*
X44706Y58102*
X44713Y58108*
X44718Y58114*
X44721Y58122*
X44722Y5813*
X44721Y58139*
X44718Y58147*
X44713Y58153*
X44706Y58158*
X44698Y58162*
X44694*
X44676Y5818*
Y58353*
X44681Y58355*
X44878Y58157*
G37*
G36*
X45426Y5823D02*
X45431Y58226D01*
X45438Y58223*
X45445*
X45469*
X4547Y58218*
X45469Y58217*
X45457Y58202*
X45447Y58184*
X45442Y58166*
X4544Y58147*
X45442Y58127*
X45447Y58109*
X45451Y58102*
X45447Y58099*
X45293Y58253*
Y58357*
X45298Y58359*
X45426Y5823*
G37*
G36*
X43212Y58635D02*
Y58624D01*
X43207Y58622*
X43203Y58625*
X4319Y58631*
X43176Y58633*
X43162Y58631*
X43149Y58625*
X43138Y58617*
X43129Y58606*
X43124Y58593*
X43122Y58579*
X43124Y58565*
X43129Y58552*
X43138Y58541*
X43149Y58532*
X43162Y58527*
X43176Y58525*
X4319Y58527*
X43203Y58532*
X43207Y58535*
X43212Y58533*
Y58496*
X43213Y58489*
X43215Y58482*
X4322Y58476*
X43249Y58447*
X43248Y58442*
X43237Y58437*
X43227Y58428*
X43218Y58417*
X43212Y58405*
X43208Y58392*
X43206Y58379*
X43208Y58365*
X43212Y58352*
X43218Y5834*
X43221Y58337*
X4322Y58332*
X43211Y58324*
X43199Y58309*
X4319Y58292*
X43184Y58274*
X43182Y58254*
X43184Y58235*
X4319Y58216*
X43199Y58199*
X43211Y58184*
X43226Y58172*
X43243Y58163*
X43244*
X43243Y58158*
X43182*
X43139Y58201*
Y58453*
X43138Y58459*
Y5846*
X43136Y58466*
X43131Y58472*
X43085Y58518*
Y58649*
X43103Y58667*
X4318*
X43212Y58635*
G37*
G36*
X4488Y59649D02*
Y59615D01*
X44795*
X44794*
X44772Y59637*
Y59638*
X44769Y59645*
X44764Y59652*
X44757Y59657*
X44749Y59661*
X44741Y59662*
X44733Y59661*
X44725Y59657*
X44718Y59652*
X44713Y59645*
X4471Y59638*
X44709Y59629*
X4471Y59621*
X44713Y59613*
X44718Y59607*
X44725Y59601*
X44733Y59598*
X44734*
X44776Y59556*
X44781Y59552*
X44788Y59549*
X44789*
X44795Y59548*
Y5954*
X44769*
X44765Y59544*
X4476Y59548*
X44753Y59551*
X44746Y59552*
X44688*
X44687Y59554*
X44679Y59564*
X44669Y59572*
X44657Y59577*
X44644Y59579*
X44631Y59577*
X44619Y59572*
X44609Y59564*
X44601Y59554*
X44596Y59542*
X44594Y59529*
X44596Y59516*
X44601Y59504*
X44609Y59493*
X44619Y59485*
X44631Y5948*
X44644Y59479*
X44657Y5948*
X44669Y59485*
X44679Y59493*
X44682Y59497*
X44735*
X44739Y59493*
X44745Y59489*
X44751Y59486*
X44758Y59485*
X44795*
Y59473*
X4488*
Y59057*
X44881Y59049*
X44883Y59043*
X44888Y59037*
X44987Y58938*
X44993Y58933*
X44999Y58931*
X45007Y5893*
X45226*
X45238Y58917*
Y58864*
X45161*
Y58866*
X45155Y58873*
X45149Y58878*
X45141Y58881*
X45133Y58882*
X45124Y58881*
X45116Y58878*
X4511Y58873*
X45105Y58866*
X45101Y58858*
X451Y5885*
X45101Y58842*
X45105Y58834*
X4511Y58827*
X45116Y58822*
X45124Y58819*
X45125*
X45142Y58802*
X45148Y58798*
X45154Y58795*
X45155*
X45156*
Y58789*
X45104*
X45099Y58794*
X45093Y58798*
X45086Y58801*
X45079Y58802*
X45064*
X45063Y58804*
X45055Y58814*
X45045Y58822*
X45033Y58827*
X4502Y58829*
X45007Y58827*
X44995Y58822*
X44985Y58814*
X44977Y58804*
X44972Y58792*
X4497Y58779*
X44972Y58766*
X44977Y58754*
X44985Y58743*
X44995Y58735*
X45007Y5873*
X4502Y58729*
X45033Y5873*
X45045Y58735*
X45055Y58743*
X45058Y58747*
X45068*
X45073Y58742*
X45079Y58738*
X45085Y58735*
X45086*
X45092Y58734*
X45156*
Y58722*
X45238*
Y58695*
X45236Y58693*
X45229*
X45222Y5869*
X45216Y58685*
X45212Y5868*
X45209Y58673*
X45208Y58666*
Y58622*
X45204Y5862*
X45197Y58625*
X45184Y58631*
X4517Y58633*
X45156Y58631*
X45143Y58625*
X45132Y58617*
X45123Y58606*
X45118Y58593*
X45116Y58579*
X45118Y58565*
X45123Y58552*
X4512Y58548*
X45106Y58547*
X45093Y58543*
X45081Y58537*
X45071Y58528*
X45062Y58517*
X45056Y58505*
X45052Y58492*
X4505Y58479*
X45052Y58465*
X45056Y58452*
X45062Y5844*
X45071Y5843*
X45081Y58421*
X45093Y58415*
X45106Y58411*
X4512Y58409*
X45134Y58411*
X45147Y58415*
X45159Y58421*
X45169Y5843*
X45178Y5844*
X45184Y58452*
X45188Y58465*
X4519Y58479*
X45188Y58492*
X45184Y58505*
X45178Y58517*
X45175Y58521*
X45177Y58526*
X45184Y58527*
X45197Y58532*
X45204Y58537*
X45208Y58535*
Y5838*
X45147Y58318*
X45142Y58313*
X45139Y58306*
X45138Y58299*
X45139Y58292*
X45142Y58285*
X45147Y58279*
X45152Y58275*
X45159Y58272*
X45166Y58271*
X45173Y58272*
X4518Y58275*
X45186Y58279*
X45233Y58327*
X45238Y58325*
Y58241*
X45239Y58234*
X45241Y58228*
X45246Y58222*
X45395Y58073*
X45393Y58068*
X45388Y58067*
X45378Y58063*
X4537Y58057*
X45364Y58049*
X4536Y58039*
X45355*
X45354Y58042*
X45349Y58054*
X45341Y58064*
X45331Y58072*
X45319Y58077*
X45306Y58079*
X45302Y58078*
X45298Y58079*
X45285Y58077*
X45273Y58072*
X45263Y58064*
X45255Y58054*
X4525Y58042*
Y58039*
X45245*
X45241Y58049*
X45234Y58057*
X45226Y58063*
X45216Y58067*
X45211Y58068*
Y58029*
Y5799*
X45214*
X45216Y57985*
X45196Y57966*
X45055*
X4502Y58001*
Y58032*
Y58106*
X45024Y58108*
X45057Y58075*
Y58037*
X45056Y58036*
X45053Y58028*
X45052Y5802*
X45053Y58011*
X45056Y58004*
X45061Y57997*
X45068Y57992*
X45076Y57989*
X45084Y57987*
X45092Y57989*
X451Y57992*
X45107Y57997*
X45112Y58004*
X45115Y58011*
X45116Y5802*
X45115Y58028*
X45112Y58036*
X45111Y58037*
Y58087*
X4511Y58094*
X45109Y58097*
X45108Y581*
X45103Y58106*
X45013Y58196*
X45007Y582*
X45001Y58203*
X44994Y58204*
X44909*
X44715Y58397*
Y58558*
X4472Y58559*
X44723Y58552*
X44732Y58541*
X44743Y58532*
X44756Y58527*
X4477Y58525*
X44784Y58527*
X44797Y58532*
X44804Y58538*
X44809Y58535*
Y58496*
X4481Y58489*
X44812Y58483*
X44817Y58477*
X44833Y5846*
Y58438*
X44831Y58437*
X44821Y58428*
X44812Y58417*
X44806Y58405*
X44802Y58392*
X448Y58379*
X44802Y58365*
X44806Y58352*
X44812Y5834*
X44821Y5833*
X44831Y58321*
X44843Y58315*
X44856Y58311*
X4487Y58309*
X44884Y58311*
X44897Y58315*
X44909Y58321*
X44919Y5833*
X44928Y5834*
X44934Y58352*
X44938Y58365*
X4494Y58379*
X44938Y58392*
X44934Y58405*
X44928Y58417*
X44919Y58428*
X44909Y58437*
X44897Y58443*
X44888Y58446*
Y58472*
X44887Y58479*
X44884Y58485*
X4488Y58491*
X44863Y58507*
Y58651*
X44862Y58659*
X4486Y58665*
X44855Y58671*
X44815Y58711*
Y58762*
X44742*
Y59055*
X44744Y59062*
X44745Y5907*
X44744Y59079*
X44741Y59086*
X44736Y59093*
X44729Y59098*
X44722Y59101*
X44713Y59103*
X44705Y59101*
X44697Y59098*
X4469Y59093*
X44685Y59086*
X44682Y59079*
X44681Y5907*
X44682Y59062*
X44685Y59054*
X44687Y59052*
Y58762*
X44676*
Y58854*
X44675Y5886*
Y58861*
X44673Y58868*
X44668Y58873*
X44532Y5901*
X44526Y59015*
X44519Y59017*
X44512Y59018*
X44436*
X44332Y59122*
Y59377*
X44339Y59384*
X44375*
X44376Y59379*
X44367Y59375*
X44356Y59367*
X44347Y59356*
X44342Y59343*
X4434Y59329*
X44342Y59315*
X44347Y59302*
X44356Y59291*
X44367Y59282*
X4438Y59277*
X44394Y59275*
X44408Y59277*
X44421Y59282*
X44432Y59291*
X44436Y59296*
X44441Y59294*
Y59241*
X44442Y59234*
X44444Y59227*
X44449Y59222*
X44469Y59201*
Y59193*
X44467*
X44455Y59187*
X44445Y59178*
X44436Y59167*
X4443Y59155*
X44426Y59142*
X44424Y59129*
X44426Y59115*
X4443Y59102*
X44436Y5909*
X44445Y5908*
X44455Y59071*
X44467Y59065*
X4448Y59061*
X44494Y59059*
X44508Y59061*
X44521Y59065*
X44533Y59071*
X44543Y5908*
X44552Y5909*
X44558Y59102*
X44562Y59115*
X44564Y59129*
X44562Y59142*
X44558Y59155*
X44552Y59167*
X44543Y59178*
X44533Y59187*
X44523Y59191*
Y59213*
Y5922*
X4452Y59226*
X44515Y59232*
X44495Y59252*
Y59298*
X445Y59299*
X44503Y59291*
X44512Y59274*
X44524Y59259*
X44539Y59247*
X44556Y59237*
X44575Y59232*
X44594Y5923*
X44613Y59232*
X44632Y59237*
X44649Y59247*
X44664Y59259*
X44676Y59274*
X44685Y59291*
X44691Y59309*
X44693Y59329*
X44691Y59348*
X44685Y59367*
X44676Y59384*
X44664Y59399*
X44649Y59411*
X44632Y5942*
X44613Y59426*
X44594Y59428*
X44575Y59426*
X44556Y5942*
X44539Y59411*
X44524Y59399*
X44512Y59384*
X44503Y59367*
X445Y59358*
X44495Y59359*
Y59371*
X44494Y59378*
X44492Y59384*
X44487Y5939*
X44449Y59428*
Y59479*
X44375*
Y59554*
X4438*
X44381Y59547*
X44384Y5954*
X44389Y59533*
X44396Y59528*
X44404Y59525*
X44412Y59523*
X4442Y59525*
X44428Y59528*
X44435Y59533*
X4444Y5954*
X44443Y59547*
X44444Y59556*
X44443Y59564*
X4444Y59572*
X44439Y59573*
Y59657*
X44523*
Y59675*
X44689*
X44696Y59676*
X44702Y59678*
X44708Y59683*
X44777Y59751*
X4488Y59649*
G37*
G36*
X46383Y58681D02*
X46388Y58677D01*
X46395Y58674*
X46402*
X46428*
X4643Y58669*
X46415Y58661*
X464Y58649*
X46388Y58634*
X46379Y58617*
X46373Y58598*
X46371Y58579*
X46373Y58559*
X46379Y58541*
X46388Y58524*
X464Y58509*
X46415Y58497*
X46432Y58487*
X46451Y58482*
X4647Y5848*
X46489Y58482*
X46508Y58487*
X46525Y58497*
X4654Y58509*
X46552Y58524*
X46561Y58541*
X46567Y58559*
X46569Y58579*
X46567Y58598*
X46561Y58617*
X46552Y58634*
X4654Y58649*
X46525Y58661*
X4651Y58669*
X46512Y58674*
X46645*
X46682Y58636*
X4668Y58631*
X4667Y58633*
X46656Y58631*
X46643Y58625*
X46632Y58617*
X46623Y58606*
X46618Y58593*
X46616Y58579*
X46618Y58565*
X46623Y58552*
X4662Y58548*
X46606Y58547*
X46593Y58543*
X46581Y58537*
X46571Y58528*
X46562Y58517*
X46556Y58505*
X46552Y58492*
X4655Y58479*
X46552Y58465*
X46556Y58452*
X46562Y5844*
X46571Y5843*
X46581Y58421*
X46593Y58415*
X46606Y58411*
X4662Y58409*
X46634Y58411*
X46647Y58415*
X46659Y58421*
X46669Y5843*
X46678Y5844*
X46684Y58452*
X46688Y58465*
X4669Y58479*
X46688Y58492*
X46684Y58505*
X46678Y58517*
X46675Y58521*
X46677Y58526*
X46684Y58527*
X46697Y58532*
X46698Y58533*
X46703Y58531*
Y58424*
X46653Y58374*
X46574*
X46573Y58375*
X46565Y58378*
X46557Y58379*
X46548Y58378*
X46541Y58375*
X46534Y5837*
X46529Y58363*
X46526Y58355*
X46525Y58347*
X46526Y58339*
X46522Y58335*
X4643*
X46428Y5834*
X46434Y58352*
X46438Y58365*
X4644Y58379*
X46438Y58392*
X46434Y58405*
X46428Y58417*
X46419Y58428*
X46409Y58437*
X46397Y58443*
X46393Y58444*
X46391Y58449*
X46387Y58455*
X4636Y58481*
Y58604*
X46359Y58611*
X46357Y58617*
X46352Y58623*
X46313Y58662*
X46315Y58667*
X46322*
Y58736*
X46327Y58738*
X46383Y58681*
G37*
G36*
X51567Y58613D02*
X51562Y58612D01*
X51558Y58617*
X51547Y58625*
X51534Y58631*
X5152Y58633*
X51506Y58631*
X51493Y58625*
X51482Y58617*
X51473Y58606*
X51471Y586*
X51466Y58601*
Y58642*
X51491Y58667*
X51567*
Y58613*
G37*
G36*
X53258Y59804D02*
X53259Y59797D01*
X53262Y59791*
X53266Y59785*
X53298Y59753*
X53303Y59749*
X5331Y59746*
X53317*
X53333*
X53342Y59736*
X5334Y59732*
X53332Y59731*
X53324Y59727*
X53317Y59722*
X53312Y59715*
X53309Y59708*
X53308Y59699*
X53309Y59691*
X53312Y59684*
X53308Y59682*
X53254Y59736*
X53248Y5974*
X53246Y59741*
Y5981*
X53258*
Y59804*
G37*
G36*
X44809Y5864D02*
Y58622D01*
X44804Y5862*
X44797Y58625*
X44784Y58631*
X4477Y58633*
X44756Y58631*
X44743Y58625*
X44732Y58617*
X44723Y58606*
X4472Y58598*
X44715Y58599*
Y58667*
X44782*
X44809Y5864*
G37*
G36*
X53428Y59897D02*
X53427Y59892D01*
X53425Y59879*
X53427Y59865*
X53431Y59852*
X53437Y5984*
X53446Y5983*
X53456Y59821*
X53468Y59815*
X53471Y59814*
Y59809*
X53464Y59806*
X53454Y59798*
X53453Y59797*
X53448*
X53438Y59807*
Y59808*
X53435Y59816*
X5343Y59823*
X53423Y59828*
X53415Y59831*
X53407Y59832*
X53399Y59831*
X53391Y59828*
X53386Y5983*
Y59897*
X5339Y59901*
X53425*
X53428Y59897*
G37*
G36*
X53176Y58916D02*
X53181Y58912D01*
X53188Y58909*
X53189*
X53195Y58908*
X53252*
X53295Y58866*
X53293Y58861*
X53283*
Y58798*
Y58791*
X53278Y58789*
X53269Y58798*
X53263Y58802*
X53257Y58805*
X5325Y58806*
X53217*
X53211Y58814*
X53201Y58822*
X53189Y58827*
X53179Y58828*
X53177Y58833*
X53181Y58838*
X53184Y58846*
X53185Y58854*
X53184Y58863*
X53181Y58871*
X53176Y58877*
X53169Y58882*
X53161Y58886*
X53153Y58887*
X53145Y58886*
X53138Y58883*
X53072*
X53065Y58882*
X53058Y58879*
X53053Y58875*
X53003Y58825*
X52998Y58826*
Y5883*
Y58872*
X52979*
Y58878*
X53076Y58975*
X53081Y58981*
X53082Y58984*
X53083Y58988*
X53084Y58995*
Y59001*
X53089Y59003*
X53176Y58916*
G37*
G36*
X4715Y60365D02*
Y60215D01*
X47135*
Y60165*
X47105Y60134*
X471Y60128*
X47097Y60122*
Y60115*
Y6001*
X47092Y60007*
X4709Y60008*
X47081Y6001*
X47074Y60009*
X4707Y60012*
Y60352*
X47069Y60359*
X47068Y60363*
X47067Y60366*
X47062Y60371*
X46972Y60462*
X46974Y60466*
X47049*
X4715Y60365*
G37*
G36*
X45622Y58946D02*
X45581Y58905D01*
X45577Y589*
X45574Y58893*
X45573Y58886*
Y58754*
X45574Y58747*
X45577Y5874*
X45581Y58735*
X45642Y58673*
X45648Y58669*
X45654Y58666*
X45661*
X45663*
X45665Y58661*
X4565Y58649*
X45638Y58634*
X45629Y58617*
X45623Y58598*
X45621Y58579*
X45623Y58559*
X45629Y58541*
X45638Y58524*
X4565Y58509*
X45665Y58497*
X45682Y58487*
X45701Y58482*
X4572Y5848*
X45739Y58482*
X45758Y58487*
X45775Y58497*
X4579Y58509*
X45802Y58524*
X45811Y58541*
X45817Y58559*
X45819Y58579*
X45817Y58598*
X45811Y58617*
X45802Y58634*
X4579Y58649*
X45775Y58661*
X45777Y58666*
X45898*
X45927Y58637*
X45924Y58632*
X4592Y58633*
X45906Y58631*
X45893Y58625*
X45882Y58617*
X45873Y58606*
X45868Y58593*
X45866Y58579*
X45868Y58565*
X45873Y58552*
X4587Y58548*
X45856Y58547*
X45843Y58543*
X45831Y58537*
X45821Y58528*
X45812Y58517*
X45806Y58505*
X45802Y58492*
X458Y58479*
X45802Y58465*
X45806Y58452*
X45812Y5844*
X45821Y5843*
X45831Y58421*
X45843Y58415*
X45856Y58411*
X4587Y58409*
X45884Y58411*
X45897Y58415*
X45909Y58421*
X45919Y5843*
X45928Y5844*
X45934Y58452*
X45938Y58465*
X4594Y58479*
X45938Y58492*
X45934Y58505*
X45928Y58517*
X45925Y58521*
X45927Y58526*
X45934Y58527*
X45947Y58532*
X45958Y58541*
X45963Y58539*
Y5837*
X45962Y58369*
X45959Y58361*
X45958Y58353*
X45959Y58345*
X45961Y5834*
X45958Y58335*
X4568*
X45678Y5834*
X45684Y58352*
X45688Y58365*
X4569Y58379*
X45688Y58392*
X45684Y58405*
X45678Y58417*
X45669Y58428*
X45659Y58437*
X45647Y58443*
X45634Y58447*
X45628Y58448*
X45608Y58467*
Y58613*
X45607Y58619*
Y5862*
X45605Y58626*
X456Y58632*
X45565Y58667*
Y58762*
X45492*
Y58939*
X45574Y59022*
X45622*
Y58946*
G37*
G36*
X52092Y58773D02*
Y58657D01*
X52087Y58655*
X52031Y58711*
X52025Y58715*
X5202Y58718*
X52021Y58723*
X52033*
Y58786*
Y58798*
X52066*
X52092Y58773*
G37*
G36*
X51859Y58743D02*
X51865Y58739D01*
X51872Y58736*
X51879Y58735*
X51941*
Y58723*
X51938Y58719*
X51769*
X51763Y58725*
X51765Y58729*
X5177*
X51783Y5873*
X51795Y58735*
X51805Y58743*
X51808Y58747*
X51855*
X51859Y58743*
G37*
G36*
X50818Y5866D02*
Y58612D01*
X50813Y5861*
X50808Y58617*
X50797Y58625*
X50784Y58631*
X5077Y58633*
X50756Y58631*
X50743Y58625*
X50732Y58617*
X50723Y58606*
X50718Y58593*
X50717Y58587*
X50712*
Y58639*
X50713Y5864*
X50716Y58648*
Y58649*
X50734Y58667*
X50811*
X50818Y5866*
G37*
G36*
X44516Y60392D02*
Y60391D01*
X44515Y60382*
X44516Y60374*
X44519Y60366*
X44524Y60359*
X44531Y60354*
X44539Y60351*
X44547Y6035*
X44555Y60351*
X44563Y60354*
X44564Y60355*
X44588*
X44607Y60336*
Y6029*
Y60289*
X44585*
X44577Y60297*
X44572Y60301*
X44565Y60304*
X44558Y60305*
X44498*
X4449Y60314*
X4448Y60322*
X44468Y60327*
X44455Y60329*
X44442Y60327*
X4443Y60322*
X4442Y60314*
X44412Y60304*
X44407Y60292*
X44405Y60279*
X44407Y60266*
X44412Y60254*
X4442Y60243*
X4443Y60235*
X44442Y6023*
X44455Y60229*
X44468Y6023*
X4448Y60235*
X4449Y60243*
X44495Y6025*
X44547*
X44555Y60242*
X44561Y60238*
X44567Y60235*
X44574Y60234*
X44607*
Y60227*
X44686*
Y59854*
X44687Y59847*
X44689Y5984*
X44694Y59834*
X44738Y5979*
X44677Y5973*
X44523*
Y59748*
X44381*
Y59657*
X44385*
Y59573*
X44384Y59572*
X44381Y59564*
X4438Y59558*
X44375*
Y59609*
X44374Y59616*
X44371Y59623*
X44367Y59628*
X44164Y59831*
Y60037*
X44169Y60039*
X44178Y60032*
X44191Y60027*
X44205Y60025*
X44219Y60027*
X44232Y60032*
X44243Y60041*
X44251Y60051*
X44256Y60049*
Y59994*
X44257Y59987*
X44259Y5998*
X44264Y59975*
X44281Y59957*
Y59944*
X44278Y59943*
X44266Y59937*
X44256Y59928*
X44247Y59917*
X44241Y59905*
X44237Y59892*
X44235Y59879*
X44237Y59865*
X44241Y59852*
X44247Y5984*
X44256Y5983*
X44266Y59821*
X44278Y59815*
X44291Y59811*
X44305Y59809*
X44319Y59811*
X44332Y59815*
X44344Y59821*
X44354Y5983*
X44363Y5984*
X44369Y59852*
X44373Y59865*
X44375Y59879*
X44373Y59892*
X44369Y59905*
X44363Y59917*
X44354Y59928*
X44344Y59937*
X44335Y59941*
Y59969*
Y59976*
X44332Y59982*
X44327Y59988*
X4431Y60005*
Y60037*
X44315Y60038*
X44323Y60024*
X44335Y60009*
X4435Y59997*
X44367Y59987*
X44386Y59982*
X44405Y5998*
X44424Y59982*
X44443Y59987*
X4446Y59997*
X44475Y60009*
X44487Y60024*
X44496Y60041*
X44502Y60059*
X44504Y60079*
X44502Y60098*
X44496Y60117*
X44487Y60134*
X44475Y60149*
X4446Y60161*
X44443Y6017*
X44424Y60176*
X44405Y60178*
X44386Y60176*
X44367Y6017*
X4435Y60161*
X44335Y60149*
X44323Y60134*
X44314Y60117*
X44313Y60115*
X44308*
X44307Y60119*
X44302Y60124*
X44262Y60165*
Y60215*
X44188*
Y60349*
X44187Y60356*
X44185Y60363*
X4418Y60368*
X44168Y60381*
X44167Y60388*
X44165Y60392*
X44168Y60396*
X44514*
X44516Y60392*
G37*
G36*
X53518Y59129D02*
D01*
X5352Y59115*
X53524Y59102*
X5353Y5909*
X53539Y5908*
X53549Y59071*
X53561Y59065*
X53574Y59061*
X53588Y59059*
X53602Y59061*
X53607Y59062*
X5361Y59058*
X53597Y59046*
X53526*
X5348Y59092*
Y59097*
X53514Y59131*
X53518Y59129*
G37*
G36*
X48771Y59233D02*
Y59193D01*
X48623Y59045*
X48594*
X48592Y5905*
X48649Y59107*
X4865*
X48658Y5911*
X48664Y59115*
X48669Y59122*
X48673Y5913*
Y59131*
X48758Y59216*
X48763Y59222*
X48765Y59229*
Y5923*
X48766Y59233*
X48771*
G37*
G36*
X44118Y59576D02*
Y59477D01*
X44136*
Y59387*
X44137Y5938*
X4414Y59374*
X44144Y59368*
X44224Y59288*
Y59094*
X44225Y59087*
X44227Y59081*
X44224Y59077*
X4413*
X44099Y59108*
Y59564*
X44113Y59578*
X44118Y59576*
G37*
G36*
X52042Y58622D02*
Y58237D01*
X51872Y58068*
X51871*
Y58029*
X51861*
Y58071*
X51815Y58117*
X51809Y58122*
X51802Y58125*
X51795Y58126*
X51748*
X51741Y58125*
X51734Y58122*
X51728Y58117*
X51679Y58068*
X51677*
Y58029*
Y5799*
X51683*
X51692Y57994*
X517Y58001*
X51707Y58009*
X51711Y58018*
Y58019*
X51715Y58022*
X51717Y58021*
Y58016*
X51722Y58004*
X5173Y57993*
X51741Y57985*
X51753Y5798*
X51766Y57979*
X51769*
X51771*
X51813Y57937*
X51818Y57933*
X51819Y57932*
X51818Y57927*
X51816Y57928*
X51796Y57926*
X51778Y5792*
X51769Y57915*
X5176Y5792*
X51741Y57926*
X51722Y57928*
X51703Y57926*
X51684Y5792*
X51667Y57911*
X51652Y57899*
X5164Y57884*
X51637Y57878*
X5163Y57881*
X51616Y57883*
X51602Y57881*
X51589Y57875*
X51578Y57867*
X51571Y57859*
X51566*
X5156Y57867*
X51549Y57875*
X51536Y57881*
X51522Y57883*
X51508Y57881*
X51495Y57875*
X51484Y57867*
X51476Y57856*
X51473Y57849*
X51468Y5785*
Y5789*
X51556Y57978*
X5156Y57984*
X51563Y5799*
X51564Y57997*
Y58014*
X51576*
Y58109*
X51503*
Y58295*
Y58301*
X51502Y58302*
X515Y58309*
X51495Y58314*
X5147Y58339*
Y58341*
X51467Y58348*
X51466Y58349*
Y58556*
X51471Y58557*
X51473Y58552*
X51482Y58541*
X51493Y58532*
X51506Y58527*
X5152Y58525*
X51534Y58527*
X51547Y58532*
X51558Y58541*
X51562Y58546*
X51567Y58544*
Y58526*
X51568Y58519*
X5157Y58512*
X51575Y58506*
X51602Y58479*
Y58446*
X51593Y58443*
X51581Y58437*
X51571Y58428*
X51562Y58417*
X51556Y58405*
X51552Y58392*
X5155Y58379*
X51552Y58365*
X51556Y58352*
X51562Y5834*
X51571Y5833*
X51581Y58321*
X51593Y58315*
X51606Y58311*
X5162Y58309*
X51634Y58311*
X51647Y58315*
X51659Y58321*
X51669Y5833*
X51678Y5834*
X51684Y58352*
X51688Y58365*
X5169Y58379*
X51688Y58392*
X51684Y58405*
X51678Y58417*
X51669Y58428*
X51659Y58437*
X51657*
Y5849*
X51656Y58497*
Y58498*
X5166Y58501*
X51665Y58497*
X51682Y58487*
X51701Y58482*
X5172Y5848*
X51739Y58482*
X51758Y58487*
X51775Y58497*
X5179Y58509*
X51802Y58524*
X51811Y58541*
X51817Y58559*
X51819Y58579*
X51817Y58598*
X51811Y58617*
X51802Y58634*
X5179Y58649*
X51777Y58659*
X51779Y58664*
X52*
X52042Y58622*
G37*
G36*
X52532Y59253D02*
Y59162D01*
X52417Y59047*
X52325*
X52323Y59051*
X52527Y59255*
X52532Y59253*
G37*
G36*
X44525Y58871D02*
X44524Y58866D01*
X44521Y58865*
X44514Y5886*
X44509Y58853*
X44496*
Y58865*
X44457*
X44405Y58917*
X44407Y58922*
X44474*
X44525Y58871*
G37*
G36*
X43759Y58806D02*
X43758Y58804D01*
X43753Y58792*
X43751Y58779*
X43753Y58766*
X43758Y58754*
X43766Y58743*
X43772Y58738*
X43771Y58733*
X43456*
X43454Y58738*
X43461Y58743*
X43469Y58754*
X43474Y58766*
X43476Y58779*
X43474Y58792*
X43473Y58796*
X43509Y58832*
X43523*
Y58819*
X43614*
Y58832*
X43734*
X43759Y58806*
G37*
G36*
X47364Y59085D02*
X47562Y58888D01*
Y58111*
X47548*
Y58091*
X47541*
X47412Y58219*
X47407Y58223*
X474Y58226*
X47393Y58227*
X47191*
X47184Y58226*
X47177Y58223*
X47172Y58219*
X47162Y58209*
X47157Y58211*
X47158Y58218*
X47157Y58226*
X47154Y58234*
X47149Y58241*
X47142Y58246*
X47134Y58249*
X46973Y5841*
Y58456*
X46974Y58457*
X46977Y58465*
X46978Y58473*
X46977Y58481*
X46974Y58489*
X46968Y58496*
X46962Y58501*
X46954Y58504*
X46946Y58505*
X46937Y58504*
X46929Y58501*
X46925Y58503*
Y58747*
X46929Y5875*
X46932Y58748*
Y58667*
X47041*
X47072Y58636*
Y58606*
X47067Y58605*
Y58606*
X47058Y58617*
X47047Y58625*
X47034Y58631*
X4702Y58633*
X47006Y58631*
X46993Y58625*
X46982Y58617*
X46973Y58606*
X46968Y58593*
X46966Y58579*
X46968Y58565*
X46973Y58552*
X46982Y58541*
X46993Y58532*
X47006Y58527*
X4702Y58525*
X47034Y58527*
X47047Y58532*
X47058Y58541*
X47067Y58552*
X47072Y58551*
Y58494*
X47073Y58487*
X47075Y5848*
X4708Y58475*
X47094Y5846*
Y58443*
X47093*
X47081Y58437*
X47071Y58428*
X47062Y58417*
X47056Y58405*
X47052Y58392*
X4705Y58379*
X47052Y58365*
X47056Y58352*
X47062Y5834*
X47071Y5833*
X47081Y58321*
X47093Y58315*
X47106Y58311*
X4712Y58309*
X47134Y58311*
X47147Y58315*
X47159Y58321*
X47169Y5833*
X47178Y5834*
X47184Y58352*
X47188Y58365*
X4719Y58379*
X47188Y58392*
X47184Y58405*
X47178Y58417*
X47169Y58428*
X47159Y58437*
X47148Y58442*
Y58472*
Y58479*
X47145Y58485*
X4714Y58491*
X47126Y58505*
Y58535*
X47131Y58536*
X47138Y58524*
X4715Y58509*
X47165Y58497*
X47182Y58487*
X47201Y58482*
X4722Y5848*
X47239Y58482*
X47258Y58487*
X47275Y58497*
X4729Y58509*
X47302Y58524*
X47311Y58541*
X47317Y58559*
X47319Y58579*
X47317Y58598*
X47311Y58617*
X47302Y58634*
X4729Y58649*
X47275Y58661*
X47258Y5867*
X47239Y58676*
X4722Y58678*
X47201Y58676*
X47182Y5867*
X47165Y58661*
X4715Y58649*
X47138Y58634*
X47131Y58621*
X47126Y58622*
Y58647*
X47125Y58654*
X47123Y58661*
X47118Y58667*
X47074Y58711*
Y58762*
X47*
Y58774*
X47049Y58823*
X47085*
X47092Y58824*
X47099Y58826*
X47105Y58831*
X47359Y59085*
X47364*
G37*
G36*
X47173Y59644D02*
Y59601D01*
X47169Y59599*
X47168*
X47161Y596*
X47146*
Y59612*
X47099*
X47028Y59683*
Y59783*
X47033Y59784*
X47173Y59644*
G37*
G36*
X53472Y58929D02*
X53477Y58925D01*
X5348Y58924*
X53484Y58922*
X53491Y58921*
X53543*
X53545Y58916*
X53538Y58911*
X53528Y58899*
X53521Y58885*
X53516Y5887*
X53515Y58854*
X53516Y58839*
X53521Y58823*
X53523Y5882*
X53516Y58814*
X53508Y58804*
X53503Y58792*
X53501Y58779*
X53502Y58769*
X5349Y58756*
X53486Y58759*
X5349Y58768*
Y58774*
X53412*
Y58768*
X53416Y58759*
X53423Y58751*
X53431Y58744*
X5344Y5874*
X53439Y58735*
X5339*
X53374Y58751*
Y58782*
Y58861*
X53356*
Y58871*
X53355Y58878*
X53352Y58884*
X53348Y5889*
X53283Y58955*
X53277Y58959*
X53271Y58962*
X53264Y58963*
X53206*
X53183Y58986*
X53185Y5899*
X53191*
X53359*
X53366*
X53372Y58993*
X53378Y58997*
X53391Y5901*
X53472Y58929*
G37*
G36*
X51746Y59291D02*
Y59241D01*
X51356Y58851*
X51351Y58845*
X51349Y58838*
X51348Y58831*
Y57882*
X51222Y57756*
X51201*
X51195Y57767*
X51192Y57771*
X51194Y57776*
X51201Y57777*
X51214Y57782*
X51225Y57791*
X51234Y57802*
X51239Y57815*
X51241Y57829*
X51239Y57843*
X51234Y57856*
X51225Y57867*
X51214Y57875*
X51201Y57881*
X51187Y57883*
X51173Y57881*
X5116Y57875*
X51149Y57867*
X5114Y57856*
X51137Y57849*
X51132*
X51129Y57856*
X51121Y57867*
X5111Y57875*
X51097Y57881*
X51083Y57883*
X51071Y57881*
X51069Y57884*
X51057Y57899*
X51042Y57911*
X51025Y5792*
X51006Y57926*
X50987Y57928*
X50968Y57926*
X50949Y5792*
X50935Y57912*
X5092Y5792*
X50902Y57926*
X50883Y57928*
X50863Y57926*
X50845Y5792*
X50828Y57911*
X50813Y57899*
X508Y57884*
X50799Y57881*
X50787Y57883*
X50773Y57881*
X5076Y57875*
X50749Y57867*
X5074Y57856*
X50737Y57849*
X50732*
X50729Y57856*
X50721Y57867*
X5071Y57875*
X50697Y57881*
X50683Y57883*
X50669Y57881*
X50656Y57875*
X50645Y57867*
X50638Y57858*
X50633Y5786*
Y57947*
X50632Y57954*
X5063Y5796*
X50625Y57966*
X50613Y57979*
Y58042*
X50627*
Y58137*
X50554*
Y58225*
X50635Y58306*
X50704Y58375*
X50708Y58381*
X50711Y58387*
Y58388*
X50712Y58394*
Y5857*
X50717Y58571*
X50718Y58565*
X50723Y58552*
X50732Y58541*
X50743Y58532*
X50756Y58527*
X5077Y58525*
X50784Y58527*
X50797Y58532*
X50808Y58541*
X50813Y58547*
X50818Y58545*
Y58518*
X50819Y58511*
X50821Y58504*
X50826Y58498*
X50843Y58481*
Y58443*
X50831Y58437*
X50821Y58428*
X50812Y58417*
X50806Y58405*
X50802Y58392*
X508Y58379*
X50802Y58365*
X50806Y58352*
X50812Y5834*
X50821Y5833*
X50831Y58321*
X50843Y58315*
X50856Y58311*
X5087Y58309*
X50884Y58311*
X50897Y58315*
X50909Y58321*
X50919Y5833*
X50928Y5834*
X50934Y58352*
X50938Y58365*
X5094Y58379*
X50938Y58392*
X50934Y58405*
X50928Y58417*
X50919Y58428*
X50909Y58437*
X50897Y58443*
Y58493*
X50896Y58499*
Y585*
X50894Y58506*
X50889Y58512*
X50872Y58529*
Y58545*
X50877Y58546*
X50879Y58541*
X50888Y58524*
X509Y58509*
X50915Y58497*
X50932Y58487*
X50951Y58482*
X5097Y5848*
X50989Y58482*
X51008Y58487*
X51025Y58497*
X5104Y58509*
X51052Y58524*
X51061Y58541*
X51067Y58559*
X51069Y58579*
X51067Y58598*
X51061Y58617*
X51052Y58634*
X5104Y58649*
X51026Y5866*
X51028Y58665*
X5121*
X51235Y58639*
Y58246*
X51145Y58155*
X51042*
X51035Y58154*
X51031Y58152*
X51028Y58151*
X51022Y58147*
X50943Y58068*
X50942*
Y58029*
X50937*
Y58024*
X50893*
X50894Y58018*
X50898Y58009*
X50904Y58001*
X50913Y57994*
X5092Y57991*
X50919Y57986*
X50907*
X5088Y58014*
X50881Y58016*
X50883Y58029*
X50881Y58042*
X50876Y58054*
X50868Y58064*
X50858Y58072*
X50854Y58074*
X50852Y58079*
X50863Y58092*
X50872Y58109*
X50878Y58127*
X5088Y58147*
X50878Y58166*
X50872Y58184*
X50863Y58202*
X50851Y58217*
X50836Y58229*
X50819Y58238*
X508Y58244*
X50781Y58246*
X50762Y58244*
X50743Y58238*
X50726Y58229*
X50711Y58217*
X50699Y58202*
X50689Y58184*
X50684Y58166*
X50682Y58147*
X50684Y58127*
X50689Y58109*
X50699Y58092*
X50711Y58077*
X50726Y58064*
X50743Y58055*
X50762Y5805*
X50781Y58048*
X50782*
X50785Y58044*
X50784Y58042*
X50783Y58029*
X50784Y58016*
X50789Y58004*
X50797Y57993*
X50808Y57985*
X5082Y5798*
X50833Y57979*
X50837*
X50877Y5794*
X50882Y57936*
X50889Y57933*
X50896Y57932*
X50974*
X50981Y57933*
X50987Y57936*
X50993Y5794*
X51032Y57979*
X51037*
X51041*
X51079Y57942*
X51085Y57938*
X51091Y57935*
X51098Y57934*
X51171*
X51178Y57935*
X51185Y57938*
X5119Y57942*
X51215Y57967*
X51262*
Y5803*
Y58109*
X51246*
X51244Y58114*
X51329Y58199*
X51334Y58205*
X51336Y58211*
Y58212*
X51337Y58218*
Y58802*
X51336Y58809*
X51334Y58816*
X51329Y58822*
X51306Y58845*
X51301Y58849*
X51294Y58852*
X51287Y58853*
X51277*
Y58865*
X51258*
Y5888*
X51279Y589*
X51338*
X51345Y58901*
X51352Y58904*
X51358Y58908*
X51737Y59288*
X51741Y59293*
X51746Y59291*
G37*
G36*
X46416Y57945D02*
X46415Y57939D01*
X46416Y5793*
X4642Y57922*
X46425Y57916*
X46431Y57911*
X46439Y57907*
X4644*
X4646Y57887*
X46466Y57883*
X46472Y5788*
X46473*
X46479Y57879*
X46541*
Y57848*
Y57816*
Y57785*
Y57777*
X46524*
Y57801*
X46523Y57808*
X46521Y57814*
X46516Y5782*
X46511Y57824*
X46504Y57827*
X46502*
Y57801*
X46492*
Y57827*
X4649*
X46483Y57824*
X46478Y5782*
X46473Y57814*
X46471Y57808*
X4647Y57801*
Y57765*
X46461*
Y57761*
X46346*
Y57882*
X46412Y57947*
X46416Y57945*
G37*
G36*
X46845Y57884D02*
Y57878D01*
X46848Y57872*
X46853Y57866*
X46858Y57862*
X46865Y57859*
X46867*
Y57885*
X46877*
Y57859*
X46879*
X46885Y57862*
X46891Y57866*
X46892Y57867*
X46897*
X46898Y57864*
X46899Y57863*
X46904Y57857*
X46902Y57854*
X46895Y57849*
X4689Y57842*
X46887Y57835*
X46886Y57826*
X46887Y57818*
X4689Y5781*
X46895Y57803*
X46902Y57798*
X46903Y57795*
X46902Y5779*
X46901Y57788*
X46897Y57786*
X46828Y57854*
Y57885*
X46831*
X46839Y57886*
X4684Y57887*
X46845Y57884*
G37*
G36*
X46774Y57843D02*
X46775Y57836D01*
X46777Y57829*
X46782Y57824*
X46885Y5772*
X46883Y57716*
X46827*
Y57735*
X46828Y57744*
X46827Y57752*
X46824Y5776*
X46819Y57766*
X46812Y57772*
X46804Y57775*
X46796Y57776*
X46788Y57775*
X46786Y57774*
X46783Y57776*
X46782Y57781*
X46783Y57782*
X46786Y57789*
X46787Y57798*
X46786Y57806*
X46783Y57814*
X46778Y57821*
X46771Y57826*
X46763Y57829*
X46755Y5783*
X4675Y57829*
X46749Y57831*
X46747Y57834*
X4675Y57842*
X46752Y5785*
X4675Y57858*
X46747Y57866*
X46742Y57873*
X46735Y57878*
X46729Y5788*
X4673Y57885*
X46774*
Y57843*
G37*
G36*
X51476Y57802D02*
X51484Y57791D01*
X51495Y57782*
X51508Y57777*
X51522Y57775*
X51536Y57777*
X51549Y57782*
X5156Y57791*
X51566Y57799*
X51571*
X51578Y57791*
X51589Y57782*
X51602Y57777*
X51616Y57775*
X5163Y57777*
X51637Y5778*
X5164Y57774*
X51652Y57759*
X51667Y57747*
X51684Y57737*
X51703Y57732*
X51722Y5773*
X51741Y57732*
X5176Y57737*
X51769Y57742*
X51778Y57737*
X51796Y57732*
X518Y57731*
X51803Y57729*
X51804Y57715*
X51808Y57702*
X51799Y57697*
X51796*
X51783Y57693*
X51771Y57687*
X51762Y5768*
X51754Y57687*
X51742Y57693*
X51729Y57697*
X51716Y57698*
X51702Y57697*
X51689Y57693*
X51677Y57687*
X51669Y5768*
X51661Y57687*
X51649Y57693*
X51636Y57697*
X51622Y57698*
X51609Y57697*
X51596Y57693*
X51584Y57687*
X51573Y57678*
X51564Y57667*
X51558Y57655*
X51556Y5765*
X51515*
X51468Y57697*
Y57807*
X51473Y57808*
X51476Y57802*
G37*
G36*
X49707Y57916D02*
Y57692D01*
X49702Y5769*
X49698Y57693*
X49688Y57698*
X49677Y57702*
X49665Y57703*
X49653Y57702*
X49642Y57698*
X49632Y57693*
X49622Y57685*
X49615Y57676*
X49612Y57671*
X49607Y5767*
X49601Y57678*
X49593Y57685*
Y57896*
X49592Y57903*
X4959Y57907*
X49589Y5791*
X49585Y57915*
X49449Y58051*
Y58077*
X49453Y58081*
X49543*
X49707Y57916*
G37*
G36*
X53473Y59387D02*
X53483D01*
Y59382*
X53474Y59381*
X53461Y59375*
X5345Y59367*
X53441Y59356*
X53436Y59343*
X53434Y59329*
X53435Y59324*
X53431Y59321*
X53429Y59322*
X53415Y59323*
X53412Y59327*
Y59328*
X5341Y59348*
X53404Y59366*
X53395Y59383*
X53383Y59398*
X53378Y59403*
X53379Y59407*
X53473*
Y59387*
G37*
G36*
X53963Y61103D02*
Y61032D01*
Y61001*
X53962Y61*
X539*
X53882Y61019*
Y61025*
X53894Y61026*
X53909Y61031*
X53923Y61038*
X53935Y61048*
X53945Y6106*
X53952Y61074*
X53957Y61089*
X53958Y61103*
X53963*
G37*
G36*
X4751Y58044D02*
X47516Y5804D01*
X47522Y58037*
X47529Y58036*
X47548*
Y58016*
X47657*
X4767Y58003*
X47676Y57999*
X47682Y57996*
X4769Y57995*
X47819*
X47825Y57984*
X47834Y57974*
X47844Y57965*
X47856Y57959*
X47858Y57954*
X47856Y57949*
X47852Y57936*
X4785Y57923*
X47852Y57909*
X47856Y57897*
X47852Y57894*
X47851*
X47838Y57905*
X47821Y57914*
X47802Y5792*
X47783Y57922*
X47764Y5792*
X47745Y57914*
X47728Y57905*
X47713Y57893*
X47701Y57878*
X47692Y57861*
X47686Y57842*
X47684Y57823*
X47686Y57803*
X47692Y57785*
X47701Y57768*
X47713Y57753*
X47728Y57741*
X47745Y57731*
X47764Y57726*
X47783Y57724*
X47802Y57726*
X47821Y57731*
X47838Y57741*
X47853Y57753*
X47865Y57768*
X47866Y57769*
X4787*
X47884Y57771*
X47897Y57776*
X47908Y57785*
X47917Y57796*
X47922Y57809*
X47924Y57823*
X47922Y57837*
X47917Y57849*
X4792Y57853*
X47934Y57855*
X47937Y57851*
X47936Y5785*
X47931Y57837*
X47929Y57823*
X47931Y57809*
X47936Y57796*
X47945Y57785*
X47956Y57776*
X47969Y57771*
X47983Y57769*
X47987*
X47988Y57768*
X48Y57753*
X48015Y57741*
X48032Y57731*
X48051Y57726*
X4807Y57724*
X48089Y57726*
X48108Y57731*
X48125Y57741*
X4814Y57753*
X48152Y57768*
X48161Y57785*
X48167Y57803*
X48169Y57823*
X48167Y57842*
X48161Y57861*
X48152Y57878*
X4814Y57893*
X48125Y57905*
X48108Y57914*
X48089Y5792*
X4807Y57922*
X48051Y5792*
X48032Y57914*
X48015Y57905*
X48Y57893*
X47988Y57878*
X47987Y57876*
X47983Y57877*
X47977Y57876*
X47975Y5788*
X47978Y57884*
X47984Y57896*
X47988Y57909*
X4799Y57923*
X47988Y57936*
X47984Y57949*
X47978Y57961*
X47969Y57972*
X47959Y57981*
X47947Y57987*
X47945Y57991*
X47948Y57995*
X48106*
X48112Y57984*
X48121Y57974*
X48131Y57965*
X48143Y57959*
X48156Y57955*
X4817Y57953*
X48184Y57955*
X48197Y57959*
X48209Y57965*
X48219Y57974*
X48228Y57984*
X48234Y57995*
X4837*
Y5799*
X48359Y57987*
X48347Y5798*
X48336Y57972*
X48327Y57961*
X48321Y57949*
X48317Y57936*
X48316Y57922*
X48317Y57909*
X48321Y57896*
X48327Y57884*
X4833Y5788*
X48329Y57875*
X48321Y57874*
X48308Y57869*
X48303Y57865*
X48297Y57869*
X48284Y57875*
X4827Y57877*
X48256Y57875*
X48243Y57869*
X48232Y57861*
X48223Y5785*
X48218Y57837*
X48216Y57823*
X48218Y57809*
X48223Y57796*
X48232Y57785*
X48243Y57776*
X48256Y57771*
X4827Y57769*
X48284Y57771*
X48297Y57776*
X48302Y5778*
X48308Y57776*
X48321Y5777*
X48335Y57768*
X48349Y5777*
X48362Y57776*
X48373Y57784*
X48382Y57795*
X48387Y57808*
X48389Y57822*
X48387Y57836*
X48382Y57849*
X48385Y57853*
X48399Y57854*
X48412Y57858*
X48424Y57865*
X48434Y57873*
X48443Y57884*
X48449Y57896*
X48453Y57909*
X48455Y57922*
X48453Y57936*
X48449Y57949*
X48443Y57961*
X48434Y57972*
X48424Y5798*
X48412Y57987*
X484Y5799*
X48401Y57995*
X48571*
X48577Y57984*
X48586Y57973*
X48597Y57965*
X48609Y57958*
X48622Y57954*
X48635Y57953*
X48649Y57954*
X48662Y57958*
X48674Y57965*
X48684Y57973*
X48693Y57984*
X48699Y57996*
X48703Y58009*
X48705Y58022*
X48709Y58024*
X48783Y5795*
Y57856*
X48778Y57854*
X48773Y5786*
X48762Y57869*
X48749Y57874*
X48735Y57876*
X48721Y57874*
X48708Y57869*
X48697Y5786*
X48688Y57849*
X48683Y57836*
X48681Y57822*
X48683Y57808*
X48688Y57795*
X48697Y57784*
X48708Y57776*
X48721Y5777*
X48735Y57768*
X48749Y5777*
X48762Y57776*
X48773Y57784*
X48778Y5779*
X48783Y57789*
Y57723*
X48747Y57687*
X487*
Y57611*
X48691*
X48684Y5761*
X48677Y57608*
X48671Y57603*
X48642Y57574*
X48572*
X48562Y57584*
X48565Y57588*
X48575Y57584*
X4858Y57583*
Y57617*
X48546*
X48547Y57612*
X48551Y57602*
X48547Y57599*
X48534Y57612*
X48535Y57622*
X48533Y57635*
X48528Y57647*
X48521Y57658*
X4851Y57666*
X48498Y57671*
X48485Y57672*
X48472Y57671*
X4846Y57666*
X4845Y57658*
X48442Y57647*
X48437Y57635*
X48435Y57622*
X48437Y57612*
X48398Y57574*
X48108*
X48099Y57583*
X48102Y57587*
X4811Y57584*
X48115*
Y57618*
X48081*
Y57612*
X48085Y57605*
X48081Y57602*
X48069Y57614*
X4807Y57623*
X48068Y57636*
X48063Y57648*
X48055Y57658*
X48045Y57666*
X48033Y57671*
X4802Y57673*
X48007Y57671*
X47995Y57666*
X47985Y57658*
X47977Y57648*
X47972Y57636*
X4797Y57623*
X47972Y57611*
X47934Y57573*
X47821*
X47809Y57585*
X47812Y57589*
X47813Y57588*
X47823Y57584*
X47828*
Y57618*
X47794*
Y57612*
X47798Y57603*
X47799Y57602*
X47795Y57599*
X47782Y57612*
X47783Y57623*
X47781Y57636*
X47776Y57648*
X47768Y57658*
X47758Y57666*
X47746Y57671*
X47733Y57673*
X4772Y57671*
X47708Y57666*
X47698Y57658*
X4769Y57648*
X47685Y57636*
X47683Y57623*
X47685Y5761*
X4769Y57598*
X47698Y57587*
X47708Y57579*
X4772Y57575*
X47733Y57573*
X47743Y57574*
X47791Y57526*
X47796Y57522*
X47803Y57519*
X47804*
X4781*
X47945*
X47952*
X47959Y57522*
X47964Y57526*
X48012Y57574*
X4802Y57573*
X48031Y57574*
X48078Y57528*
X48084Y57523*
X4809Y5752*
X48097*
X4841*
X48417*
X48423Y57523*
X48429Y57528*
X48475Y57574*
X48485Y57572*
X48495Y57574*
X48542Y57527*
X48547Y57523*
X4855Y57522*
X48554Y5752*
X48561*
X48653*
X4866*
X48667Y57523*
X48673Y57527*
X48696Y57551*
X487Y57549*
Y57544*
X48791*
Y57607*
Y57654*
X48822Y57685*
X48827Y57683*
Y57581*
X48828Y57574*
X4883Y57567*
X48835Y57561*
X48879Y57518*
X48877Y57513*
X47395*
X47393Y57518*
X47457Y57582*
X47461Y57587*
X47464Y57594*
X47465Y57601*
Y57867*
X47466Y57868*
X47469Y57876*
X4747Y57884*
X47469Y57893*
X47466Y57901*
X47461Y57907*
X47454Y57912*
X47446Y57916*
X47438Y57917*
X47435Y57919*
Y57935*
X47485Y57985*
X47487*
X47494Y57988*
X47501Y57993*
X47506Y58*
X47509Y58008*
X4751Y58016*
X47509Y58025*
X47506Y58032*
X47501Y58039*
X47494Y58044*
X47487Y58047*
X47478Y58049*
X4747Y58047*
X47462Y58044*
X47455Y58039*
X4745Y58032*
X47447Y58025*
Y58023*
X4741Y57986*
X47405Y57988*
Y58094*
X47404Y58101*
X47401Y58108*
X47397Y58113*
X47346Y58164*
X47341Y58168*
X47343Y58173*
X47382*
X4751Y58044*
G37*
G36*
X45074Y59633D02*
Y59479D01*
X45059*
Y59428*
X45026Y59395*
X45025*
X45021Y59398*
Y59679*
X45026Y59681*
X45074Y59633*
G37*
G36*
X48236Y60578D02*
X48334Y6048D01*
X48339Y60476*
X48342Y60475*
X48346Y60473*
X48353Y60472*
X48583*
X4866Y60396*
Y60215*
X48645*
Y60165*
X48608Y60127*
X48603Y60121*
X48601Y60115*
X486Y60108*
Y59851*
X48601Y59844*
X48603Y59837*
X48608Y59832*
X48845Y59595*
Y59479*
X4883*
Y59456*
X48829Y59455*
X48824Y59451*
X48779Y59406*
X48774Y594*
X48772Y59394*
X48771Y5939*
X48766*
Y59505*
X48765Y59512*
X48763Y59519*
X48758Y59525*
X48689Y59594*
X48684Y59598*
X48677Y59601*
X4867Y59602*
X48657*
Y59614*
X48638*
Y5977*
X48637Y59777*
X48636Y59781*
X48635Y59784*
X4863Y59789*
X48584Y59836*
Y60232*
X48583Y60239*
X4858Y60245*
X48576Y60251*
X48479Y60349*
X48473Y60353*
X48469Y60355*
Y60369*
X48422*
X48403Y60388*
X48402Y60391*
X48399Y60399*
X48394Y60405*
X48387Y6041*
X4838Y60414*
X48377*
X48227Y60564*
Y60582*
X48229Y60583*
X48232Y60584*
X48236Y60578*
G37*
G36*
X45599Y57799D02*
Y57719D01*
X4554Y57661*
X45528*
X45527Y57666*
X45537Y57671*
X45547Y5768*
X45556Y5769*
X45562Y57702*
X45566Y57715*
X45568Y57729*
X45566Y57742*
X45562Y57755*
X45556Y57767*
X45553Y57771*
X45555Y57776*
X45562Y57777*
X45575Y57782*
X45586Y57791*
X45594Y578*
X45599Y57799*
G37*
G36*
X49023Y57707D02*
X49021Y57703D01*
X49005*
Y57585*
X48947*
X48932Y576*
Y57792*
X48937Y57793*
X49023Y57707*
G37*
G36*
X4957Y57593D02*
X49578Y57594D01*
X4959Y57599*
X49601Y57607*
X49607Y57615*
X49612*
X49615Y57609*
X49622Y576*
X49632Y57593*
X49642Y57587*
X49653Y57584*
X49665Y57582*
X49677Y57584*
X49688Y57587*
X49698Y57593*
X49702Y57596*
X49707Y57594*
Y57587*
X49633Y57513*
X49344*
X49342Y57518*
X49384Y57559*
X49389Y57565*
X49391Y57572*
X49392Y57579*
Y57589*
X49398Y57593*
X49408Y576*
X49412Y57606*
X49417*
X49422Y576*
X49432Y57593*
X49442Y57587*
X49453Y57584*
X49465Y57582*
X49477Y57584*
X49488Y57587*
X49498Y57593*
X49508Y576*
X49515Y57609*
X49518Y57615*
X49523*
X49529Y57607*
X4954Y57599*
X49552Y57594*
X4956Y57593*
Y57643*
X4957*
Y57593*
G37*
G36*
X47109Y57807D02*
X47159D01*
Y57787*
X47162*
Y57693*
X47245*
Y57703*
X47258*
Y57741*
X47268*
Y57703*
X47294*
Y57725*
X47305*
X47312Y57726*
X47318Y57729*
X47324Y57733*
X47346Y57755*
X4735Y57753*
Y57659*
X47343Y57652*
X47342*
X47334Y57649*
X47327Y57643*
X47322Y57637*
X47319Y57629*
X47318Y57621*
X47319Y57612*
X47322Y57604*
X47327Y57598*
X47334Y57593*
X47335Y57592*
X47336Y57587*
X47327Y57578*
X47263*
X4726Y57582*
Y57587*
X47259Y57595*
X47256Y57603*
X47255Y57604*
Y57624*
Y5763*
X47254Y57631*
X47252Y57637*
X47247Y57643*
X47232Y57659*
X47226Y57663*
X47219Y57666*
X47212Y57667*
X47179*
X47109Y57737*
X47103Y57741*
X47097Y57744*
X47095*
X47094Y57745*
X47095Y5775*
X47097Y57751*
X47103Y57756*
X47108Y57763*
X47112Y57771*
X47113Y57779*
X47112Y57787*
X47108Y57795*
X47103Y57802*
X47102Y57803*
X47104Y57808*
X47109Y57807*
G37*
G36*
X54058Y61187D02*
X54073Y61183D01*
X54086Y61176*
X54098Y61166*
X54107Y61155*
X54114Y61142*
X54118Y61127*
X5412Y61113*
Y61112*
Y6111*
Y59079*
X54051*
X54032Y59078*
X54014Y59073*
X53997Y59066*
X53981Y59057*
X53967Y59044*
X53954Y5903*
X53945Y59014*
X53938Y58997*
X53933Y58979*
X53932Y5896*
X53933Y58942*
X53938Y58924*
X53945Y58906*
X53954Y58891*
X53967Y58876*
X53981Y58864*
X53997Y58855*
X54014Y58847*
X54032Y58843*
X54051Y58842*
X5412*
Y57542*
Y57541*
X54119Y57528*
X54115Y57514*
X54108Y57501*
X54099Y5749*
X54088Y57481*
X54075Y57474*
X54061Y5747*
X54047Y57469*
X54046*
X50852*
X50848Y57471*
X5084Y57473*
X50831Y57471*
X50827Y57469*
X50815*
X50814Y57474*
X50825Y5748*
X50838Y5749*
X50848Y57502*
X50855Y57516*
X5086Y57531*
X50861Y57547*
X5086Y5756*
X50864Y57563*
X50873Y57561*
X50887Y57559*
X50901Y57561*
X50914Y57565*
X50926Y57571*
X50936Y5758*
X50945Y5759*
X50951Y57602*
X50955Y57615*
X50956Y57629*
X50955Y57642*
X50951Y57655*
X50945Y57667*
X50936Y57678*
X50926Y57687*
X50914Y57693*
X50901Y57697*
X50887Y57698*
X50873Y57697*
X50861Y57693*
X50827Y57727*
X50822Y57731*
X50815Y57734*
X50808Y57735*
X50694*
X50646Y57783*
X5065Y57787*
X50656Y57782*
X50669Y57777*
X50683Y57775*
X50697Y57777*
X5071Y57782*
X50721Y57791*
X50729Y57802*
X50732Y57809*
X50737*
X5074Y57802*
X50749Y57791*
X5076Y57782*
X50773Y57777*
X50787Y57775*
X50799Y57776*
X508Y57774*
X50813Y57759*
X50828Y57747*
X50845Y57737*
X50863Y57732*
X50883Y5773*
X50902Y57732*
X5092Y57737*
X50935Y57745*
X50949Y57737*
X50964Y57733*
X50963Y57729*
X50964Y57715*
X50968Y57702*
X50975Y5769*
X50983Y5768*
X50994Y57671*
X51006Y57665*
X51019Y57661*
X51033Y57659*
X51046Y57661*
X51059Y57665*
X51071Y57671*
X51082Y5768*
X51087*
X51088*
X51098Y57671*
X5111Y57665*
X51123Y57661*
X51137Y57659*
X51151Y57661*
X51164Y57665*
X51176Y57671*
X51186Y5768*
X51195Y5769*
X51201Y57702*
X51233*
X5124*
X51247Y57705*
X51253Y57709*
X51394Y57851*
X51399Y57857*
X51401Y57863*
Y57864*
X51402Y5787*
Y58327*
X51407*
X51408Y58324*
X51411Y58316*
X51416Y58309*
X51423Y58304*
X5143Y58301*
X51432*
X51449Y58284*
Y58109*
X51434*
Y58014*
X51509*
Y58009*
X51421Y57921*
X51417Y57915*
X51414Y57909*
X51413Y57901*
Y57686*
X51414Y57679*
X51417Y57672*
X51421Y57666*
X51485Y57603*
X5149Y57599*
X51493Y57598*
X51497Y57596*
X51504Y57595*
X51562*
X51564Y5759*
X51573Y5758*
X51584Y57571*
X51596Y57565*
X51609Y57561*
X51622Y57559*
X51636Y57561*
X51649Y57565*
X51661Y57571*
X51669Y57578*
X51677Y57571*
X51689Y57565*
X51702Y57561*
X51716Y57559*
X51729Y57561*
X51742Y57565*
X51754Y57571*
X51762Y57578*
X51771Y57571*
X51783Y57565*
X51796Y57561*
X51809Y57559*
X51823Y57561*
X51836Y57565*
X51848Y57571*
X51858Y5758*
X51867Y5759*
X51873Y57602*
X51877Y57615*
X51879Y57629*
X51877Y57642*
X51873Y57655*
X51883Y5766*
X51886Y57661*
X51899Y57665*
X51911Y57671*
X51919Y57678*
X51927Y57671*
X51939Y57665*
X51952Y57661*
X51966Y57659*
X51979Y57661*
X51992Y57665*
X52004Y57671*
X52012Y57678*
X52021Y57671*
X52033Y57665*
X52046Y57661*
X52059Y57659*
X52073Y57661*
X52086Y57665*
X52098Y57671*
X52108Y5768*
X52117Y5769*
X52123Y57702*
X52127Y57715*
X52129Y57729*
X52127Y57742*
X52123Y57755*
X52117Y57767*
X52114Y57771*
X52116Y57776*
X52123Y57777*
X52136Y57782*
X52147Y57791*
X52156Y57802*
X52161Y57815*
X52163Y57829*
X52161Y57843*
X52156Y57856*
X52147Y57867*
X52136Y57875*
X52123Y57881*
X52109Y57883*
X52095Y57881*
X52082Y57875*
X52071Y57867*
X52065Y57859*
X5206*
X52054Y57867*
X52043Y57875*
X5203Y57881*
X52016Y57883*
X52002Y57881*
X51994Y57878*
X51991Y57884*
X51979Y57899*
X51964Y57911*
X51947Y5792*
X51928Y57926*
X51909Y57928*
X51907Y57927*
X51906Y57932*
X51907Y57933*
X51912Y57937*
X51955Y57979*
X51959*
X51964*
X52005Y57938*
X52011Y57934*
X52017Y57931*
X52018*
X52024Y5793*
X52101*
X52108Y57931*
X52115Y57934*
X5212Y57938*
X5215Y57968*
X52197*
Y58031*
Y5811*
X52179*
Y58133*
X52178Y5814*
X52175Y58147*
X52171Y58153*
X52146Y58177*
Y58283*
X52151Y58285*
X52155Y5828*
X52162Y58275*
X52169Y58271*
X52171*
X52257Y58185*
Y5812*
X52258Y58113*
X52261Y58106*
X52265Y581*
X52323Y58042*
X52328Y58038*
X52335Y58035*
X52342*
X52368*
Y58014*
X52432*
X52434Y5801*
X52368Y57944*
X52364Y57938*
X52361Y57931*
X5236Y57924*
Y57677*
X52361Y5767*
X52364Y57663*
X52368Y57657*
X52423Y57603*
X52428Y57599*
X52435Y57596*
X52442Y57595*
X52496*
X52498Y5759*
X52507Y5758*
X52518Y57571*
X5253Y57565*
X52543Y57561*
X52556Y57559*
X5257Y57561*
X52583Y57565*
X52595Y57571*
X52603Y57578*
X52611Y57571*
X52623Y57565*
X52636Y57561*
X5265Y57559*
X52663Y57561*
X52676Y57565*
X52688Y57571*
X52699Y5758*
X52708Y5759*
X52714Y57602*
X52718Y57615*
X52719Y57629*
X52718Y57642*
X52714Y57655*
X52708Y57667*
X52699Y57678*
X52688Y57687*
X52676Y57693*
X52663Y57697*
X5265Y57698*
X52636Y57697*
X52623Y57693*
X52611Y57687*
X52603Y5768*
X52595Y57687*
X52583Y57693*
X5257Y57697*
X52556Y57698*
X52543Y57697*
X5253Y57693*
X52518Y57687*
X52507Y57678*
X52498Y57667*
X52492Y57655*
X5249Y5765*
X52453*
X52415Y57688*
Y57788*
X52419Y5779*
X52429Y57782*
X52442Y57777*
X52456Y57775*
X5247Y57777*
X52483Y57782*
X52494Y57791*
X52501Y57799*
X52506*
X52512Y57791*
X52523Y57782*
X52536Y57777*
X5255Y57775*
X52564Y57777*
X52571Y5778*
X52574Y57774*
X52586Y57759*
X52601Y57747*
X52618Y57737*
X52637Y57732*
X52656Y5773*
X52676Y57732*
X52694Y57737*
X52703Y57742*
X52712Y57737*
X5273Y57732*
X52735Y57731*
X52737Y57729*
X52738Y57715*
X52742Y57702*
X52748Y5769*
X52757Y5768*
X52768Y57671*
X5278Y57665*
X52793Y57661*
X52806Y57659*
X5282Y57661*
X52833Y57665*
X52845Y57671*
X52853Y57678*
X52861Y57671*
X52873Y57665*
X52886Y57661*
X529Y57659*
X52913Y57661*
X52926Y57665*
X52938Y57671*
X52949Y5768*
X52958Y5769*
X52964Y57702*
X52968Y57715*
X52969Y57729*
X52968Y57742*
X52964Y57755*
X52958Y57767*
X52955Y57771*
X52956Y57776*
X52964Y57777*
X52977Y57782*
X52988Y57791*
X52996Y57802*
X53002Y57815*
X53004Y57829*
X53002Y57843*
X52996Y57856*
X52988Y57867*
X52977Y57875*
X52964Y57881*
X5295Y57883*
X52936Y57881*
X52923Y57875*
X52912Y57867*
X52906Y57859*
X52901*
X52894Y57867*
X52883Y57875*
X5287Y57881*
X52856Y57883*
X52842Y57881*
X52835Y57878*
X52832Y57884*
X5282Y57899*
X52805Y57911*
X52788Y5792*
X52769Y57926*
X5275Y57928*
X52747Y57927*
X52746Y57932*
X52747Y57933*
X52753Y57937*
X52795Y57979*
X528*
X52804*
X52849Y57935*
X52854Y57931*
X52861Y57928*
X52862*
X52868Y57927*
X52935*
X52942Y57928*
X52948Y57931*
X52954Y57935*
X52987Y57968*
X53034*
Y58031*
Y5811*
X52942*
Y58098*
X52918*
X52916Y581*
X52909Y58105*
X52901Y58109*
X52893Y5811*
X52885Y58109*
X52877Y58105*
X5287Y581*
X52865Y58094*
X52862Y58086*
X52861Y58077*
X52862Y58069*
X52865Y58061*
X5287Y58055*
X52877Y58049*
X52885Y58046*
X52889*
X52893Y58044*
X529Y58043*
X52942*
Y58031*
Y58*
X52924Y57981*
X52879*
X52847Y58014*
X52848Y58016*
X5285Y58029*
X52848Y58042*
X52843Y58054*
X52835Y58064*
X52825Y58072*
X52813Y58077*
X528Y58079*
X52787Y58077*
X52775Y58072*
X52764Y58064*
X52756Y58054*
X52752Y58042*
X5275Y58034*
X52745*
Y58039*
X52741Y58049*
X52734Y58057*
X52726Y58063*
X52717Y58067*
X52711Y58068*
Y58029*
X52701*
X52695*
Y58068*
X52689Y58067*
X5268Y58063*
X52672Y58057*
X52665Y58049*
X52661Y58039*
Y58034*
X52656*
X52655Y58042*
X5265Y58054*
X52642Y58064*
X52631Y58072*
X52619Y58077*
X52606Y58079*
X52593Y58077*
X52581Y58072*
X52571Y58064*
X52563Y58054*
X52558Y58042*
X52556Y58029*
X52558Y58016*
X52563Y58004*
X52571Y57993*
X52581Y57985*
X52593Y5798*
X52606Y57979*
X52611*
X52653Y57937*
X52659Y57933*
X5266Y57932*
X52659Y57927*
X52656Y57928*
X52637Y57926*
X52618Y5792*
X52601Y57911*
X52586Y57899*
X52574Y57884*
X52571Y57878*
X52564Y57881*
X5255Y57883*
X52536Y57881*
X52523Y57875*
X52512Y57867*
X52506Y57859*
X52501*
X52494Y57867*
X52483Y57875*
X5247Y57881*
X52456Y57883*
X52442Y57881*
X52429Y57875*
X52419Y57868*
X52415Y5787*
Y57913*
X52488Y57986*
X52492Y57992*
X52495Y57998*
X52496Y58005*
Y58014*
X5251*
Y58109*
X52368*
Y58089*
X52353*
X52311Y58131*
Y58196*
Y58202*
Y58203*
X52308Y5821*
X52303Y58215*
X52216Y58303*
Y58304*
X52219Y58311*
X5222Y58318*
Y58548*
X52225Y5855*
X52232Y58541*
X52243Y58532*
X52256Y58527*
X5227Y58525*
X52284Y58527*
X52297Y58532*
X52308Y58541*
X52317Y58552*
X5232Y58559*
X52325Y58558*
Y58431*
X52321Y58428*
X52312Y58417*
X52306Y58405*
X52302Y58392*
X523Y58379*
X52302Y58365*
X52306Y58352*
X52312Y5834*
X52321Y5833*
X52331Y58321*
X52343Y58315*
X52356Y58311*
X5237Y58309*
X52384Y58311*
X52397Y58315*
X52409Y58321*
X52419Y5833*
X52428Y5834*
X52434Y58352*
X52438Y58365*
X5244Y58379*
X52438Y58392*
X52434Y58405*
X52428Y58417*
X52419Y58428*
X52409Y58437*
X52397Y58443*
X52384Y58447*
X52379*
Y5853*
X52384Y58531*
X52388Y58524*
X524Y58509*
X52415Y58497*
X52432Y58487*
X52451Y58482*
X5247Y5848*
X52489Y58482*
X52508Y58487*
X52525Y58497*
X5254Y58509*
X52552Y58524*
X52553Y58525*
X52564Y58527*
X52566Y58522*
X52562Y58517*
X52556Y58505*
X52552Y58492*
X5255Y58479*
X52552Y58465*
X52556Y58452*
X52562Y5844*
X52571Y5843*
X52581Y58421*
X52592Y58415*
X52587Y58405*
X52583Y58392*
X52581Y58379*
X52583Y58365*
X52587Y58352*
X52593Y5834*
X52596Y58337*
X52595Y58332*
X52585Y58324*
X52573Y58309*
X52564Y58292*
X52558Y58274*
X52556Y58254*
X52558Y58235*
X52564Y58216*
X52573Y58199*
X52585Y58184*
X526Y58172*
X52617Y58163*
X52636Y58157*
X52655Y58155*
X52674Y58157*
X52693Y58163*
X5271Y58172*
X52725Y58184*
X52737Y58199*
X52747Y58216*
X52752Y58235*
X52754Y58254*
X52752Y58274*
X52747Y58292*
X52737Y58309*
X52725Y58324*
X5271Y58337*
X52709Y5834*
X52715Y58352*
X52719Y58365*
X52721Y58379*
X52719Y58392*
X52715Y58405*
X52709Y58417*
X527Y58428*
X5269Y58437*
X52679Y58442*
X52684Y58452*
X52688Y58465*
X5269Y58479*
X52688Y58492*
X52686Y58498*
X52691Y58501*
X52696Y58497*
X52713Y58487*
X52732Y58482*
X52751Y5848*
X5277Y58482*
X52789Y58487*
X52806Y58497*
X52821Y58509*
X52833Y58524*
X52842Y58541*
X52848Y58559*
X5285Y58579*
X52848Y58598*
X52842Y58617*
X52833Y58634*
X52821Y58649*
X52806Y58661*
X52789Y5867*
X5277Y58676*
X52751Y58678*
X52732Y58676*
X52713Y5867*
X52696Y58661*
X52681Y58649*
X52669Y58634*
X52668Y58632*
X52656Y58631*
X52643Y58625*
X52632Y58617*
X52623Y58606*
X52618Y58593*
X52616Y58579*
X52618Y58565*
X52623Y58552*
X5262Y58548*
X52606Y58547*
X52598Y58544*
X52595Y58549*
X52598Y58552*
X52603Y58565*
X52605Y58579*
X52603Y58593*
X52598Y58606*
X52589Y58617*
X52578Y58625*
X52565Y58631*
X52553Y58632*
X52552Y58634*
X5254Y58649*
X52525Y58661*
X52508Y5867*
X52489Y58676*
X5247Y58678*
X52451Y58676*
X52432Y5867*
X52415Y58661*
X524Y58649*
X52388Y58634*
X52384Y58627*
X52379Y58628*
Y5864*
X52378Y58647*
X52376Y58654*
X52371Y5866*
X5235Y5868*
Y58731*
X52277*
Y58941*
X52328Y58992*
X52428*
X52435Y58993*
X52442Y58996*
X52447Y59*
X52578Y59131*
X52583Y59137*
X52584Y59139*
X52585Y59143*
X52586Y5915*
Y5932*
X52591*
X52592Y59315*
X52597Y59302*
X52606Y59291*
X52617Y59282*
X5263Y59277*
X52644Y59275*
X52658Y59277*
X52671Y59282*
X52678Y59287*
X52683Y59286*
X52687Y59281*
X52716Y59252*
Y59192*
X52705Y59187*
X52695Y59178*
X52686Y59167*
X5268Y59155*
X52676Y59142*
X52674Y59129*
X52676Y59115*
X5268Y59102*
X52686Y5909*
X52695Y5908*
X52705Y59071*
X52717Y59065*
X5273Y59061*
X52744Y59059*
X52757Y59061*
X52758Y59059*
X52759Y59055*
X52752Y59041*
X52746Y59023*
X52744Y59003*
X52746Y58984*
X52752Y58965*
X52757Y58956*
X52753Y58953*
X52703Y59003*
X52698Y59007*
X52691Y5901*
X52684Y59011*
X5262*
X52613Y5901*
X52606Y59007*
X52601Y59003*
X52529Y5893*
X52524Y58925*
X52521Y58918*
Y58911*
Y58829*
X5252*
X52507Y58827*
X52495Y58822*
X52485Y58814*
X52477Y58804*
X52472Y58792*
X5247Y58779*
X52472Y58766*
X52477Y58754*
X52485Y58743*
X52495Y58735*
X52507Y5873*
X5252Y58729*
X52533Y5873*
X52545Y58735*
X52555Y58743*
X52561Y5875*
Y58751*
X52567Y58755*
X52571Y58761*
X52574Y58767*
X52575Y58774*
Y58826*
X5258Y58827*
X52581Y58823*
X52588Y5881*
X52598Y58797*
X52611Y58787*
X52624Y5878*
X52639Y58775*
X52655Y58774*
X52662Y58775*
Y58768*
X52666Y58759*
X52673Y58751*
X52681Y58744*
X52691Y5874*
X52696*
Y58779*
X52701*
Y58784*
X5274*
Y58789*
X52736Y58799*
X52729Y58807*
X52723Y58812*
X52729Y58823*
X52734Y58839*
X52736Y58854*
X52734Y5887*
X52729Y58885*
X52722Y58899*
X52718Y58904*
X52722Y58907*
X52796Y58833*
X52795Y58828*
X52788Y58827*
X52776Y58822*
X52766Y58814*
X52758Y58804*
X52753Y58792*
X52751Y58779*
X52753Y58766*
X52758Y58754*
X52766Y58743*
X52776Y58735*
X52788Y5873*
X52801Y58729*
X52805*
X52843Y58691*
X52849Y58687*
X52856Y58684*
X52863Y58683*
X53107*
X53114Y58684*
X53121Y58687*
X53127Y58691*
X53166Y5873*
X53176Y58728*
X53189Y5873*
X53201Y58735*
X53211Y58743*
X53218Y58752*
X53239*
X53251Y58739*
X53257Y58735*
X53263Y58732*
X53264*
X5327Y58731*
X53283*
Y58719*
X5333*
X53359Y58689*
X53365Y58685*
X53372Y58682*
X53379Y58681*
X5348*
X53487Y58682*
X53494Y58685*
X535Y58689*
X53541Y5873*
X53551Y58729*
X53564Y58731*
X53576Y58735*
X53586Y58743*
X53594Y58754*
X53599Y58766*
X536Y58774*
X53611Y58775*
X53626Y5878*
X5364Y58787*
X53652Y58797*
X53662Y5881*
X53669Y58823*
X53674Y58839*
X53676Y58854*
X53674Y5887*
X53669Y58885*
X53662Y58899*
X53652Y58911*
X53645Y58916*
X53647Y58921*
X53659*
X53745Y58835*
X53751Y58831*
X53757Y58828*
X53764Y58827*
X53807*
X53808Y58822*
X53807*
X53797Y58814*
X53789Y58804*
X53784Y58792*
X53782Y58779*
X53784Y58766*
X53789Y58754*
X53797Y58743*
X53807Y58735*
X53819Y5873*
X53832Y58729*
X53845Y5873*
X53857Y58735*
X53867Y58743*
X53875Y58754*
X5388Y58766*
X53882Y58779*
X5388Y58792*
X53875Y58804*
X53867Y58814*
X53857Y58822*
X53856*
X53857Y58826*
X53862Y58827*
X54037Y58652*
Y58599*
X54032Y58598*
X54029Y58606*
X5402Y58617*
X54009Y58625*
X53996Y58631*
X53982Y58633*
X53968Y58631*
X53955Y58625*
X53944Y58617*
X53935Y58606*
X5393Y58593*
X53928Y58579*
X5393Y58565*
X53935Y58552*
X53932Y58548*
X53918Y58547*
X53905Y58543*
X53893Y58537*
X53883Y58528*
X53874Y58517*
X53868Y58505*
X53864Y58492*
X53862Y58479*
X53864Y58465*
X53868Y58452*
X53874Y5844*
X53883Y5843*
X53893Y58421*
X53905Y58415*
X53918Y58411*
X53932Y58409*
X53946Y58411*
X53959Y58415*
X53971Y58421*
X53981Y5843*
X5399Y5844*
X53996Y58452*
X54Y58465*
X54002Y58479*
X54Y58492*
X53996Y58505*
X5399Y58517*
X53987Y58521*
X53989Y58526*
X53996Y58527*
X54009Y58532*
X5402Y58541*
X54029Y58552*
X54032Y58559*
X54037Y58558*
Y58453*
X53741Y58158*
X53633*
X53632Y58163*
X53633*
X5365Y58172*
X53665Y58184*
X53677Y58199*
X53687Y58216*
X53692Y58235*
X53694Y58254*
X53692Y58274*
X53687Y58292*
X53681Y58302*
X53682Y58309*
X53696Y58311*
X53709Y58315*
X53721Y58321*
X53731Y5833*
X5374Y5834*
X53746Y58352*
X5375Y58365*
X53752Y58379*
X5375Y58392*
X53746Y58405*
X5374Y58417*
X53731Y58428*
X53721Y58437*
X5371Y58442*
X53715Y58452*
X53719Y58465*
X53721Y58479*
X53719Y58492*
X53717Y58498*
X53722Y58501*
X53727Y58497*
X53744Y58487*
X53763Y58482*
X53782Y5848*
X53801Y58482*
X5382Y58487*
X53837Y58497*
X53852Y58509*
X53864Y58524*
X53873Y58541*
X53879Y58559*
X53881Y58579*
X53879Y58598*
X53873Y58617*
X53864Y58634*
X53852Y58649*
X53837Y58661*
X5382Y5867*
X53801Y58676*
X53782Y58678*
X53763Y58676*
X53744Y5867*
X53727Y58661*
X53712Y58649*
X537Y58634*
X53699Y58632*
X53687Y58631*
X53674Y58625*
X53663Y58617*
X53654Y58606*
X53649Y58593*
X53647Y58579*
X53649Y58565*
X53654Y58552*
X53651Y58548*
X53637Y58547*
X53629Y58544*
X53626Y58549*
X53629Y58552*
X53634Y58565*
X53636Y58579*
X53634Y58593*
X53629Y58606*
X5362Y58617*
X53609Y58625*
X53596Y58631*
X53584Y58632*
X53583Y58634*
X53571Y58649*
X53556Y58661*
X53539Y5867*
X5352Y58676*
X53501Y58678*
X53482Y58676*
X53463Y5867*
X53446Y58661*
X53431Y58649*
X53419Y58634*
X5341Y58617*
X53404Y58598*
X53402Y58579*
X53404Y58559*
X5341Y58541*
X53419Y58524*
X53431Y58509*
X53446Y58497*
X53463Y58487*
X53482Y58482*
X53501Y5848*
X5352Y58482*
X53539Y58487*
X53556Y58497*
X53571Y58509*
X53583Y58524*
X53584Y58525*
X53595Y58527*
X53597Y58522*
X53593Y58517*
X53587Y58505*
X53583Y58492*
X53581Y58479*
X53583Y58465*
X53587Y58452*
X53593Y5844*
X53602Y5843*
X53612Y58421*
X53623Y58415*
X53618Y58405*
X53614Y58392*
X53612Y58379*
X53614Y58365*
X53616Y58357*
X53615Y58353*
X53614Y58351*
X53595Y58353*
X53576Y58351*
X53557Y58346*
X5354Y58337*
X53525Y58324*
X53513Y58309*
X53504Y58292*
X53498Y58274*
X53496Y58254*
X53498Y58235*
X53504Y58216*
X53513Y58199*
X53525Y58184*
X5354Y58172*
X53557Y58163*
X53558*
X53557Y58158*
X53348*
X53294Y58212*
X53271Y58235*
X53268Y58237*
X53259Y58247*
X53261Y58251*
X53325*
Y58272*
X53354*
X53361*
X53367Y58275*
X53373Y58279*
X53403Y58309*
X53415Y58311*
X53428Y58315*
X5344Y58321*
X5345Y5833*
X53459Y5834*
X53465Y58352*
X53469Y58365*
X53471Y58379*
X53469Y58392*
X53465Y58405*
X53459Y58417*
X5345Y58428*
X5344Y58437*
X53428Y58443*
X53415Y58447*
X53401Y58448*
X53387Y58447*
X53374Y58443*
X53362Y58437*
X53352Y58428*
X53343Y58417*
X53337Y58405*
X53336Y58402*
X53091*
X5309Y58405*
X53084Y58417*
X53075Y58428*
X53065Y58436*
X53053Y58443*
X5304Y58447*
X53026Y58448*
X53012Y58447*
X52999Y58443*
X5297Y58472*
X52971Y58479*
X52969Y58492*
X52965Y58505*
X52959Y58517*
X52956Y58521*
X52958Y58526*
X52965Y58527*
X52978Y58532*
X52989Y58541*
X52998Y58552*
X53003Y58565*
X53005Y58579*
X53003Y58593*
X52998Y58606*
X52989Y58617*
X52978Y58625*
X52965Y58631*
X52951Y58633*
X52937Y58631*
X52926Y58632*
X52912Y5863*
X52899Y58625*
X52888Y58617*
X52879Y58605*
X52874Y58592*
X52872Y58578*
X52874Y58564*
X52879Y58551*
X52881Y58549*
X52879Y58545*
X52874Y58543*
X52862Y58537*
X52852Y58528*
X52843Y58517*
X52837Y58505*
X52833Y58492*
X52831Y58479*
X52833Y58465*
X52837Y58452*
X52843Y5844*
X52852Y5843*
X52862Y58421*
X52874Y58415*
X52887Y58411*
X52901Y58409*
X52915Y58411*
X52928Y58415*
X5294Y58421*
X52942Y58423*
X52961Y58404*
X52958Y58392*
X52956Y58378*
X52958Y58365*
X52962Y58352*
X52968Y5834*
X52977Y58329*
X52987Y58321*
X52999Y58314*
X53012Y5831*
X53026Y58309*
X5304Y5831*
X53053Y58314*
X53065Y58321*
X53075Y58329*
X53084Y5834*
X53088Y58347*
X53183*
Y58346*
Y58251*
X53197*
Y58243*
X53198Y58236*
X532Y58229*
X53205Y58223*
X53247Y58181*
Y5807*
X53179Y58002*
X53174Y57996*
X53172Y5799*
X53171Y57983*
Y57718*
X53119Y57667*
X53115Y57666*
X53107Y57663*
X531Y57658*
X53095Y57651*
X53092Y57643*
X53091Y57635*
X53092Y57626*
X53095Y57619*
X531Y57612*
X53107Y57607*
X53115Y57604*
X53123Y57602*
X53131Y57604*
X53139Y57607*
X53146Y57612*
X53151Y57619*
X53153Y57623*
X53217Y57687*
X53222Y57693*
X53224Y577*
X53225Y57707*
Y57971*
X53284Y5803*
X53289Y58029*
Y58012*
X53355*
X53357Y58008*
X53257Y57907*
X53252Y57901*
X5325Y57895*
X53249Y57888*
Y57751*
X5325Y57744*
X53252Y57737*
X53257Y57732*
X53385Y57603*
X53391Y57599*
X53397Y57596*
X53398*
X53404Y57595*
X53415*
X53417Y5759*
X53426Y5758*
X53436Y57571*
X53448Y57565*
X53461Y57561*
X53475Y57559*
X53489Y57561*
X53502Y57565*
X53514Y57571*
X53524Y5758*
X53525*
X5353*
X5354Y57571*
X53552Y57565*
X53565Y57561*
X53579Y57559*
X53593Y57561*
X53606Y57565*
X53618Y57571*
X53628Y5758*
X53637Y5759*
X53643Y57602*
X53647Y57615*
X53649Y57629*
X53647Y57642*
X53643Y57655*
X53637Y57667*
X53628Y57678*
X53618Y57687*
X53606Y57693*
X53593Y57697*
X53579Y57698*
X53565Y57697*
X53552Y57693*
X5354Y57687*
X5353Y57678*
X53529*
X53524*
X53514Y57687*
X53502Y57693*
X53489Y57697*
X53475Y57698*
X53461Y57697*
X53448Y57693*
X53436Y57687*
X53426Y57678*
X53417Y57667*
X53412Y57659*
X53408Y57658*
X53303Y57762*
Y57876*
X53409Y57982*
X53413Y57988*
X53416Y57994*
X53417Y58001*
Y58012*
X53431*
Y58103*
X53559*
X53562Y58099*
X5354Y58076*
X53538Y58077*
X53525Y58079*
X53512Y58077*
X535Y58072*
X5349Y58064*
X53482Y58054*
X53477Y58042*
X53475Y58029*
X53477Y58016*
X53482Y58004*
X5349Y57993*
X535Y57985*
X53512Y5798*
X53525Y57979*
X53538Y5798*
X5355Y57985*
X5356Y57993*
X53568Y58004*
X53573Y58016*
X53575Y58029*
X53574Y58034*
X53582Y58041*
X53586Y58039*
Y58034*
X53668*
Y58035*
X53671Y58036*
X53675Y58034*
Y58033*
X53678Y58026*
X5368Y58025*
X53681Y58016*
X53686Y58004*
X53694Y57993*
X53704Y57985*
X53716Y57981*
X53724Y57979*
X53771Y57932*
X53777Y57928*
X53783Y57925*
X5379Y57924*
X53871*
X53878Y57925*
X53884Y57928*
X5389Y57932*
X53928Y5797*
X53974*
Y58033*
Y58112*
X53883*
X53882Y58111*
X53859Y58135*
Y58136*
X53855Y58144*
X5385Y5815*
X53844Y58155*
X53836Y58159*
X53828Y5816*
X53827*
X53825Y58164*
X54083Y58422*
X54088Y58428*
X5409Y58435*
X54091Y58442*
Y58663*
X5409Y5867*
X54088Y58677*
X54083Y58683*
X53893Y58873*
X53888Y58877*
X53881Y5888*
X53874Y58881*
X53867Y5888*
X53775*
X53748Y58906*
X53751Y5891*
X53765Y58906*
X53784Y58904*
X53803Y58906*
X53822Y58912*
X53839Y58921*
X53854Y58933*
X53866Y58948*
X53876Y58965*
X53881Y58984*
X53883Y59003*
X53881Y59023*
X53876Y59041*
X53866Y59058*
X53854Y59073*
X53839Y59086*
X53822Y59095*
X53803Y591*
X53784Y59102*
X53765Y591*
X53746Y59095*
X53729Y59086*
X53714Y59073*
X53702Y59058*
X53693Y59041*
X53687Y59023*
X53685Y59003*
X53687Y58984*
X53691Y58972*
X53687Y58969*
X53683Y58972*
X53676Y58975*
X53669Y58976*
X53502*
X53422Y59056*
Y59057*
X53418Y59065*
X53413Y59072*
X53407Y59077*
X53399Y5908*
X53391Y59081*
X53382Y5908*
X53374Y59077*
X53368Y59072*
X53363Y59065*
X53359Y59057*
Y59056*
X53347Y59044*
X53202*
X53188Y59059*
X5319Y59063*
X53199Y5906*
X53213Y59059*
X53227Y5906*
X5324Y59064*
X53252Y59071*
X53262Y59079*
X53271Y5909*
X53275Y59097*
X53398*
X5342Y59075*
X53496Y58999*
X53501Y58995*
X53508Y58992*
X53515Y58991*
X53609*
X53616Y58992*
X53622Y58995*
X53628Y58999*
X538Y59171*
X53811Y59165*
X53824Y59161*
X53838Y59159*
X53852Y59161*
X53865Y59165*
X53877Y59171*
X53887Y5918*
X53896Y5919*
X53902Y59202*
X53906Y59215*
X53908Y59229*
X53906Y59242*
X53902Y59255*
X53896Y59267*
X53893Y59271*
X53895Y59276*
X53902Y59277*
X53915Y59282*
X53918Y59285*
X53922Y59281*
X53916Y59262*
X53914Y59243*
X53916Y59224*
X53922Y59205*
X53931Y59188*
X53943Y59173*
X53958Y59161*
X53975Y59151*
X53994Y59146*
X54013Y59144*
X54032Y59146*
X54051Y59151*
X54068Y59161*
X54083Y59173*
X54095Y59188*
X54105Y59205*
X5411Y59224*
X54112Y59243*
X5411Y59262*
X54105Y59281*
X54095Y59298*
X54083Y59313*
X54068Y59325*
X54051Y59334*
X54032Y5934*
X54013Y59342*
X53994Y5934*
X53975Y59334*
X53958Y59325*
X53945Y59314*
X5394Y59317*
X53942Y59329*
X5394Y59343*
X53935Y59356*
X53926Y59367*
X53915Y59375*
X53902Y59381*
X53888Y59383*
X53874Y59381*
X53861Y59375*
X5385Y59367*
X53841Y59356*
X53836Y59343*
X53834Y5933*
X53829*
Y594*
X53837Y59407*
X53839Y59408*
X53847Y59411*
X53854Y59416*
X53859Y59423*
X53862Y5943*
X53863Y59439*
X53862Y59447*
X53859Y59455*
X53854Y59462*
X53847Y59467*
X53839Y5947*
X53835Y59471*
X53833Y59475*
X53902Y59545*
X53903*
X53916Y59549*
X53928Y59555*
X53938Y59564*
X53947Y59574*
X53953Y59586*
X53957Y59599*
X53959Y59613*
X53957Y59626*
X53953Y59639*
X53947Y59651*
X53938Y59662*
X53928Y59671*
X53916Y59677*
X53903Y59681*
X53889Y59682*
X53875Y59681*
X53862Y59677*
X5385Y59671*
X5384Y59662*
X53839Y59661*
X53829Y5967*
X53815Y59678*
X538Y59682*
X53787Y59683*
X53784Y59688*
X53786Y59693*
X53788Y59713*
X53786Y59732*
X5378Y59751*
X53771Y59768*
X53759Y59783*
X53744Y59795*
X53727Y59804*
X53708Y5981*
X53689Y59812*
X5367Y5981*
X53651Y59804*
X53634Y59795*
X53619Y59783*
X53607Y59768*
X53598Y59751*
X53592Y59732*
X5359Y59713*
X53592Y59693*
X53598Y59675*
X53607Y59658*
X53619Y59643*
X53634Y59631*
X53651Y59621*
X5367Y59616*
X53689Y59614*
X53701Y59615*
X53705Y59612*
X53704Y59603*
X53705Y59588*
X5371Y59572*
X53711Y5957*
X53703Y59565*
X53689Y59567*
X53675Y59565*
X53663Y5956*
X53658Y59563*
X53648Y59567*
X53638Y59569*
X53628Y59567*
X53618Y59563*
X5361Y59557*
X53603Y59549*
X53599Y59539*
X53598Y59529*
X53599Y59518*
X53603Y59509*
X5361Y59501*
X53618Y59494*
X53628Y5949*
X53638Y59489*
X53641*
X53642Y59486*
X53651Y59475*
X53661Y59467*
X5366Y59462*
X53615*
Y59482*
X53542*
Y59525*
X53541Y59532*
X53538Y59539*
X53534Y59544*
X53442Y59636*
Y59702*
X53441Y59709*
X53439Y59715*
X53434Y59721*
X53386Y59769*
X53389Y59773*
X53391Y59772*
X53399Y59769*
X534Y59768*
X53425Y59743*
X5343Y59739*
X53437Y59736*
X53438*
X53444*
X53447*
X53454Y59727*
X53464Y59719*
X53476Y59715*
X53489Y59713*
X53502Y59715*
X53514Y59719*
X53524Y59727*
X53532Y59738*
X53537Y5975*
X53539Y59763*
X53537Y59776*
X53532Y59788*
X53524Y59798*
X53514Y59806*
X53512Y59807*
Y59812*
X53522Y59815*
X53534Y59821*
X53544Y5983*
X53553Y5984*
X53559Y59852*
X53563Y59865*
X53565Y59879*
X53563Y59892*
X53559Y59905*
X53553Y59917*
X53544Y59928*
X53534Y59937*
X53522Y59943*
X53509Y59947*
X53495Y59948*
X53481Y59947*
X53468Y59943*
X53463Y5994*
X53456Y59948*
X53451Y59952*
X53444Y59955*
X53437Y59956*
X53379*
X53371Y59955*
X53365Y59952*
X53359Y59948*
X53325Y59914*
X53321Y59908*
X5332Y59905*
X53244*
Y59896*
X53102*
X5301Y59989*
Y6005*
X53015Y60051*
X5302Y60038*
X53033Y60017*
X53049Y59998*
X53068Y59982*
X53089Y59969*
X53112Y59959*
X53136Y59953*
X53161Y59951*
X53186Y59953*
X5321Y59959*
X53233Y59969*
X53254Y59982*
X53273Y59998*
X53289Y60017*
X53302Y60038*
X53312Y60061*
X53318Y60085*
X53319Y6011*
X53318Y60135*
X53312Y60159*
X53302Y60182*
X53289Y60203*
X53273Y60222*
X53254Y60238*
X53233Y60251*
X5321Y6026*
X53186Y60266*
X53161Y60268*
X53136Y60266*
X53112Y6026*
X53089Y60251*
X53068Y60238*
X53049Y60222*
X53033Y60203*
X5302Y60182*
X53015Y60169*
X5301Y6017*
Y60197*
X53182Y60369*
X53186Y60375*
X53189Y60381*
X5319Y60388*
Y60476*
X53263*
Y60497*
X53277*
X53284*
X53291Y605*
X53296Y60504*
X53327Y60535*
X53331Y60541*
X53334Y60547*
X53335Y60554*
Y60565*
X53347Y60571*
X53357Y6058*
X53366Y6059*
X53372Y60602*
X53376Y60615*
X53378Y60629*
X53376Y60642*
X53372Y60655*
X53366Y60667*
X53357Y60678*
X53347Y60687*
X53335Y60693*
X53322Y60697*
X53308Y60698*
X53294Y60697*
X53281Y60693*
X53269Y60687*
X53259Y60678*
X5325Y60667*
X53245Y60658*
X53207*
X53206Y60663*
X5321Y60665*
X53222Y60671*
X53232Y6068*
X53241Y6069*
X53247Y60702*
X53251Y60715*
X53253Y60729*
X53251Y60742*
X53247Y60755*
X53241Y60767*
X53238Y60771*
X5324Y60776*
X53247Y60777*
X5326Y60782*
X53271Y60791*
X5328Y60802*
X53285Y60815*
X53287Y60829*
X53285Y60843*
X5328Y60856*
X53271Y60867*
X5326Y60875*
X53247Y60881*
X53233Y60883*
X53221Y60881*
X53208Y60883*
X53194Y60881*
X53181Y60875*
X5317Y60867*
X53161Y60856*
X53156Y60843*
X53154Y60829*
X53156Y60815*
X53161Y60802*
X53163Y60799*
X53162Y60795*
X53156Y60793*
X53144Y60787*
X53134Y60778*
X53125Y60767*
X53119Y60755*
X53115Y60742*
X53113Y60729*
X53115Y60715*
X53119Y60702*
X53125Y6069*
X53134Y6068*
X53144Y60671*
X53156Y60665*
X5316Y60663*
X53159Y60658*
X52996*
X52991Y60667*
X52982Y60678*
X52972Y60687*
X5296Y60693*
X52947Y60697*
X52933Y60698*
X52919Y60697*
X52906Y60693*
X52894Y60687*
X52884Y60678*
X52875Y60667*
X52869Y60655*
X52865Y60642*
X52863Y60629*
X52865Y60615*
X52869Y60602*
X52875Y6059*
X5288Y60585*
X52879Y6058*
X52873Y60575*
X52861Y6056*
X52852Y60543*
X52846Y60524*
X52844Y60505*
X52846Y60486*
X52852Y60467*
X52861Y6045*
X52873Y60435*
X52888Y60423*
X52905Y60414*
X52924Y60408*
X52943Y60406*
X52962Y60408*
X52981Y60414*
X52998Y60423*
X53013Y60435*
X53025Y6045*
X53035Y60467*
X5304Y60486*
X53042Y60505*
X5304Y60524*
X53035Y60543*
X53025Y6056*
X53013Y60575*
X52998Y60587*
X52991Y60591*
X52997Y60602*
X52998Y60604*
X53243*
X53244Y60602*
X5325Y6059*
X53259Y6058*
X53263Y60576*
X53261Y60571*
X53121*
Y60476*
X53135*
Y604*
X52992Y60256*
X52987Y60258*
Y60285*
Y60364*
X52896*
Y60352*
X52886*
X52883Y6036*
X52878Y60367*
X52871Y60372*
X52863Y60375*
X52855Y60376*
X52847Y60375*
X52839Y60372*
X52832Y60367*
X52827Y6036*
X52824Y60352*
X52823Y60344*
X52824Y60335*
X52827Y60328*
X52832Y60321*
X52839Y60316*
X52847Y60313*
X52848Y60312*
X52851Y60309*
X5285Y60304*
X52846*
X52839Y60305*
X52748*
X5274Y60314*
X5273Y60322*
X52718Y60327*
X52705Y60329*
X52692Y60327*
X5268Y60322*
X5267Y60314*
X52662Y60304*
X52657Y60292*
X52655Y60279*
X52657Y60266*
X52662Y60254*
X5267Y60243*
X5268Y60235*
X52692Y6023*
X52705Y60229*
X52718Y6023*
X5273Y60235*
X5274Y60243*
X52745Y6025*
X52828*
X52836Y60242*
X52841Y60238*
X52848Y60235*
X52855Y60234*
X52896*
Y60222*
X52954*
X52957Y60218*
X52956Y60215*
X52955Y60208*
Y59977*
X52956Y5997*
X52959Y59964*
X52963Y59958*
X53071Y5985*
X53077Y59846*
X53084Y59843*
X53091Y59842*
X53244*
Y59819*
X53154*
Y59806*
X53152*
X53146Y59803*
X5314Y59799*
X53126Y59785*
X53094*
X53093*
X53085Y59789*
X53077Y5979*
X53068Y59789*
X5306Y59785*
X53054Y5978*
X53049Y59774*
X53045Y59766*
X53044Y59757*
X53045Y59749*
X53049Y59741*
Y5974*
Y59617*
X53029*
Y59556*
X53025Y59554*
X53023Y59555*
X53017Y59558*
X5301Y59559*
X52933*
X52929Y59564*
X52919Y59572*
X52917Y59573*
X52922Y59588*
X52924Y59603*
X52922Y59619*
X52917Y59634*
X5291Y59648*
X529Y5966*
X52888Y5967*
X52874Y59678*
X52859Y59682*
X52843Y59684*
X52827Y59682*
X52812Y59678*
X52799Y5967*
X52786Y5966*
X52776Y59648*
X52769Y59634*
X52764Y59619*
X52763Y59603*
X52764Y59588*
X52769Y59572*
X52774Y59563*
X52766Y59557*
X52759Y59549*
X52755Y59539*
Y59534*
X52794*
Y59529*
X52799*
Y5949*
X52804*
X52814Y59494*
X52822Y59501*
X52829Y59509*
X52833Y59518*
Y59524*
X52843Y59523*
X52845*
X52846Y59516*
X52851Y59504*
X52859Y59493*
X52869Y59485*
X52881Y5948*
X52894Y59479*
X52907Y5948*
X52919Y59485*
X52929Y59493*
X52937Y59504*
X52938Y59505*
X52999*
X5301Y59493*
X53016Y59489*
X53022Y59486*
X53023*
X53029Y59485*
Y59475*
X53121*
Y59535*
X53125Y59537*
X5315Y59512*
Y59373*
X53145Y59371*
X5314Y59375*
X53127Y5938*
X53113Y59382*
X53099Y5938*
X53086Y59375*
X53079Y59369*
X53071Y59375*
X53058Y59381*
X53044Y59383*
X5303Y59381*
X53017Y59375*
X53006Y59367*
X52997Y59356*
X52992Y59343*
X5299Y59329*
X52992Y59315*
X52997Y59302*
X52994Y59298*
X5298Y59297*
X52967Y59293*
X52955Y59287*
X52945Y59278*
X52936Y59267*
X5293Y59255*
X52926Y59242*
X52924Y59229*
X52926Y59215*
X5293Y59202*
X52936Y5919*
X52945Y5918*
X52955Y59171*
X52967Y59165*
X5298Y59161*
X52994Y59159*
X53008Y59161*
X53021Y59165*
X53025Y59167*
X5303Y59165*
Y59073*
Y59006*
X52933Y58909*
X52928Y58903*
X52926Y58897*
X52925Y5889*
Y58872*
X52906*
Y58809*
Y58806*
X52902Y58804*
X52793Y58913*
X52796Y58917*
X52805Y58912*
X52824Y58906*
X52843Y58904*
X52862Y58906*
X52881Y58912*
X52898Y58921*
X52913Y58933*
X52925Y58948*
X52935Y58965*
X5294Y58984*
X52942Y59003*
X5294Y59023*
X52935Y59041*
X52925Y59058*
X52913Y59073*
X52898Y59086*
X52881Y59095*
X52862Y591*
X52843Y59102*
X52824Y591*
X5281Y59096*
X52807Y591*
X52808Y59102*
X52812Y59115*
X52814Y59129*
X52812Y59142*
X52808Y59155*
X52802Y59167*
X52793Y59178*
X52783Y59187*
X52771Y59193*
Y59256*
X52775Y59258*
X52789Y59247*
X52806Y59237*
X52825Y59232*
X52844Y5923*
X52863Y59232*
X52882Y59237*
X52899Y59247*
X52914Y59259*
X52926Y59274*
X52935Y59291*
X52941Y59309*
X52943Y59329*
X52941Y59348*
X52935Y59367*
X52926Y59384*
X52914Y59399*
X52899Y59411*
X52882Y5942*
X52863Y59426*
X52844Y59428*
X52825Y59426*
X52806Y5942*
X52789Y59411*
X52774Y59399*
X52762Y59384*
X52753Y59367*
X52747Y59348*
X52745Y59329*
X52747Y59309*
X52749Y59302*
X52745Y593*
X52734Y59311*
Y59384*
X52748*
Y59479*
X52675*
Y59602*
X52674Y59608*
Y59609*
X52671Y59616*
X52667Y59621*
X52407Y59881*
Y60045*
X52412Y60047*
X52417Y60041*
X52428Y60032*
X52441Y60027*
X52455Y60025*
X52469Y60027*
X52482Y60032*
X52493Y60041*
X52502Y60052*
X52507Y60065*
X52509Y60079*
X52507Y60093*
X52502Y60106*
X52494Y60116*
X52496Y6012*
X52515*
Y60029*
X52516Y60022*
X52518Y60016*
X52523Y6001*
X52542Y59991*
Y59947*
X52541*
X52528Y59943*
X52516Y59937*
X52506Y59928*
X52497Y59917*
X52491Y59905*
X52487Y59892*
X52485Y59879*
X52487Y59865*
X52491Y59852*
X52497Y5984*
X52506Y5983*
X52516Y59821*
X52528Y59815*
X52541Y59811*
X52555Y59809*
X52569Y59811*
X52582Y59815*
X52594Y59821*
X52604Y5983*
X52613Y5984*
X52619Y59852*
X52621Y59859*
X52625Y59864*
X52628Y5987*
X52629Y59877*
X52628Y59884*
X52625Y59891*
X52623Y59894*
X52619Y59905*
X52613Y59917*
X52604Y59928*
X52596Y59934*
Y59994*
X52601Y59996*
X52617Y59987*
X52636Y59982*
X52655Y5998*
X52674Y59982*
X52693Y59987*
X5271Y59997*
X52725Y60009*
X52737Y60024*
X52746Y60041*
X52752Y60059*
X52754Y60079*
X52752Y60098*
X52746Y60117*
X52737Y60134*
X52725Y60149*
X5271Y60161*
X52693Y6017*
X52674Y60176*
X52655Y60178*
X52636Y60176*
X52617Y6017*
X526Y60161*
X52585Y60149*
X52574Y60135*
X52569Y60137*
Y60141*
X52568Y60148*
X52566Y60155*
X52561Y60161*
X52557Y60165*
Y60215*
X52484*
Y60427*
X52483Y60433*
Y60434*
X5248Y6044*
X52476Y60446*
X52411Y60511*
X52405Y60515*
X52399Y60518*
X52391Y60519*
X52136*
X52035Y6062*
Y60795*
X5204Y60797*
X52045Y60791*
X52056Y60782*
X52069Y60777*
X52083Y60775*
X52097Y60777*
X5211Y60782*
X52121Y60791*
X52129Y60801*
X52134Y608*
Y60735*
X52135Y60728*
X52138Y60721*
X52142Y60715*
X52156Y60701*
Y60693*
X52144Y60687*
X52134Y60678*
X52125Y60667*
X52119Y60655*
X52115Y60642*
X52113Y60629*
X52115Y60615*
X52119Y60602*
X52125Y6059*
X52134Y6058*
X52144Y60571*
X52156Y60565*
X52169Y60561*
X52183Y60559*
X52197Y60561*
X5221Y60565*
X52222Y60571*
X52232Y6058*
X52241Y6059*
X52247Y60602*
X52251Y60615*
X52253Y60629*
X52251Y60642*
X52247Y60655*
X52241Y60667*
X52232Y60678*
X52222Y60687*
X5221Y60693*
Y60713*
X52209Y6072*
X52207Y60726*
X52202Y60732*
X52188Y60746*
Y60787*
X52193Y60788*
X52201Y60774*
X52213Y60759*
X52228Y60747*
X52245Y60737*
X52264Y60732*
X52283Y6073*
X52302Y60732*
X52321Y60737*
X52338Y60747*
X52353Y60759*
X52365Y60774*
X52374Y60791*
X5238Y60809*
X52382Y60829*
X5238Y60848*
X52374Y60867*
X52365Y60884*
X52353Y60899*
X52338Y60911*
X52321Y6092*
X52302Y60926*
X52283Y60928*
X52264Y60926*
X52245Y6092*
X52228Y60911*
X52213Y60899*
X52201Y60884*
X52193Y60869*
X52188Y60871*
Y60898*
X52203*
Y60993*
X5206*
Y60942*
X51989Y60871*
X51984Y60865*
X51982Y60858*
X51981Y60851*
Y60609*
X51982Y60601*
X51984Y60595*
X51989Y60589*
X52106Y60472*
X52111Y60468*
X52118Y60465*
X52125Y60464*
X5238*
X52429Y60415*
Y60215*
X52415*
Y60165*
X52361Y60111*
X52356Y60105*
X52355Y60101*
X5235Y60102*
Y60249*
X52349Y60256*
X52347Y60259*
X52346Y60262*
X52342Y60268*
X52266Y60344*
X5226Y60348*
X52254Y60351*
X52247Y60352*
X52233*
Y60364*
X52142*
Y60352*
X52098*
X52091Y60357*
X52083Y6036*
X52075Y60361*
X52067Y6036*
X52059Y60357*
X52052Y60352*
X52047Y60345*
X52044Y60337*
X52043Y60329*
X52044Y6032*
X52047Y60313*
X5205Y60309*
X52048Y60305*
X51998*
X5199Y60314*
X5198Y60322*
X51968Y60327*
X51955Y60329*
X51942Y60327*
X5193Y60322*
X5192Y60314*
X51912Y60304*
X51907Y60292*
X51905Y60279*
X51907Y60266*
X51912Y60254*
X5192Y60243*
X5193Y60235*
X51942Y6023*
X51955Y60229*
X51968Y6023*
X5198Y60235*
X5199Y60243*
X51995Y6025*
X52064*
X52072Y60242*
X52078Y60238*
X52084Y60235*
X52085*
X52091Y60234*
X52142*
Y60222*
X52233*
Y60285*
Y60293*
X52238Y60295*
X52295Y60237*
Y59629*
X52296Y59622*
X52299Y59616*
X52303Y5961*
X52332Y59581*
Y59539*
X52291*
X52277Y59552*
X52271Y59556*
X52265Y59559*
X52258Y5956*
X52182*
X52179Y59564*
X52169Y59572*
X52157Y59577*
X52144Y59579*
X52131Y59577*
X52119Y59572*
X52109Y59564*
X52101Y59554*
X52096Y59542*
X52094Y59529*
X52096Y59516*
X52101Y59504*
X52109Y59493*
X52119Y59485*
X52131Y5948*
X52144Y59479*
X52157Y5948*
X52169Y59485*
X52179Y59493*
X52187Y59504*
X52188Y59506*
X52247*
X5226Y59492*
X52266Y59488*
X52272Y59485*
X52279Y59484*
X52332*
Y59472*
X52423*
Y59535*
Y59547*
X52452*
X52481Y59518*
Y59286*
X52152Y58957*
X5204*
X52033Y58956*
X52026Y58953*
X52021Y58949*
X51968Y58896*
X51963Y5889*
X51961Y58884*
X5196Y58877*
Y58865*
X51941*
Y5879*
X5189*
X51886Y58794*
X5188Y58798*
X51874Y58801*
X51867Y58802*
X51814*
X51813Y58804*
X51805Y58814*
X51795Y58822*
X51783Y58827*
X5177Y58829*
X51757Y58827*
X51745Y58822*
X51735Y58814*
X51727Y58804*
X51722Y58792*
X5172Y58779*
X51721Y58774*
X51716Y58772*
X51714Y58774*
X51675*
Y58735*
X51728Y58682*
X51726Y58677*
X5172Y58678*
X51701Y58676*
X51682Y5867*
X51665Y58661*
X5165Y58649*
X51638Y58634*
X51629Y58617*
X51626Y58608*
X51621Y58609*
Y58679*
X5162Y58686*
X51618Y58693*
X51613Y58698*
X516Y58711*
Y58762*
X51527*
Y58821*
X51833Y59127*
X51838Y59133*
X5184Y59139*
Y5914*
X51841Y59146*
Y59304*
X51846Y59305*
X51847Y59302*
X51856Y59291*
X51867Y59282*
X5188Y59277*
X51894Y59275*
X51908Y59277*
X51921Y59282*
X51932Y59291*
X51936Y59296*
X51941Y59294*
Y59289*
X51942Y59282*
X51944Y59276*
X51949Y5927*
X51964Y59255*
Y59191*
X51955Y59187*
X51945Y59178*
X51936Y59167*
X5193Y59155*
X51926Y59142*
X51924Y59129*
X51926Y59115*
X5193Y59102*
X51936Y5909*
X51945Y5908*
X51955Y59071*
X51967Y59065*
X5198Y59061*
X51994Y59059*
X52008Y59061*
X52021Y59065*
X52033Y59071*
X52043Y5908*
X52052Y5909*
X52058Y59102*
X52062Y59115*
X52064Y59129*
X52062Y59142*
X52058Y59155*
X52052Y59167*
X52043Y59178*
X52033Y59187*
X52021Y59193*
X52018Y59194*
Y59259*
X52023Y5926*
X52024Y59259*
X52039Y59247*
X52056Y59237*
X52075Y59232*
X52094Y5923*
X52113Y59232*
X52132Y59237*
X52149Y59247*
X52164Y59259*
X52176Y59274*
X52185Y59291*
X52191Y59309*
X52193Y59329*
X52191Y59348*
X52185Y59367*
X52176Y59384*
X52164Y59399*
X52149Y59411*
X52132Y5942*
X52113Y59426*
X52094Y59428*
X52075Y59426*
X52056Y5942*
X52039Y59411*
X52024Y59399*
X52012Y59384*
X52003Y59367*
X52Y59358*
X51995Y59359*
Y59412*
X51994Y59419*
X51992Y59426*
X5199Y59428*
Y59479*
X51917*
Y59588*
X51916Y59595*
X51913Y59602*
X51909Y59607*
X51651Y59865*
Y60056*
X51656Y60057*
X51658Y60052*
X51667Y60041*
X51678Y60032*
X51691Y60027*
X51705Y60025*
X51719Y60027*
X51732Y60032*
X51743Y60041*
X5175Y6005*
X51755Y60048*
Y60018*
X51756Y60011*
X51758Y60004*
X51763Y59998*
X51792Y59969*
Y59947*
X51791*
X51778Y59943*
X51766Y59937*
X51756Y59928*
X51747Y59917*
X51741Y59905*
X51737Y59892*
X51735Y59879*
X51737Y59865*
X51741Y59852*
X51747Y5984*
X51756Y5983*
X51766Y59821*
X51778Y59815*
X51791Y59811*
X51805Y59809*
X51819Y59811*
X51832Y59815*
X51844Y59821*
X51854Y5983*
X51863Y5984*
X51869Y59852*
X51873Y59865*
X51874Y5987*
X51875Y59877*
X51874Y59882*
X51873Y59892*
X51869Y59905*
X51863Y59917*
X51854Y59928*
X51846Y59934*
Y59981*
X51845Y59988*
X51843Y59994*
X51839Y6*
X51842Y60003*
X5185Y59997*
X51867Y59987*
X51886Y59982*
X51905Y5998*
X51924Y59982*
X51943Y59987*
X5196Y59997*
X51975Y60009*
X51987Y60024*
X51996Y60041*
X52002Y60059*
X52004Y60079*
X52002Y60098*
X51996Y60117*
X51987Y60134*
X51975Y60149*
X5196Y60161*
X51943Y6017*
X51924Y60176*
X51905Y60178*
X51886Y60176*
X51867Y6017*
X5185Y60161*
X51835Y60149*
X51823Y60134*
X51814Y60117*
X51809Y60119*
Y60145*
X51808Y60152*
X51806Y60159*
X51801Y60165*
Y60215*
X51728*
Y60487*
X51727Y60494*
X51724Y605*
X5172Y60506*
X51666Y6056*
X51661Y60564*
X51654Y60567*
X51647Y60568*
X51475*
X51473Y60572*
X51482Y6058*
X51491Y6059*
X51497Y60602*
X51501Y60615*
X51503Y60629*
X51501Y60642*
X51497Y60655*
X51491Y60667*
X51482Y60678*
X51472Y60687*
X5146Y60693*
Y60727*
X51459Y60734*
X51457Y6074*
X51452Y60746*
X51432Y60767*
Y60807*
X51436Y60808*
X51442Y60791*
X51451Y60774*
X51463Y60759*
X51478Y60747*
X51495Y60737*
X51514Y60732*
X51533Y6073*
X51552Y60732*
X51571Y60737*
X51588Y60747*
X51603Y60759*
X51615Y60774*
X51624Y60791*
X5163Y60809*
X51632Y60829*
X5163Y60848*
X51624Y60867*
X51615Y60884*
X51603Y60899*
X51588Y60911*
X51571Y6092*
X51552Y60926*
X51533Y60928*
X51514Y60926*
X51495Y6092*
X51478Y60911*
X51463Y60899*
X51451Y60884*
X51442Y60867*
X51436Y60849*
X51432Y6085*
Y60898*
X51446*
Y60993*
X51304*
Y60973*
X51292*
X51285Y60972*
X51278Y60969*
X51272Y60965*
X51238Y6093*
X51234Y60925*
X51231Y60918*
X5123Y60911*
Y60616*
X51231Y60609*
X51234Y60602*
X51238Y60597*
X51314Y60521*
X51319Y60517*
X51326Y60514*
X51333Y60513*
X51636*
X51673Y60476*
Y60215*
X51659*
Y60165*
X51605Y60111*
X51602Y60107*
X51597Y60109*
Y60381*
X51634Y60414*
X51637*
X51645Y60417*
X51652Y60423*
X51657Y60429*
X5166Y60437*
X51661Y60445*
X5166Y60454*
X51657Y60462*
X51652Y60468*
X51645Y60473*
X51637Y60477*
X51629Y60478*
X51621Y60477*
X51613Y60473*
X51606Y60468*
X51601Y60462*
X51598Y60454*
X51552Y60414*
X51551Y60413*
X51549Y6041*
X51547Y60408*
X51546Y60407*
X51545Y60405*
X51544Y60402*
Y60401*
Y604*
X51543Y60398*
Y60395*
Y60394*
Y60393*
Y59831*
X51544Y59824*
X51546Y59818*
X51551Y59812*
X51746Y59617*
Y59567*
X51741Y59565*
X51737Y5957*
X51713Y59595*
X51707Y59599*
X51701Y59602*
X51694Y59603*
X51672*
Y59615*
X51626*
X51528Y59712*
Y603*
X51527Y60307*
X51525Y60314*
X5152Y6032*
X51493Y60347*
X51488Y60351*
X51481Y60354*
Y60367*
X5139*
Y60355*
X5136*
X51359*
X51351Y60358*
X51343Y6036*
X51335Y60358*
X51327Y60355*
X5132Y6035*
X51315Y60343*
X51312Y60336*
X51311Y60327*
X51312Y60319*
X51315Y60311*
X51317Y60309*
X51314Y60305*
X51248*
X5124Y60314*
X5123Y60322*
X51218Y60327*
X51205Y60329*
X51192Y60327*
X5118Y60322*
X5117Y60314*
X51162Y60304*
X51157Y60292*
X51155Y60279*
X51157Y60266*
X51162Y60254*
X5117Y60243*
X5118Y60235*
X51192Y6023*
X51205Y60229*
X51218Y6023*
X5123Y60235*
X5124Y60243*
X51245Y6025*
X51316*
X51321Y60245*
X51327Y60241*
X51333Y60238*
X51334*
X5134Y60237*
X5139*
Y60225*
X51474*
Y59701*
X51475Y59694*
X51477Y59687*
X51482Y59682*
X51581Y59582*
Y5954*
X51536*
X51532Y59544*
X51526Y59548*
X51519Y59551*
X51512Y59552*
X51438*
X51437Y59554*
X51429Y59564*
X51419Y59572*
X51407Y59577*
X51394Y59579*
X51381Y59577*
X51369Y59572*
X51359Y59564*
X51351Y59554*
X51346Y59542*
X51344Y59529*
X51346Y59516*
X51351Y59504*
X51359Y59493*
X51369Y59485*
X51381Y5948*
X51394Y59479*
X51407Y5948*
X51419Y59485*
X51429Y59493*
X51432Y59497*
X51501*
X51505Y59493*
X51511Y59489*
X51517Y59486*
X51524Y59485*
X51581*
Y59473*
X51672*
Y59536*
Y59548*
X51682*
X51691Y5954*
Y59319*
X51327Y58955*
X51267*
X5126Y58954*
X51257Y58952*
X51254Y58951*
X51248Y58947*
X51212Y58911*
X51207Y58905*
X51205Y58898*
X51204Y58891*
Y58865*
X51185*
Y58802*
Y5879*
X51131*
X51127Y58794*
X51121Y58798*
X51115Y58801*
X51108Y58802*
X51064*
X51063Y58804*
X51055Y58814*
X51045Y58822*
X51033Y58827*
X5102Y58829*
X51007Y58827*
X50995Y58822*
X50985Y58814*
X50977Y58804*
X50972Y58792*
X5097Y58779*
X50971Y58774*
X50966Y58772*
X50964Y58774*
X50925*
Y58735*
X50978Y58682*
X50976Y58677*
X5097Y58678*
X50951Y58676*
X50932Y5867*
X50915Y58661*
X509Y58649*
X50888Y58634*
X50879Y58617*
X50877Y58612*
X50872*
Y58671*
X50871Y58678*
X50869Y58685*
X50864Y5869*
X50844Y58711*
Y58762*
X5077*
Y58919*
X50842Y58991*
X50899*
X50906Y58992*
X50913Y58995*
X50919Y58999*
X51096Y59176*
X511Y59182*
X51103Y59188*
X51104Y59196*
Y59287*
X51108Y59289*
X51117Y59282*
X5113Y59277*
X51144Y59275*
X51158Y59277*
X51171Y59282*
X51182Y59291*
X51184Y59293*
X51189Y59292*
Y59287*
X5119Y5928*
X51192Y59274*
X51197Y59268*
X51216Y59249*
Y59192*
X51205Y59187*
X51195Y59178*
X51186Y59167*
X5118Y59155*
X51176Y59142*
X51174Y59129*
X51176Y59115*
X5118Y59102*
X51186Y5909*
X51195Y5908*
X51205Y59071*
X51217Y59065*
X5123Y59061*
X51244Y59059*
X51258Y59061*
X51271Y59065*
X51283Y59071*
X51293Y5908*
X51302Y5909*
X51308Y59102*
X51312Y59115*
X51314Y59129*
X51312Y59142*
X51308Y59155*
X51302Y59167*
X51293Y59178*
X51283Y59187*
X51271Y59193*
X5127*
Y59256*
X51272Y59257*
X51275Y59258*
X51289Y59247*
X51306Y59237*
X51325Y59232*
X51344Y5923*
X51363Y59232*
X51382Y59237*
X51399Y59247*
X51414Y59259*
X51426Y59274*
X51435Y59291*
X51441Y59309*
X51443Y59329*
X51441Y59348*
X51435Y59367*
X51426Y59384*
X51414Y59399*
X51399Y59411*
X51382Y5942*
X51363Y59426*
X51344Y59428*
X51325Y59426*
X51306Y5942*
X51289Y59411*
X51274Y59399*
X51262Y59384*
X51253Y59367*
X51248Y59352*
X51243*
Y59407*
X51242Y59414*
X5124Y59421*
X51235Y59427*
X51233Y59428*
Y59479*
X5116*
Y59602*
X51159Y59609*
X51156Y59615*
X51152Y59621*
X50916Y59857*
Y60036*
X5092Y60038*
X50928Y60032*
X50941Y60027*
X50955Y60025*
X50969Y60027*
X50982Y60032*
X50993Y60041*
X50997Y60046*
X51002Y60044*
Y60019*
X51003Y60012*
X51005Y60005*
X5101Y59999*
X5104Y59969*
Y59946*
X51028Y59943*
X51016Y59937*
X51006Y59928*
X50997Y59917*
X50991Y59905*
X50987Y59892*
X50985Y59879*
X50987Y59865*
X50991Y59852*
X50997Y5984*
X51006Y5983*
X51016Y59821*
X51028Y59815*
X51041Y59811*
X51055Y59809*
X51069Y59811*
X51082Y59815*
X51094Y59821*
X51104Y5983*
X51113Y5984*
X51119Y59852*
X51123Y59865*
X51125Y59879*
X51123Y59892*
X51119Y59905*
X51113Y59917*
X51104Y59928*
X51094Y59936*
Y59981*
X51093Y59988*
X51091Y59994*
X51086Y6*
X51056Y6003*
Y60048*
X51061Y60049*
X51064Y60041*
X51073Y60024*
X51085Y60009*
X511Y59997*
X51117Y59987*
X51136Y59982*
X51155Y5998*
X51174Y59982*
X51193Y59987*
X5121Y59997*
X51225Y60009*
X51237Y60024*
X51246Y60041*
X51252Y60059*
X51254Y60079*
X51252Y60098*
X51246Y60117*
X51237Y60134*
X51225Y60149*
X5121Y60161*
X51193Y6017*
X51174Y60176*
X51155Y60178*
X51136Y60176*
X51117Y6017*
X511Y60161*
X51085Y60149*
X51073Y60134*
X51064Y60117*
X51061Y60108*
X51056Y60109*
Y60145*
X51055Y60151*
Y60152*
X51053Y60158*
X51048Y60164*
X51047Y60165*
Y60215*
X50974*
Y60444*
X50973Y60451*
X5097Y60458*
X50966Y60464*
X50913Y60517*
X50907Y60521*
X50901Y60524*
X50893Y60525*
X50642*
X50532Y60635*
Y60799*
X50537Y60801*
X50545Y60791*
X50556Y60782*
X50569Y60777*
X50583Y60775*
X50597Y60777*
X5061Y60782*
X50619Y60789*
X50623Y60787*
Y60753*
X50624Y60746*
X50627Y6074*
X50631Y60734*
X50656Y60709*
Y60693*
X50644Y60687*
X50634Y60678*
X50625Y60667*
X50619Y60655*
X50615Y60642*
X50613Y60629*
X50615Y60615*
X50619Y60602*
X50625Y6059*
X50634Y6058*
X50644Y60571*
X50656Y60565*
X50669Y60561*
X50683Y60559*
X50697Y60561*
X5071Y60565*
X50722Y60571*
X50732Y6058*
X50741Y6059*
X50747Y60602*
X50751Y60615*
X50753Y60629*
X50751Y60642*
X50747Y60655*
X50741Y60667*
X50732Y60678*
X50722Y60687*
X5071Y60693*
Y60721*
X50709Y60728*
X50708Y60732*
X50707Y60734*
X50702Y6074*
X50678Y60765*
Y60898*
X50692*
Y60993*
X5055*
Y60972*
X50549*
X50542Y60969*
X50536Y60965*
X50486Y60914*
X50481Y60908*
X50479Y60902*
X50478Y60895*
Y60623*
X50479Y60616*
X50481Y6061*
X50486Y60604*
X50612Y60478*
X50617Y60474*
X50624Y60471*
X50631Y6047*
X50882*
X50919Y60433*
Y60215*
X50905*
Y60165*
X50869Y60129*
X50865Y60124*
X50862Y60117*
X50861Y6011*
Y59846*
X50862Y59839*
X50865Y59832*
X50869Y59826*
X51105Y5959*
Y59479*
X51091*
Y59428*
X51057Y59395*
X51053Y59389*
X5105Y59383*
X51049Y59376*
Y59207*
X50888Y59045*
X5083*
X50829*
X50827Y5905*
X51022Y59245*
X51026Y59251*
X51029Y59257*
X5103Y59264*
Y59507*
X51029Y59514*
X51026Y59521*
X51022Y59527*
X50955Y59594*
X50949Y59598*
X50943Y59601*
X50936Y59602*
X50918*
Y59614*
X50897*
X50896Y59615*
X50892Y5962*
X50844Y59669*
Y60255*
X50843Y60262*
X5084Y60269*
X50836Y60275*
X50764Y60347*
X50758Y60351*
X50752Y60354*
X50745Y60355*
X50724*
Y60367*
X50633*
Y60355*
X50579*
X50578*
X5057Y60358*
X50562Y6036*
X50554Y60358*
X50546Y60355*
X50539Y6035*
X50534Y60343*
X50531Y60336*
X5053Y60327*
X50531Y60319*
X50534Y60311*
X50536Y60309*
X50533Y60305*
X50498*
X5049Y60314*
X5048Y60322*
X50468Y60327*
X50455Y60329*
X50442Y60327*
X5043Y60322*
X5042Y60314*
X50412Y60304*
X50407Y60292*
X50405Y60279*
X50407Y60266*
X50412Y60254*
X5042Y60243*
X5043Y60235*
X50442Y6023*
X50455Y60229*
X50468Y6023*
X5048Y60235*
X5049Y60243*
X50495Y6025*
X50554*
X50559Y60245*
X50565Y60241*
X50571Y60238*
X50572*
X50578Y60237*
X50633*
Y60225*
X50724*
Y60288*
Y603*
X50734*
X50789Y60244*
Y59657*
X5079Y5965*
X50793Y59644*
X50797Y59638*
X50827Y59608*
Y59539*
X50767*
X50762Y59544*
X50756Y59548*
X5075Y59551*
X50743Y59552*
X50688*
X50687Y59554*
X50679Y59564*
X50669Y59572*
X50657Y59577*
X50644Y59579*
X50631Y59577*
X50619Y59572*
X50609Y59564*
X50601Y59554*
X50596Y59542*
X50594Y59529*
X50596Y59516*
X50601Y59504*
X50609Y59493*
X50619Y59485*
X50631Y5948*
X50644Y59479*
X50657Y5948*
X50669Y59485*
X50679Y59493*
X50682Y59497*
X50731*
X50736Y59492*
X50742Y59488*
X50749Y59485*
X50756Y59484*
X50827*
Y59472*
X50918*
Y59535*
Y59547*
X50924*
X50975Y59496*
Y59276*
X50654Y58954*
X50531*
X50524Y58953*
X50518Y5895*
X50512Y58946*
X50458Y58892*
X50454Y58886*
X50451Y5888*
X5045Y58873*
Y58863*
X50432*
Y58788*
X5038*
X50374Y58794*
X50368Y58798*
X50362Y58801*
X50355Y58802*
X50314*
X50313Y58804*
X50305Y58814*
X50295Y58822*
X50283Y58827*
X5027Y58829*
X50257Y58827*
X50245Y58822*
X50235Y58814*
X50227Y58804*
X50222Y58792*
X5022Y58779*
X50222Y58766*
X50227Y58754*
X50235Y58743*
X50245Y58735*
X50257Y5873*
X5027Y58729*
X50283Y5873*
X50295Y58735*
X50305Y58743*
X50308Y58747*
X50344*
X5035Y58741*
X50355Y58737*
X50362Y58734*
X50363*
X50369Y58733*
X50432*
Y58721*
X50523*
Y58784*
Y58863*
X50513*
X50511Y58868*
X50543Y58899*
X50665*
X50672Y589*
X50679Y58903*
X50684Y58907*
X50711Y58934*
X50716Y58932*
Y58931*
Y58762*
X50701*
Y58711*
X50678Y58687*
X50677*
X50669Y58684*
X50662Y58679*
X50657Y58672*
X50654Y58665*
X50653Y58656*
X50654Y58648*
X50657Y5864*
X50658Y58639*
Y58406*
X50596Y58344*
X50507Y58255*
X50503Y5825*
X505Y58243*
X50499Y58236*
Y58137*
X50485*
Y58042*
X50558*
Y57967*
X50559Y5796*
X50562Y57954*
X50566Y57948*
X50579Y57935*
Y579*
X50574Y57899*
X50573Y57905*
X50563Y57928*
X5055Y57949*
X50534Y57968*
X50515Y57984*
X50494Y57997*
X50471Y58006*
X50447Y58012*
X50422Y58014*
X50397Y58012*
X50373Y58006*
X5035Y57997*
X50329Y57984*
X5031Y57968*
X50294Y57949*
X50281Y57928*
X50271Y57905*
X50266Y57881*
X50264Y57856*
X50266Y57831*
X50271Y57807*
X50281Y57784*
X50294Y57763*
X5031Y57744*
X50329Y57728*
X5035Y57715*
X50373Y57705*
X50397Y577*
X50422Y57698*
X50447Y577*
X50471Y57705*
X50494Y57715*
X50515Y57728*
X50534Y57744*
X5055Y57763*
X50563Y57784*
X50573Y57807*
X50574Y57812*
X50579*
Y57785*
X5058Y57778*
X50582Y57771*
X50587Y57765*
X50664Y57688*
X50714Y57638*
X50713Y57629*
X50714Y57615*
X50718Y57602*
X5072Y57599*
X50714Y57591*
X50707Y57577*
X50702Y57562*
X507Y57547*
X50702Y57531*
X50707Y57516*
X50714Y57502*
X50724Y5749*
X50736Y5748*
X5074Y57478*
X50739Y57473*
X50732Y57471*
X50728Y57469*
X50072*
X50071Y57474*
X50082Y5748*
X50095Y5749*
X50105Y57502*
X50112Y57516*
X50117Y57531*
X50118Y57547*
X50117Y57562*
X50112Y57577*
X50105Y57591*
X50095Y57603*
X50082Y57613*
X50069Y57621*
X50054Y57625*
X50038Y57627*
X50022Y57625*
X50007Y57621*
X49993Y57613*
X49981Y57603*
X49971Y57591*
X49964Y57577*
X49959Y57562*
X49957Y57547*
X49959Y57531*
X49964Y57516*
X49971Y57502*
X49981Y5749*
X49993Y5748*
X50005Y57474*
X50003Y57469*
X49672*
X4967Y57473*
X49753Y57556*
X49758Y57562*
X4976Y57569*
Y5757*
X49761Y57576*
Y57928*
X4976Y57934*
Y57935*
X49758Y57941*
X49753Y57947*
X49573Y58127*
X49568Y58131*
X49561Y58134*
X49554Y58135*
X49123*
X49116Y58134*
X49109Y58131*
X49103Y58127*
X49084Y58107*
X49079Y58109*
Y58784*
X49078Y5879*
Y58791*
X49076Y58797*
X49071Y58803*
X49032Y58843*
X49026Y58847*
X49019Y5885*
X49016*
Y58863*
X48997*
Y58877*
Y58884*
X48994Y58891*
X48989Y58897*
X48871Y59015*
Y59052*
Y59058*
Y59059*
X48868Y59065*
X48864Y59071*
X48846Y59088*
Y5909*
X48843Y59097*
X48838Y59104*
X48831Y59109*
X48823Y59112*
X48815Y59114*
X48806Y59112*
X48799Y59109*
X48792Y59104*
X48787Y59097*
X48784Y5909*
X48783Y59081*
X48784Y59073*
X48787Y59065*
X48792Y59058*
X48799Y59053*
X48806Y5905*
X48808*
X48817Y59041*
Y59003*
X48818Y58996*
X48821Y5899*
X48825Y58984*
X48941Y58868*
X4894Y58863*
X48925*
Y58788*
X48875*
X48869Y58794*
X48864Y58798*
X48857Y58801*
X4885Y58802*
X48814*
X48813Y58804*
X48805Y58814*
X48795Y58822*
X48783Y58827*
X4877Y58829*
X48757Y58827*
X48745Y58822*
X48735Y58814*
X48727Y58804*
X48722Y58792*
X4872Y58779*
X48722Y58766*
X48727Y58754*
X48735Y58743*
X48745Y58735*
X48757Y5873*
X4877Y58729*
X48783Y5873*
X48795Y58735*
X48805Y58743*
X48808Y58747*
X48839*
X48845Y58741*
X4885Y58737*
X48853Y58736*
X48857Y58734*
X48864Y58733*
X48925*
Y58721*
X49016*
Y58775*
X4902Y58777*
X49025Y58773*
Y58093*
X49022*
Y5799*
X49025*
Y57984*
X49026Y57977*
X49028Y57971*
X49033Y57965*
X49058Y5794*
X49063Y57936*
X4907Y57933*
X49071*
X49077Y57932*
X49121*
X49128Y57933*
X49135Y57936*
X4914Y5794*
X49171Y57971*
X49176Y57977*
X49178Y57983*
Y57984*
X49179Y5799*
Y57994*
X49184Y57997*
X49187Y57994*
X49194Y57991*
X49202Y5799*
X4921Y57991*
X49217Y57994*
X49223Y57999*
X49228Y58005*
X49231Y58013*
X49232Y5802*
Y58063*
X49231Y58071*
X49229Y58076*
Y58081*
X49317*
Y57996*
X49396*
Y58006*
X49416*
X49537Y57884*
Y57685*
X49529Y57678*
X49523Y5767*
X49518Y57671*
X49515Y57676*
X49508Y57685*
X49498Y57693*
X49488Y57698*
X49477Y57702*
X49465Y57703*
X49453Y57702*
X49442Y57698*
X49432Y57693*
X49422Y57685*
X49417Y57679*
X49412*
X49408Y57685*
X49398Y57693*
X49388Y57698*
X49377Y57702*
X49365Y57703*
X49353Y57702*
X49342Y57698*
X49332Y57693*
X49322Y57685*
X49318Y57679*
X49312*
X49308Y57685*
X49298Y57693*
X49288Y57698*
X49277Y57702*
X49265Y57703*
X49253Y57702*
X49242Y57698*
X49232Y57693*
X49222Y57685*
X49217Y57679*
X49213*
X49208Y57685*
X49198Y57693*
X49188Y57698*
X49177Y57702*
X49165Y57703*
X49153Y57702*
X49142Y57698*
X49132Y57693*
X4913Y57691*
X49125Y57693*
Y57703*
X49091*
Y57706*
X4909Y57714*
X49087Y5772*
X49083Y57726*
X4908Y57729*
Y57778*
X49084Y5778*
X49087Y57778*
X49094Y57775*
X49102Y57774*
X4911Y57775*
X49117Y57778*
X49123Y57782*
X49124Y57784*
X49129*
X4913Y57782*
X49137Y57778*
X49144Y57775*
X49152Y57774*
X4916Y57775*
X49167Y57778*
X49173Y57782*
X49174Y57784*
X49179*
X4918Y57782*
X49187Y57778*
X49194Y57775*
X49202Y57774*
X4921Y57775*
X49217Y57778*
X49223Y57782*
X49228Y57789*
X49231Y57796*
X49232Y57804*
Y57847*
X49231Y57855*
X49228Y57862*
X49223Y57868*
X49217Y57873*
X4921Y57876*
X49202Y57877*
X49194Y57876*
X49187Y57873*
X4918Y57868*
X49179Y57867*
X49174*
X49173Y57868*
X49167Y57873*
X4916Y57876*
X49152Y57877*
X49144Y57876*
X49137Y57873*
X4913Y57868*
X49129Y57867*
X49124*
X49123Y57868*
X49117Y57873*
X4911Y57876*
X49102Y57877*
X49094Y57876*
X49087Y57873*
X4908Y57868*
X49079Y57867*
X49074*
X49073Y57868*
X49067Y57873*
X4906Y57876*
X49052Y57877*
X49044Y57876*
X49037Y57873*
X4903Y57868*
X49026Y57862*
X49023Y57855*
X49022Y57847*
Y57804*
X49023Y57796*
X49024Y57792*
Y57791*
X4902Y57789*
X48983Y57826*
Y58046*
X48982Y58053*
X48979Y5806*
X48975Y58065*
X48887Y58153*
X48884Y58161*
X48879Y58168*
X48872Y58173*
X48864Y58176*
X48856Y58177*
X48848Y58176*
X4884Y58173*
X48833Y58168*
X48828Y58161*
X48825Y58153*
X48824Y58148*
X48819Y58146*
X48684Y58281*
X48679Y58285*
X48672Y58288*
X48665Y58289*
X48511*
X48455Y58344*
Y58345*
X48452Y58353*
X48451Y58354*
Y58646*
X48472Y58667*
X48549*
X4857Y58646*
Y58609*
X48565Y58608*
X48558Y58617*
X48547Y58625*
X48534Y58631*
X4852Y58633*
X48506Y58631*
X48493Y58625*
X48482Y58617*
X48473Y58606*
X48468Y58593*
X48466Y58579*
X48468Y58565*
X48473Y58552*
X48482Y58541*
X48493Y58532*
X48506Y58527*
X4852Y58525*
X48534Y58527*
X48547Y58532*
X48558Y58541*
X48565Y5855*
X4857Y58548*
Y585*
X48571Y58493*
X48573Y58486*
X48578Y58481*
X48602Y58456*
Y58446*
X48593Y58443*
X48581Y58437*
X48571Y58428*
X48562Y58417*
X48556Y58405*
X48552Y58392*
X4855Y58379*
X48552Y58365*
X48556Y58352*
X48562Y5834*
X48571Y5833*
X48581Y58321*
X48593Y58315*
X48606Y58311*
X4862Y58309*
X48634Y58311*
X48647Y58315*
X48659Y58321*
X48669Y5833*
X48678Y5834*
X48684Y58352*
X48688Y58365*
X4869Y58379*
X48688Y58392*
X48684Y58405*
X48678Y58417*
X48669Y58428*
X48659Y58437*
X48656Y58438*
Y58468*
X48655Y58475*
X48653Y58481*
X48648Y58487*
X48624Y58511*
Y58539*
X48629Y5854*
X48638Y58524*
X4865Y58509*
X48665Y58497*
X48682Y58487*
X48701Y58482*
X4872Y5848*
X48739Y58482*
X48758Y58487*
X48775Y58497*
X4879Y58509*
X48802Y58524*
X48811Y58541*
X48817Y58559*
X48819Y58579*
X48817Y58598*
X48811Y58617*
X48802Y58634*
X4879Y58649*
X48775Y58661*
X48758Y5867*
X48739Y58676*
X4872Y58678*
X48701Y58676*
X48682Y5867*
X48665Y58661*
X4865Y58649*
X48638Y58634*
X48629Y58617*
X48624Y58619*
Y58657*
X48623Y58664*
X48621Y58671*
X48616Y58676*
X48582Y58711*
Y58762*
X48508*
Y58918*
X48581Y58991*
X48635*
X48642Y58992*
X48648Y58995*
X48654Y58999*
X48817Y59162*
X48822Y59168*
X48824Y59175*
X48825Y59182*
Y59375*
X48834Y59384*
X48875*
X48876Y59379*
X48867Y59375*
X48856Y59367*
X48847Y59356*
X48842Y59343*
X4884Y59329*
X48842Y59315*
X48847Y59302*
X48856Y59291*
X48867Y59282*
X4888Y59277*
X48894Y59275*
X48908Y59277*
X48921Y59282*
X48932Y59291*
X48936Y59296*
X48941Y59294*
Y5927*
X48942Y59263*
X48944Y59256*
X48949Y5925*
X48962Y59237*
Y5919*
X48955Y59187*
X48945Y59178*
X48936Y59167*
X4893Y59155*
X48926Y59142*
X48924Y59129*
X48926Y59115*
X4893Y59102*
X48936Y5909*
X48945Y5908*
X48955Y59071*
X48967Y59065*
X4898Y59061*
X48994Y59059*
X49008Y59061*
X49021Y59065*
X49033Y59071*
X49043Y5908*
X49052Y5909*
X49058Y59102*
X49062Y59115*
X49064Y59129*
X49062Y59142*
X49058Y59155*
X49052Y59167*
X49043Y59178*
X49033Y59187*
X49021Y59193*
X49016Y59194*
Y59249*
X49015Y59256*
X49013Y59262*
X49008Y59268*
X48995Y59281*
Y59298*
X49Y59299*
X49003Y59291*
X49012Y59274*
X49024Y59259*
X49039Y59247*
X49056Y59237*
X49075Y59232*
X49094Y5923*
X49113Y59232*
X49132Y59237*
X49149Y59247*
X49164Y59259*
X49176Y59274*
X49185Y59291*
X49191Y59309*
X49193Y59329*
X49191Y59348*
X49185Y59367*
X49176Y59384*
X49164Y59399*
X49149Y59411*
X49132Y5942*
X49113Y59426*
X49094Y59428*
X49075Y59426*
X49056Y5942*
X49039Y59411*
X49024Y59399*
X49012Y59384*
X49003Y59367*
X49Y59358*
X48995Y59359*
Y59394*
X48994Y59401*
Y59402*
X48992Y59408*
X48987Y59414*
X48973Y59428*
Y59479*
X48899*
Y59606*
X48898Y59613*
X48895Y59619*
X48891Y59625*
X48654Y59862*
Y6005*
X48659Y60051*
X48667Y60041*
X48678Y60032*
X48691Y60027*
X48705Y60025*
X48719Y60027*
X48732Y60032*
X48743Y60041*
X48752Y60052*
X48756Y60062*
X48761Y60061*
Y60007*
X48762Y6*
X48764Y59993*
X48769Y59987*
X48786Y5997*
Y59945*
X48778Y59943*
X48766Y59937*
X48756Y59928*
X48747Y59917*
X48741Y59905*
X48737Y59892*
X48735Y59879*
X48737Y59865*
X48741Y59852*
X48747Y5984*
X48756Y5983*
X48766Y59821*
X48778Y59815*
X48791Y59811*
X48805Y59809*
X48819Y59811*
X48832Y59815*
X48844Y59821*
X48854Y5983*
X48863Y5984*
X48869Y59852*
X48873Y59865*
X48875Y59879*
X48873Y59892*
X48869Y59905*
X48863Y59917*
X48854Y59928*
X48844Y59937*
X4884Y59938*
Y59982*
X48839Y59989*
X48837Y59995*
X48832Y60001*
X48815Y60018*
Y60028*
X4882Y60029*
X48823Y60024*
X48835Y60009*
X4885Y59997*
X48867Y59987*
X48886Y59982*
X48905Y5998*
X48924Y59982*
X48943Y59987*
X4896Y59997*
X48975Y60009*
X48987Y60024*
X48996Y60041*
X49002Y60059*
X49004Y60079*
X49002Y60098*
X48996Y60117*
X48987Y60134*
X48975Y60149*
X4896Y60161*
X48943Y6017*
X48924Y60176*
X48905Y60178*
X48886Y60176*
X48867Y6017*
X4885Y60161*
X48835Y60149*
X48823Y60134*
X4882Y60128*
X48815Y60129*
X48814Y60133*
X48812Y60139*
X48807Y60145*
X48787Y60165*
Y60215*
X48714*
Y60407*
X48713Y60414*
X48711Y60418*
X4871Y60421*
X48706Y60426*
X48614Y60519*
X48608Y60523*
X48601Y60526*
X48594Y60527*
X48364*
X48282Y60609*
Y60799*
X48287Y60801*
X48295Y60791*
X48306Y60782*
X48319Y60777*
X48333Y60775*
X48347Y60777*
X4836Y60782*
X48371Y60791*
X4838Y60802*
X48385Y60801*
Y60746*
X48386Y60739*
X48388Y60732*
X48393Y60726*
X48406Y60713*
Y60693*
X48394Y60687*
X48384Y60678*
X48375Y60667*
X48369Y60655*
X48365Y60642*
X48363Y60629*
X48365Y60615*
X48369Y60602*
X48375Y6059*
X48384Y6058*
X48394Y60571*
X48406Y60565*
X48419Y60561*
X48433Y60559*
X48447Y60561*
X4846Y60565*
X48472Y60571*
X48482Y6058*
X48491Y6059*
X48497Y60602*
X48501Y60615*
X48503Y60629*
X48501Y60642*
X48497Y60655*
X48491Y60667*
X48482Y60678*
X48472Y60687*
X4846Y60693*
Y60725*
X48459Y60732*
X48457Y60738*
X48452Y60744*
X48439Y60757*
Y60785*
X48444Y60786*
X48451Y60774*
X48463Y60759*
X48478Y60747*
X48495Y60737*
X48514Y60732*
X48533Y6073*
X48552Y60732*
X48571Y60737*
X48588Y60747*
X48603Y60759*
X48615Y60774*
X48624Y60791*
X4863Y60809*
X48632Y60829*
X4863Y60848*
X48624Y60867*
X48615Y60884*
X48603Y60899*
X48588Y60911*
X48571Y6092*
X48552Y60926*
X48533Y60928*
X48514Y60926*
X48495Y6092*
X48478Y60911*
X48463Y60899*
X48451Y60884*
X48444Y60871*
X48439Y60872*
Y60873*
X48438Y6088*
X48436Y60886*
X48431Y60892*
X4843Y60893*
X48432Y60898*
X48433*
Y60993*
X48291*
Y60972*
X48284Y60969*
X48278Y60965*
X48236Y60922*
X48232Y60917*
X48229*
X48227Y60918*
Y60997*
X48226Y61004*
X48223Y61011*
X48219Y61017*
X48134Y61101*
Y61102*
Y61105*
X48137Y61109*
X48754*
X48776Y61087*
Y61057*
Y61044*
X48754*
X48748Y6105*
X48742Y61055*
X48736Y61058*
X48728*
X48623*
X48618Y61064*
X48608Y61072*
X48596Y61077*
X48583Y61079*
X4857Y61077*
X48558Y61072*
X48548Y61064*
X4854Y61054*
X48535Y61042*
X48533Y61029*
X48535Y61016*
X4854Y61004*
X48548Y60993*
X48558Y60985*
X4857Y6098*
X48583Y60979*
X48596Y6098*
X48608Y60985*
X48618Y60993*
X48626Y61004*
X48717*
X48723Y60998*
X48729Y60994*
X48735Y60991*
X48736*
X48742Y6099*
X48776*
Y60978*
X48867*
Y61041*
Y61081*
X48895Y61109*
X4951*
X49531Y61088*
Y61058*
Y61045*
X49494*
X49489Y6105*
X49484Y61055*
X49477Y61058*
X4947*
X49373*
X49368Y61064*
X49358Y61072*
X49346Y61077*
X49333Y61079*
X4932Y61077*
X49308Y61072*
X49298Y61064*
X4929Y61054*
X49285Y61042*
X49283Y61029*
X49285Y61016*
X4929Y61004*
X49298Y60993*
X49308Y60985*
X4932Y6098*
X49333Y60979*
X49346Y6098*
X49358Y60985*
X49368Y60993*
X49376Y61004*
X49459*
X49464Y60999*
X49469Y60995*
X49476Y60992*
X49477*
X49483Y60991*
X49531*
Y60979*
X49622*
Y61042*
Y61082*
X49649Y61109*
X50261*
X50283Y61087*
Y61057*
Y61044*
X5025*
X50244Y6105*
X50239Y61055*
X50232Y61058*
X50225*
X50123*
X50118Y61064*
X50108Y61072*
X50096Y61077*
X50083Y61079*
X5007Y61077*
X50058Y61072*
X50048Y61064*
X5004Y61054*
X50035Y61042*
X50033Y61029*
X50035Y61016*
X5004Y61004*
X50048Y60993*
X50058Y60985*
X5007Y6098*
X50083Y60979*
X50096Y6098*
X50108Y60985*
X50118Y60993*
X50126Y61004*
X50214*
X5022Y60998*
X50225Y60994*
X50232Y60991*
X50239Y6099*
X50283*
Y60978*
X50374*
Y61041*
Y61087*
X50396Y61109*
X51016*
X51037Y61088*
Y61045*
X51006*
X51001Y6105*
X50995Y61055*
X50989Y61058*
X50982*
X50873*
X50868Y61064*
X50858Y61072*
X50846Y61077*
X50833Y61079*
X5082Y61077*
X50808Y61072*
X50798Y61064*
X5079Y61054*
X50785Y61042*
X50783Y61029*
X50785Y61016*
X5079Y61004*
X50798Y60993*
X50808Y60985*
X5082Y6098*
X50833Y60979*
X50846Y6098*
X50858Y60985*
X50868Y60993*
X50876Y61004*
X50971*
X50976Y60999*
X50981Y60995*
X50988Y60992*
X50989*
X50995Y60991*
X51037*
Y60979*
X51128*
Y61042*
Y6108*
X51157Y61109*
X51769*
X51791Y61087*
Y61057*
Y61044*
X5177*
X51764Y6105*
X51758Y61055*
X51751Y61058*
X51744*
X51623*
X51618Y61064*
X51608Y61072*
X51596Y61077*
X51583Y61079*
X5157Y61077*
X51558Y61072*
X51548Y61064*
X5154Y61054*
X51535Y61042*
X51533Y61029*
X51535Y61016*
X5154Y61004*
X51548Y60993*
X51558Y60985*
X5157Y6098*
X51583Y60979*
X51596Y6098*
X51608Y60985*
X51618Y60993*
X51626Y61004*
X51733*
X51739Y60998*
X51745Y60994*
X51751Y60991*
X51752*
X51758Y6099*
X51791*
Y60978*
X51882*
Y61041*
Y61087*
X51904Y61109*
X52527*
X52548Y61088*
Y61045*
X52502*
X52497Y6105*
X52492Y61055*
X52485Y61058*
X52478*
X52373*
X52368Y61064*
X52358Y61072*
X52346Y61077*
X52333Y61079*
X5232Y61077*
X52308Y61072*
X52298Y61064*
X5229Y61054*
X52285Y61042*
X52283Y61029*
X52285Y61016*
X5229Y61004*
X52298Y60993*
X52308Y60985*
X5232Y6098*
X52333Y60979*
X52346Y6098*
X52358Y60985*
X52368Y60993*
X52376Y61004*
X52467*
X52472Y60999*
X52477Y60995*
X52484Y60992*
X52485*
X52491Y60991*
X52548*
Y60979*
X52639*
Y61042*
Y61054*
X5268*
Y61042*
Y60979*
X52772*
Y60986*
X52776Y60988*
X52798Y60966*
X52796Y60962*
X52783*
X52777Y60961*
X52776*
X52769Y60958*
X52764Y60954*
X52644Y60834*
X52639Y60828*
X52637Y60821*
X52636Y60814*
Y60511*
X52606Y60476*
X52599Y60473*
X52592Y60468*
X52587Y60462*
X52584Y60454*
X52583Y60445*
X52584Y60437*
X52587Y60429*
X52592Y60423*
X52599Y60417*
X52607Y60414*
X52615Y60413*
X52623Y60414*
X52631Y60417*
X52638Y60423*
X52643Y60429*
X52646Y60437*
X52647Y6044*
X52684Y60482*
X52685Y60485*
X52687Y60487*
Y60488*
X52688Y60491*
X52689Y60493*
Y60494*
X5269Y60495*
Y60498*
Y605*
Y60803*
X52794Y60907*
X52966*
X52968Y60902*
X52963Y60899*
X52951Y60884*
X52942Y60867*
X52936Y60848*
X52934Y60829*
X52936Y60809*
X52942Y60791*
X52951Y60774*
X52963Y60759*
X52978Y60747*
X52995Y60737*
X53014Y60732*
X53033Y6073*
X53052Y60732*
X53071Y60737*
X53088Y60747*
X53103Y60759*
X53115Y60774*
X53124Y60791*
X5313Y60809*
X53132Y60829*
X5313Y60848*
X53124Y60867*
X53115Y60884*
X53103Y60899*
X53098Y60902*
X531Y60907*
X53341*
X53343Y60902*
X53338Y60899*
X53326Y60884*
X53317Y60867*
X53311Y60848*
X53309Y60829*
X53311Y60809*
X53317Y60791*
X53326Y60774*
X53338Y60759*
X53353Y60747*
X5337Y60737*
X53389Y60732*
X53408Y6073*
X53427Y60732*
X53446Y60737*
X53463Y60747*
X53478Y60759*
X5349Y60774*
X53499Y60791*
X53505Y60809*
X53507Y60829*
X53505Y60848*
X53499Y60867*
X5349Y60884*
X53478Y60899*
X53473Y60902*
X53475Y60907*
X53716*
X53718Y60902*
X53713Y60899*
X53701Y60884*
X53692Y60867*
X53686Y60848*
X53684Y60829*
X53686Y60809*
X53692Y60791*
X53701Y60774*
X53713Y60759*
X53728Y60747*
X53745Y60737*
X53764Y60732*
X53783Y6073*
X53802Y60732*
X53821Y60737*
X53838Y60747*
X53853Y60759*
X53865Y60774*
X53874Y60791*
X53878Y60804*
X53883Y60805*
X53896Y60792*
X53895Y60787*
X53894*
X53884Y60778*
X53875Y60767*
X53869Y60755*
X53865Y60742*
X53863Y60729*
X53865Y60715*
X53869Y60702*
X53875Y6069*
X53884Y6068*
X53894Y60671*
X53906Y60665*
X53919Y60661*
X53933Y60659*
X53947Y60661*
X5396Y60665*
X53972Y60671*
X53982Y6068*
X53991Y6069*
X53997Y60702*
X54001Y60715*
X54003Y60729*
X54001Y60742*
X53997Y60755*
X53991Y60767*
X53988Y60771*
X5399Y60776*
X53997Y60777*
X5401Y60782*
X54021Y60791*
X5403Y60802*
X54035Y60815*
X54037Y60829*
X54035Y60843*
X5403Y60856*
X54021Y60867*
X5401Y60875*
X53997Y60881*
X53983Y60883*
X53969Y60881*
X53956Y60875*
X53945Y60867*
X53936Y60856*
X53933Y60848*
X53928Y60849*
Y60885*
X53927Y60892*
X53925Y60899*
X5392Y60905*
X53883Y60941*
X53886Y60946*
X53889*
X53973*
X53981*
X53987Y60949*
X53993Y60953*
X54008Y60969*
X54047*
Y60486*
X53937Y60376*
X53833*
X53832*
X53831*
X53825*
X53818Y60378*
X5381Y6038*
X53802Y60378*
X53794Y60375*
X53787Y6037*
X53782Y60363*
X53779Y60356*
X53778Y60347*
X53779Y60339*
X53782Y60331*
X53785Y60328*
X53782Y60323*
X53747*
Y60305*
X53688*
X5368Y60314*
X5367Y60322*
X53658Y60327*
X53645Y60329*
X53632Y60327*
X5362Y60322*
X5361Y60314*
X53602Y60304*
X53597Y60292*
X53595Y60279*
X53597Y60266*
X53602Y60254*
X5361Y60243*
X5362Y60235*
X53632Y6023*
X53645Y60229*
X53658Y6023*
X5367Y60235*
X5368Y60243*
X53685Y6025*
X53747*
Y60232*
X53889*
Y60322*
X53948*
X53955*
X53962Y60325*
X53967Y60329*
X54093Y60455*
X54098Y60461*
X541Y60468*
X54101Y60475*
Y61055*
X541Y61061*
Y61062*
X54098Y61068*
X54093Y61074*
X54077Y61091*
X54071Y61095*
X54065Y61098*
X54058*
X54055*
Y61111*
X53963*
Y61107*
X53958Y61106*
X53957Y61121*
X53952Y61136*
X53945Y6115*
X53935Y61162*
X53923Y61172*
X53909Y61179*
X53897Y61183*
X53898Y61188*
X54044*
X54047*
X54058Y61187*
G37*
G36*
X4645Y57575D02*
X46455Y57571D01*
X46462Y57568*
X46469*
X46614*
X46621*
X46627Y57571*
X46633Y57575*
X46662Y57604*
X46666Y5761*
X46669Y57617*
X4671*
Y57596*
X46711Y57589*
X46713Y57582*
X46718Y57577*
X46821Y57473*
X46819Y57469*
X46353*
X46349Y57471*
X46341Y57473*
X46332Y57471*
X46328Y57469*
X46317*
X46316Y57474*
X46327Y5748*
X4634Y5749*
X4635Y57502*
X46357Y57516*
X46362Y57531*
X46363Y57547*
X46362Y57562*
X46357Y57577*
X4635Y57591*
X4634Y57603*
X46327Y57613*
X46314Y57621*
X46299Y57625*
X46283Y57627*
X46267Y57625*
X46252Y57621*
X46238Y57613*
X46226Y57603*
X46216Y57591*
X46209Y57577*
X46204Y57562*
X46202Y57547*
X46204Y57531*
X46209Y57516*
X46216Y57502*
X46226Y5749*
X46238Y5748*
X46241Y57478*
Y57473*
X46233Y57471*
X46229Y57469*
X46166*
X46162Y57471*
X46154Y57473*
X46145Y57471*
X46141Y57469*
X46129*
X46128Y57474*
X46139Y5748*
X46152Y5749*
X46162Y57502*
X46169Y57516*
X46174Y57531*
X46175Y57547*
X46174Y57562*
X46169Y57577*
X46162Y57591*
X46152Y57603*
X46139Y57613*
X46128Y57619*
X4613Y57624*
X46167*
Y57641*
X46385*
X4645Y57575*
G37*
G36*
X52356Y59856D02*
X52361Y5985D01*
X5262Y59591*
Y59479*
X52606*
Y59459*
X52601Y59458*
X52594Y59455*
X52589Y59451*
X5254Y59403*
X52536Y59405*
Y59529*
X52535Y59535*
Y59536*
X52532Y59543*
X52528Y59548*
X52483Y59594*
X52477Y59598*
X5247Y59601*
X52463Y59602*
X52423*
Y59614*
X52405*
Y59665*
X52408Y59668*
X52409*
X52416Y59671*
X52423Y59677*
X52428Y59683*
X52432Y59691*
X52433Y59699*
X52432Y59708*
X52428Y59715*
X52423Y59722*
X52416Y59727*
X52409Y59731*
X524Y59732*
X52392Y59731*
X52384Y59727*
X52378Y59722*
X52372Y59715*
X52369Y59708*
Y59707*
X52358Y59696*
X52355Y59691*
X5235Y59692*
Y59859*
X52355Y5986*
X52356Y59856*
G37*
G36*
X46173Y57707D02*
X4618Y57706D01*
X46451*
Y57658*
X46447Y57656*
X46415Y57687*
X4641Y57691*
X46403Y57694*
X46396Y57695*
X46167*
Y57705*
X46171Y57708*
X46173Y57707*
G37*
G36*
X51862Y59577D02*
Y59479D01*
X51848*
Y59459*
X51842Y59458*
X51835Y59455*
X5183Y59451*
X51805Y59426*
X518Y59428*
Y59628*
Y59633*
X51804Y59635*
X51862Y59577*
G37*
G36*
X46615Y57635D02*
X46602Y57622D01*
X4648*
X46474Y57628*
X46476Y57633*
X46546*
Y57672*
X46564Y5769*
X46615*
Y57635*
G37*
G36*
X53154Y59731D02*
Y59677D01*
X53236*
X53336Y59576*
Y5957*
X53328Y59564*
X5332Y59553*
X53315Y59541*
X53313Y59528*
X53315Y59515*
X5332Y59503*
X53328Y59493*
X53338Y59485*
X5335Y5948*
X53363Y59478*
X53376Y5948*
X53388Y59485*
X53398Y59493*
X53406Y59503*
X53411Y59515*
X53413Y59528*
X53411Y59541*
X53406Y59553*
X53398Y59564*
X5339Y5957*
Y59586*
Y59588*
Y59589*
Y59605*
X53395Y59607*
X53396Y59605*
X53487Y59514*
Y59482*
X53473*
Y59462*
X53252*
X53245Y59461*
X53238Y59458*
X53233Y59454*
X53209Y5943*
X53204Y59432*
Y59524*
X53203Y5953*
Y59531*
X53201Y59537*
X53196Y59543*
X53145Y59595*
X53139Y59599*
X53132Y59602*
X53125Y59603*
X53121*
Y59617*
X53104*
Y5973*
X53138*
X53145Y59731*
X5315Y59733*
X53154Y59731*
G37*
G36*
X43021Y61188D02*
X43403D01*
Y61086*
X43521*
Y61188*
X43757*
Y61086*
X43876*
Y61188*
X52923*
X52924Y61183*
X52912Y61179*
X52899Y61172*
X52886Y61162*
X52876Y6115*
X52869Y61136*
X52864Y61121*
X52863Y61105*
X52864Y61089*
X52869Y61074*
X52876Y6106*
X52886Y61048*
X52899Y61038*
X52912Y61031*
X52927Y61026*
X52943Y61025*
X52944*
Y61018*
X52948Y61009*
X52954Y61002*
X52951Y60998*
X52844*
X52803Y61038*
X52797Y61043*
X52791Y61046*
X52784*
X52772*
Y61058*
Y61121*
X5268*
Y61108*
X52639*
Y61121*
X52592*
X52558Y61155*
X52552Y6116*
X52545Y61163*
X52538*
X51892*
X51885*
X51879Y6116*
X51873Y61155*
X51838Y6112*
X51835*
X518Y61155*
X51794Y6116*
X51787Y61163*
X5178*
X51145*
X51138*
X51132Y6116*
X51126Y61155*
X51091Y61121*
X51081*
X51047Y61155*
X51041Y6116*
X51034Y61163*
X51027*
X50384*
X50377*
X50371Y6116*
X50365Y61155*
X5033Y6112*
X50327*
X50292Y61155*
X50286Y6116*
X5028Y61163*
X50273*
X49637*
X4963*
X49624Y6116*
X49618Y61155*
X49584Y61121*
X49575*
X49541Y61155*
X49535Y6116*
X49529Y61163*
X49522*
X48883*
X48876*
X4887Y6116*
X48864Y61155*
X48829Y6112*
X4882*
X48785Y61155*
X48779Y6116*
X48773Y61163*
X48766*
X48125*
X48118*
X48111Y6116*
X48105Y61155*
X48073Y61123*
X48068*
X48036Y61155*
X4803Y6116*
X48024Y61163*
X48017*
X47376*
X47369*
X47362Y6116*
X47356Y61155*
X47322Y61121*
X47313*
X47278Y61155*
X47272Y6116*
X47266Y61163*
X47259*
X46614*
X46607*
X466Y6116*
X46595Y61155*
X4656Y61121*
X46558*
X46523Y61155*
X46517Y6116*
X46511Y61163*
X46504*
X45868*
X45861*
X45854Y6116*
X45848Y61155*
X45813Y6112*
X45806*
X4577Y61155*
X45764Y6116*
X45758Y61163*
X45751*
X45105*
X45098*
X45091Y6116*
X45086Y61155*
X45052Y61122*
X4505*
X45016Y61155*
X45011Y6116*
X45004Y61163*
X44997*
X4436*
X44353*
X44346Y6116*
X44341Y61155*
X44305Y6112*
X44251*
Y61107*
X44243*
X44237Y61114*
Y61115*
X44233Y61123*
X44228Y6113*
X44222Y61135*
X44214Y61138*
X44205Y61139*
X44197Y61138*
X44189Y61135*
X44183Y6113*
X44178Y61123*
X44174Y61115*
X44173Y61107*
X44174Y61098*
X44178Y61091*
X44183Y61084*
X44189Y61079*
X44197Y61076*
X44198Y61075*
X44211Y61062*
X44209Y61058*
X44205*
X44123*
X44118Y61064*
X44108Y61072*
X44096Y61077*
X44083Y61079*
X4407Y61077*
X44058Y61072*
X44048Y61064*
X4404Y61054*
X44035Y61042*
X44033Y61029*
X44035Y61016*
X4404Y61004*
X44048Y60993*
X44058Y60985*
X4407Y6098*
X44083Y60979*
X44096Y6098*
X44108Y60985*
X44118Y60993*
X44126Y61004*
X44194*
X442Y60998*
X44205Y60994*
X44212Y60991*
X44219Y6099*
X44251*
Y60978*
X44343*
Y61041*
Y6108*
X44371Y61109*
X44986*
X45005Y61089*
Y61046*
X44971*
X44967Y6105*
X44961Y61055*
X44954Y61058*
X44947*
X44873*
X44868Y61064*
X44858Y61072*
X44846Y61077*
X44833Y61079*
X4482Y61077*
X44808Y61072*
X44798Y61064*
X4479Y61054*
X44785Y61042*
X44783Y61032*
X44778*
Y61038*
X44775Y61045*
X44771Y61051*
X44765Y61055*
X44762Y61057*
X44761*
X44753Y61063*
X44743Y61067*
X44738Y61068*
Y61029*
Y6099*
X44743*
X44753Y60994*
X44761Y61001*
X44768Y61009*
Y6101*
X44771Y61012*
X44775Y61017*
X44778Y61024*
Y61028*
X44783*
X44785Y61016*
X4479Y61004*
X44798Y60993*
X44808Y60985*
X4482Y6098*
X44833Y60979*
X44846Y6098*
X44858Y60985*
X44868Y60993*
X44876Y61004*
X44936*
X4494Y61*
X44946Y60996*
X44952Y60993*
X44959Y60992*
X45005*
Y6098*
X45097*
Y61043*
Y61089*
X45116Y61109*
X4574*
X45761Y61087*
Y61057*
Y61044*
X45738*
X45732Y6105*
X45726Y61055*
X4572Y61058*
X45713*
X45623*
X45618Y61064*
X45608Y61072*
X45596Y61077*
X45583Y61079*
X4557Y61077*
X45558Y61072*
X45548Y61064*
X4554Y61054*
X45535Y61042*
X45533Y61029*
X45535Y61016*
X4554Y61004*
X45548Y60993*
X45558Y60985*
X4557Y6098*
X45583Y60979*
X45596Y6098*
X45608Y60985*
X45618Y60993*
X45626Y61004*
X45701*
X45707Y60998*
X45713Y60994*
X4572Y60991*
X45727Y6099*
X45761*
Y60978*
X45852*
Y61041*
Y61082*
X45879Y61109*
X46493*
X46513Y61088*
Y61058*
Y61045*
X46491*
X46486Y6105*
X4648Y61055*
X46474Y61058*
X46467*
X46373*
X46368Y61064*
X46358Y61072*
X46346Y61077*
X46333Y61079*
X4632Y61077*
X46308Y61072*
X46298Y61064*
X4629Y61054*
X46285Y61042*
X46283Y61029*
X46285Y61016*
X4629Y61004*
X46298Y60993*
X46308Y60985*
X4632Y6098*
X46333Y60979*
X46346Y6098*
X46358Y60985*
X46368Y60993*
X46376Y61004*
X46455*
X4646Y60999*
X46466Y60995*
X46473Y60992*
X4648Y60991*
X46513*
Y60979*
X46604*
Y61042*
Y61088*
X46625Y61109*
X47247*
X47268Y61088*
Y61058*
Y61045*
X47232*
X47226Y6105*
X47221Y61055*
X47214Y61058*
X47207*
X47123*
X47118Y61064*
X47108Y61072*
X47096Y61077*
X47083Y61079*
X4707Y61077*
X47058Y61072*
X47048Y61064*
X4704Y61054*
X47035Y61042*
X47033Y61029*
X47035Y61016*
X4704Y61004*
X47048Y60993*
X47058Y60985*
X4707Y6098*
X47083Y60979*
X47096Y6098*
X47108Y60985*
X47118Y60993*
X47126Y61004*
X47196*
X47201Y60999*
X47207Y60995*
X47213Y60992*
X4722Y60991*
X47268*
Y60979*
X47359*
Y61042*
Y61081*
X47387Y61109*
X48005*
X48025Y61089*
Y61059*
Y61046*
X47998*
X47994Y6105*
X47988Y61055*
X47982Y61058*
X47975*
X47873*
X47868Y61064*
X47858Y61072*
X47846Y61077*
X47833Y61079*
X4782Y61077*
X47808Y61072*
X47798Y61064*
X4779Y61054*
X47785Y61042*
X47783Y61029*
X47785Y61016*
X4779Y61004*
X47798Y60993*
X47808Y60985*
X4782Y6098*
X47833Y60979*
X47846Y6098*
X47858Y60985*
X47868Y60993*
X47876Y61004*
X47963*
X47967Y61*
X47973Y60996*
X47976Y60995*
X4798Y60993*
X47987Y60992*
X48025*
Y6098*
X48116*
Y61036*
X48121Y61038*
X48172Y60986*
Y60553*
X48173Y60546*
X48176Y60539*
X4818Y60533*
X4834Y60373*
X48343Y60366*
X48348Y6036*
X48355Y60354*
X48362Y60351*
X48377Y60336*
Y60306*
Y60293*
X48338*
X48335Y60297*
X48329Y60301*
X48323Y60304*
X48316Y60305*
X48248*
X4824Y60314*
X4823Y60322*
X48218Y60327*
X48205Y60329*
X48192Y60327*
X4818Y60322*
X4817Y60314*
X48162Y60304*
X48157Y60292*
X48155Y60279*
X48157Y60266*
X48162Y60254*
X4817Y60243*
X4818Y60235*
X48192Y60231*
X48205Y60229*
X48218Y60231*
X4823Y60235*
X4824Y60243*
X48245Y6025*
X48304*
X48307Y60247*
X48313Y60243*
X48319Y6024*
X4832*
X48327Y60239*
X48377*
Y60227*
X48469*
Y60275*
X48473Y60277*
X4853Y6022*
Y59824*
X48531Y59817*
X48533Y59811*
X48538Y59805*
X48584Y59759*
Y59614*
X48565*
Y59539*
X48443*
X48442Y59542*
X48437Y59554*
X48429Y59564*
X48419Y59572*
X48407Y59577*
X48394Y59579*
X48381Y59577*
X48369Y59572*
X48359Y59564*
X48351Y59554*
X48346Y59542*
X48344Y59529*
X48346Y59516*
X48351Y59504*
X48359Y59493*
X48369Y59485*
X48381Y5948*
X48394Y59479*
X48407Y5948*
X48419Y59485*
X4842Y59486*
X48421Y59485*
X48422*
X48429Y59484*
X48565*
Y59472*
X48657*
Y59535*
Y59543*
X48661Y59545*
X48712Y59494*
Y59247*
X48685Y59221*
X48681Y59223*
Y59226*
Y59369*
X4868Y59376*
X48678Y59382*
X48673Y59388*
X48606Y59455*
X48601Y59459*
X48594Y59462*
X48587Y59463*
X48259*
Y59502*
X48264Y59503*
X48266Y59501*
X48274Y59494*
X48284Y5949*
X48289*
Y59529*
Y59568*
X48284Y59567*
X48274Y59563*
X48266Y59557*
X48259Y59549*
X48257Y59542*
X48185*
Y59603*
Y59609*
Y5961*
X48182Y59616*
X48177Y59622*
X479Y59899*
Y60059*
X47905Y6006*
X47908Y60052*
X47917Y60041*
X47928Y60032*
X47941Y60027*
X47955Y60025*
X47969Y60027*
X47982Y60032*
X47993Y60041*
X48002Y60052*
X48005Y60059*
X4801Y60058*
Y6*
X48011Y59993*
X48013Y59986*
X48018Y5998*
X48035Y59963*
Y59945*
X48028Y59943*
X48016Y59937*
X48006Y59928*
X47997Y59917*
X47991Y59905*
X47987Y59892*
X47985Y59879*
X47987Y59865*
X47991Y59852*
X47997Y5984*
X48006Y5983*
X48016Y59821*
X48028Y59815*
X48041Y59811*
X48055Y59809*
X48069Y59811*
X48082Y59815*
X48094Y59821*
X48104Y5983*
X48113Y5984*
X48119Y59852*
X48123Y59865*
X48125Y59879*
X48123Y59892*
X48119Y59905*
X48113Y59917*
X48104Y59928*
X48094Y59937*
X48089Y59939*
Y59975*
X48088Y59982*
X48087Y59986*
X48086Y59988*
X48081Y59994*
X48064Y60011*
Y6003*
X48069Y60031*
X48073Y60024*
X48085Y60009*
X481Y59997*
X48117Y59987*
X48136Y59982*
X48155Y5998*
X48174Y59982*
X48193Y59987*
X4821Y59997*
X48225Y60009*
X48237Y60024*
X48246Y60041*
X48252Y60059*
X48254Y60079*
X48252Y60098*
X48246Y60117*
X48237Y60134*
X48225Y60149*
X4821Y60161*
X48193Y6017*
X48174Y60176*
X48155Y60178*
X48136Y60176*
X48117Y6017*
X481Y60161*
X48085Y60149*
X48073Y60134*
X48068Y60125*
X48064Y60126*
X48063Y60128*
X48061Y60134*
X48056Y6014*
X48032Y60165*
Y60215*
X47958*
Y60381*
X47957Y60388*
X47954Y60395*
X4795Y60401*
X47836Y60515*
X4783Y60519*
X47824Y60522*
X47817Y60523*
X47629*
X47547Y60605*
Y60784*
X47551Y60786*
X47556Y60782*
X47569Y60777*
X47583Y60775*
X47597Y60777*
X4761Y60782*
X47621Y60791*
X47628Y608*
X47633Y60798*
Y60696*
X47634Y60689*
X47636Y60682*
X47637Y60681*
X47634Y60678*
X47625Y60667*
X47619Y60655*
X47615Y60642*
X47613Y60629*
X47615Y60615*
X47619Y60602*
X47625Y6059*
X47634Y6058*
X47644Y60571*
X47656Y60565*
X47669Y60561*
X47683Y60559*
X47697Y60561*
X4771Y60565*
X47722Y60571*
X47732Y6058*
X47741Y6059*
X47747Y60602*
X47751Y60615*
X47753Y60629*
X47751Y60642*
X47747Y60655*
X47741Y60667*
X47732Y60678*
X47722Y60687*
X4771Y60693*
X47698Y60697*
X47687Y60707*
Y60789*
X47692Y6079*
X47701Y60774*
X47713Y60759*
X47728Y60747*
X47745Y60737*
X47764Y60732*
X47783Y6073*
X47802Y60732*
X47821Y60737*
X47838Y60747*
X47853Y60759*
X47865Y60774*
X47874Y60791*
X4788Y60809*
X47882Y60829*
X4788Y60848*
X47874Y60867*
X47865Y60884*
X47853Y60899*
X47838Y60911*
X47821Y6092*
X47802Y60926*
X47783Y60928*
X47764Y60926*
X47745Y6092*
X47728Y60911*
X47713Y60899*
X47701Y60884*
X47692Y60867*
X47687Y60868*
X47686Y60874*
Y60875*
X47684Y60881*
X47679Y60887*
X47673Y60893*
X47675Y60898*
X47681*
Y60993*
X47539*
Y60972*
X47538*
X47531Y60969*
X47525Y60965*
X475Y60939*
X47496Y60934*
X47493Y60927*
X47492Y6092*
Y60594*
X47493Y60587*
X47496Y6058*
X475Y60575*
X47599Y60476*
X47604Y60472*
X47611Y60469*
X47618Y60468*
X47805*
X47904Y6037*
Y60215*
X47889*
Y60171*
X47854Y60136*
X4785Y60131*
X47845Y60132*
Y60243*
X47844Y6025*
X47841Y60256*
X47837Y60262*
X47754Y60345*
X47749Y60349*
X47742Y60352*
X47735Y60353*
X47712*
Y60365*
X47665*
X47628Y60402*
X47623Y60406*
X47616Y60409*
X47609Y6041*
X47605*
X47604*
X47597Y60413*
X47588Y60415*
X4758Y60413*
X47572Y6041*
X47566Y60405*
X4756Y60398*
X47557Y60391*
X47556Y60382*
X47557Y60374*
X4756Y60366*
X47566Y60359*
X47572Y60354*
X4758Y60351*
X47588Y6035*
X47597Y60351*
X476Y60353*
X47621Y60332*
Y60302*
Y6029*
X47584*
X47577Y60297*
X47571Y60301*
X47565Y60304*
X47558Y60305*
X47498*
X4749Y60314*
X4748Y60322*
X47468Y60327*
X47455Y60329*
X47442Y60327*
X4743Y60322*
X4742Y60314*
X47412Y60304*
X47407Y60292*
X47405Y60279*
X47407Y60266*
X47412Y60254*
X4742Y60243*
X4743Y60235*
X47442Y6023*
X47455Y60229*
X47468Y6023*
X4748Y60235*
X4749Y60243*
X47495Y6025*
X47546*
X47553Y60243*
X47559Y60239*
X47566Y60236*
X47573Y60235*
X47621*
Y60223*
X47712*
Y60286*
Y60298*
X47724*
X4779Y60231*
Y59614*
X47772*
Y59539*
X47693*
X47692Y59542*
X47687Y59554*
X47679Y59564*
X47669Y59572*
X47657Y59577*
X47644Y59579*
X47631Y59577*
X47619Y59572*
X47609Y59564*
X47601Y59554*
X47596Y59542*
X47594Y59529*
X47596Y59516*
X47601Y59504*
X47609Y59493*
X47619Y59485*
X47631Y5948*
X47644Y59479*
X47657Y5948*
X47668Y59485*
X47675Y59484*
X47772*
Y59472*
X47863*
Y59535*
Y59614*
X47845*
Y59873*
X4785Y59874*
X47854Y59869*
X48131Y59592*
Y59542*
X48117*
Y59447*
X48134*
X48135Y59446*
X48139Y5944*
X48198Y59381*
Y59351*
X48193Y5935*
X48191Y59356*
X48182Y59367*
X48171Y59375*
X48158Y59381*
X48144Y59383*
X4813Y59381*
X48126Y59379*
X48122Y59381*
X4812Y5939*
X4811Y59413*
X48097Y59434*
X48081Y59453*
X48062Y59469*
X48041Y59482*
X48018Y59491*
X47994Y59497*
X47969Y59499*
X47944Y59497*
X4792Y59491*
X47897Y59482*
X47876Y59469*
X47857Y59453*
X47841Y59434*
X47828Y59413*
X47818Y5939*
X47816Y59381*
X47812Y59379*
X47808Y59381*
X47794Y59383*
X4778Y59381*
X47767Y59375*
X47756Y59367*
X47747Y59356*
X47742Y59343*
X4774Y59329*
X47742Y59315*
X47747Y59302*
X47744Y59298*
X4773Y59297*
X47717Y59293*
X47705Y59287*
X47695Y59278*
X47686Y59267*
X4768Y59255*
X47676Y59242*
X47674Y59229*
X47676Y59215*
X4768Y59202*
X47686Y5919*
X47695Y5918*
X47705Y59171*
X47717Y59165*
X4773Y59161*
X47744Y59159*
X47758Y59161*
X47771Y59165*
X47783Y59171*
X47793Y5918*
X47802Y5919*
X47808Y59202*
X47812Y59215*
X47814Y59229*
X47812Y59242*
X47808Y59255*
X47802Y59267*
X47799Y59271*
X47801Y59276*
X47808Y59277*
X47821Y59282*
X47823*
X47828Y59269*
X47841Y59248*
X47857Y59229*
X47876Y59213*
X47897Y592*
X4792Y5919*
X47944Y59184*
X47969Y59182*
X47994Y59184*
X48018Y5919*
X48041Y592*
X48062Y59213*
X48081Y59229*
X48097Y59248*
X4811Y59269*
X48114Y59279*
X48119Y59281*
X4813Y59277*
X48144Y59275*
X48158Y59277*
X48171Y59282*
X48182Y59291*
X48191Y59302*
X48193Y59307*
X48198Y59306*
Y59255*
X48074Y59131*
X47921*
X47914Y5913*
X47907Y59127*
X47902Y59123*
X47708Y58929*
X47704Y58924*
X47701Y58917*
X477Y5891*
Y58762*
X47685*
Y58711*
X47651Y58676*
X47647Y58671*
X47644Y58664*
X47643Y58657*
Y58183*
X47644Y58176*
X47647Y58169*
X47651Y58164*
X47706Y58108*
X47709Y58106*
X47711Y58104*
Y5809*
X4771Y58089*
X47707Y58082*
X47706Y58073*
X47707Y58065*
X4771Y58057*
X47712Y58054*
X4771Y5805*
X47701*
X4769Y5806*
Y58111*
X47617*
Y58899*
X47616Y58906*
X47613Y58913*
X47609Y58918*
X47468Y59059*
X4747Y59064*
X4748Y59061*
X47494Y59059*
X47508Y59061*
X47521Y59065*
X47533Y59071*
X47543Y5908*
X47552Y5909*
X47558Y59102*
X47562Y59115*
X47564Y59129*
X47562Y59142*
X47558Y59155*
X47552Y59167*
X47543Y59178*
X47539Y59181*
Y59218*
X47538Y59225*
X47536Y59231*
X47531Y59237*
X47507Y59261*
Y59272*
X47512Y59274*
X47524Y59259*
X47539Y59247*
X47556Y59237*
X47575Y59232*
X47594Y5923*
X47613Y59232*
X47632Y59237*
X47649Y59247*
X47664Y59259*
X47676Y59274*
X47685Y59291*
X47691Y59309*
X47693Y59329*
X47691Y59348*
X47685Y59367*
X47676Y59384*
X47664Y59399*
X47649Y59411*
X47632Y5942*
X47613Y59426*
X47594Y59428*
X47575Y59426*
X47556Y5942*
X47539Y59411*
X47524Y59399*
X47512Y59384*
X47507Y59385*
Y59387*
X47506Y59394*
X47504Y59401*
X47499Y59407*
X47463Y59443*
Y59494*
X47389*
Y59597*
X47388Y59604*
X47386Y59611*
X47381Y59616*
X47151Y59846*
Y60057*
X47156Y60058*
X47158Y60052*
X47167Y60041*
X47178Y60032*
X47191Y60027*
X47205Y60025*
X47219Y60027*
X47232Y60032*
X47243Y60041*
X47252Y60052*
X47257Y60065*
X47259Y60079*
X47257Y60093*
X47252Y60106*
X47249Y60109*
X47253Y60113*
X47269Y60097*
Y59995*
X4727Y59988*
X47272Y59981*
X47277Y59975*
X47297Y59955*
Y59947*
X47291*
X47278Y59943*
X47266Y59937*
X47256Y59928*
X47247Y59917*
X47241Y59905*
X47237Y59892*
X47235Y59879*
X47237Y59865*
X47241Y59852*
X47247Y5984*
X47256Y5983*
X47266Y59821*
X47278Y59815*
X47291Y59811*
X47305Y59809*
X47319Y59811*
X47332Y59815*
X47344Y59821*
X47354Y5983*
X47363Y5984*
X47369Y59852*
X47373Y59865*
X47375Y59879*
X47373Y59892*
X47369Y59905*
X47363Y59917*
X47354Y59928*
X47351Y5993*
Y59967*
X4735Y59973*
Y59974*
X47348Y5998*
X47343Y59986*
X47323Y60006*
Y60016*
X47328Y60018*
X47335Y60009*
X4735Y59997*
X47367Y59987*
X47386Y59982*
X47405Y5998*
X47424Y59982*
X47443Y59987*
X4746Y59997*
X47475Y60009*
X47487Y60024*
X47496Y60041*
X47502Y60059*
X47504Y60079*
X47502Y60098*
X47496Y60117*
X47487Y60134*
X47475Y60149*
X4746Y60161*
X47443Y6017*
X47424Y60176*
X47405Y60178*
X47386Y60176*
X47367Y6017*
X4735Y60161*
X47335Y60149*
X47323Y60134*
X4732Y60128*
X47315Y60127*
X47278Y60165*
Y60215*
X47204*
Y60377*
X47203Y60383*
Y60384*
X47201Y6039*
X47196Y60396*
X47079Y60513*
X47073Y60517*
X47067Y6052*
X4706Y60521*
X46906*
X46793Y60634*
Y60787*
X46797Y60789*
X46806Y60782*
X46819Y60777*
X46833Y60775*
X46847Y60777*
X4686Y60782*
X4687Y6079*
X46875Y60788*
Y607*
X46876Y60693*
X46878Y60686*
X46883Y60681*
X46884Y60679*
Y60678*
X46875Y60667*
X46869Y60655*
X46865Y60642*
X46863Y60629*
X46865Y60615*
X46869Y60602*
X46875Y6059*
X46884Y6058*
X46894Y60571*
X46906Y60565*
X46919Y60561*
X46933Y60559*
X46947Y60561*
X4696Y60565*
X46972Y60571*
X46982Y6058*
X46991Y6059*
X46997Y60602*
X47001Y60615*
X47003Y60629*
X47001Y60642*
X46997Y60655*
X46991Y60667*
X46982Y60678*
X46972Y60687*
X4696Y60693*
X46947Y60697*
X46943*
X46929Y60711*
Y60828*
X46934*
X46936Y60809*
X46942Y60791*
X46951Y60774*
X46963Y60759*
X46978Y60747*
X46995Y60737*
X47014Y60732*
X47033Y6073*
X47052Y60732*
X47071Y60737*
X47088Y60747*
X47103Y60759*
X47115Y60774*
X47124Y60791*
X4713Y60809*
X47132Y60829*
X4713Y60848*
X47124Y60867*
X47115Y60884*
X47103Y60899*
X47088Y60911*
X47071Y6092*
X47052Y60926*
X47033Y60928*
X47014Y60926*
X46995Y6092*
X46978Y60911*
X46963Y60899*
X46951Y60884*
X46942Y60867*
X46936Y60848*
X46934Y60829*
X46931*
X46929Y6083*
Y60881*
X46928Y60888*
X46926Y60894*
X46922Y60899*
Y60993*
X4678*
Y60969*
X46779*
X46773Y60965*
X46746Y60938*
X46742Y60932*
X46739Y60925*
X46738Y60918*
Y60623*
X46739Y60616*
X46742Y60609*
X46746Y60603*
X46865Y60485*
X46863Y60481*
X46596*
X46459Y60617*
Y60664*
X4646Y60665*
X46472Y60671*
X46482Y6068*
X46491Y6069*
X46497Y60702*
X46501Y60715*
X46503Y60729*
X46501Y60742*
X46497Y60755*
X46491Y60767*
X46488Y60771*
X4649Y60776*
X46497Y60777*
X4651Y60782*
X46521Y60791*
X4653Y60802*
X46535Y60815*
X46537Y60829*
X46535Y60843*
X4653Y60856*
X46521Y60867*
X4651Y60875*
X46497Y60881*
X46483Y60883*
X46469Y60881*
X46456Y60875*
X46445Y60867*
X46436Y60856*
X46431Y60843*
X46429Y60829*
X46431Y60815*
X46436Y60802*
X46433Y60798*
X46419Y60797*
X46406Y60793*
X46394Y60787*
X46384Y60778*
X46375Y60767*
X46369Y60755*
X46365Y60742*
X46363Y60729*
X46365Y60715*
X46369Y60702*
X46375Y6069*
X46384Y6068*
X46394Y60671*
X46405Y60665*
Y60606*
X46406Y60599*
X46408Y60592*
X46413Y60587*
X46565Y60434*
X46571Y6043*
X46577Y60427*
X46578*
X46585Y60426*
X4693*
X47016Y60341*
Y60328*
X47011Y60326*
X46988Y60349*
X46983Y60353*
X46976Y60356*
X46969*
X4696*
Y60369*
X46913*
X4688Y60402*
X46875Y60406*
X46868Y60409*
X46861Y6041*
X46841*
X4684*
X46832Y60413*
X46824Y60415*
X46815Y60413*
X46807Y6041*
X46801Y60405*
X46796Y60398*
X46792Y60391*
X46791Y60382*
X46792Y60374*
X46796Y60366*
X46801Y60359*
X46807Y60354*
X46815Y60351*
X46824Y6035*
X46832Y60351*
X4684Y60354*
X46841Y60355*
X4685*
X46869Y60336*
Y60306*
Y60293*
X46842*
X46839Y60297*
X46834Y60301*
X46827Y60304*
X4682Y60305*
X46748*
X4674Y60314*
X4673Y60322*
X46718Y60327*
X46705Y60329*
X46692Y60327*
X4668Y60322*
X4667Y60314*
X46662Y60304*
X46657Y60292*
X46655Y60279*
X46657Y60266*
X46662Y60254*
X4667Y60243*
X4668Y60235*
X46692Y6023*
X46705Y60229*
X46718Y6023*
X4673Y60235*
X4674Y60243*
X46745Y6025*
X46809*
X46812Y60247*
X46817Y60243*
X46824Y6024*
X46825*
X46831Y60239*
X46869*
Y60227*
X4696*
Y6029*
Y60294*
X46964Y60296*
X46974Y60286*
Y59672*
Y59665*
X46977Y59658*
X46981Y59653*
X47055Y59579*
Y59549*
Y59537*
X47002*
X46995Y59544*
X4699Y59548*
X46983Y59551*
X46976Y59552*
X46938*
X46937Y59554*
X46929Y59564*
X46919Y59572*
X46907Y59577*
X46894Y59579*
X46881Y59577*
X46869Y59572*
X46859Y59564*
X46851Y59554*
X46846Y59542*
X46844Y59529*
X46846Y59516*
X46851Y59504*
X46859Y59493*
X46869Y59485*
X46881Y5948*
X46894Y59479*
X46907Y5948*
X46919Y59485*
X46929Y59493*
X46932Y59497*
X46965*
X46972Y5949*
X46977Y59486*
X46984Y59483*
X46991Y59482*
X47055*
Y5947*
X47134*
Y59163*
X47041Y59069*
X47016*
X47009Y5907*
X46903*
X46897Y59069*
X46896*
X4689Y59066*
X46884Y59062*
X46689Y58867*
X46686Y58863*
X46663*
Y588*
Y58788*
X4663*
X46624Y58794*
X46618Y58798*
X46612Y58801*
X46605Y58802*
X46564*
X46563Y58804*
X46555Y58814*
X46545Y58822*
X46533Y58827*
X4652Y58829*
X46507Y58827*
X46495Y58822*
X46485Y58814*
X46477Y58804*
X46472Y58792*
X4647Y58779*
X46472Y58766*
X46477Y58754*
X46485Y58743*
X46495Y58735*
X46501Y58733*
X465Y58728*
X46413*
X46404Y58737*
X46407Y58741*
X4641Y5874*
X46415*
Y58774*
X46381*
Y58768*
X46383Y58766*
X46379Y58763*
X46309Y58832*
Y59004*
X46326Y59022*
X46388*
X46395*
X46401Y59025*
X46407Y59029*
X46572Y59195*
X46577Y59201*
X46579Y59207*
Y59208*
X4658Y59214*
Y59365*
X46599Y59384*
X46625*
X46626Y59379*
X46617Y59375*
X46606Y59367*
X46597Y59356*
X46592Y59343*
X4659Y59329*
X46592Y59315*
X46597Y59302*
X46606Y59291*
X46617Y59282*
X4663Y59277*
X46644Y59275*
X46658Y59277*
X46671Y59282*
X46682Y59291*
X46683Y59292*
X46688Y5929*
Y59241*
X46689Y59234*
X46691Y59227*
X46696Y59221*
X46718Y59199*
Y59193*
X46717*
X46705Y59187*
X46695Y59178*
X46686Y59167*
X4668Y59155*
X46676Y59142*
X46674Y59129*
X46676Y59115*
X4668Y59102*
X46686Y5909*
X46695Y5908*
X46705Y59071*
X46717Y59065*
X4673Y59061*
X46744Y59059*
X46758Y59061*
X46771Y59065*
X46783Y59071*
X46793Y5908*
X46802Y5909*
X46808Y59102*
X46812Y59115*
X46814Y59129*
X46812Y59142*
X46808Y59155*
X46802Y59167*
X46793Y59178*
X46783Y59187*
X46772Y59192*
Y59211*
X46771Y59218*
X46769Y59224*
X46764Y5923*
X46742Y59252*
Y59308*
X46747Y59309*
X46753Y59291*
X46762Y59274*
X46774Y59259*
X46789Y59247*
X46806Y59237*
X46825Y59232*
X46844Y5923*
X46863Y59232*
X46882Y59237*
X46899Y59247*
X46914Y59259*
X46926Y59274*
X46935Y59291*
X46941Y59309*
X46943Y59329*
X46941Y59348*
X46935Y59367*
X46926Y59384*
X46914Y59399*
X46899Y59411*
X46882Y5942*
X46863Y59426*
X46844Y59428*
X46825Y59426*
X46806Y5942*
X46789Y59411*
X46774Y59399*
X46762Y59384*
X46753Y59367*
X46747Y59348*
X46742Y59349*
Y59384*
X46741Y59391*
X4674Y59395*
X46739Y59397*
X46734Y59403*
X46709Y59428*
Y59479*
X46635*
Y59575*
X46634Y59582*
X46632Y59589*
X46627Y59595*
X46392Y5983*
Y60101*
X4641Y60119*
X46415Y60118*
X46416Y60116*
X46408Y60106*
X46403Y60093*
X46401Y60079*
X46403Y60065*
X46408Y60052*
X46417Y60041*
X46428Y60032*
X46441Y60027*
X46455Y60025*
X46469Y60027*
X46482Y60032*
X46493Y60041*
X46502Y60052*
X46503Y60055*
X46508Y60054*
Y59978*
X46509Y59971*
X46511Y59964*
X46516Y59958*
X46527Y59947*
Y59942*
X46516Y59937*
X46506Y59928*
X46497Y59917*
X46491Y59905*
X46487Y59892*
X46485Y59879*
X46487Y59865*
X46491Y59852*
X46497Y5984*
X46506Y5983*
X46516Y59821*
X46528Y59815*
X46541Y59811*
X46555Y59809*
X46569Y59811*
X46582Y59815*
X46594Y59821*
X46604Y5983*
X46613Y5984*
X46619Y59852*
X46623Y59865*
X46625Y59879*
X46623Y59892*
X46619Y59905*
X46613Y59917*
X46604Y59928*
X46594Y59937*
X46587Y5994*
Y59953*
X46586Y5996*
X46585Y59964*
X46584Y59966*
X46579Y59972*
X46562Y59989*
Y60033*
X46567Y60035*
X46573Y60024*
X46585Y60009*
X466Y59997*
X46617Y59987*
X46636Y59982*
X46655Y5998*
X46674Y59982*
X46693Y59987*
X4671Y59997*
X46725Y60009*
X46737Y60024*
X46746Y60041*
X46752Y60059*
X46754Y60079*
X46752Y60098*
X46746Y60117*
X46737Y60134*
X46725Y60149*
X4671Y60161*
X46693Y6017*
X46674Y60176*
X46655Y60178*
X46636Y60176*
X46617Y6017*
X466Y60161*
X46585Y60149*
X46573Y60134*
X46566Y60121*
X46561*
X46559Y60127*
X46554Y60132*
X46522Y60165*
Y60215*
X46448*
Y60373*
X46447Y6038*
X46445Y60387*
X4644Y60393*
X46357Y60475*
X46352Y6048*
X46345Y60483*
X46338*
X4619*
X46035Y60639*
Y60796*
X4604Y60798*
X46045Y60791*
X46056Y60782*
X46069Y60777*
X46083Y60775*
X46097Y60777*
X4611Y60782*
X46112Y60784*
X46117Y60782*
X4612Y60775*
X46124Y6077*
X46156Y60738*
Y60693*
X46144Y60687*
X46134Y60678*
X46125Y60667*
X46119Y60655*
X46115Y60642*
X46113Y60629*
X46115Y60615*
X46119Y60602*
X46125Y6059*
X46134Y6058*
X46144Y60571*
X46156Y60565*
X46169Y60561*
X46183Y60559*
X46197Y60561*
X4621Y60565*
X46222Y60571*
X46232Y6058*
X46241Y6059*
X46247Y60602*
X46251Y60615*
X46253Y60629*
X46251Y60642*
X46247Y60655*
X46241Y60667*
X46232Y60678*
X46222Y60687*
X4621Y60693*
Y60749*
X46209Y60756*
X46214Y60758*
X46228Y60747*
X46245Y60737*
X46264Y60732*
X46283Y6073*
X46302Y60732*
X46321Y60737*
X46338Y60747*
X46353Y60759*
X46365Y60774*
X46374Y60791*
X4638Y60809*
X46382Y60829*
X4638Y60848*
X46374Y60867*
X46365Y60884*
X46353Y60899*
X46338Y60911*
X46321Y6092*
X46302Y60926*
X46283Y60928*
X46264Y60926*
X46245Y6092*
X46228Y60911*
X46213Y60899*
X46201Y60884*
X46192Y60867*
X46186Y60848*
X46184Y60829*
X46186Y60809*
X46192Y60791*
X46197Y60781*
X46193Y60778*
X46171Y608*
Y6089*
X4617Y60893*
Y60898*
Y60993*
X46028*
Y60971*
X46024Y60969*
X46018Y60965*
X45988Y60935*
X45984Y60929*
X45981Y60922*
X4598Y60915*
Y60627*
X45981Y6062*
X45984Y60614*
X45988Y60608*
X4616Y60437*
X46165Y60433*
X46172Y6043*
X46179Y60429*
X46327*
X46394Y60362*
Y60215*
X46379*
Y60165*
X46346Y60131*
X46341Y60125*
X46339Y60119*
X46338Y60112*
Y59818*
X46339Y59811*
X46341Y59805*
X46346Y59799*
X46581Y59564*
Y59479*
X46566*
Y59428*
X46544Y59407*
X4654Y59408*
Y59508*
X46539Y59515*
X46536Y59522*
X46532Y59528*
X46466Y59594*
X4646Y59598*
X46454Y59601*
X46447Y59602*
X46394*
Y59614*
X46347*
X46309Y59652*
Y60281*
Y60288*
X46306Y60295*
X46301Y603*
X46255Y60347*
X4625Y60351*
X46243Y60354*
X46236Y60355*
X46205*
Y60367*
X4618*
X46178Y60369*
X46146Y60402*
X4614Y60406*
X46134Y60409*
X46127Y6041*
X46105*
X46104*
X46096Y60413*
X46088Y60415*
X46079Y60413*
X46071Y6041*
X46065Y60405*
X4606Y60398*
X46056Y60391*
X46055Y60382*
X46056Y60374*
X4606Y60366*
X46065Y60359*
X46071Y60354*
X46079Y60351*
X46088Y6035*
X46096Y60351*
X46104Y60354*
X46105Y60355*
X46114*
Y60292*
X46085*
X4608Y60297*
X46074Y60301*
X46068Y60304*
X46061Y60305*
X45998*
X4599Y60314*
X4598Y60322*
X45968Y60327*
X45955Y60329*
X45942Y60327*
X4593Y60322*
X4592Y60314*
X45912Y60304*
X45907Y60292*
X45905Y60279*
X45907Y60266*
X45912Y60254*
X4592Y60243*
X4593Y60235*
X45942Y6023*
X45955Y60229*
X45968Y6023*
X4598Y60235*
X4599Y60243*
X45995Y6025*
X46049*
X46054Y60245*
X4606Y60241*
X46067Y60238*
X46074Y60237*
X46114*
Y60225*
X46205*
Y60288*
Y603*
X46225*
X46255Y6027*
Y5964*
X46256Y59633*
X46259Y59627*
X46263Y59621*
X46303Y59581*
Y59539*
X46193*
X46192Y59542*
X46187Y59554*
X46179Y59564*
X46169Y59572*
X46157Y59577*
X46144Y59579*
X46131Y59577*
X46119Y59572*
X46109Y59564*
X46101Y59554*
X46096Y59542*
X46094Y59529*
X46096Y59516*
X46101Y59504*
X46109Y59493*
X46119Y59485*
X46131Y5948*
X46144Y59479*
X46157Y5948*
X46166Y59484*
X46167*
X46303*
Y59472*
X46394*
Y59535*
Y59547*
X46435*
X46485Y59497*
Y59243*
X46358Y59115*
X46291*
X46284Y59114*
X46277Y59112*
X46272Y59107*
X46015Y58851*
X46003*
Y58863*
X45912*
Y588*
Y58788*
X45867*
X45861Y58794*
X45856Y58798*
X45849Y58801*
X45842Y58802*
X45814*
X45813Y58804*
X45805Y58814*
X45795Y58822*
X45783Y58827*
X4577Y58829*
X45757Y58827*
X45745Y58822*
X45735Y58814*
X45727Y58804*
X45722Y58792*
X4572Y58779*
X45722Y58766*
X45727Y58754*
X45735Y58743*
X45745Y58735*
X45757Y5873*
X4577Y58729*
X45783Y5873*
X45795Y58735*
X45805Y58743*
X45808Y58747*
X45831*
X45837Y58741*
X45842Y58737*
X45845Y58736*
X45849Y58734*
X45856Y58733*
X45912*
Y58721*
X45909Y5872*
X45673*
X45656Y58736*
X45659Y58741*
X4566Y5874*
X45665*
Y58779*
Y58818*
X4566Y58817*
X4565Y58813*
X45642Y58807*
X45635Y58799*
X45632Y58791*
X45627Y58792*
Y58875*
X45669Y58916*
X45673Y58922*
X45674Y58924*
X45676Y58928*
X45677Y58935*
Y59037*
X45818Y59179*
X45823Y59185*
X45825Y59191*
X45826Y59192*
Y59198*
Y59364*
X45846Y59384*
X45875*
X45876Y59379*
X45867Y59375*
X45856Y59367*
X45847Y59356*
X45842Y59343*
X4584Y59329*
X45842Y59315*
X45847Y59302*
X45856Y59291*
X45867Y59282*
X4588Y59277*
X45894Y59275*
X45908Y59277*
X45921Y59282*
X45932Y59291*
X45939Y593*
X45944Y59298*
Y59246*
X45945Y59239*
X45947Y59232*
X45952Y59227*
X45966Y59213*
Y59192*
X45955Y59187*
X45945Y59178*
X45936Y59167*
X4593Y59155*
X45926Y59142*
X45924Y59129*
X45926Y59115*
X4593Y59102*
X45936Y5909*
X45945Y5908*
X45955Y59071*
X45967Y59065*
X4598Y59061*
X45994Y59059*
X46008Y59061*
X46021Y59065*
X46033Y59071*
X46043Y5908*
X46052Y5909*
X46058Y59102*
X46062Y59115*
X46064Y59129*
X46062Y59142*
X46058Y59155*
X46052Y59167*
X46043Y59178*
X46033Y59187*
X46021Y59193*
X4602*
Y59224*
X46019Y59231*
X46017Y59237*
X46012Y59243*
X45998Y59257*
Y59289*
X46003Y5929*
X46012Y59274*
X46024Y59259*
X46039Y59247*
X46056Y59237*
X46075Y59232*
X46094Y5923*
X46113Y59232*
X46132Y59237*
X46149Y59247*
X46164Y59259*
X46176Y59274*
X46185Y59291*
X46191Y59309*
X46193Y59329*
X46191Y59348*
X46185Y59367*
X46176Y59384*
X46164Y59399*
X46149Y59411*
X46132Y5942*
X46113Y59426*
X46094Y59428*
X46075Y59426*
X46056Y5942*
X46039Y59411*
X46024Y59399*
X46012Y59384*
X46003Y59367*
X45998Y59369*
Y59375*
X45997Y59382*
X45995Y59388*
X4599Y59394*
X45956Y59428*
Y59479*
X45882*
Y59573*
X45881Y5958*
X45879Y59587*
X45874Y59593*
X45638Y59829*
Y60099*
X4566Y6012*
X45664Y60119*
X45666Y60116*
X45658Y60106*
X45653Y60093*
X45651Y60079*
X45653Y60065*
X45658Y60052*
X45667Y60041*
X45678Y60032*
X45691Y60027*
X45705Y60025*
X45719Y60027*
X45732Y60032*
X45743Y60041*
X45752Y60052*
X45753Y60055*
X45758Y60054*
Y59997*
X45759Y5999*
X45761Y59983*
X45766Y59978*
X45789Y59954*
Y59946*
X45778Y59943*
X45766Y59937*
X45756Y59928*
X45747Y59917*
X45741Y59905*
X45737Y59892*
X45735Y59879*
X45737Y59865*
X45741Y59852*
X45747Y5984*
X45756Y5983*
X45766Y59821*
X45778Y59815*
X45791Y59811*
X45805Y59809*
X45819Y59811*
X45832Y59815*
X45844Y59821*
X45854Y5983*
X45863Y5984*
X45869Y59852*
X45873Y59865*
X45875Y59879*
X45873Y59892*
X45869Y59905*
X45863Y59917*
X45854Y59928*
X45844Y59937*
X45843*
Y59966*
X45842Y59973*
X4584Y59979*
X45835Y59985*
X45812Y60008*
Y60033*
X45817Y60035*
X45823Y60024*
X45835Y60009*
X4585Y59997*
X45867Y59987*
X45886Y59982*
X45905Y5998*
X45924Y59982*
X45943Y59987*
X4596Y59997*
X45975Y60009*
X45987Y60024*
X45996Y60041*
X46002Y60059*
X46004Y60079*
X46002Y60098*
X45996Y60117*
X45987Y60134*
X45975Y60149*
X4596Y60161*
X45943Y6017*
X45924Y60176*
X45905Y60178*
X45886Y60176*
X45867Y6017*
X4585Y60161*
X45835Y60149*
X45823Y60134*
X45815Y6012*
X4581*
X45809Y60125*
X45804Y6013*
X4577Y60165*
Y60215*
X45696*
Y60356*
X45695Y60363*
X45693Y60369*
X45688Y60375*
X45592Y60472*
X45586Y60476*
X4558Y60479*
X45573Y6048*
X45387*
X45283Y60584*
Y60798*
X45288Y608*
X45295Y60791*
X45306Y60782*
X45319Y60777*
X45333Y60775*
X45347Y60777*
X4536Y60782*
X45371Y60791*
X45374Y60794*
X45379Y60793*
Y60757*
X4538Y6075*
X45382Y60743*
X45387Y60737*
X45406Y60718*
Y60693*
X45394Y60687*
X45384Y60678*
X45375Y60667*
X45369Y60655*
X45365Y60642*
X45363Y60629*
X45365Y60615*
X45369Y60602*
X45375Y6059*
X45384Y6058*
X45394Y60571*
X45406Y60565*
X45419Y60561*
X45433Y60559*
X45447Y60561*
X4546Y60565*
X45472Y60571*
X45482Y6058*
X45491Y6059*
X45497Y60602*
X45501Y60615*
X45503Y60629*
X45501Y60642*
X45497Y60655*
X45491Y60667*
X45482Y60678*
X45472Y60687*
X4546Y60693*
Y6073*
X45459Y60737*
X45457Y60743*
X45452Y60749*
X45433Y60768*
Y60802*
X45438Y60803*
X45442Y60791*
X45451Y60774*
X45463Y60759*
X45478Y60747*
X45495Y60737*
X45514Y60732*
X45533Y6073*
X45552Y60732*
X45571Y60737*
X45588Y60747*
X45603Y60759*
X45615Y60774*
X45624Y60791*
X4563Y60809*
X45632Y60829*
X4563Y60848*
X45624Y60867*
X45615Y60884*
X45603Y60899*
X45588Y60911*
X45571Y6092*
X45552Y60926*
X45533Y60928*
X45514Y60926*
X45495Y6092*
X45478Y60911*
X45463Y60899*
X45451Y60884*
X45442Y60867*
X45438Y60855*
X45433Y60856*
Y60913*
X45432Y60919*
Y6092*
X4543Y60927*
X45425Y60932*
X45415Y60942*
Y60993*
X45273*
Y6097*
X4527Y60969*
X45264Y60965*
X45236Y60937*
X45232Y60931*
X45229Y60924*
X45228Y60917*
Y60572*
X45229Y60565*
X45232Y60559*
X45236Y60553*
X45356Y60433*
X45362Y60429*
X45369Y60426*
X45376Y60425*
X45561*
X45642Y60345*
Y60215*
X45627*
Y60165*
X45593Y60131*
X45589Y60132*
Y60185*
X45596Y60193*
X45601Y60198*
X45603Y60205*
X45604Y60212*
X45603Y60219*
X45601Y60226*
X45596Y60232*
X45591Y60236*
X45584Y60239*
X45577Y6024*
X4557Y60239*
X45563Y60236*
X45557Y60232*
X45541Y60216*
X45537Y6021*
X45534Y60204*
Y60201*
X45529*
Y60302*
X45528Y60309*
X45525Y60315*
X45521Y60321*
X45495Y60347*
X4549Y60351*
X45483Y60354*
X45476Y60355*
X45451*
Y60367*
X45404*
X4537Y60402*
X45364Y60406*
X45357Y60409*
X4535Y6041*
X45334*
X45333*
X45325Y60413*
X45317Y60415*
X45308Y60413*
X45301Y6041*
X45294Y60405*
X45289Y60398*
X45286Y60391*
X45284Y60382*
X45286Y60374*
X45289Y60366*
X45294Y60359*
X45301Y60354*
X45308Y60351*
X45317Y6035*
X45325Y60351*
X45333Y60354*
X45334Y60355*
X45339*
X4536Y60334*
Y60299*
X45355Y60297*
X4533Y60322*
X45325Y60326*
X45318Y60329*
X45311Y6033*
X45238*
X45231Y60329*
X45224Y60326*
X45222Y60325*
X45218Y60327*
X45205Y60329*
X45192Y60327*
X4518Y60322*
X4517Y60314*
X45162Y60304*
X45157Y60292*
X45155Y60279*
X45157Y60266*
X45162Y60254*
X4517Y60243*
X4518Y60235*
X45192Y6023*
X45205Y60229*
X45218Y6023*
X4523Y60235*
X4524Y60243*
X45248Y60254*
X45253Y60266*
X45255Y60276*
X453*
X4533Y60245*
X45336Y60241*
X45342Y60238*
X45343*
X45349Y60237*
X4536*
Y60225*
X45451*
Y60288*
Y603*
X45465*
X45474Y6029*
Y59662*
X45475Y59661*
X45473*
X45465Y59657*
X45458Y59652*
X45453Y59645*
X4545Y59638*
X45449Y59629*
X4545Y59621*
X45453Y59613*
X45458Y59607*
X45465Y59601*
X45473Y59598*
X45474*
X4552Y59552*
X45525Y59548*
X45532Y59545*
X45539Y59544*
X45547*
Y59536*
X45503*
X45495Y59544*
X4549Y59548*
X45483Y59551*
X45476Y59552*
X45438*
X45437Y59554*
X45429Y59564*
X45419Y59572*
X45407Y59577*
X45394Y59579*
X45381Y59577*
X45369Y59572*
X45359Y59564*
X45351Y59554*
X45346Y59542*
X45344Y59529*
X45346Y59516*
X45351Y59504*
X45359Y59493*
X45369Y59485*
X45381Y5948*
X45394Y59479*
X45407Y5948*
X45419Y59485*
X45429Y59493*
X45432Y59497*
X45465*
X45473Y59489*
X45478Y59485*
X45485Y59482*
X45486*
X45492Y59481*
X45547*
Y59469*
X45638*
Y59532*
Y59611*
X45591*
X45529Y59673*
Y59732*
X45534*
Y59729*
X45537Y59723*
X45541Y59717*
X45701Y59557*
Y59525*
X45702Y59518*
X45705Y59511*
X4571Y59506*
X45715Y59501*
X45722Y59498*
X45729*
X45736*
X45743Y59501*
X45749Y59506*
X45753Y59511*
X45756Y59518*
X45757Y59525*
Y59568*
X45756Y59576*
X45753Y59582*
X45749Y59588*
X45589Y59748*
Y59795*
X45593Y59797*
X45828Y59562*
Y59479*
X45813*
Y59428*
X4578Y59395*
X45776Y59389*
X45773Y59383*
X45772Y59376*
Y5921*
X45638Y59076*
X45563*
X45556Y59075*
X45549Y59072*
X45543Y59068*
X45445Y5897*
X45441Y58964*
X45438Y58957*
X45437Y5895*
Y58762*
X45423*
Y58667*
X45497*
Y58663*
X455Y58657*
X45504Y58651*
X45518Y58637*
X45517Y58632*
X45506Y58631*
X45493Y58625*
X45482Y58617*
X45473Y58606*
X45468Y58593*
X45466Y58579*
X45468Y58565*
X45473Y58552*
X45482Y58541*
X45493Y58532*
X45506Y58527*
X4552Y58525*
X45534Y58527*
X45547Y58532*
X45549Y58534*
X45554Y58532*
Y58456*
X45555Y58449*
X45557Y58442*
X45562Y58436*
X45571Y58428*
X45562Y58417*
X45556Y58405*
X45552Y58392*
X4555Y58379*
X45552Y58365*
X45556Y58352*
X45562Y5834*
X4556Y58335*
X45506*
X45379Y58463*
Y58987*
X45378Y58994*
X45375Y59001*
X45371Y59006*
X45313Y59064*
X45307Y59069*
X453Y59071*
X45293Y59072*
X45292*
X4529Y59077*
X45293Y5908*
X45302Y5909*
X45308Y59102*
X45312Y59115*
X45314Y59129*
X45312Y59142*
X45308Y59155*
X45302Y59167*
X45293Y59178*
X45283Y59187*
X45277Y59189*
Y59218*
X45276Y59225*
X45275Y59229*
X45274Y59231*
X45269Y59237*
X45254Y59252*
Y59278*
X45259Y59279*
X45262Y59274*
X45274Y59259*
X45289Y59247*
X45306Y59237*
X45325Y59232*
X45344Y5923*
X45363Y59232*
X45382Y59237*
X45399Y59247*
X45414Y59259*
X45426Y59274*
X45435Y59291*
X45441Y59309*
X45443Y59329*
X45441Y59348*
X45435Y59367*
X45426Y59384*
X45414Y59399*
X45399Y59411*
X45382Y5942*
X45363Y59426*
X45344Y59428*
X45325Y59426*
X45306Y5942*
X45289Y59411*
X45274Y59399*
X45262Y59384*
X45257Y59375*
X45252*
X45251Y59378*
X45246Y59384*
X45202Y59428*
Y59479*
X45128*
Y59644*
X45127Y59651*
X45125Y59658*
X4512Y59663*
X44876Y59907*
Y60092*
X44905Y6012*
X44914*
X44916Y60116*
X44908Y60106*
X44903Y60093*
X44901Y60079*
X44903Y60065*
X44908Y60052*
X44917Y60041*
X44928Y60032*
X44941Y60027*
X44955Y60025*
X44969Y60027*
X44982Y60032*
X44993Y60041*
X45002Y60052*
X45005Y60059*
X4501Y60058*
Y59987*
X45011Y5998*
X45013Y59973*
X45018Y59968*
X45035Y5995*
Y59945*
X45028Y59943*
X45016Y59937*
X45006Y59928*
X44997Y59917*
X44991Y59905*
X44987Y59892*
X44985Y59879*
X44987Y59865*
X44991Y59852*
X44997Y5984*
X45006Y5983*
X45016Y59821*
X45028Y59815*
X45041Y59811*
X45055Y59809*
X45069Y59811*
X45082Y59815*
X45094Y59821*
X45104Y5983*
X45113Y5984*
X45119Y59852*
X45123Y59865*
X45125Y59879*
X45123Y59892*
X45119Y59905*
X45113Y59917*
X45104Y59928*
X45094Y59937*
X45089Y59939*
Y59962*
X45088Y59969*
X45086Y59975*
X45081Y59981*
X45064Y59998*
Y6003*
X45069Y60031*
X45073Y60024*
X45085Y60009*
X451Y59997*
X45117Y59987*
X45136Y59982*
X45155Y5998*
X45174Y59982*
X45193Y59987*
X4521Y59997*
X45225Y60009*
X45237Y60024*
X45246Y60041*
X45252Y60059*
X45254Y60079*
X45252Y60098*
X45246Y60117*
X45237Y60134*
X45225Y60149*
X4521Y60161*
X45193Y6017*
X45174Y60176*
X45155Y60178*
X45136Y60176*
X45117Y6017*
X451Y60161*
X45085Y60149*
X45073Y60134*
X45065Y6012*
X45063Y60119*
X4506Y60118*
X45056Y60123*
X45015Y60165*
Y60215*
X44905*
X44871Y60249*
Y60523*
X44945*
Y60618*
X4493*
Y6062*
Y60621*
X44927Y60627*
X44923Y60633*
X44905Y6065*
X44899Y60655*
X44893Y60658*
X44886*
X44746*
X44741Y60667*
X44732Y60678*
X44722Y60687*
X4471Y60693*
X44697Y60697*
X44683Y60698*
X44669Y60697*
X44656Y60693*
X44644Y60687*
X44634Y60678*
X44625Y60667*
X44619Y60655*
X44615Y60642*
X44613Y60629*
X44615Y60615*
X44619Y60602*
X44625Y6059*
X44634Y6058*
X44644Y60571*
X44656Y60565*
X44669Y60561*
X44683Y60559*
X44697Y60561*
X4471Y60565*
X44722Y60571*
X44732Y6058*
X44741Y6059*
X44747Y60602*
X44748Y60604*
X44803*
Y60523*
X44817*
Y60458*
X44812Y60456*
X44737Y60532*
X44731Y60536*
X44724Y60539*
X44717Y6054*
X44512*
X4451Y60545*
X44534Y60569*
X44538Y60574*
X44541Y60581*
X44542Y60588*
Y60787*
X44547Y60789*
X44556Y60782*
X44569Y60777*
X44583Y60775*
X44597Y60777*
X4461Y60782*
X44621Y60791*
X4463Y60802*
X44635Y60815*
X44637Y60829*
X44635Y60843*
X4463Y60856*
X44621Y60867*
X4461Y60875*
X44597Y60881*
X44583Y60883*
X44569Y60881*
X44556Y60875*
X44547Y60868*
X44542Y6087*
Y60925*
X44621Y61004*
X44702*
X44705Y61001*
X44713Y60994*
X44723Y6099*
X44728*
Y61029*
Y61068*
X44723Y61067*
X44713Y61063*
X44707Y61059*
X44609*
X44602Y61058*
X44595Y61055*
X4459Y61051*
X44495Y60956*
X44491Y6095*
X44488Y60944*
X44487Y60937*
Y606*
X44446Y60558*
X44441Y6056*
Y60624*
X44426*
Y60629*
X44423Y60635*
X44419Y60641*
X44409Y6065*
X44403Y60655*
X44397Y60658*
X4439*
X44207*
X44206Y60663*
X4421Y60665*
X44222Y60671*
X44232Y6068*
X44241Y6069*
X44247Y60702*
X44251Y60715*
X44253Y60729*
X44251Y60742*
X44247Y60755*
X44241Y60767*
X44238Y60771*
X4424Y60776*
X44247Y60777*
X4426Y60782*
X44271Y60791*
X4428Y60802*
X44285Y60815*
X44287Y60829*
X44285Y60843*
X4428Y60856*
X44271Y60867*
X4426Y60875*
X44247Y60881*
X44233Y60883*
X44219Y60881*
X44206Y60875*
X44195Y60867*
X44186Y60856*
X44181Y60843*
X44179Y60829*
X44181Y60815*
X44186Y60802*
X44183Y60798*
X44169Y60797*
X44156Y60793*
X44144Y60787*
X44134Y60778*
X44125Y60767*
X44119Y60755*
X44115Y60742*
X44113Y60729*
X44115Y60715*
X44119Y60702*
X44125Y6069*
X44134Y6068*
X44144Y60671*
X44156Y60665*
X4416Y60663*
X44159Y60658*
X43996*
X43991Y60667*
X43982Y60678*
X43972Y60687*
X4396Y60693*
X43947Y60697*
X43933Y60698*
X43919Y60697*
X43906Y60693*
X43894Y60687*
X43884Y60678*
X43875Y60667*
X43869Y60655*
X43865Y60642*
X43863Y60629*
X43865Y60615*
X43869Y60602*
X43875Y6059*
X43884Y6058*
X43894Y60571*
X43906Y60565*
X43919Y60561*
X43933Y60559*
X43947Y60561*
X4396Y60565*
X43972Y60571*
X43982Y6058*
X43991Y6059*
X43997Y60602*
X43998Y60604*
X44222*
X44223Y60599*
X44218Y60592*
X44215Y60585*
X44214Y60576*
X44215Y60568*
X44218Y6056*
X44223Y60553*
X4423Y60548*
X44237Y60545*
X44239*
Y6054*
X43868*
X438Y60608*
Y60773*
X43799Y6078*
Y60782*
X43802Y60785*
X43806Y60782*
X43819Y60777*
X43833Y60775*
X43847Y60777*
X4386Y60782*
X43871Y60791*
X4388Y60802*
X43885Y60815*
X43887Y60829*
X43885Y60843*
X4388Y60856*
X43876Y60861*
Y60868*
Y61007*
X43757*
X43756*
X43755Y61012*
X43759Y61017*
X43762Y61026*
X43764Y61036*
X43762Y61046*
X43759Y61055*
X43753Y61063*
X43745Y61069*
X43735Y61073*
X43726Y61074*
X43716Y61073*
X43707Y61069*
X43699Y61063*
X43693Y61055*
X43689Y61046*
X43688Y61036*
X43689Y61026*
X43693Y61017*
X43699Y61009*
X43707Y61003*
X43716Y60999*
X43726Y60998*
X43735Y60999*
X43745Y61003*
X43752Y61009*
X43757Y61007*
Y60868*
X4379*
X43793Y60864*
X43786Y60856*
X43781Y60843*
X43779Y60829*
X43781Y60815*
X43784Y60808*
X4378Y60805*
X43777Y60807*
X43729Y60856*
Y60935*
X43728Y60942*
X43725Y60948*
X43722Y60953*
Y6099*
X437*
Y61*
X43575*
X43574Y61005*
X43579Y61009*
X43585Y61017*
X43589Y61026*
X4359Y61036*
X43589Y61046*
X43585Y61055*
X43579Y61063*
X43571Y61069*
X43562Y61073*
X43552Y61074*
X43543Y61073*
X43533Y61069*
X43525Y61063*
X43519Y61055*
X43516Y61046*
X43514Y61036*
X43516Y61026*
X43519Y61017*
X43523Y61012*
X43522Y61007*
X43521*
X43402*
Y60868*
X4344*
X43443Y60864*
X43436Y60856*
X43431Y60843*
X43429Y60829*
X43431Y60815*
X43436Y60802*
X43433Y60798*
X43419Y60797*
X43406Y60793*
X43394Y60787*
X43384Y60778*
X43375Y60767*
X43369Y60755*
X43365Y60742*
X43363Y60729*
X43365Y60715*
X43369Y60702*
X43375Y6069*
X43384Y6068*
X43394Y60671*
X43406Y60665*
X43419Y60661*
X43433Y60659*
X43447Y60661*
X4346Y60665*
X43472Y60671*
X43482Y6068*
X43491Y6069*
X43497Y60702*
X43501Y60715*
X43503Y60729*
X43501Y60742*
X43497Y60755*
X43491Y60767*
X43488Y60771*
X4349Y60776*
X43497Y60777*
X4351Y60782*
X43521Y60791*
X4353Y60802*
X43535Y60815*
X43537Y60829*
X43535Y60843*
X4353Y60856*
X43521Y60867*
Y60868*
Y61007*
X43526Y61009*
X43533Y61003*
X43543Y60999*
X43546*
Y60869*
X43548*
Y60644*
Y60603*
X43499Y60554*
X43401*
X43394Y60553*
X43388Y6055*
X43382Y60546*
X43312Y60476*
X43308Y6047*
X43306Y60467*
X433*
Y60536*
X43332Y60568*
X43379*
X43386Y60569*
X43393Y60572*
X43398Y60576*
X43403Y60582*
X43405Y60589*
X43406Y60596*
X43405Y60603*
X43403Y6061*
X43398Y60616*
X43393Y6062*
X43386Y60623*
X43379Y60624*
X43321*
X43313Y60623*
X4331Y60621*
X43307Y6062*
X43301Y60616*
X43253Y60567*
X43248Y60562*
X43246Y60555*
X43245Y60548*
Y60457*
X43241*
Y60425*
X43272*
Y60415*
X43241*
Y60382*
X43245*
Y60322*
X43246Y60315*
X43248Y60309*
X43253Y60303*
X43297Y60258*
X43303Y60254*
X4331Y60251*
X43317Y6025*
X4339*
X43398Y60244*
X43408Y6024*
X43413*
Y60279*
Y60318*
X43408Y60317*
X43398Y60313*
X4339Y60307*
X43389Y60305*
X43328*
X433Y60334*
Y60372*
X43373*
Y60459*
X43413Y60499*
X43511*
X43518Y605*
X43525Y60502*
X4353Y60507*
X43595Y60572*
X43599Y60577*
X43604*
X43776Y60404*
X43782Y604*
X43789Y60397*
X43796Y60396*
X43977*
X43981Y60392*
X4398Y60387*
X43974Y60385*
X43967Y6038*
X43962Y60373*
X43959Y60365*
Y60364*
X43948Y60354*
X43757*
Y60366*
X43666*
Y60291*
X43646*
X43639Y60297*
X43634Y60301*
X43627Y60304*
X4362Y60305*
X4356*
X43553Y60314*
X43543Y60322*
X43531Y60327*
X43518Y60329*
X43505Y60327*
X43493Y60322*
X43483Y60314*
X43475Y60304*
X4347Y60292*
X43468Y60279*
X4347Y60266*
X43475Y60254*
X43483Y60243*
X43493Y60235*
X43505Y60231*
X43518Y60229*
X43531Y60231*
X43543Y60235*
X43553Y60243*
X43559Y60251*
X43609*
X43615Y60244*
X43621Y6024*
X43628Y60237*
X43635Y60236*
X43666*
Y60224*
X43757*
Y60287*
Y60299*
X43959*
X43966Y603*
X43973Y60303*
X43979Y60307*
X43997Y60325*
X43998Y60326*
X44006Y60329*
X44013Y60334*
X44018Y60341*
X4402Y60347*
X44025Y60348*
X44065Y60307*
Y60175*
X4406Y60174*
X44057Y60182*
X44044Y60203*
X44028Y60222*
X44009Y60238*
X43988Y60251*
X43965Y6026*
X43941Y60266*
X43916Y60268*
X43891Y60266*
X43867Y6026*
X43844Y60251*
X43823Y60238*
X43804Y60222*
X43788Y60203*
X43775Y60182*
X43766Y60159*
X4376Y60135*
X43758Y6011*
X4376Y60085*
X43766Y60061*
X43775Y60038*
X43788Y60017*
X43804Y59998*
X43823Y59982*
X43844Y59969*
X43867Y59959*
X43891Y59953*
X43916Y59951*
X43941Y59953*
X43965Y59959*
X43988Y59969*
X44009Y59982*
X44023Y59994*
X44027Y5999*
X43615Y59578*
X43613Y59579*
X436Y59577*
X43588Y59572*
X43578Y59564*
X4357Y59554*
X43566Y59544*
X43561*
X43556Y59554*
X43548Y59564*
X43538Y59572*
X43526Y59577*
X43513Y59579*
X435Y59577*
X43488Y59572*
X43478Y59564*
X4347Y59554*
X43465Y59544*
X4346*
X43456Y59554*
X43448Y59564*
X43438Y59572*
X43426Y59577*
X43413Y59579*
X434Y59577*
X43388Y59572*
X43378Y59564*
X4337Y59554*
X43365Y59544*
X43361*
X43356Y59554*
X43348Y59564*
X43338Y59572*
X43326Y59577*
X43313Y59579*
X433Y59577*
X43288Y59572*
X43278Y59564*
X4327Y59554*
X43265Y59542*
X43263Y59529*
X43265Y59516*
X4327Y59504*
X43278Y59493*
X43288Y59485*
X433Y59481*
X43313Y59479*
X43321Y5948*
X43355Y59446*
X43361Y59442*
X43368Y59439*
X43375Y59438*
X43441*
X43448Y59439*
X43454Y59442*
X4346Y59446*
X43496Y59482*
X435Y59481*
X43508Y59479*
X43541Y59447*
X43547Y59442*
X43553Y5944*
X4356Y59439*
X43748*
X43755Y5944*
X43761Y59442*
X43767Y59447*
X43792Y59472*
X43839*
Y59535*
Y59537*
X43843Y59539*
X43858Y59524*
Y59088*
X43857Y59086*
X43853Y59078*
X43852Y59069*
X43853Y59061*
X43857Y59053*
X43862Y59047*
X43868Y59041*
X43876Y59038*
X43885Y59037*
X43893Y59038*
X43901Y59041*
X43907Y59047*
X43913Y59053*
X43916Y59061*
X43917Y59069*
X43916Y59078*
X43913Y59085*
Y59535*
X43912Y59542*
X43909Y59549*
X43905Y59554*
X43865Y59594*
X4386Y59598*
X43853Y59601*
X43846Y59602*
X43839*
Y59614*
X43747*
Y59535*
Y59504*
X43737Y59493*
X43654*
X43652Y59498*
X43656Y59504*
X43661Y59516*
X43663Y59529*
X43661Y59542*
X4366Y59545*
X44105Y5999*
X4411Y59989*
Y5982*
X44111Y59813*
X44113Y59806*
X44118Y59801*
X44321Y59598*
Y59479*
X44307*
Y59428*
X44286Y59408*
X44281Y59402*
X44279Y59395*
X44278Y59388*
Y59317*
X44273Y59315*
X4427Y59319*
X4419Y59399*
Y59477*
X44209*
Y595*
X44231*
X44232Y59499*
X4424Y59496*
X44248Y59495*
X44257Y59496*
X44264Y59499*
X44271Y59504*
X44276Y59511*
X4428Y59519*
X44281Y59527*
X4428Y59535*
X44276Y59543*
X44271Y5955*
X44264Y59555*
X44257Y59558*
X44248Y59559*
X4424Y59558*
X44232Y59555*
X44231Y59554*
X44209*
Y59578*
X44119*
X44117Y59582*
X44133Y59598*
X44134*
X44142Y59601*
X44149Y59607*
X44154Y59613*
X44157Y59621*
X44158Y59629*
X44157Y59638*
X44154Y59645*
X44149Y59652*
X44142Y59657*
X44134Y59661*
X44126Y59662*
X44117Y59661*
X4411Y59657*
X44103Y59652*
X44098Y59645*
X44095Y59638*
X44094Y59637*
X44052Y59594*
X44048Y59589*
X44045Y59582*
X44044Y59575*
Y59108*
X43885Y58949*
X43864*
X43863Y58954*
X43865Y58955*
X43872Y5896*
X43877Y58967*
X4388Y58974*
X43881Y58983*
X4388Y58991*
X43877Y58999*
X43872Y59006*
X43865Y59011*
X43857Y59014*
X43849Y59015*
X43841Y59014*
X43833Y59011*
X43832Y5901*
X4353*
X43528Y59015*
X43531Y59017*
X43681Y59167*
X43686Y59165*
X43699Y59161*
X43713Y59159*
X43727Y59161*
X4374Y59165*
X43752Y59171*
X43762Y5918*
X43771Y5919*
X43777Y59202*
X43781Y59215*
X43783Y59229*
X43781Y59242*
X43777Y59255*
X43771Y59267*
X43768Y59271*
X4377Y59276*
X43777Y59277*
X4379Y59282*
X43801Y59291*
X4381Y59302*
X43815Y59315*
X43817Y59329*
X43815Y59343*
X4381Y59356*
X43801Y59367*
X4379Y59375*
X43777Y59381*
X43763Y59383*
X43749Y59381*
X43736Y59375*
X43725Y59367*
X43716Y59356*
X43711Y59343*
X43709Y59329*
X43711Y59315*
X43716Y59302*
X43713Y59298*
X43699Y59297*
X43686Y59293*
X43674Y59287*
X43664Y59278*
X43655Y59267*
X43649Y59255*
X43645Y59242*
X43643Y59229*
X43645Y59215*
X43647Y59209*
X43526Y59088*
X43521Y59091*
X43527Y59102*
X43531Y59115*
X43533Y59129*
X43531Y59142*
X43527Y59155*
Y59157*
X43529Y59161*
X4354Y59165*
X43552Y59171*
X43562Y5918*
X43571Y5919*
X43577Y59202*
X43581Y59215*
X43583Y59229*
X43582Y59232*
X43601Y59237*
X43618Y59247*
X43633Y59259*
X43645Y59274*
X43654Y59291*
X4366Y59309*
X43662Y59329*
X4366Y59348*
X43654Y59367*
X43645Y59384*
X43633Y59399*
X43618Y59411*
X43601Y5942*
X43582Y59426*
X43563Y59428*
X43544Y59426*
X43525Y5942*
X43508Y59411*
X43493Y59399*
X43481Y59384*
X43472Y59367*
X43466Y59348*
X43465Y59342*
X4346*
Y59348*
X43454Y59367*
X43445Y59384*
X43433Y59399*
X43418Y59411*
X43401Y5942*
X43382Y59426*
X43363Y59428*
X43344Y59426*
X43325Y5942*
X43308Y59411*
X43293Y59399*
X43281Y59384*
X43274Y5937*
X43269*
X43268*
X43266Y59376*
X43261Y59382*
X43215Y59428*
Y59479*
X43141*
Y60005*
X4321Y60074*
X43215Y60073*
X43216Y60065*
X43221Y60052*
X4323Y60041*
X43241Y60032*
X43254Y60027*
X43268Y60025*
X43282Y60027*
X43295Y60032*
X43306Y60041*
X43315Y60052*
X4332Y60051*
Y5999*
X43321Y59983*
X43323Y59976*
X43328Y59971*
X43343Y59955*
Y59943*
X43341*
X43329Y59937*
X43319Y59928*
X4331Y59917*
X43304Y59905*
X433Y59892*
X43298Y59879*
X433Y59865*
X43304Y59852*
X4331Y5984*
X43319Y5983*
X43329Y59821*
X43341Y59815*
X43354Y59811*
X43368Y59809*
X43382Y59811*
X43395Y59815*
X43407Y59821*
X43417Y5983*
X43426Y5984*
X43432Y59852*
X43436Y59865*
X43438Y59879*
X43436Y59892*
X43432Y59905*
X43426Y59917*
X43417Y59928*
X43407Y59937*
X43397Y59941*
Y59967*
Y59974*
X43394Y5998*
X43389Y59986*
X43374Y60001*
Y60035*
X43379Y60036*
X43386Y60024*
X43398Y60009*
X43413Y59997*
X4343Y59987*
X43449Y59982*
X43468Y5998*
X43487Y59982*
X43506Y59987*
X43523Y59997*
X43538Y60009*
X4355Y60024*
X43559Y60041*
X43565Y60059*
X43567Y60079*
X43565Y60098*
X43559Y60117*
X4355Y60134*
X43538Y60149*
X43523Y60161*
X43506Y6017*
X43487Y60176*
X43468Y60178*
X43449Y60176*
X4343Y6017*
X43413Y60161*
X43398Y60149*
X43386Y60134*
X43377Y60117*
X43376Y60114*
X43371*
Y60115*
X43366Y6012*
X43322Y60165*
Y60215*
X4318*
Y6021*
X43175Y60208*
X43031Y60352*
Y60373*
X43104*
Y60468*
X4309*
Y60499*
X43156Y60565*
X43169Y60561*
X43183Y60559*
X43197Y60561*
X4321Y60565*
X43222Y60571*
X43232Y6058*
X43241Y6059*
X43247Y60602*
X43251Y60615*
X43253Y60629*
X43251Y60642*
X43247Y60655*
X43241Y60667*
X43232Y60678*
X43222Y60687*
X4321Y60693*
X43197Y60697*
X43183Y60698*
X43169Y60697*
X43156Y60693*
X43144Y60687*
X43134Y60678*
X43125Y60667*
X43119Y60655*
X43115Y60642*
X43113Y60629*
X43115Y60615*
X43118Y60604*
X43043Y6053*
X43039Y60524*
X43036Y60518*
Y60511*
Y60468*
X42962*
Y60373*
X42976*
Y60341*
X42977Y60334*
X4298Y60327*
X42984Y60322*
X43158Y60149*
X43163Y60144*
X4317Y60142*
X43177Y60141*
X4318*
Y60121*
X43095Y60036*
X4309Y6003*
X43088Y60024*
X43087Y60017*
Y59479*
X43072*
Y59428*
X43039Y59395*
X43034Y59389*
X43032Y59383*
X43031Y59376*
Y59196*
X43032Y59189*
X43034Y59182*
X43039Y59177*
X4322Y58995*
X43226Y58991*
X43232Y58988*
X43239Y58987*
X43309*
X43333Y58963*
X43338Y58959*
X43345Y58956*
X43352*
X43523*
Y58886*
X43497*
X4349Y58885*
X43484Y58882*
X43478Y58878*
X43428Y58828*
X43426Y58829*
X43413Y58827*
X43401Y58822*
X43391Y58814*
X43383Y58804*
X43378Y58792*
X43376Y58779*
X43378Y58766*
X43383Y58754*
X43391Y58743*
X43397Y58738*
X43396Y58733*
X43305*
X43268Y5877*
X4327Y58775*
X43281Y58774*
X43287*
Y58768*
X43291Y58759*
X43298Y58751*
X43306Y58744*
X43316Y5874*
X43321*
Y58779*
X43326*
Y58784*
X43365*
Y58789*
X43361Y58799*
X43354Y58807*
X43349Y58811*
X43355Y58823*
X4336Y58839*
X43362Y58854*
X4336Y5887*
X43355Y58885*
X43348Y58899*
X43338Y58911*
X43326Y58921*
X43312Y58929*
X43297Y58933*
X43281Y58935*
X43265Y58933*
X4325Y58929*
X43237Y58921*
X43224Y58911*
X43214Y58899*
X43207Y58885*
X43202Y5887*
X43201Y58854*
X43202Y58839*
X43207Y58823*
X43208Y58821*
X43205Y58817*
X43136*
X43129Y58816*
X43125Y58815*
X43122Y58813*
X43116Y58809*
X43093Y58786*
X43088Y5878*
X43086Y58773*
X43085Y58766*
Y58762*
X4307*
Y58711*
X43045Y58686*
X43044*
X43039Y58681*
X43034Y58676*
X43032Y58669*
X43031Y58662*
Y58507*
X43032Y585*
X43034Y58493*
X43039Y58488*
X43085Y58442*
Y58187*
Y58186*
Y58185*
Y58111*
X43071*
Y58016*
X43133*
X43135Y58012*
X43067Y57943*
X43063Y57938*
X4306Y57931*
X43059Y57924*
Y57702*
X4306Y57695*
X43063Y57689*
X43067Y57683*
X43147Y57603*
X43153Y57599*
X43156Y57598*
X43159Y57596*
X43166Y57595*
X43203*
X43205Y5759*
X43214Y5758*
X43224Y57571*
X43236Y57565*
X43249Y57561*
X43263Y57559*
X43277Y57561*
X4329Y57565*
X43302Y57571*
X43308Y57576*
X43312Y5758*
X43323Y57571*
X43335Y57565*
X43348Y57561*
X43361Y57559*
X43375Y57561*
X43388Y57565*
X434Y57571*
X43411Y5758*
X43419Y5759*
X43426Y57602*
X4343Y57615*
X43431Y57629*
X4343Y57642*
X43426Y57655*
X43419Y57667*
X43411Y57678*
X434Y57687*
X43388Y57693*
X43375Y57697*
X43361Y57698*
X43348Y57697*
X43335Y57693*
X43323Y57687*
X43316Y57681*
X43312Y57678*
X43302Y57687*
X4329Y57693*
X43277Y57697*
X43263Y57698*
X43249Y57697*
X43236Y57693*
X43224Y57687*
X43214Y57678*
X43205Y57667*
X43199Y57655*
X43197Y5765*
X43178*
X43114Y57714*
Y57798*
X43118Y57799*
X43125Y57791*
X43136Y57782*
X43149Y57777*
X43163Y57775*
X43177Y57777*
X4319Y57782*
X43201Y57791*
X4321Y57802*
X43215*
X43223Y57791*
X43234Y57782*
X43247Y57777*
X43261Y57775*
X43275Y57777*
X43279Y57778*
X43281Y57774*
X43293Y57759*
X43308Y57747*
X43325Y57737*
X43344Y57732*
X43363Y5773*
X43382Y57732*
X43401Y57737*
X43412Y57744*
X43424Y57737*
X43442Y57732*
X43444Y5773*
X43443Y57729*
X43445Y57715*
X43449Y57702*
X43455Y5769*
X43464Y5768*
X43474Y57671*
X43486Y57665*
X43499Y57661*
X43513Y57659*
X43527Y57661*
X4354Y57665*
X43552Y57671*
X43558Y57676*
X43562Y5768*
X43573Y57671*
X43585Y57665*
X43598Y57661*
X43611Y57659*
X43625Y57661*
X43638Y57665*
X4365Y57671*
X43661Y5768*
X43669Y5769*
X43676Y57702*
X4368Y57715*
X43681Y57729*
X4368Y57742*
X43676Y57755*
X43669Y57767*
X43666Y57771*
X43668Y57776*
X43675Y57777*
X43688Y57782*
X43699Y57791*
X43708Y57802*
X43713Y57815*
X43715Y57829*
X43713Y57843*
X43708Y57856*
X43699Y57867*
X43688Y57875*
X43675Y57881*
X43661Y57883*
X43647Y57881*
X43634Y57875*
X43623Y57867*
X43615Y57856*
X4361*
X43601Y57867*
X4359Y57875*
X43577Y57881*
X43563Y57883*
X43549Y57881*
X43546Y57879*
X43544Y57884*
X43531Y57899*
X43516Y57911*
X43499Y5792*
X43481Y57926*
X43461Y57928*
X43442Y57926*
X43424Y5792*
X43412Y57914*
X43401Y5792*
X43382Y57926*
X43363Y57928*
X43344Y57926*
X43325Y5792*
X43308Y57911*
X43293Y57899*
X43281Y57884*
X43279Y57879*
X43275Y57881*
X43261Y57883*
X43247Y57881*
X43234Y57875*
X43223Y57867*
X43215Y57856*
X4321*
X43201Y57867*
X4319Y57875*
X43177Y57881*
X43163Y57883*
X43149Y57881*
X43136Y57875*
X43125Y57867*
X43118Y57858*
X43114Y5786*
Y57913*
X43191Y5799*
X43195Y57996*
X43198Y58002*
X43199Y58009*
Y58016*
X43213*
Y58103*
X43487*
X43494Y58104*
X43501Y58107*
X43506Y58111*
X43527Y58132*
X43532Y5813*
X43531Y58127*
X43533Y58119*
X43536Y58111*
X43541Y58105*
X43548Y58099*
X43555Y58096*
X43557*
X43599Y58053*
X43605Y58049*
X43612Y58046*
X43613*
X43619Y58045*
X43659*
Y58037*
X43598*
X43592Y58036*
X43591*
X43585Y58033*
X43579Y58029*
X43537Y57986*
X43525*
X43524Y57991*
X43531Y57994*
X4354Y58001*
X43546Y58009*
X4355Y58018*
X43551Y58024*
X43472*
X43473Y58018*
X43477Y58009*
X43483Y58001*
X43491Y57994*
X43498Y57991*
X43497Y57986*
X43486*
X4346Y58012*
X43461Y58016*
X43463Y58029*
X43461Y58042*
X43456Y58054*
X43448Y58064*
X43438Y58072*
X43426Y58077*
X43413Y58079*
X43412*
X43411*
X43398Y58077*
X43386Y58072*
X43376Y58064*
X43368Y58054*
X43363Y58042*
X43361Y58029*
X43363Y58016*
X43368Y58004*
X43376Y57993*
X43386Y57985*
X43398Y5798*
X43411Y57979*
X43412*
X43413*
X43416*
X43455Y5794*
X43461Y57936*
X43468Y57933*
X43475Y57932*
X43548*
X43555Y57933*
X43562Y57936*
X43567Y5794*
X4361Y57982*
X43659*
Y5797*
X4375*
Y58033*
Y58037*
X43755Y58038*
X43757Y58033*
X43762Y58027*
X43769Y58021*
X43777Y58018*
X43785Y58017*
X43789Y58018*
X43792Y58014*
Y58013*
X43791Y58004*
X43792Y57996*
X43795Y57988*
X43796Y57987*
Y57714*
X43797Y57707*
X43799Y57701*
X43804Y57695*
X43884Y57615*
Y57614*
X43887Y57606*
X43892Y576*
X43899Y57594*
X43907Y57591*
X43915Y5759*
X43923Y57591*
X43931Y57594*
X43938Y576*
X43943Y57606*
X43946Y57614*
X43947Y57622*
X43946Y57631*
X43943Y57639*
X43938Y57645*
X43931Y5765*
X43923Y57654*
X43922*
X4385Y57726*
Y57987*
X43851Y57988*
X43854Y57996*
X43855Y58004*
X43854Y58013*
X43851Y58021*
X43846Y58027*
X43839Y58032*
X43831Y58036*
X43823Y58037*
X43819Y58036*
X43816Y5804*
Y58041*
X43817Y58049*
X43816Y58058*
X43813Y58066*
X43812*
Y58107*
X43811Y58114*
X4381Y58118*
X43809Y58121*
X43804Y58127*
X43734Y58197*
X43729Y58201*
X43722Y58204*
X43715Y58205*
X43534*
X43528Y58204*
X43527*
X4352Y58201*
X43515Y58197*
X43476Y58158*
X43319*
X43318Y58163*
X43319*
X43336Y58172*
X43351Y58184*
X43363Y58199*
X43373Y58216*
X43378Y58235*
X4338Y58254*
X43378Y58274*
X43373Y58292*
X43363Y58309*
X43351Y58324*
X43336Y58337*
X43335Y58341*
X4334Y58352*
X43344Y58365*
X43346Y58379*
X43344Y58392*
X4334Y58405*
X43334Y58417*
X43325Y58428*
X43315Y58437*
X43304Y58442*
Y58458*
X43303Y58464*
Y58465*
X43301Y58471*
X43296Y58477*
X43266Y58507*
Y58646*
X43265Y58653*
X43263Y5866*
X43258Y58665*
X43213Y58711*
Y58742*
X43217Y58744*
X43274Y58687*
X4328Y58683*
X43286Y5868*
X43287*
X43294Y58679*
X43351*
Y58674*
X43338Y5867*
X43321Y58661*
X43306Y58649*
X43294Y58634*
X43285Y58617*
X43279Y58598*
X43277Y58579*
X43279Y58559*
X43285Y58541*
X43294Y58524*
X43306Y58509*
X43321Y58497*
X43338Y58487*
X43357Y58482*
X43376Y5848*
X43395Y58482*
X43414Y58487*
X43431Y58497*
X43446Y58509*
X43458Y58524*
X43467Y58541*
X43473Y58559*
X43475Y58579*
X43473Y58598*
X43467Y58617*
X43458Y58634*
X43446Y58649*
X43431Y58661*
X43414Y5867*
X43401Y58674*
Y58679*
X43726*
Y58674*
X43713Y5867*
X43696Y58661*
X43681Y58649*
X43669Y58634*
X4366Y58617*
X43654Y58598*
X43652Y58579*
X43654Y58559*
X4366Y58541*
X43669Y58524*
X43681Y58509*
X43696Y58497*
X43713Y58487*
X43732Y58482*
X43751Y5848*
X4377Y58482*
X43789Y58487*
X43806Y58497*
X43821Y58509*
X43833Y58524*
X43842Y58541*
X43848Y58559*
X4385Y58579*
X43848Y58598*
X43842Y58617*
X43833Y58634*
X43821Y58649*
X43806Y58661*
X43789Y5867*
X43776Y58674*
Y58679*
X43877*
X43885Y5868*
X43891Y58683*
X43897Y58687*
X43956Y58746*
X43957Y58747*
X43965Y5875*
X43972Y58755*
X43977Y58762*
X4398Y58769*
X43981Y58778*
X4398Y58786*
X43977Y58794*
X43972Y58801*
X43965Y58806*
X43957Y58809*
X43949Y5881*
X43941Y58809*
X43933Y58806*
X43926Y58801*
X43921Y58794*
X43918Y58786*
Y58785*
X43866Y58733*
X43831*
X4383Y58738*
X43836Y58743*
X43844Y58754*
X43849Y58766*
X43851Y58779*
X43849Y58792*
X43844Y58804*
X43836Y58814*
X43826Y58822*
X43814Y58827*
X43812*
X43811Y5883*
X43806Y58836*
X43764Y58878*
X43758Y58882*
X43752Y58885*
X43745Y58886*
X43614*
Y58895*
X43896*
X43903*
X4391Y58898*
X43916Y58903*
X44069Y59056*
X44074*
X441Y5903*
X44105Y59026*
X44108Y59025*
X44112Y59023*
X44119Y59022*
X44223*
X44405Y5884*
Y5879*
X44319*
X44318Y58792*
X44313Y58804*
X44305Y58814*
X44295Y58822*
Y58823*
Y58824*
X443Y5884*
X44302Y58855*
X443Y58871*
X44295Y58886*
X44288Y589*
X44278Y58912*
X44266Y58922*
X44252Y5893*
X44237Y58934*
X44221Y58936*
X44205Y58934*
X4419Y5893*
X44177Y58922*
X44164Y58912*
X44154Y589*
X44147Y58886*
X44142Y58871*
X44141Y58855*
X44142Y5884*
X44147Y58824*
X44151Y58816*
X4415Y58813*
X44142Y58807*
X44135Y58799*
X44131Y58789*
Y58784*
X4417*
Y58779*
X44175*
Y5874*
X4418*
X4419Y58744*
X44198Y58751*
X44205Y58759*
X44209Y58768*
X4421Y58776*
X44221Y58775*
X44222Y58766*
X44227Y58754*
X44235Y58743*
X44245Y58735*
X44257Y5873*
X4427Y58729*
X44283Y5873*
X44294Y58735*
X44405*
Y58723*
X44496*
Y58786*
Y58798*
X44525*
X44532Y58799*
X44535Y588*
X44547Y58788*
Y58367*
X44446Y58266*
X44444*
X44436Y58263*
X4443Y58258*
X44425Y58251*
X44421Y58243*
X4442Y58235*
X44421Y58226*
X44425Y58219*
X4443Y58212*
X44436Y58207*
X44444Y58204*
X44453Y58202*
X44461Y58204*
X44469Y58207*
X44475Y58212*
X4448Y58219*
X44484Y58226*
X44583Y58326*
X44588Y58324*
Y58283*
X44469Y58165*
X44271*
X4427Y58169*
X44276Y58173*
X44291Y58185*
X44303Y582*
X44313Y58217*
X44318Y58236*
X4432Y58255*
X44318Y58275*
X44313Y58293*
X44303Y5831*
X44291Y58325*
X44276Y58338*
X44259Y58347*
X4424Y58352*
X44221Y58354*
X44202Y58352*
X44187Y58348*
X44184Y58352*
X44188Y58365*
X4419Y58379*
X44188Y58392*
X44184Y58405*
X44178Y58417*
X44169Y58428*
X44159Y58437*
X44147Y58443*
X44134Y58447*
X4412Y58448*
X44106Y58447*
X44093Y58443*
X44081Y58437*
X44071Y58428*
X44062Y58417*
X44056Y58405*
X44052Y58392*
X4405Y58379*
X44052Y58365*
X44053Y5836*
X44018Y58324*
X43977*
Y58344*
X43835*
Y58249*
X43849*
Y58046*
X4385Y58039*
X43853Y58032*
X43857Y58026*
X43871Y58013*
X43877Y58008*
X43879Y58007*
X43883Y58006*
X4389Y58005*
X43997*
Y57984*
X44038*
X4404Y5798*
X43957Y57897*
X43953Y57891*
X4395Y57885*
X43949Y57877*
Y57716*
X4395Y57709*
X43953Y57702*
X43957Y57697*
X44051Y57603*
X44056Y57599*
X44063Y57596*
X44064*
X4407Y57595*
X44145*
X44147Y5759*
X44156Y5758*
X44166Y57571*
X44178Y57565*
X44191Y57561*
X44205Y57559*
X44219Y57561*
X44232Y57565*
X44244Y57571*
X44254Y5758*
X44258Y57584*
X44263*
X44267Y5758*
X44277Y57571*
X44289Y57565*
X44303Y57561*
X44316Y57559*
X4433Y57561*
X44343Y57565*
X44355Y57571*
X44365Y5758*
X44374Y5759*
X44377Y57595*
X44442*
X44444Y5759*
X44453Y5758*
X44463Y57571*
X44475Y57565*
X44488Y57561*
X44502Y57559*
X44516Y57561*
X44529Y57565*
X44541Y57571*
X44551Y5758*
X4456Y5759*
X44566Y57602*
X4457Y57615*
X44572Y57629*
X4457Y57642*
X44566Y57655*
X44575Y5766*
X4458Y57661*
X44593Y57665*
X44605Y57671*
X44615Y5768*
X44624Y5769*
X4463Y57702*
X44634Y57715*
X44636Y57729*
X44635Y57736*
X4464Y57737*
X44657Y57747*
X44672Y57759*
X44684Y57774*
X44693Y57791*
X44699Y57809*
X44701Y57829*
X44699Y57848*
X44693Y57867*
X44684Y57884*
X44672Y57899*
X44657Y57911*
X4464Y5792*
X44621Y57926*
X44602Y57928*
X44583Y57926*
X44564Y5792*
X44547Y57911*
X44532Y57899*
X4452Y57884*
X44518Y57881*
X44505Y57883*
X44499Y57882*
X44498Y57884*
X44486Y57899*
X44471Y57911*
X44454Y5792*
X44435Y57926*
X44416Y57928*
X44397Y57926*
X44378Y5792*
X44361Y57911*
Y5791*
X4436Y57911*
X44343Y5792*
X44324Y57926*
X44305Y57928*
X44286Y57926*
X44267Y5792*
X4425Y57911*
X44235Y57899*
X44223Y57884*
X44222Y57882*
X44216Y57883*
X44202Y57881*
X44189Y57875*
X44178Y57867*
X44169Y57856*
X44164Y57843*
X44163Y57835*
X44158*
X44157Y57843*
X44152Y57856*
X44143Y57867*
X44132Y57875*
X44119Y57881*
X44105Y57883*
X44091Y57881*
X44078Y57875*
X44067Y57867*
X44058Y57856*
X44053Y57843*
X44051Y57829*
X44053Y57815*
X44058Y57802*
X44067Y57791*
X44078Y57782*
X44091Y57777*
X44105Y57775*
X44119Y57777*
X44132Y57782*
X44143Y57791*
X44152Y57802*
X44157Y57815*
X44158Y57822*
X44163*
X44164Y57815*
X44169Y57802*
X44178Y57791*
X44189Y57782*
X44202Y57777*
X44216Y57775*
X44222Y57776*
X44223Y57774*
X44235Y57759*
X4425Y57747*
X44267Y57737*
X44286Y57732*
X44305Y5773*
X44324Y57732*
X44343Y57737*
X4436Y57747*
X44361*
X44378Y57737*
X44386Y57735*
X44385Y57729*
X44387Y57715*
X44391Y57702*
X44397Y5769*
X44406Y5768*
X44416Y57671*
X44428Y57665*
X44437Y57662*
X44439Y57657*
X44438Y57655*
X44436Y5765*
X44382*
X4438Y57655*
X44374Y57667*
X44365Y57678*
X44355Y57687*
X44343Y57693*
X4433Y57697*
X44316Y57698*
X44303Y57697*
X44289Y57693*
X44277Y57687*
X44267Y57678*
X44263Y57673*
X44258*
X44254Y57678*
X44244Y57687*
X44232Y57693*
X44219Y57697*
X44205Y57698*
X44191Y57697*
X44178Y57693*
X44166Y57687*
X44156Y57678*
X44147Y57667*
X44141Y57655*
X44139Y5765*
X44081*
X44003Y57727*
Y57866*
X44117Y5798*
X44121Y57984*
X4414*
Y58076*
X44228*
X44229Y58071*
X4422Y58064*
X44212Y58054*
X44207Y58042*
X44205Y58029*
X44207Y58016*
X44212Y58004*
X4422Y57993*
X4423Y57985*
X44242Y57981*
X44255Y57979*
X44265Y5798*
X44306Y57939*
X44312Y57935*
X44318Y57932*
X44325Y57931*
X44396*
X44403Y57932*
X44409Y57935*
X44415Y57939*
X44456Y5798*
X44466Y57979*
X44476Y5798*
X44517Y57939*
X44523Y57935*
X44529Y57932*
X4453*
X44536Y57931*
X44582*
X44589Y57932*
X44595Y57935*
X44601Y57939*
X44642Y5798*
X44652Y57979*
X44665Y57981*
X44677Y57985*
X44687Y57993*
X44694Y58002*
X44724*
X44737Y57988*
X44743Y57984*
X4475Y57981*
X44757Y5798*
X44795*
Y57968*
X44886*
Y58031*
Y58043*
X44928*
Y58032*
Y57969*
X44975*
X45024Y57919*
X4503Y57915*
X45036Y57912*
X45044*
X45194*
X45196Y57907*
X45186Y57899*
X45174Y57884*
X4517Y57877*
X45162Y57881*
X45148Y57883*
X45134Y57881*
X45121Y57875*
X4511Y57867*
X45105Y5786*
X451*
X45094Y57867*
X45083Y57875*
X4507Y57881*
X45056Y57883*
X45042Y57881*
X45029Y57875*
X45018Y57867*
X45009Y57856*
X45004Y57843*
X45002Y57829*
X45004Y57815*
X45009Y57802*
X45018Y57791*
X45029Y57782*
X45042Y57777*
X45056Y57775*
X4507Y57777*
X45083Y57782*
X45094Y57791*
X451Y57798*
X45105*
X4511Y57791*
X45121Y57782*
X45134Y57777*
X45148Y57775*
X45162Y57777*
X4517Y5778*
X45174Y57774*
X45186Y57759*
X45201Y57747*
X45203Y57745*
X45202Y57741*
X4482*
Y57742*
X44816Y57755*
X4481Y57767*
X44807Y57771*
X44809Y57776*
X44816Y57777*
X44829Y57782*
X4484Y57791*
X44849Y57802*
X44854Y57815*
X44856Y57829*
X44854Y57843*
X44849Y57856*
X4484Y57867*
X44829Y57875*
X44816Y57881*
X44802Y57883*
X44788Y57881*
X44775Y57875*
X44764Y57867*
X44755Y57856*
X4475Y57843*
X44748Y57829*
X4475Y57815*
X44755Y57802*
X44752Y57798*
X44738Y57797*
X44725Y57793*
X44713Y57787*
X44703Y57778*
X44694Y57767*
X44688Y57755*
X44684Y57742*
X44682Y57729*
X44684Y57715*
X44688Y57702*
X44694Y5769*
X44703Y5768*
X44713Y57671*
X44725Y57665*
X44738Y57661*
X44752Y57659*
X44766Y57661*
X44779Y57665*
X44791Y57671*
X44801Y5768*
X44807Y57686*
X45109*
X45111Y57681*
X45107Y57678*
X45098Y57667*
X45092Y57655*
X45088Y57642*
X45086Y57629*
X45088Y57615*
X45092Y57602*
X45098Y5759*
X45107Y5758*
X45117Y57571*
X45129Y57565*
X45142Y57561*
X45156Y57559*
X4517Y57561*
X45183Y57565*
X45195Y57571*
X45202Y57577*
X4521Y57571*
X45222Y57565*
X45235Y57561*
X45248Y57559*
X45262Y57561*
X45275Y57565*
X45287Y57571*
X45297Y5758*
X45306Y5759*
X45309Y57595*
X45417*
X45424Y57596*
X45431Y57599*
X45436Y57603*
X45439Y57606*
X45479*
X45481Y57602*
X45472Y57591*
X45465Y57577*
X4546Y57562*
X45458Y57547*
X4546Y57531*
X45465Y57516*
X45472Y57502*
X45482Y5749*
X45494Y5748*
X45497Y57477*
X45494Y57473*
X45493*
X45485Y57471*
X45481Y57469*
X4302*
X43019*
X43005Y5747*
X42991Y57474*
X42978Y57481*
X42966Y57491*
X42957Y57502*
X42949Y57516*
X42945Y5753*
X42944Y57542*
Y57545*
Y58839*
X43021*
X4304Y5884*
X43058Y58844*
X43075Y58852*
X43091Y58861*
X43105Y58873*
X43118Y58888*
X43127Y58903*
X43134Y58921*
X43139Y58939*
X4314Y58957*
X43139Y58976*
X43134Y58994*
X43127Y59011*
X43118Y59027*
X43105Y59041*
X43091Y59054*
X43075Y59063*
X43058Y5907*
X4304Y59075*
X43021Y59076*
X42944*
Y61109*
X42945Y61112*
X42946Y61127*
X4295Y61141*
X42958Y61154*
X42967Y61166*
X42979Y61175*
X42992Y61182*
X43006Y61187*
X4302Y61188*
X43021*
G37*
G36*
X53243Y59259D02*
X53258Y59246D01*
X53275Y59237*
X53294Y59231*
X53313Y5923*
X5333Y59231*
X53334Y59228*
Y59227*
X53339Y59212*
X53346Y59198*
X53356Y59186*
X53368Y59176*
X53382Y59169*
X53397Y59164*
X53413Y59163*
X53429Y59164*
X53434Y59166*
X53436Y59164*
X53449Y5916*
X53459Y59159*
X5346Y59155*
X53441Y59136*
X53436*
X53428Y59144*
X53423Y59148*
X53416Y59151*
X53409Y59152*
X53278*
X53277Y59155*
X53271Y59167*
X53262Y59178*
X53252Y59186*
X5324Y59193*
X53227Y59197*
X53213Y59198*
X53199Y59197*
X53186Y59193*
X53174Y59186*
X53167Y5918*
X53163Y59184*
X53221Y59241*
X53226Y59247*
X53228Y59254*
X53229Y59261*
Y59268*
X53234Y5927*
X53243Y59259*
G37*
G36*
X51171Y58099D02*
Y5803D01*
Y57999*
X5116Y57988*
X51109*
X51084Y58014*
X51085Y58016*
X51087Y58029*
X51085Y58042*
X5108Y58054*
X51072Y58064*
X51062Y58072*
X5105Y58077*
X51038Y58078*
X51037Y58083*
X51053Y581*
X51156*
X51163Y58101*
X51167Y58102*
X51171Y58099*
G37*
G36*
X45403Y5799D02*
X45409D01*
X45418Y57994*
X45426Y58001*
X45433Y58009*
X45437Y58018*
Y58024*
X45442Y58026*
X45468Y57999*
X45474Y57995*
X45481Y57992*
X45488Y57991*
X46045*
Y57913*
X46055*
Y579*
X46131*
Y57913*
X46141*
Y57927*
X46306*
X46308Y57922*
X46299Y57913*
X46294Y57907*
X46292Y579*
X46291Y57893*
Y57761*
X46192*
X4612Y57833*
Y57864*
X46131*
Y5789*
X46055*
Y57864*
X46066*
Y57824*
X46065Y57821*
X46066Y57818*
Y57759*
X46047Y5774*
X46043Y57734*
X4604Y57728*
X46039Y57721*
Y57705*
X46035*
Y57675*
X46065*
Y5767*
X4607*
Y57634*
X46088*
Y57626*
X46079Y57625*
X46064Y57621*
X4605Y57613*
X46038Y57603*
X46028Y57591*
X46021Y57577*
X46016Y57562*
X46014Y57547*
X46016Y57531*
X46021Y57516*
X46028Y57502*
X46038Y5749*
X4605Y5748*
X46054Y57478*
X46053Y57473*
X46046Y57471*
X46042Y57469*
X45605*
X45601Y57471*
X45593Y57473*
X45584Y57471*
X4558Y57469*
X45573*
X45572Y57474*
X45583Y5748*
X45596Y5749*
X45606Y57502*
X45613Y57516*
X45618Y57531*
X45619Y57547*
X45618Y57562*
X45613Y57577*
X45606Y57591*
X45596Y57603*
X45583Y57613*
X45578Y57616*
X45577Y57621*
X45645Y57689*
X45649Y57695*
X45652Y57701*
Y57702*
X45653Y57708*
Y57888*
X45667*
Y57983*
X45525*
Y57964*
X45489*
X45488Y57965*
X4548Y57968*
X45472Y57969*
X45464Y57968*
X45456Y57965*
X45449Y5796*
X45444Y57953*
X45441Y57945*
X4544Y57937*
X45441Y57928*
X45444Y57921*
X45449Y57914*
X45456Y57909*
X45464Y57906*
X45472Y57904*
X4548Y57906*
X45488Y57909*
X45489Y5791*
X45525*
Y57888*
X45599*
Y57859*
X45594Y57857*
X45586Y57867*
X45575Y57875*
X45562Y57881*
X45548Y57883*
X45534Y57881*
X45521Y57875*
X4551Y57867*
X45505Y5786*
X455*
X45494Y57867*
X45483Y57875*
X4547Y57881*
X45456Y57883*
X45442Y57881*
X45434Y57877*
X4543Y57884*
X45418Y57899*
X45403Y57911*
X45386Y5792*
X45367Y57926*
X45348Y57928*
X45329Y57926*
X4531Y5792*
X45302Y57916*
X45294Y5792*
X45275Y57926*
X45256Y57928*
X4524Y57926*
X45238Y57931*
X45288Y5798*
X45298Y57979*
X45302*
X45306*
X45319Y57981*
X45331Y57985*
X45341Y57993*
X45349Y58004*
X45354Y58016*
X45355Y58019*
X4536*
Y58018*
X45364Y58009*
X4537Y58001*
X45378Y57994*
X45388Y5799*
X45393*
Y58029*
X45403*
Y5799*
G37*
G36*
X4444Y58071D02*
X44431Y58064D01*
X44423Y58054*
X44418Y58042*
X44416Y58029*
X44417Y58019*
X44405Y58006*
X44401Y58009*
X44405Y58018*
Y58024*
X44366*
Y58029*
X44361*
Y58068*
X4436*
Y58029*
X44355*
Y58024*
X44316*
Y58018*
X4432Y58009*
X44316Y58006*
X44304Y58019*
X44305Y58029*
X44303Y58042*
X44298Y58054*
X4429Y58064*
X44281Y58071*
X44282Y58076*
X44439*
X4444Y58071*
G37*
G36*
X47453Y59327D02*
Y5925D01*
X47454Y59243*
X47456Y59236*
X47461Y5923*
X47485Y59206*
Y59197*
X4748*
X47467Y59193*
X47455Y59187*
X47445Y59178*
X47436Y59167*
X4743Y59155*
X47426Y59142*
X47424Y59129*
X47426Y59115*
X47429Y59105*
X47425Y59102*
X47389Y59138*
Y59255*
X47388Y59262*
X47386Y59268*
X47383Y59272*
X47386Y59276*
X47394Y59275*
X47408Y59277*
X47421Y59282*
X47432Y59291*
X47441Y59302*
X47446Y59315*
X47448Y59328*
X47453Y59327*
G37*
G36*
X46804Y5797D02*
D01*
Y57963*
X46801Y57941*
X46685*
X46678Y5794*
X46671Y57937*
X46665Y57932*
X46645Y57912*
X4664Y57914*
Y57942*
Y57958*
X46644Y57962*
X46648Y57961*
X46661*
X46668Y57962*
X46675Y57965*
X46681Y57969*
X46685Y57975*
X46688Y57982*
X46689Y57989*
X46688Y57996*
X46686Y58001*
X46689Y58005*
X46804*
Y5797*
G37*
G36*
X47318Y58041D02*
Y57804D01*
X47294Y5778*
X47281*
Y57797*
X47299*
Y57829*
X47266*
Y57839*
X47299*
Y57872*
X47301Y57874*
X47309*
Y5797*
X47298*
Y5805*
X47309*
X47318Y58041*
G37*
G36*
X43466Y59309D02*
X43472Y59291D01*
X43474Y59286*
X43464Y59278*
X43455Y59267*
X43449Y59255*
X43445Y59242*
X43443Y59229*
X43445Y59215*
X43449Y59202*
Y59201*
X43447Y59196*
X43436Y59193*
X43424Y59187*
X43414Y59178*
X43405Y59167*
X43399Y59155*
X43395Y59142*
X43393Y59129*
X43395Y59115*
X43399Y59102*
X43405Y5909*
X43414Y5908*
X43424Y59071*
X4343Y59068*
X43429Y59063*
X43364*
X43326Y591*
X43327Y59102*
X43331Y59115*
X43333Y59129*
X43331Y59142*
X43327Y59155*
X43321Y59167*
X43312Y59178*
X43302Y59187*
X4329Y59193*
Y59218*
X43289Y59225*
X43287Y59231*
X43282Y59237*
X43269Y5925*
Y59285*
X43274Y59286*
X43281Y59274*
X43293Y59259*
X43308Y59247*
X43325Y59237*
X43344Y59232*
X43363Y5923*
X43382Y59232*
X43401Y59237*
X43418Y59247*
X43433Y59259*
X43445Y59274*
X43454Y59291*
X4346Y59309*
Y59315*
X43465*
X43466Y59309*
G37*
G36*
X52016Y58127D02*
X52017Y58119D01*
X5202Y58111*
X52025Y58105*
X52032Y58099*
X5204Y58096*
X52041*
X52086Y58051*
X52091Y58047*
X52098Y58044*
X52105Y58043*
X52106*
Y58031*
Y58*
X5209Y57984*
X52036*
X52007Y58014*
Y58016*
X52009Y58029*
X52007Y58042*
X52002Y58054*
X51995Y58064*
X51984Y58072*
X51972Y58077*
X51967Y58078*
X51965Y58082*
X52011Y58128*
X52016Y58127*
G37*
M02*